<svg width="176" height="120" viewBox="0 0 176 120" fill="none" xmlns="http://www.w3.org/2000/svg">
<g opacity="0.4">
<rect x="73" y="10" width="4" height="4" rx="2" fill="#FF936B"/>
<rect x="82" y="10" width="4" height="4" rx="2" fill="#FF936B"/>
<rect x="91" y="10" width="4" height="4" rx="2" fill="#FF936B"/>
<rect x="100" y="10" width="4" height="4" rx="2" fill="#FF936B"/>
<rect x="109" y="10" width="4" height="4" rx="2" fill="#FF936B"/>
<rect x="118" y="10" width="4" height="4" rx="2" fill="#FF936B"/>
<rect x="127" y="10" width="4" height="4" rx="2" fill="#FF936B"/>
<rect x="136" y="10" width="4" height="4" rx="2" fill="#FF936B"/>
<rect x="145" y="10" width="4" height="4" rx="2" fill="#FF936B"/>
<rect x="154" y="10" width="4" height="4" rx="2" fill="#FF936B"/>
<rect x="163" y="10" width="4" height="4" rx="2" fill="#FF936B"/>
<rect x="172" y="10" width="4" height="4" rx="2" fill="#FF936B"/>
<rect x="73" width="4" height="4" rx="2" fill="#FF936B"/>
<rect x="82" width="4" height="4" rx="2" fill="#FF936B"/>
<rect x="91" width="4" height="4" rx="2" fill="#FF936B"/>
<rect x="100" width="4" height="4" rx="2" fill="#FF936B"/>
<rect x="109" width="4" height="4" rx="2" fill="#FF936B"/>
<rect x="118" width="4" height="4" rx="2" fill="#FF936B"/>
<rect x="127" width="4" height="4" rx="2" fill="#FF936B"/>
<rect x="136" width="4" height="4" rx="2" fill="#FF936B"/>
<rect x="145" width="4" height="4" rx="2" fill="#FF936B"/>
<rect x="154" width="4" height="4" rx="2" fill="#FF936B"/>
<rect x="163" width="4" height="4" rx="2" fill="#FF936B"/>
<rect x="172" width="4" height="4" rx="2" fill="#FF936B"/>
</g>
<g opacity="0.4">
<rect y="116" width="4" height="4" rx="2" fill="#FF936B"/>
<rect x="9" y="116" width="4" height="4" rx="2" fill="#FF936B"/>
<rect x="18" y="116" width="4" height="4" rx="2" fill="#FF936B"/>
<rect x="27" y="116" width="4" height="4" rx="2" fill="#FF936B"/>
<rect x="36" y="116" width="4" height="4" rx="2" fill="#FF936B"/>
<rect x="45" y="116" width="4" height="4" rx="2" fill="#FF936B"/>
<rect x="54" y="116" width="4" height="4" rx="2" fill="#FF936B"/>
<rect x="63" y="116" width="4" height="4" rx="2" fill="#FF936B"/>
<rect x="72" y="116" width="4" height="4" rx="2" fill="#FF936B"/>
<rect x="81" y="116" width="4" height="4" rx="2" fill="#FF936B"/>
<rect x="90" y="116" width="4" height="4" rx="2" fill="#FF936B"/>
<rect x="99" y="116" width="4" height="4" rx="2" fill="#FF936B"/>
<rect y="106" width="4" height="4" rx="2" fill="#FF936B"/>
<rect x="9" y="106" width="4" height="4" rx="2" fill="#FF936B"/>
<rect x="18" y="106" width="4" height="4" rx="2" fill="#FF936B"/>
<rect x="27" y="106" width="4" height="4" rx="2" fill="#FF936B"/>
<rect x="36" y="106" width="4" height="4" rx="2" fill="#FF936B"/>
<rect x="45" y="106" width="4" height="4" rx="2" fill="#FF936B"/>
<rect x="54" y="106" width="4" height="4" rx="2" fill="#FF936B"/>
<rect x="63" y="106" width="4" height="4" rx="2" fill="#FF936B"/>
<rect x="72" y="106" width="4" height="4" rx="2" fill="#FF936B"/>
<rect x="81" y="106" width="4" height="4" rx="2" fill="#FF936B"/>
<rect x="90" y="106" width="4" height="4" rx="2" fill="#FF936B"/>
<rect x="99" y="106" width="4" height="4" rx="2" fill="#FF936B"/>
</g>
<path d="M119.273 38.6161H81.7501L83.0429 25.6877C84.9226 25.111 86.2933 23.3592 86.2933 21.293C86.2933 18.7586 84.2314 16.6969 81.6972 16.6969H72.3032C69.7688 16.6969 67.7071 18.7588 67.7071 21.293C67.7071 23.3592 69.0778 25.111 70.9575 25.6877L72.2503 38.6161H34.7274C30.4666 38.6161 27 42.0827 27 46.3436V99.5758C27 103.837 30.4666 107.303 34.7274 107.303H119.273C123.534 107.303 127 103.837 127 99.5758V46.3436C127 42.0827 123.534 38.6161 119.273 38.6161ZM70.6366 21.293C70.6366 20.3743 71.3843 19.6266 72.3032 19.6266H81.6972C82.6161 19.6266 83.3636 20.3743 83.3636 21.293C83.3636 22.2116 82.6163 22.959 81.6978 22.9594C81.6944 22.9594 81.6909 22.9594 81.6876 22.9594H72.3093C72.3079 22.9594 72.3063 22.9594 72.305 22.9594H72.303C71.3841 22.9594 70.6366 22.2118 70.6366 21.293ZM80.0782 25.8893L78.8056 38.6163H75.1944L73.9218 25.8893H80.0782ZM119.273 104.373H34.7274C32.082 104.374 29.9297 102.221 29.9297 99.5758V46.3436C29.9297 43.6981 32.082 41.546 34.7274 41.546H119.273C121.918 41.546 124.07 43.6983 124.07 46.3436V99.5758H124.071C124.071 102.221 121.918 104.373 119.273 104.373Z" fill="black"/>
<path d="M80.1316 44.8788H73.8691C73.0602 44.8788 72.4043 45.5346 72.4043 46.3436C72.4043 47.1526 73.0602 47.8085 73.8691 47.8085H80.1316C80.9406 47.8085 81.5965 47.1526 81.5965 46.3436C81.5965 45.5346 80.9406 44.8788 80.1316 44.8788Z" fill="black"/>
<path d="M114.142 56.2727H89.0918C88.2828 56.2727 87.627 56.9286 87.627 57.7376C87.627 58.5465 88.2828 59.2024 89.0918 59.2024H114.142C114.951 59.2024 115.607 58.5465 115.607 57.7376C115.607 56.9286 114.951 56.2727 114.142 56.2727Z" fill="#FF936B"/>
<path d="M107.88 75.0604H89.0918C88.2828 75.0604 87.627 75.7163 87.627 76.5253C87.627 77.3343 88.2828 77.9901 89.0918 77.9901H107.88C108.689 77.9901 109.345 77.3343 109.345 76.5253C109.345 75.7163 108.689 75.0604 107.88 75.0604Z" fill="#FF936B"/>
<path d="M107.88 90.7172H89.0918C88.2828 90.7172 87.627 91.373 87.627 92.182C87.627 92.991 88.2828 93.6469 89.0918 93.6469H107.88C108.689 93.6469 109.345 92.991 109.345 92.182C109.345 91.373 108.689 90.7172 107.88 90.7172Z" fill="#FF936B"/>
<path d="M107.88 82.8887H89.0918C88.2828 82.8887 87.627 83.5445 87.627 84.3535C87.627 85.1625 88.2828 85.8184 89.0918 85.8184H107.88C108.689 85.8184 109.345 85.1625 109.345 84.3535C109.345 83.5445 108.689 82.8887 107.88 82.8887Z" fill="#FF936B"/>
<path d="M98.4858 64.1008H89.0918C88.2828 64.1008 87.627 64.7567 87.627 65.5657C87.627 66.3747 88.2828 67.0305 89.0918 67.0305H98.4858C99.2948 67.0305 99.9506 66.3747 99.9506 65.5657C99.9506 64.7567 99.2948 64.1008 98.4858 64.1008Z" fill="#FF936B"/>
<path d="M107.879 64.1008H104.748C103.939 64.1008 103.283 64.7567 103.283 65.5657C103.283 66.3747 103.939 67.0305 104.748 67.0305H107.879C108.688 67.0305 109.344 66.3747 109.344 65.5657C109.344 64.7567 108.688 64.1008 107.879 64.1008Z" fill="#FF936B"/>
<path d="M116.142 54.2727H91.0918C90.2828 54.2727 89.627 54.9286 89.627 55.7376C89.627 56.5465 90.2828 57.2024 91.0918 57.2024H116.142C116.951 57.2024 117.607 56.5465 117.607 55.7376C117.607 54.9286 116.951 54.2727 116.142 54.2727Z" fill="black"/>
<path d="M109.88 73.0604H91.0918C90.2828 73.0604 89.627 73.7163 89.627 74.5253C89.627 75.3343 90.2828 75.9901 91.0918 75.9901H109.88C110.689 75.9901 111.345 75.3343 111.345 74.5253C111.345 73.7163 110.689 73.0604 109.88 73.0604Z" fill="black"/>
<path d="M109.88 88.7172H91.0918C90.2828 88.7172 89.627 89.373 89.627 90.182C89.627 90.991 90.2828 91.6469 91.0918 91.6469H109.88C110.689 91.6469 111.345 90.991 111.345 90.182C111.345 89.373 110.689 88.7172 109.88 88.7172Z" fill="black"/>
<path d="M109.88 80.8887H91.0918C90.2828 80.8887 89.627 81.5445 89.627 82.3535C89.627 83.1625 90.2828 83.8184 91.0918 83.8184H109.88C110.689 83.8184 111.345 83.1625 111.345 82.3535C111.345 81.5445 110.689 80.8887 109.88 80.8887Z" fill="black"/>
<path d="M100.486 62.1008H91.0918C90.2828 62.1008 89.627 62.7567 89.627 63.5657C89.627 64.3747 90.2828 65.0305 91.0918 65.0305H100.486C101.295 65.0305 101.951 64.3747 101.951 63.5657C101.951 62.7567 101.295 62.1008 100.486 62.1008Z" fill="black"/>
<path d="M109.879 62.1008H106.748C105.939 62.1008 105.283 62.7567 105.283 63.5657C105.283 64.3747 105.939 65.0305 106.748 65.0305H109.879C110.688 65.0305 111.344 64.3747 111.344 63.5657C111.344 62.7567 110.688 62.1008 109.879 62.1008Z" fill="black"/>
<path d="M66.7084 68.6973C66.7084 64.325 63.1514 60.7682 58.7793 60.7682C54.4752 60.7682 50.9637 64.2157 50.8555 68.4942C51.8445 68.1686 53.2141 67.4942 54.6123 66.0959C54.9127 65.7957 55.3279 65.6403 55.752 65.6705C56.1754 65.7006 56.5651 65.9131 56.8199 66.2528C56.9752 66.4561 60.61 71.0952 66.7084 69.2282V68.6973Z" fill="#FF936B"/>
<path d="M71.4804 54.2757C70.7805 53.8703 69.8841 54.1091 69.4786 54.8093C69.0731 55.5093 69.312 56.4056 70.0122 56.8111C76.3165 60.4615 80.2329 67.2492 80.2329 74.5254C80.2329 79.7885 78.2345 84.593 74.9571 88.2217L66.7801 83.549C66.2624 83.2529 65.9405 82.6986 65.9405 82.1022V78.7627C68.7755 76.8014 70.6374 73.5291 70.6374 69.8285V66.6973C70.6374 62.8758 68.6514 59.5117 65.659 57.5757C65.8438 56.983 65.9403 56.3621 65.9403 55.7377C65.9403 52.34 63.1762 49.5759 59.7786 49.5759C56.3809 49.5759 53.6168 52.34 53.6168 55.7377C53.6168 56.3699 53.7125 56.9849 53.8977 57.5759C50.9055 59.5117 48.9198 62.8758 48.9198 66.6971V69.8283C48.9198 73.5289 50.7819 76.8014 53.6168 78.7627V82.1022C53.6168 82.6986 53.2952 83.2531 52.7772 83.549L44.6002 88.2215C41.3229 84.593 39.3242 79.7883 39.3242 74.5252C39.3242 67.2451 43.2438 60.4554 49.5534 56.806C50.2535 56.4009 50.493 55.5048 50.0879 54.8045C49.6828 54.1041 48.7867 53.865 48.0864 54.2699C40.8746 58.4412 36.3945 66.2025 36.3945 74.5252C36.3945 87.4192 46.8846 97.9092 59.7786 97.9092C72.6725 97.9092 83.1626 87.4192 83.1626 74.5252C83.1626 66.2074 78.6862 58.4482 71.4804 54.2757ZM59.7786 52.5056C61.5608 52.5056 63.0106 53.9554 63.0106 55.7377C63.0106 55.9339 62.993 56.1263 62.9594 56.3148C61.953 56.0058 60.885 55.8384 59.7786 55.8384C58.6737 55.8384 57.6073 56.0054 56.6022 56.3134C56.5684 56.1248 56.5465 55.9334 56.5465 55.7377C56.5465 53.9554 57.9963 52.5056 59.7786 52.5056ZM59.7788 58.7681C64.1508 58.7681 67.7079 62.325 67.7079 66.6973V67.2281C61.6094 69.0951 57.9747 64.456 57.8194 64.2527C57.5645 63.9131 57.1749 63.7006 56.7514 63.6705C56.3274 63.6402 55.9122 63.7957 55.6118 64.0959C54.2135 65.4941 52.844 66.1685 51.8549 66.4941C51.9631 62.2156 55.4747 58.7681 59.7788 58.7681ZM51.8496 69.8285V69.525C53.0178 69.2566 54.7498 68.633 56.5567 67.1799C57.1959 67.7828 58.1096 68.5226 59.2731 69.1574C60.6493 69.908 62.5499 70.6023 64.8714 70.6023C65.7536 70.6023 66.6975 70.4998 67.6954 70.2642C67.4684 74.4344 64.0048 77.7576 59.7788 77.7576C55.4067 77.7574 51.8496 74.2006 51.8496 69.8285ZM54.2307 86.0928C55.659 85.2766 56.5465 83.7475 56.5465 82.1022V80.1959C57.5678 80.515 58.6536 80.6871 59.7786 80.6871C60.9036 80.6871 61.9893 80.515 63.0106 80.1959V82.1022C63.0106 83.7475 63.8979 85.2766 65.3264 86.0928L66.7346 86.8975C64.6229 88.0912 62.253 88.7172 59.7786 88.7172C57.3026 88.7172 54.9334 88.0912 52.8223 86.8977L54.2307 86.0928ZM59.7786 94.9799C54.8608 94.9799 50.3434 93.2348 46.8115 90.3323L49.9451 88.5416C52.8325 90.575 56.2151 91.6469 59.7788 91.6469C63.3405 91.6469 66.7255 90.5758 69.6134 88.5424L72.7458 90.3325C69.2139 93.235 64.6964 94.9799 59.7786 94.9799Z" fill="black"/>
</svg>
