<svg width="101" height="100" viewBox="0 0 101 100" fill="none" xmlns="http://www.w3.org/2000/svg">
<path d="M50.6562 86.5C70.8146 86.5 87.1562 70.1584 87.1562 50C87.1562 29.8416 70.8146 13.5 50.6562 13.5C30.4979 13.5 14.1562 29.8416 14.1562 50C14.1562 70.1584 30.4979 86.5 50.6562 86.5Z" fill="url(#paint0_linear_2_1553)"/>
<path d="M97.4614 28.416L86.7734 28.354" stroke="#202127" stroke-width="1.2" stroke-miterlimit="10" stroke-linecap="round" stroke-linejoin="round"/>
<path d="M95.758 40.1721L85.998 35.2361" stroke="#202127" stroke-width="1.2" stroke-miterlimit="10" stroke-linecap="round" stroke-linejoin="round"/>
<path d="M95.7965 16.033L86.1855 21.332" stroke="#202127" stroke-width="1.2" stroke-miterlimit="10" stroke-linecap="round" stroke-linejoin="round"/>
<path d="M34.6574 45.777C34.6574 45.777 43.8294 45.125 49.9384 48.963C58.2064 54.156 51.4194 61.649 45.7444 58.844C42.1044 57.045 38.7494 58.481 36.6734 61.819C34.5974 65.156 30.8264 65.366 25.3164 63.065" stroke="#202127" stroke-width="1.2" stroke-miterlimit="10" stroke-linecap="round" stroke-linejoin="round"/>
<path d="M67.5187 51.897C67.5187 51.897 72.6817 55.681 68.3647 61.852C64.0477 68.023 56.3667 68.086 54.2187 64.124C52.0707 60.162 55.6937 57.389 55.6937 57.389" stroke="#202127" stroke-width="1.2" stroke-miterlimit="10" stroke-linecap="round" stroke-linejoin="round"/>
<path d="M66.1429 64.2251C66.6129 65.1581 67.8349 70.8521 60.7299 74.2461C53.8369 77.5381 46.2519 70.3321 54.9569 65.2891" stroke="#202127" stroke-width="1.2" stroke-miterlimit="10" stroke-linecap="round" stroke-linejoin="round"/>
<path d="M19.0625 84.942C19.0625 84.942 28.8185 84.043 37.5315 80.023C49.1435 74.665 57.4285 75.091 57.4285 75.091" stroke="#202127" stroke-width="1.2" stroke-miterlimit="10" stroke-linecap="round" stroke-linejoin="round"/>
<path d="M46.175 39.738C40.22 40.216 33.945 41.768 27.395 43.808C19.603 46.236 6.54297 47.273 6.54297 47.273" stroke="#202127" stroke-width="1.2" stroke-miterlimit="10" stroke-linecap="round" stroke-linejoin="round"/>
<path d="M59.5318 47.2881C56.4738 48.5141 52.1988 53.1331 55.1198 56.7291C57.8248 60.0591 63.3149 58.7081 66.5799 53.4841C68.7809 49.9631 67.0978 41.2931 58.1938 39.9041" fill="#FF872A"/>
<path d="M59.5318 47.2881C56.4738 48.5141 52.1988 53.1331 55.1198 56.7291C57.8248 60.0591 63.3149 58.7081 66.5799 53.4841C68.7809 49.9631 67.0978 41.2931 58.1938 39.9041" stroke="#202127" stroke-width="1.2" stroke-miterlimit="10" stroke-linecap="round" stroke-linejoin="round"/>
<path d="M45.7461 46.798L46.2251 39.761" stroke="#202127" stroke-width="1.2" stroke-miterlimit="10" stroke-linecap="round" stroke-linejoin="round"/>
<path d="M51.4859 72.3401C50.9539 72.4531 50.3979 72.4941 49.8279 72.4531C46.5569 72.2191 44.0949 69.3781 44.3289 66.1081L44.8679 58.6221" stroke="#202127" stroke-width="1.2" stroke-miterlimit="10" stroke-linecap="round" stroke-linejoin="round"/>
<path d="M58.0975 39.665L57.4805 48.423" stroke="#202127" stroke-width="1.2" stroke-miterlimit="10" stroke-linecap="round" stroke-linejoin="round"/>
<path d="M76.4959 45.634L74.0429 44.156C69.1329 41.197 63.5089 39.634 57.7759 39.634H45.3419C39.2869 39.634 34.3789 34.726 34.3789 28.671C34.3789 22.616 39.2869 17.708 45.3419 17.708H57.6459C63.1589 17.708 68.5759 16.262 73.3559 13.514L76.4969 11.708V45.634H76.4959Z" stroke="#202127" stroke-width="1.2" stroke-miterlimit="10" stroke-linecap="round" stroke-linejoin="round"/>
<path d="M76.5674 22.627C79.0494 23.513 80.8264 25.884 80.8264 28.671C80.8264 31.474 79.0294 33.857 76.5244 34.73" stroke="#202127" stroke-width="1.2" stroke-miterlimit="10" stroke-linecap="round" stroke-linejoin="round"/>
<defs>
<linearGradient id="paint0_linear_2_1553" x1="-22.3438" y1="50" x2="50.6562" y2="123" gradientUnits="userSpaceOnUse">
<stop stop-color="#FBCF33"/>
<stop offset="1" stop-color="#F53939"/>
</linearGradient>
</defs>
</svg>
