<svg width="100" height="100" viewBox="0 0 100 100" fill="none" xmlns="http://www.w3.org/2000/svg">
<path d="M56.1795 33.984L62.8079 27.3563L65.0174 29.5658L58.3889 36.1942L56.1795 33.984Z" fill="#FF936B"/>
<path d="M62.4028 41.3151L71.4596 38.8882L72.2683 41.9071L63.2115 44.3333L62.4028 41.3151Z" fill="#FF936B"/>
<path d="M48.0397 29.1614L50.4666 20.1061L53.4848 20.9148L51.0586 29.9701L48.0397 29.1614Z" fill="#FF936B"/>
<path d="M58.1795 31.984L64.8079 25.3563L67.0174 27.5658L60.3889 34.1942L58.1795 31.984Z" fill="black"/>
<path d="M64.4028 39.3151L73.4596 36.8882L74.2683 39.9071L65.2115 42.3333L64.4028 39.3151Z" fill="black"/>
<path d="M50.0397 27.1614L52.4666 18.1061L55.4848 18.9148L53.0586 27.9701L50.0397 27.1614Z" fill="black"/>
<path d="M25 12.2596H28.125V31.0096H25V12.2596Z" fill="black"/>
<path d="M31.25 12.2596H34.375V24.7596H31.25V12.2596Z" fill="black"/>
<path d="M37.5 12.2596H40.625V18.5096H37.5V12.2596Z" fill="black"/>
<path d="M71.875 59.1346H75V77.8846H71.875V59.1346Z" fill="black"/>
<path d="M65.625 65.3846H68.75V77.8846H65.625V65.3846Z" fill="black"/>
<path d="M59.375 71.6346H62.5V77.8846H59.375V71.6346Z" fill="black"/>
<path d="M96.875 87.2597V41.9472C96.8697 37.6343 93.3754 34.1393 89.0625 34.1347H82.8125V4.41437L76.786 0.195312L72.3221 3.32031L67.8596 0.195312L63.3934 3.32031L58.931 0.195312L54.467 3.32031L50 0.195312L45.5376 3.32031L41.0721 0.195312L36.6081 3.32031L32.1419 0.195312L27.6779 3.32031L23.2109 0.195312L17.1875 4.41437V34.1347H10.9375C6.6246 34.1393 3.13034 37.6343 3.125 41.9472V87.2597H0V91.9472C0.00534059 96.2593 3.4996 99.7543 7.8125 99.7597H92.1875C96.5004 99.7543 99.9947 96.2593 100 91.9472V87.2597H96.875ZM82.8125 46.6347H85.9375V81.0097H82.8125V46.6347ZM20.3125 6.04248L23.214 4.01077L27.681 7.13577L32.1457 4.01077L36.6112 7.13577L41.0751 4.01077L45.5406 7.13577L50.0031 4.01077L54.467 7.13577L58.931 4.01077L63.3934 7.13577L67.8596 4.01077L72.3221 7.13577L76.786 4.01077L79.6875 6.04248V81.0097H20.3125V6.04248ZM6.25 41.9472C6.25 39.3578 8.34885 37.2597 10.9375 37.2597H17.1875V43.5097H10.9375V84.1347H89.0625V43.5097H82.8125V37.2597H89.0625C91.6512 37.2597 93.75 39.3578 93.75 41.9472V87.2597H56.25V88.8222C56.25 89.6851 55.5504 90.3847 54.6875 90.3847H45.3125C44.4496 90.3847 43.75 89.6851 43.75 88.8222V87.2597H6.25V41.9472ZM17.1875 46.6347V81.0097H14.0625V46.6347H17.1875ZM96.875 91.9472C96.875 94.5358 94.7762 96.6347 92.1875 96.6347H7.8125C5.22385 96.6347 3.125 94.5358 3.125 91.9472V90.3847H40.892C41.5565 92.2562 43.3266 93.5066 45.3125 93.5097H54.6875C56.6734 93.5066 58.4435 92.2562 59.108 90.3847H96.875V91.9472Z" fill="black"/>
<path d="M44.9203 54.081L38.2904 47.4518L40.7341 45.0081L45.5154 32.5798L59.7939 46.8575L47.3625 51.6342L44.9203 54.081Z" fill="#FF936B"/>
<path d="M65.4015 48.0408L44.3253 26.9707L38.0547 43.2686L34.9762 46.3471L27.2438 54.0825L38.2904 65.1299L40.4999 62.9204L46.0251 68.4441C47.8554 70.2751 50.8232 70.2759 52.655 68.4456C54.4861 66.6153 54.4868 63.6467 52.6566 61.8157L47.1329 56.292L49.1096 54.316L65.4015 48.0408ZM38.2904 60.7109L31.6628 54.0825L36.0809 49.6628L42.7109 56.292L38.2904 60.7109ZM50.444 64.0251C50.8499 64.4173 51.0132 64.9987 50.8698 65.5449C50.7271 66.0912 50.2998 66.5177 49.7536 66.6603C49.2073 66.8038 48.6267 66.6405 48.2346 66.2346L42.7094 60.7109L44.9203 58.5091L50.444 64.0251ZM44.9203 54.081L38.2904 47.4518L40.7341 45.0081L45.5154 32.5798L59.7939 46.8575L47.3625 51.6342L44.9203 54.081Z" fill="black"/>
<path d="M25.0328 60.7109L27.2423 58.5015L33.8722 65.1299L31.6628 67.3394L25.0328 60.7109Z" fill="black"/>
</svg>
