<svg width="195" height="130" viewBox="0 0 195 130" fill="none" xmlns="http://www.w3.org/2000/svg">
<g opacity="0.4">
<rect x="82" y="15" width="4" height="4" rx="2" fill="#FF936B"/>
<rect x="91" y="15" width="4" height="4" rx="2" fill="#FF936B"/>
<rect x="100" y="15" width="4" height="4" rx="2" fill="#FF936B"/>
<rect x="109" y="15" width="4" height="4" rx="2" fill="#FF936B"/>
<rect x="118" y="15" width="4" height="4" rx="2" fill="#FF936B"/>
<rect x="127" y="15" width="4" height="4" rx="2" fill="#FF936B"/>
<rect x="136" y="15" width="4" height="4" rx="2" fill="#FF936B"/>
<rect x="145" y="15" width="4" height="4" rx="2" fill="#FF936B"/>
<rect x="154" y="15" width="4" height="4" rx="2" fill="#FF936B"/>
<rect x="163" y="15" width="4" height="4" rx="2" fill="#FF936B"/>
<rect x="172" y="15" width="4" height="4" rx="2" fill="#FF936B"/>
<rect x="181" y="15" width="4" height="4" rx="2" fill="#FF936B"/>
<rect x="82" y="5" width="4" height="4" rx="2" fill="#FF936B"/>
<rect x="91" y="5" width="4" height="4" rx="2" fill="#FF936B"/>
<rect x="100" y="5" width="4" height="4" rx="2" fill="#FF936B"/>
<rect x="109" y="5" width="4" height="4" rx="2" fill="#FF936B"/>
<rect x="118" y="5" width="4" height="4" rx="2" fill="#FF936B"/>
<rect x="127" y="5" width="4" height="4" rx="2" fill="#FF936B"/>
<rect x="136" y="5" width="4" height="4" rx="2" fill="#FF936B"/>
<rect x="145" y="5" width="4" height="4" rx="2" fill="#FF936B"/>
<rect x="154" y="5" width="4" height="4" rx="2" fill="#FF936B"/>
<rect x="163" y="5" width="4" height="4" rx="2" fill="#FF936B"/>
<rect x="172" y="5" width="4" height="4" rx="2" fill="#FF936B"/>
<rect x="181" y="5" width="4" height="4" rx="2" fill="#FF936B"/>
</g>
<g opacity="0.4">
<rect x="9" y="121" width="4" height="4" rx="2" fill="#FF936B"/>
<rect x="18" y="121" width="4" height="4" rx="2" fill="#FF936B"/>
<rect x="27" y="121" width="4" height="4" rx="2" fill="#FF936B"/>
<rect x="36" y="121" width="4" height="4" rx="2" fill="#FF936B"/>
<rect x="45" y="121" width="4" height="4" rx="2" fill="#FF936B"/>
<rect x="54" y="121" width="4" height="4" rx="2" fill="#FF936B"/>
<rect x="63" y="121" width="4" height="4" rx="2" fill="#FF936B"/>
<rect x="72" y="121" width="4" height="4" rx="2" fill="#FF936B"/>
<rect x="81" y="121" width="4" height="4" rx="2" fill="#FF936B"/>
<rect x="90" y="121" width="4" height="4" rx="2" fill="#FF936B"/>
<rect x="99" y="121" width="4" height="4" rx="2" fill="#FF936B"/>
<rect x="108" y="121" width="4" height="4" rx="2" fill="#FF936B"/>
<rect x="9" y="111" width="4" height="4" rx="2" fill="#FF936B"/>
<rect x="18" y="111" width="4" height="4" rx="2" fill="#FF936B"/>
<rect x="27" y="111" width="4" height="4" rx="2" fill="#FF936B"/>
<rect x="36" y="111" width="4" height="4" rx="2" fill="#FF936B"/>
<rect x="45" y="111" width="4" height="4" rx="2" fill="#FF936B"/>
<rect x="54" y="111" width="4" height="4" rx="2" fill="#FF936B"/>
<rect x="63" y="111" width="4" height="4" rx="2" fill="#FF936B"/>
<rect x="72" y="111" width="4" height="4" rx="2" fill="#FF936B"/>
<rect x="81" y="111" width="4" height="4" rx="2" fill="#FF936B"/>
<rect x="90" y="111" width="4" height="4" rx="2" fill="#FF936B"/>
<rect x="99" y="111" width="4" height="4" rx="2" fill="#FF936B"/>
<rect x="108" y="111" width="4" height="4" rx="2" fill="#FF936B"/>
</g>
<path d="M92.1794 50.984L98.8079 44.3563L101.017 46.5658L94.3889 53.1942L92.1794 50.984Z" fill="#FF936B"/>
<path d="M98.4028 58.3151L107.46 55.8882L108.268 58.9071L99.2115 61.3333L98.4028 58.3151Z" fill="#FF936B"/>
<path d="M84.0397 46.1614L86.4666 37.1061L89.4848 37.9148L87.0586 46.9701L84.0397 46.1614Z" fill="#FF936B"/>
<path d="M94.1794 48.984L100.808 42.3563L103.017 44.5658L96.3889 51.1942L94.1794 48.984Z" fill="black"/>
<path d="M100.403 56.3151L109.46 53.8882L110.268 56.9071L101.211 59.3333L100.403 56.3151Z" fill="black"/>
<path d="M86.0397 44.1614L88.4666 35.1061L91.4848 35.9148L89.0586 44.9701L86.0397 44.1614Z" fill="black"/>
<path d="M61 29.2596H64.125V48.0096H61V29.2596Z" fill="black"/>
<path d="M67.25 29.2596H70.375V41.7596H67.25V29.2596Z" fill="black"/>
<path d="M73.5 29.2596H76.625V35.5096H73.5V29.2596Z" fill="black"/>
<path d="M107.875 76.1346H111V94.8846H107.875V76.1346Z" fill="black"/>
<path d="M101.625 82.3846H104.75V94.8846H101.625V82.3846Z" fill="black"/>
<path d="M95.375 88.6346H98.5V94.8846H95.375V88.6346Z" fill="black"/>
<path d="M132.875 104.26V58.9472C132.87 54.6343 129.375 51.1393 125.062 51.1347H118.812V21.4144L112.786 17.1953L108.322 20.3203L103.86 17.1953L99.3934 20.3203L94.931 17.1953L90.467 20.3203L86 17.1953L81.5376 20.3203L77.0721 17.1953L72.6081 20.3203L68.1419 17.1953L63.6779 20.3203L59.2109 17.1953L53.1875 21.4144V51.1347H46.9375C42.6246 51.1393 39.1303 54.6343 39.125 58.9472V104.26H36V108.947C36.0053 113.259 39.4996 116.754 43.8125 116.76H128.188C132.5 116.754 135.995 113.259 136 108.947V104.26H132.875ZM118.812 63.6347H121.938V98.0097H118.812V63.6347ZM56.3125 23.0425L59.214 21.0108L63.681 24.1358L68.1457 21.0108L72.6112 24.1358L77.0751 21.0108L81.5406 24.1358L86.0031 21.0108L90.467 24.1358L94.931 21.0108L99.3934 24.1358L103.86 21.0108L108.322 24.1358L112.786 21.0108L115.688 23.0425V98.0097H56.3125V23.0425ZM42.25 58.9472C42.25 56.3578 44.3488 54.2597 46.9375 54.2597H53.1875V60.5097H46.9375V101.135H125.062V60.5097H118.812V54.2597H125.062C127.651 54.2597 129.75 56.3578 129.75 58.9472V104.26H92.25V105.822C92.25 106.685 91.5504 107.385 90.6875 107.385H81.3125C80.4496 107.385 79.75 106.685 79.75 105.822V104.26H42.25V58.9472ZM53.1875 63.6347V98.0097H50.0625V63.6347H53.1875ZM132.875 108.947C132.875 111.536 130.776 113.635 128.188 113.635H43.8125C41.2238 113.635 39.125 111.536 39.125 108.947V107.385H76.892C77.5565 109.256 79.3266 110.507 81.3125 110.51H90.6875C92.6734 110.507 94.4435 109.256 95.108 107.385H132.875V108.947Z" fill="black"/>
<path d="M80.9203 71.081L74.2904 64.4518L76.7341 62.0081L81.5154 49.5798L95.7939 63.8575L83.3625 68.6342L80.9203 71.081Z" fill="#FF936B"/>
<path d="M101.401 65.0408L80.3252 43.9707L74.0546 60.2686L70.9762 63.3471L63.2438 71.0825L74.2904 82.1299L76.4998 79.9204L82.0251 85.4441C83.8553 87.2751 86.8232 87.2759 88.655 85.4456C90.4861 83.6153 90.4868 80.6467 88.6565 78.8157L83.1328 73.292L85.1096 71.316L101.401 65.0408ZM74.2904 77.7109L67.6627 71.0825L72.0809 66.6628L78.7108 73.292L74.2904 77.7109ZM86.444 81.0251C86.8499 81.4173 87.0132 81.9987 86.8697 82.5449C86.7271 83.0912 86.2998 83.5177 85.7535 83.6603C85.2073 83.8038 84.6267 83.6405 84.2345 83.2346L78.7093 77.7109L80.9203 75.5091L86.444 81.0251ZM80.9203 71.081L74.2904 64.4518L76.7341 62.0081L81.5154 49.5798L95.7938 63.8575L83.3625 68.6342L80.9203 71.081Z" fill="black"/>
<path d="M61.0328 77.7109L63.2423 75.5015L69.8723 82.1299L67.6628 84.3394L61.0328 77.7109Z" fill="black"/>
</svg>
