<svg width="121" height="41" viewBox="0 0 121 41" fill="none" xmlns="http://www.w3.org/2000/svg">
<path d="M82.5149 19.3473V21.6384H81.0789V23.1408H82.5149V28.2458C82.5149 29.9889 83.3035 30.6862 85.2874 30.6862C85.636 30.6862 85.9681 30.6447 86.2586 30.5949V29.1091C86.0096 29.134 85.8519 29.1506 85.5779 29.1506C84.6897 29.1506 84.2996 28.7355 84.2996 27.7892V23.1408H86.2586V21.6384H84.2996V19.3473H82.5149Z" fill="white"/>
<path d="M91.3124 30.8107C93.9521 30.8107 95.5707 29.0427 95.5707 26.1125C95.5707 23.1989 93.9438 21.4225 91.3124 21.4225C88.6728 21.4225 87.0458 23.1989 87.0458 26.1125C87.0458 29.0427 88.6645 30.8107 91.3124 30.8107ZM91.3124 29.2253C89.7602 29.2253 88.8886 28.0881 88.8886 26.1125C88.8886 24.1535 89.7602 23.008 91.3124 23.008C92.8564 23.008 93.7363 24.1535 93.7363 26.1125C93.7363 28.0798 92.8564 29.2253 91.3124 29.2253Z" fill="white"/>
<path d="M96.9556 30.6364H98.7403V25.299C98.7403 24.029 99.6949 23.174 101.048 23.174C101.363 23.174 101.895 23.2321 102.044 23.2819V21.5221C101.853 21.4723 101.513 21.4474 101.247 21.4474C100.068 21.4474 99.064 22.0949 98.8067 22.9831H98.6739V21.5969H96.9556V30.6364Z" fill="white"/>
<path d="M106.475 22.9416C107.795 22.9416 108.658 23.863 108.7 25.2824H104.134C104.234 23.8713 105.155 22.9416 106.475 22.9416ZM108.692 28.196C108.36 28.9015 107.621 29.2917 106.542 29.2917C105.114 29.2917 104.193 28.2873 104.134 26.7018V26.6022H110.518V25.9797C110.518 23.1408 108.999 21.4225 106.484 21.4225C103.935 21.4225 102.317 23.257 102.317 26.1457C102.317 29.0344 103.902 30.8107 106.492 30.8107C108.559 30.8107 110.003 29.8146 110.41 28.196H108.692Z" fill="white"/>
<path d="M70.8114 27.2982C70.949 29.5179 72.7988 30.9375 75.5519 30.9375C78.4943 30.9375 80.3354 29.4491 80.3354 27.0746C80.3354 25.2076 79.2858 24.1752 76.7392 23.5815L75.3712 23.246C73.7538 22.8674 73.0999 22.3598 73.0999 21.4737C73.0999 20.3552 74.1151 19.6239 75.6379 19.6239C77.0833 19.6239 78.0813 20.338 78.262 21.4823H80.1376C80.0257 19.3916 78.1846 17.9204 75.6637 17.9204C72.9536 17.9204 71.1469 19.3916 71.1469 21.6027C71.1469 23.4267 72.1707 24.5107 74.4162 25.0355L76.0165 25.4227C77.6598 25.8098 78.3825 26.3777 78.3825 27.3241C78.3825 28.4253 77.2468 29.2254 75.6982 29.2254C74.0377 29.2254 72.8848 28.4769 72.7213 27.2982H70.8114Z" fill="white"/>
<path d="M52.324 21.4474C51.0955 21.4474 50.033 22.0617 49.4852 23.091H49.3523V21.5969H47.6341V33.6413H49.4187V29.2668H49.5599C50.033 30.2214 51.054 30.7858 52.3406 30.7858C54.6233 30.7858 56.076 28.9846 56.076 26.1125C56.076 23.2404 54.6233 21.4474 52.324 21.4474ZM51.8177 29.1838C50.3235 29.1838 49.3855 28.0051 49.3855 26.1208C49.3855 24.2282 50.3235 23.0495 51.826 23.0495C53.3367 23.0495 54.2415 24.2033 54.2415 26.1125C54.2415 28.03 53.3367 29.1838 51.8177 29.1838Z" fill="white"/>
<path d="M62.3208 21.4474C61.0923 21.4474 60.0298 22.0617 59.482 23.091H59.3491V21.5969H57.6309V33.6413H59.4155V29.2668H59.5567C60.0298 30.2214 61.0508 30.7858 62.3374 30.7858C64.6201 30.7858 66.0728 28.9846 66.0728 26.1125C66.0728 23.2404 64.6201 21.4474 62.3208 21.4474ZM61.8145 29.1838C60.3203 29.1838 59.3823 28.0051 59.3823 26.1208C59.3823 24.2282 60.3203 23.0495 61.8228 23.0495C63.3335 23.0495 64.2383 24.2033 64.2383 26.1125C64.2383 28.03 63.3335 29.1838 61.8145 29.1838Z" fill="white"/>
<path d="M44.4321 30.6364H46.4797L41.9973 18.2215H39.9238L35.4414 30.6364H37.4202L38.5645 27.3413H43.2964L44.4321 30.6364ZM40.8616 20.4757H41.0079L42.806 25.7238H39.0549L40.8616 20.4757Z" fill="white"/>
<path d="M36.6406 8.85718V14.8462H38.803C40.5876 14.8462 41.6211 13.7463 41.6211 11.833C41.6211 9.94873 40.5793 8.85718 38.803 8.85718H36.6406ZM37.5703 9.70386H38.6992C39.9402 9.70386 40.6748 10.4924 40.6748 11.8455C40.6748 13.2192 39.9526 13.9995 38.6992 13.9995H37.5703V9.70386Z" fill="white"/>
<path d="M44.7862 14.9333C46.106 14.9333 46.9153 14.0493 46.9153 12.5842C46.9153 11.1274 46.1019 10.2393 44.7862 10.2393C43.4664 10.2393 42.6529 11.1274 42.6529 12.5842C42.6529 14.0493 43.4622 14.9333 44.7862 14.9333ZM44.7862 14.1406C44.0101 14.1406 43.5743 13.572 43.5743 12.5842C43.5743 11.6047 44.0101 11.032 44.7862 11.032C45.5582 11.032 45.9981 11.6047 45.9981 12.5842C45.9981 13.5679 45.5582 14.1406 44.7862 14.1406Z" fill="white"/>
<path d="M53.8075 10.3264H52.9151L52.11 13.7754H52.0394L51.1097 10.3264H50.2547L49.325 13.7754H49.2586L48.4493 10.3264H47.5445L48.7896 14.8462H49.7069L50.6366 11.5176H50.7071L51.641 14.8462H52.5665L53.8075 10.3264Z" fill="white"/>
<path d="M54.8351 14.8462H55.7274V12.2024C55.7274 11.4968 56.1466 11.0569 56.8065 11.0569C57.4665 11.0569 57.7819 11.418 57.7819 12.1443V14.8462H58.6742V11.9202C58.6742 10.8452 58.1181 10.2393 57.1095 10.2393C56.4289 10.2393 55.9806 10.5422 55.7606 11.0444H55.6942V10.3264H54.8351V14.8462Z" fill="white"/>
<path d="M60.0795 14.8462H60.9719V8.5625H60.0795V14.8462Z" fill="white"/>
<path d="M64.3279 14.9333C65.6477 14.9333 66.457 14.0493 66.457 12.5842C66.457 11.1274 65.6436 10.2393 64.3279 10.2393C63.0081 10.2393 62.1946 11.1274 62.1946 12.5842C62.1946 14.0493 63.0039 14.9333 64.3279 14.9333ZM64.3279 14.1406C63.5518 14.1406 63.116 13.572 63.116 12.5842C63.116 11.6047 63.5518 11.032 64.3279 11.032C65.0998 11.032 65.5398 11.6047 65.5398 12.5842C65.5398 13.5679 65.0998 14.1406 64.3279 14.1406Z" fill="white"/>
<path d="M69.1158 14.1697C68.6302 14.1697 68.2774 13.9331 68.2774 13.5264C68.2774 13.1279 68.5596 12.9163 69.1822 12.8748L70.2862 12.8042V13.1819C70.2862 13.7422 69.7881 14.1697 69.1158 14.1697ZM68.8875 14.9209C69.481 14.9209 69.9749 14.6636 70.2447 14.2112H70.3152V14.8462H71.1744V11.7583C71.1744 10.8037 70.5352 10.2393 69.4021 10.2393C68.377 10.2393 67.6465 10.7373 67.5552 11.5134H68.4185C68.5181 11.1938 68.8626 11.0112 69.3606 11.0112C69.9707 11.0112 70.2862 11.281 70.2862 11.7583V12.1484L69.0618 12.219C67.9869 12.2854 67.3809 12.7544 67.3809 13.5679C67.3809 14.3938 68.0159 14.9209 68.8875 14.9209Z" fill="white"/>
<path d="M74.2025 14.9209C74.825 14.9209 75.3521 14.6262 75.6219 14.1323H75.6925V14.8462H76.5475V8.5625H75.6551V11.0444H75.5887C75.3438 10.5464 74.8209 10.2517 74.2025 10.2517C73.0611 10.2517 72.3265 11.1565 72.3265 12.5842C72.3265 14.0161 73.0528 14.9209 74.2025 14.9209ZM74.4557 11.0527C75.2027 11.0527 75.6717 11.6462 75.6717 12.5884C75.6717 13.5347 75.2069 14.1199 74.4557 14.1199C73.7003 14.1199 73.2479 13.543 73.2479 12.5842C73.2479 11.6338 73.7044 11.0527 74.4557 11.0527Z" fill="white"/>
<path d="M82.3339 14.9333C83.6538 14.9333 84.4631 14.0493 84.4631 12.5842C84.4631 11.1274 83.6496 10.2393 82.3339 10.2393C81.0141 10.2393 80.2006 11.1274 80.2006 12.5842C80.2006 14.0493 81.01 14.9333 82.3339 14.9333ZM82.3339 14.1406C81.5578 14.1406 81.122 13.572 81.122 12.5842C81.122 11.6047 81.5578 11.032 82.3339 11.032C83.1059 11.032 83.5458 11.6047 83.5458 12.5842C83.5458 13.5679 83.1059 14.1406 82.3339 14.1406Z" fill="white"/>
<path d="M85.6443 14.8462H86.5366V12.2024C86.5366 11.4968 86.9558 11.0569 87.6157 11.0569C88.2756 11.0569 88.5911 11.418 88.5911 12.1443V14.8462H89.4834V11.9202C89.4834 10.8452 88.9272 10.2393 87.9187 10.2393C87.238 10.2393 86.7898 10.5422 86.5698 11.0444H86.5034V10.3264H85.6443V14.8462Z" fill="white"/>
<path d="M93.5931 9.20166V10.3472H92.8751V11.0984H93.5931V13.6509C93.5931 14.5225 93.9874 14.8711 94.9793 14.8711C95.1537 14.8711 95.3197 14.8503 95.4649 14.8254V14.0825C95.3404 14.095 95.2616 14.1033 95.1246 14.1033C94.6805 14.1033 94.4854 13.8958 94.4854 13.4226V11.0984H95.4649V10.3472H94.4854V9.20166H93.5931Z" fill="white"/>
<path d="M96.6627 14.8462H97.5551V12.2065C97.5551 11.5217 97.9618 11.061 98.6923 11.061C99.3231 11.061 99.6593 11.4263 99.6593 12.1484V14.8462H100.552V11.9285C100.552 10.8535 99.9581 10.2434 98.9953 10.2434C98.3146 10.2434 97.8373 10.5464 97.6173 11.0527H97.5468V8.5625H96.6627V14.8462Z" fill="white"/>
<path d="M103.771 10.9988C104.431 10.9988 104.862 11.4595 104.883 12.1692H102.6C102.65 11.4636 103.111 10.9988 103.771 10.9988ZM104.879 13.626C104.713 13.9788 104.343 14.1738 103.804 14.1738C103.09 14.1738 102.629 13.6716 102.6 12.8789V12.8291H105.792V12.5178C105.792 11.0984 105.032 10.2393 103.775 10.2393C102.501 10.2393 101.691 11.1565 101.691 12.6008C101.691 14.0452 102.484 14.9333 103.779 14.9333C104.812 14.9333 105.535 14.4353 105.738 13.626H104.879Z" fill="white"/>
<path d="M25.7582 20.4475C25.7799 18.7665 26.6827 17.176 28.1148 16.2955C27.2113 15.0052 25.6981 14.1871 24.1236 14.1378C22.4444 13.9615 20.8165 15.1426 19.9607 15.1426C19.0885 15.1426 17.771 14.1553 16.3522 14.1845C14.503 14.2442 12.779 15.2956 11.8793 16.9124C9.94533 20.2608 11.3879 25.1818 13.2405 27.8884C14.1674 29.2138 15.2507 30.6942 16.6682 30.6417C18.0552 30.5842 18.5733 29.7573 20.2476 29.7573C21.9063 29.7573 22.3923 30.6417 23.8386 30.6084C25.3269 30.5842 26.2647 29.2771 27.1591 27.9392C27.825 26.9949 28.3375 25.9511 28.6775 24.8467C26.9284 24.1069 25.7603 22.3467 25.7582 20.4475Z" fill="white"/>
<path d="M23.0266 12.3578C23.8381 11.3836 24.2379 10.1314 24.1411 8.86719C22.9013 8.99741 21.756 9.58997 20.9335 10.5268C20.1292 11.4421 19.7107 12.6723 19.7898 13.8882C21.0301 13.901 22.2494 13.3245 23.0266 12.3578Z" fill="white"/>
<rect x="1.48926" y="0.646484" width="119" height="39" rx="4.5" stroke="white"/>
</svg>
