<svg width="121" height="41" viewBox="0 0 121 41" fill="none" xmlns="http://www.w3.org/2000/svg">
<path d="M82.5149 19.3473V21.6384H81.0789V23.1408H82.5149V28.2458C82.5149 29.9889 83.3035 30.6862 85.2874 30.6862C85.636 30.6862 85.9681 30.6447 86.2586 30.5949V29.1091C86.0096 29.134 85.8519 29.1506 85.5779 29.1506C84.6897 29.1506 84.2996 28.7355 84.2996 27.7892V23.1408H86.2586V21.6384H84.2996V19.3473H82.5149Z" fill="white"/>
<path d="M91.3124 30.8107C93.9521 30.8107 95.5707 29.0427 95.5707 26.1125C95.5707 23.1989 93.9438 21.4225 91.3124 21.4225C88.6728 21.4225 87.0458 23.1989 87.0458 26.1125C87.0458 29.0427 88.6645 30.8107 91.3124 30.8107ZM91.3124 29.2253C89.7602 29.2253 88.8886 28.0881 88.8886 26.1125C88.8886 24.1535 89.7602 23.008 91.3124 23.008C92.8564 23.008 93.7363 24.1535 93.7363 26.1125C93.7363 28.0798 92.8564 29.2253 91.3124 29.2253Z" fill="white"/>
<path d="M96.9556 30.6364H98.7403V25.299C98.7403 24.029 99.6949 23.174 101.048 23.174C101.363 23.174 101.895 23.2321 102.044 23.2819V21.5221C101.853 21.4723 101.513 21.4474 101.247 21.4474C100.068 21.4474 99.064 22.0949 98.8067 22.9831H98.6739V21.5969H96.9556V30.6364Z" fill="white"/>
<path d="M106.475 22.9416C107.795 22.9416 108.658 23.863 108.7 25.2824H104.134C104.234 23.8713 105.155 22.9416 106.475 22.9416ZM108.692 28.196C108.36 28.9015 107.621 29.2917 106.542 29.2917C105.114 29.2917 104.193 28.2873 104.134 26.7018V26.6022H110.518V25.9797C110.518 23.1408 108.999 21.4225 106.484 21.4225C103.935 21.4225 102.317 23.257 102.317 26.1457C102.317 29.0344 103.902 30.8107 106.492 30.8107C108.559 30.8107 110.003 29.8146 110.41 28.196H108.692Z" fill="white"/>
<path d="M70.8114 27.2982C70.949 29.5179 72.7988 30.9375 75.5519 30.9375C78.4943 30.9375 80.3354 29.4491 80.3354 27.0746C80.3354 25.2076 79.2858 24.1752 76.7392 23.5815L75.3712 23.246C73.7538 22.8674 73.0999 22.3598 73.0999 21.4737C73.0999 20.3552 74.1151 19.6239 75.6379 19.6239C77.0833 19.6239 78.0813 20.338 78.262 21.4823H80.1376C80.0257 19.3916 78.1846 17.9204 75.6637 17.9204C72.9536 17.9204 71.1469 19.3916 71.1469 21.6027C71.1469 23.4267 72.1707 24.5107 74.4162 25.0355L76.0165 25.4227C77.6598 25.8098 78.3825 26.3777 78.3825 27.3241C78.3825 28.4253 77.2468 29.2254 75.6982 29.2254C74.0377 29.2254 72.8848 28.4769 72.7213 27.2982H70.8114Z" fill="white"/>
<path d="M52.324 21.4474C51.0955 21.4474 50.033 22.0617 49.4852 23.091H49.3523V21.5969H47.6341V33.6413H49.4187V29.2668H49.5599C50.033 30.2214 51.054 30.7858 52.3406 30.7858C54.6233 30.7858 56.076 28.9846 56.076 26.1125C56.076 23.2404 54.6233 21.4474 52.324 21.4474ZM51.8177 29.1838C50.3235 29.1838 49.3855 28.0051 49.3855 26.1208C49.3855 24.2282 50.3235 23.0495 51.826 23.0495C53.3367 23.0495 54.2415 24.2033 54.2415 26.1125C54.2415 28.03 53.3367 29.1838 51.8177 29.1838Z" fill="white"/>
<path d="M62.3208 21.4474C61.0923 21.4474 60.0298 22.0617 59.482 23.091H59.3491V21.5969H57.6309V33.6413H59.4155V29.2668H59.5567C60.0298 30.2214 61.0508 30.7858 62.3374 30.7858C64.6201 30.7858 66.0728 28.9846 66.0728 26.1125C66.0728 23.2404 64.6201 21.4474 62.3208 21.4474ZM61.8145 29.1838C60.3203 29.1838 59.3823 28.0051 59.3823 26.1208C59.3823 24.2282 60.3203 23.0495 61.8228 23.0495C63.3335 23.0495 64.2383 24.2033 64.2383 26.1125C64.2383 28.03 63.3335 29.1838 61.8145 29.1838Z" fill="white"/>
<path d="M44.4321 30.6364H46.4797L41.9973 18.2215H39.9238L35.4414 30.6364H37.4202L38.5645 27.3413H43.2964L44.4321 30.6364ZM40.8616 20.4757H41.0079L42.806 25.7238H39.0549L40.8616 20.4757Z" fill="white"/>
<path d="M36.6401 8.85718V14.8462H38.8025C40.5872 14.8462 41.6206 13.7463 41.6206 11.833C41.6206 9.94873 40.5789 8.85718 38.8025 8.85718H36.6401ZM37.5698 9.70386H38.6987C39.9397 9.70386 40.6743 10.4924 40.6743 11.8455C40.6743 13.2192 39.9521 13.9995 38.6987 13.9995H37.5698V9.70386Z" fill="white"/>
<path d="M44.7857 14.9333C46.1055 14.9333 46.9148 14.0493 46.9148 12.5842C46.9148 11.1274 46.1014 10.2393 44.7857 10.2393C43.4659 10.2393 42.6524 11.1274 42.6524 12.5842C42.6524 14.0493 43.4617 14.9333 44.7857 14.9333ZM44.7857 14.1406C44.0096 14.1406 43.5738 13.572 43.5738 12.5842C43.5738 11.6047 44.0096 11.032 44.7857 11.032C45.5577 11.032 45.9976 11.6047 45.9976 12.5842C45.9976 13.5679 45.5577 14.1406 44.7857 14.1406Z" fill="white"/>
<path d="M53.807 10.3264H52.9146L52.1095 13.7754H52.0389L51.1092 10.3264H50.2542L49.3246 13.7754H49.2582L48.4488 10.3264H47.544L48.7892 14.8462H49.7064L50.6361 11.5176H50.7066L51.6405 14.8462H52.566L53.807 10.3264Z" fill="white"/>
<path d="M54.8346 14.8462H55.7269V12.2024C55.7269 11.4968 56.1461 11.0569 56.8061 11.0569C57.466 11.0569 57.7814 11.418 57.7814 12.1443V14.8462H58.6737V11.9202C58.6737 10.8452 58.1176 10.2393 57.109 10.2393C56.4284 10.2393 55.9801 10.5422 55.7602 11.0444H55.6937V10.3264H54.8346V14.8462Z" fill="white"/>
<path d="M60.0791 14.8462H60.9714V8.5625H60.0791V14.8462Z" fill="white"/>
<path d="M64.3274 14.9333C65.6472 14.9333 66.4565 14.0493 66.4565 12.5842C66.4565 11.1274 65.6431 10.2393 64.3274 10.2393C63.0076 10.2393 62.1941 11.1274 62.1941 12.5842C62.1941 14.0493 63.0034 14.9333 64.3274 14.9333ZM64.3274 14.1406C63.5513 14.1406 63.1155 13.572 63.1155 12.5842C63.1155 11.6047 63.5513 11.032 64.3274 11.032C65.0994 11.032 65.5393 11.6047 65.5393 12.5842C65.5393 13.5679 65.0994 14.1406 64.3274 14.1406Z" fill="white"/>
<path d="M69.1153 14.1697C68.6297 14.1697 68.2769 13.9331 68.2769 13.5264C68.2769 13.1279 68.5591 12.9163 69.1817 12.8748L70.2857 12.8042V13.1819C70.2857 13.7422 69.7876 14.1697 69.1153 14.1697ZM68.887 14.9209C69.4805 14.9209 69.9744 14.6636 70.2442 14.2112H70.3147V14.8462H71.1739V11.7583C71.1739 10.8037 70.5347 10.2393 69.4017 10.2393C68.3765 10.2393 67.646 10.7373 67.5547 11.5134H68.418C68.5176 11.1938 68.8621 11.0112 69.3601 11.0112C69.9703 11.0112 70.2857 11.281 70.2857 11.7583V12.1484L69.0613 12.219C67.9864 12.2854 67.3804 12.7544 67.3804 13.5679C67.3804 14.3938 68.0154 14.9209 68.887 14.9209Z" fill="white"/>
<path d="M74.202 14.9209C74.8246 14.9209 75.3517 14.6262 75.6214 14.1323H75.692V14.8462H76.547V8.5625H75.6546V11.0444H75.5882C75.3434 10.5464 74.8204 10.2517 74.202 10.2517C73.0606 10.2517 72.326 11.1565 72.326 12.5842C72.326 14.0161 73.0523 14.9209 74.202 14.9209ZM74.4552 11.0527C75.2022 11.0527 75.6712 11.6462 75.6712 12.5884C75.6712 13.5347 75.2064 14.1199 74.4552 14.1199C73.6998 14.1199 73.2474 13.543 73.2474 12.5842C73.2474 11.6338 73.7039 11.0527 74.4552 11.0527Z" fill="white"/>
<path d="M82.3334 14.9333C83.6533 14.9333 84.4626 14.0493 84.4626 12.5842C84.4626 11.1274 83.6491 10.2393 82.3334 10.2393C81.0136 10.2393 80.2001 11.1274 80.2001 12.5842C80.2001 14.0493 81.0095 14.9333 82.3334 14.9333ZM82.3334 14.1406C81.5573 14.1406 81.1215 13.572 81.1215 12.5842C81.1215 11.6047 81.5573 11.032 82.3334 11.032C83.1054 11.032 83.5454 11.6047 83.5454 12.5842C83.5454 13.5679 83.1054 14.1406 82.3334 14.1406Z" fill="white"/>
<path d="M85.6438 14.8462H86.5361V12.2024C86.5361 11.4968 86.9553 11.0569 87.6152 11.0569C88.2751 11.0569 88.5906 11.418 88.5906 12.1443V14.8462H89.4829V11.9202C89.4829 10.8452 88.9268 10.2393 87.9182 10.2393C87.2375 10.2393 86.7893 10.5422 86.5693 11.0444H86.5029V10.3264H85.6438V14.8462Z" fill="white"/>
<path d="M93.5926 9.20166V10.3472H92.8746V11.0984H93.5926V13.6509C93.5926 14.5225 93.9869 14.8711 94.9788 14.8711C95.1532 14.8711 95.3192 14.8503 95.4644 14.8254V14.0825C95.3399 14.095 95.2611 14.1033 95.1241 14.1033C94.68 14.1033 94.485 13.8958 94.485 13.4226V11.0984H95.4644V10.3472H94.485V9.20166H93.5926Z" fill="white"/>
<path d="M96.6622 14.8462H97.5546V12.2065C97.5546 11.5217 97.9613 11.061 98.6918 11.061C99.3226 11.061 99.6588 11.4263 99.6588 12.1484V14.8462H100.551V11.9285C100.551 10.8535 99.9577 10.2434 98.9948 10.2434C98.3141 10.2434 97.8368 10.5464 97.6168 11.0527H97.5463V8.5625H96.6622V14.8462Z" fill="white"/>
<path d="M103.77 10.9988C104.43 10.9988 104.862 11.4595 104.883 12.1692H102.6C102.65 11.4636 103.11 10.9988 103.77 10.9988ZM104.878 13.626C104.712 13.9788 104.343 14.1738 103.803 14.1738C103.09 14.1738 102.629 13.6716 102.6 12.8789V12.8291H105.791V12.5178C105.791 11.0984 105.032 10.2393 103.774 10.2393C102.5 10.2393 101.691 11.1565 101.691 12.6008C101.691 14.0452 102.484 14.9333 103.779 14.9333C104.812 14.9333 105.534 14.4353 105.737 13.626H104.878Z" fill="white"/>
<path d="M25.7582 20.4475C25.7799 18.7665 26.6827 17.176 28.1148 16.2955C27.2113 15.0052 25.6981 14.1871 24.1236 14.1378C22.4444 13.9615 20.8165 15.1426 19.9607 15.1426C19.0885 15.1426 17.771 14.1553 16.3522 14.1845C14.503 14.2442 12.779 15.2956 11.8793 16.9124C9.94533 20.2608 11.3879 25.1818 13.2405 27.8884C14.1674 29.2138 15.2507 30.6942 16.6682 30.6417C18.0552 30.5842 18.5733 29.7573 20.2476 29.7573C21.9063 29.7573 22.3923 30.6417 23.8386 30.6084C25.3269 30.5842 26.2647 29.2771 27.1591 27.9392C27.825 26.9949 28.3375 25.9511 28.6775 24.8467C26.9284 24.1069 25.7603 22.3467 25.7582 20.4475Z" fill="white"/>
<path d="M23.0266 12.3578C23.8381 11.3836 24.2379 10.1314 24.1411 8.86719C22.9013 8.99741 21.756 9.58997 20.9335 10.5268C20.1292 11.4421 19.7107 12.6723 19.7898 13.8882C21.0301 13.901 22.2494 13.3245 23.0266 12.3578Z" fill="white"/>
<rect x="1.48926" y="0.646484" width="119" height="39" rx="4.5" stroke="white"/>
</svg>
