<svg width="72" height="74" viewBox="0 0 72 74" fill="none" xmlns="http://www.w3.org/2000/svg">
<g clip-path="url(#clip0_4_899)">
<path d="M21.108 61.9427C21.108 63.4141 20.8546 64.8132 20.348 66.1402C19.8656 67.4669 19.178 68.637 18.2855 69.65C17.3929 70.6391 16.3315 71.4351 15.1014 72.0381C13.871 72.6171 12.52 72.9065 11.0486 72.9065C10.1319 72.9065 9.27556 72.7738 8.47952 72.5085C7.68349 72.2672 6.93577 71.8691 6.2361 71.3144V72.4001H0.989258V42.3667H6.2724V52.4984C6.87544 52.016 7.58712 51.63 8.40718 51.3404C9.25153 51.051 10.1319 50.9063 11.0486 50.9063C12.327 50.9063 13.5694 51.1957 14.7757 51.7747C15.9818 52.3297 17.0552 53.1014 17.9962 54.0905C18.9369 55.0795 19.6846 56.2495 20.2396 57.6003C20.8186 58.927 21.108 60.3744 21.108 61.9424M15.8248 61.9424C15.8248 60.9774 15.6801 60.097 15.3908 59.301C15.1014 58.505 14.6911 57.8296 14.1604 57.2746C13.6538 56.6956 13.0387 56.2613 12.315 55.9719C11.6153 55.6583 10.8316 55.5016 9.96321 55.5016C9.40823 55.5016 8.76889 55.6222 8.04547 55.8633C7.32177 56.0803 6.71874 56.3699 6.23637 56.7316V66.791C7.37009 67.8284 8.6485 68.347 10.0719 68.347C10.8919 68.347 11.6519 68.1901 12.3513 67.8767C13.075 67.563 13.6901 67.129 14.1967 66.574C14.7034 65.995 15.1014 65.3196 15.3908 64.5476C15.6801 63.7516 15.8248 62.8832 15.8248 61.9422" fill="white"/>
<path d="M45.3406 55.448C45.5344 55.7248 45.7151 56.0251 45.8833 56.3492C46.071 56.6594 46.256 56.9867 46.4378 57.3302L32.7436 66.919C33.2476 67.3023 33.797 67.6242 34.392 67.8851C34.9929 68.1122 35.6184 68.2486 36.2687 68.294C36.9051 68.3196 37.5492 68.2513 38.2014 68.0893C38.8594 67.8936 39.5046 67.5743 40.137 67.1315C40.9077 66.592 41.5884 65.9238 42.1792 65.1272C42.756 64.3109 43.1423 63.4956 43.338 62.6815L47.9238 63.49C47.3609 65.2097 46.6377 66.6582 45.7544 67.8362C44.8772 68.9806 43.8062 69.9955 42.5414 70.881C41.2571 71.7803 39.8855 72.3874 38.4272 72.7016C36.9886 73.0022 35.5706 73.0379 34.1734 72.8089C32.796 72.566 31.4895 72.067 30.2544 71.3124C29.0053 70.5377 27.9447 69.5281 27.0732 68.2831C26.2013 67.0383 25.622 65.7062 25.3353 64.2874C25.0348 62.8488 25.0158 61.4337 25.2785 60.0424C25.5412 58.6511 26.0598 57.331 26.8342 56.0817C27.6089 54.8327 28.6284 53.7654 29.8932 52.8797C31.0985 52.0356 32.4137 51.4537 33.8384 51.1331C35.2495 50.793 36.6566 50.7206 38.0596 50.916C39.4627 51.1114 40.7988 51.5895 42.0676 52.3503C43.3228 53.0914 44.4138 54.1237 45.3406 55.4477M39.7027 56.9218C38.6058 56.0703 37.3941 55.6228 36.0682 55.5793C34.7481 55.5025 33.5448 55.8444 32.4577 56.6055C31.3908 57.3527 30.6676 58.3596 30.2883 59.6265C29.8951 60.8734 29.9111 62.158 30.3363 63.4802L39.7027 56.9218Z" fill="white"/>
<path d="M71.1456 72.4001H65.9351V59.9163C65.9351 59.1686 65.8144 58.5173 65.5731 57.9623C65.3561 57.3833 65.0544 56.9129 64.6684 56.5509C64.2824 56.1649 63.8363 55.8876 63.3297 55.7186C62.8473 55.5256 62.3406 55.4292 61.8099 55.4292C61.0139 55.4292 60.2299 55.5739 59.4579 55.8635C58.6859 56.1289 57.9865 56.5632 57.3591 57.1662V72.4001H52.1123V51.4851H57.3591V53.0411C57.6728 52.7275 58.0588 52.4381 58.5172 52.1727C58.9755 51.9074 59.4459 51.6904 59.9285 51.5214C60.4352 51.3284 60.9416 51.1837 61.4482 51.0871C61.9789 50.9907 62.4856 50.9424 62.968 50.9424C64.0294 50.9424 65.0424 51.1114 66.0074 51.449C66.9965 51.7867 67.8648 52.3054 68.6126 53.0051C69.3846 53.7048 69.9996 54.6094 70.458 55.7189C70.9163 56.8286 71.1454 58.1433 71.1454 59.663V72.4001" fill="white"/>
<g clip-path="url(#clip1_4_899)">
<path fill-rule="evenodd" clip-rule="evenodd" d="M23.9729 27.6165C22.5282 28.3596 21.2925 29.4533 20.3779 30.7838C21.4137 38.6344 28.1133 44.7 36.2378 44.7387H36.2447C44.3692 44.7 51.0691 38.6344 52.1046 30.7838C51.1897 29.4536 49.9543 28.3596 48.5096 27.6165C48.5384 27.9611 48.552 28.3092 48.552 28.6613C48.552 35.4756 43.0492 41.0046 36.2447 41.0468H36.2378C29.4333 41.0046 23.9305 35.4759 23.9305 28.6613C23.9305 28.3092 23.9441 27.9611 23.9729 27.6165Z" fill="white"/>
<path fill-rule="evenodd" clip-rule="evenodd" d="M36.2305 0.803467L14.166 12.7373L20.6494 16.245C20.1592 17.155 19.8293 18.879 19.8293 20.8637V21.5586C19.8293 24.4969 20.5525 26.8626 21.4483 26.8626H21.4862C23.0089 24.1875 25.8839 22.3835 29.1823 22.3835C32.0621 22.3835 34.6208 23.7593 36.2377 25.8887V25.8981C36.2377 25.8981 36.2391 25.8949 36.2401 25.8933C36.2415 25.8951 36.2436 25.8962 36.2449 25.8981V25.8887C37.8618 23.7593 40.4205 22.3835 43.3003 22.3835C46.5985 22.3835 49.4735 24.1878 50.9964 26.8626H51.0341C51.9299 26.8626 52.6531 24.4966 52.6531 21.5586V20.8637C52.6531 18.8792 52.3229 17.1553 51.833 16.245L58.3164 12.7373L36.2516 0.803467L36.2399 0.808272L36.2305 0.803467Z" fill="white"/>
</g>
</g>
<defs>
<clipPath id="clip0_4_899">
<rect width="71" height="73" fill="white" transform="translate(0.989258 0.146484)"/>
</clipPath>
<clipPath id="clip1_4_899">
<rect width="44.3333" height="44.3333" fill="white" transform="translate(14.0742 0.604492)"/>
</clipPath>
</defs>
</svg>
