<svg width="300" height="308" viewBox="0 0 300 308" fill="none" xmlns="http://www.w3.org/2000/svg">
<path d="M94.2731 241.789C94.2731 247.207 93.3401 252.36 91.4743 257.246C89.6976 262.132 87.1659 266.44 83.8793 270.171C80.592 273.813 76.6834 276.745 72.1535 278.966C67.6229 281.098 62.648 282.164 57.2288 282.164C53.853 282.164 50.6994 281.676 47.768 280.699C44.8365 279.81 42.084 278.344 39.5103 276.301V280.299H20.1816V169.698H39.6362V207.009C41.8572 205.233 44.4787 203.811 47.5006 202.745C50.6317 201.676 53.9191 201.135 57.2278 201.146C61.9353 201.146 66.5104 202.212 70.9532 204.344C75.3946 206.387 79.3477 209.23 82.8127 212.872C86.2776 216.515 89.0301 220.824 91.0703 225.798C93.2055 230.684 94.2731 236.014 94.2731 241.789ZM74.8185 241.789C74.8185 238.235 74.2854 234.991 73.2191 232.056C72.1528 229.122 70.6425 226.635 68.6882 224.595C66.8398 222.475 64.5092 220.83 61.8924 219.798C59.3155 218.643 56.4286 218.066 53.2317 218.066C51.1883 218.066 48.8339 218.51 46.1685 219.398C43.5038 220.197 41.2821 221.264 39.5035 222.6V259.644C43.6781 263.464 48.3863 265.374 53.6279 265.374C56.6478 265.374 59.4463 264.797 62.0232 263.642C64.6879 262.487 66.9531 260.888 68.819 258.845C70.6848 256.713 72.1505 254.225 73.2161 251.382C74.2818 248.451 74.8149 245.253 74.8156 241.789" fill="#333333"/>
<path d="M183.511 217.871C184.249 218.932 184.917 220.041 185.509 221.19C186.201 222.332 186.882 223.537 187.551 224.803L137.121 260.114C138.996 261.537 141.034 262.731 143.191 263.672C145.408 264.509 147.737 265.017 150.102 265.178C152.498 265.266 154.895 265.012 157.219 264.424C159.644 263.703 162.02 262.527 164.347 260.896C167.186 258.909 169.692 256.448 171.868 253.516C173.992 250.51 175.415 247.507 176.135 244.509L193.023 247.487C190.95 253.818 188.287 259.153 185.034 263.492C181.803 267.706 177.859 271.443 173.202 274.704C168.472 278.016 163.422 280.251 158.051 281.409C152.753 282.516 147.532 282.647 142.386 281.802C137.313 280.907 132.503 279.07 127.954 276.291C123.353 273.438 119.448 269.72 116.239 265.135C113.03 260.551 110.896 255.646 109.839 250.421C108.732 245.123 108.662 239.913 109.63 234.791C110.597 229.668 112.507 224.806 115.36 220.203C118.212 215.603 121.967 211.671 126.624 208.406C130.997 205.328 135.934 203.143 141.153 201.975C146.35 200.723 151.531 200.457 156.698 201.176C161.865 201.896 166.785 203.656 171.458 206.457C176.08 209.186 180.098 212.987 183.511 217.86V217.871ZM162.749 223.289C158.71 220.153 154.248 218.505 149.365 218.346C144.502 218.062 140.071 219.322 136.069 222.125C132.137 224.877 129.474 228.586 128.08 233.25C126.631 237.842 126.69 242.573 128.257 247.441L162.749 223.289Z" fill="#333333"/>
<path d="M278.539 280.299H259.351V234.326C259.351 231.574 258.906 229.175 258.018 227.13C257.219 224.998 256.108 223.266 254.686 221.933C253.307 220.538 251.617 219.488 249.756 218.869C247.976 218.157 246.076 217.795 244.159 217.802C241.199 217.808 238.265 218.35 235.498 219.402C232.655 220.379 230.079 221.978 227.769 224.199V280.299H208.447V203.278H227.773V209.008C228.928 207.853 230.35 206.787 232.037 205.81C233.69 204.849 235.43 204.046 237.234 203.411C239.049 202.715 240.922 202.18 242.83 201.812C244.677 201.467 246.55 201.289 248.428 201.279C252.238 201.263 256.023 201.895 259.621 203.147C263.192 204.348 266.463 206.302 269.214 208.876C272.057 211.452 274.323 214.784 276.011 218.871C277.699 222.958 278.543 227.799 278.543 233.395V280.301" fill="#333333"/>
<path d="M27.7358 298.06C27.7391 298.428 27.6584 298.792 27.4999 299.124C27.3493 299.442 27.1371 299.726 26.8756 299.962C26.6133 300.196 26.3096 300.38 25.9801 300.504C25.642 300.634 25.2827 300.701 24.9203 300.701L21.3047 300.69V291.843H24.5487C24.9192 291.84 25.2875 291.899 25.638 292.02C25.9644 292.131 26.2653 292.306 26.5227 292.536C26.7797 292.765 26.9828 293.049 27.1175 293.366C27.2636 293.712 27.3363 294.084 27.3308 294.458C27.3308 294.807 27.2522 295.151 27.1007 295.465C26.9474 295.788 26.8166 295.99 26.7075 296.073C26.8081 296.14 26.8999 296.22 26.9808 296.31C27.1388 296.462 27.2754 296.635 27.3868 296.825C27.608 297.202 27.7253 297.63 27.7269 298.067L27.7358 298.06ZM25.2909 294.483C25.2956 294.336 25.2639 294.19 25.1985 294.057C25.1388 293.941 25.053 293.84 24.9479 293.762C24.8341 293.679 24.7062 293.617 24.5704 293.58C24.4206 293.536 24.2653 293.515 24.1093 293.516H23.3711V295.401C23.4035 295.401 23.489 295.401 23.6276 295.401H24.1093C24.2666 295.402 24.4234 295.384 24.5763 295.347C24.711 295.316 24.8387 295.259 24.9528 295.181C25.0561 295.109 25.1409 295.014 25.2005 294.904C25.2648 294.773 25.2959 294.629 25.2909 294.483V294.483ZM25.6075 297.965C25.609 297.83 25.5812 297.695 25.5259 297.572C25.4752 297.456 25.3996 297.353 25.3047 297.27C25.2078 297.184 25.0958 297.118 24.9744 297.073C24.8415 297.025 24.701 297.001 24.5596 297.003C24.3217 296.996 24.0877 296.995 23.8577 297.003C23.6276 297.01 23.4644 297.003 23.3711 297.003V298.892H24.3738C24.531 298.892 24.6877 298.873 24.8407 298.837C24.9829 298.804 25.1181 298.745 25.2398 298.665C25.3492 298.591 25.4406 298.493 25.5072 298.379C25.5769 298.252 25.6109 298.108 25.6055 297.963L25.6075 297.965ZM35.1932 300.682H29.0668V291.842H31.1627V298.669H35.1932V300.682ZM44.8094 296.258C44.8128 296.875 44.6866 297.485 44.4388 298.049C44.2018 298.597 43.859 299.093 43.4302 299.508C42.9983 299.923 42.4929 300.254 41.9399 300.483C40.7798 300.961 39.4784 300.961 38.3183 300.483C37.7634 300.255 37.2562 299.924 36.8231 299.508C36.395 299.094 36.0517 298.601 35.8125 298.055C35.5687 297.487 35.4429 296.875 35.4429 296.256C35.4429 295.637 35.5687 295.025 35.8125 294.457C36.0509 293.909 36.3942 293.414 36.8231 292.999C37.7134 292.145 38.8996 291.669 40.133 291.671C41.0449 291.663 41.939 291.923 42.7045 292.419C43.47 292.914 44.0734 293.623 44.4398 294.458C44.6886 295.024 44.8149 295.636 44.8104 296.254L44.8094 296.258ZM42.7322 296.258C42.7346 295.913 42.665 295.571 42.5277 295.254C42.2601 294.63 41.7631 294.134 41.1397 293.867C40.8219 293.728 40.4788 293.657 40.132 293.658C39.7811 293.656 39.4336 293.727 39.1116 293.867C38.8017 294 38.5199 294.191 38.281 294.429C38.0446 294.666 37.8555 294.946 37.7236 295.254C37.5899 295.571 37.5211 295.912 37.5211 296.256C37.5211 296.6 37.5899 296.941 37.7236 297.258C37.8547 297.568 38.0439 297.849 38.281 298.088C38.5201 298.326 38.8019 298.517 39.1116 298.651C39.4336 298.79 39.7812 298.861 40.132 298.859C40.4791 298.86 40.8226 298.789 41.1406 298.65C41.4502 298.516 41.7317 298.325 41.9703 298.087C42.2077 297.848 42.3972 297.567 42.5287 297.257C42.6648 296.942 42.7344 296.601 42.7332 296.257L42.7322 296.258ZM54.4226 298.938C53.9534 299.53 53.365 300.017 52.6954 300.368C52.0495 300.687 51.337 300.85 50.6163 300.841C49.9855 300.846 49.3601 300.724 48.777 300.483C48.2201 300.256 47.7112 299.925 47.2768 299.508C46.8484 299.095 46.5051 298.601 46.2663 298.055C46.0218 297.488 45.8957 296.877 45.8957 296.259C45.8957 295.641 46.0218 295.03 46.2663 294.462C46.7515 293.353 47.6532 292.479 48.777 292.028C49.3608 291.79 49.9858 291.67 50.6163 291.675C51.3368 291.666 52.0491 291.829 52.6944 292.149C53.351 292.489 53.9293 292.962 54.3921 293.538L52.9461 295.025C52.6046 294.536 52.2442 294.187 51.8647 293.977C51.5182 293.79 51.134 293.683 50.7405 293.664C50.3471 293.646 49.9545 293.716 49.5919 293.87C49.2786 294.004 48.9929 294.195 48.7494 294.434C48.5099 294.671 48.3171 294.95 48.1812 295.259C48.0427 295.575 47.972 295.916 47.9738 296.261C47.9727 296.603 48.0434 296.941 48.1812 297.253C48.3171 297.561 48.5099 297.841 48.7494 298.078C48.9929 298.317 49.2786 298.508 49.5919 298.642C49.9157 298.781 50.265 298.851 50.6172 298.847C51.0629 298.856 51.5026 298.743 51.8893 298.521C52.2583 298.304 52.6171 297.943 52.9657 297.44L54.4226 298.938ZM63.2101 300.682H60.491L57.4386 297.308V300.682H55.3742V291.835H57.4386V295.247L60.5657 291.835H63.0921L59.0941 296.187L63.2101 300.682ZM70.9162 298.937C70.4474 299.529 69.8593 300.016 69.19 300.367C68.5437 300.686 67.8309 300.849 67.1098 300.84C66.4794 300.845 65.8543 300.723 65.2715 300.483C64.7144 300.255 64.2052 299.924 63.7704 299.507C63.3423 299.093 62.999 298.6 62.7599 298.054C62.516 297.487 62.3902 296.876 62.3902 296.258C62.3902 295.64 62.516 295.029 62.7599 294.461C63.2451 293.352 64.1472 292.478 65.2715 292.027C65.855 291.789 66.4797 291.669 67.1098 291.674C67.8304 291.665 68.5427 291.828 69.188 292.148C69.8418 292.489 70.4174 292.963 70.8779 293.538L69.4308 295.025C69.0894 294.536 68.7289 294.187 68.3495 293.977C68.0028 293.79 67.6184 293.683 67.2248 293.664C66.8312 293.646 66.4385 293.716 66.0757 293.87C65.7626 294.004 65.4772 294.195 65.2342 294.434C64.994 294.67 64.8012 294.95 64.666 295.259C64.527 295.575 64.4563 295.916 64.4586 296.261C64.457 296.603 64.5277 296.941 64.666 297.253C64.8012 297.562 64.994 297.842 65.2342 298.078C65.4772 298.317 65.7626 298.508 66.0757 298.642C66.3989 298.782 66.7478 298.853 67.1 298.851C67.5457 298.86 67.9854 298.747 68.3721 298.525C68.7417 298.308 69.1005 297.947 69.4485 297.444L70.9162 298.937ZM78.8789 300.682H76.8145V296.959H73.9253V300.682H71.8609V291.842H73.9253V295.176H76.8027V291.842H78.8671L78.8789 300.682ZM89.6866 300.682H87.4157L86.6361 298.999H82.8268L82.0404 300.682H79.7666L83.9495 291.835H85.4988L89.6866 300.682ZM85.7947 297.207L84.7281 294.915L83.6516 297.208L85.7947 297.207ZM92.6426 300.682H90.5782V291.842H92.6426V300.682ZM101.824 300.682H99.8896L96.4214 295.308V300.685H94.3865V291.838H96.5492L99.7795 296.81V291.838H101.814L101.824 300.682Z" fill="black"/>
<path d="M119.374 300.682H113.383V291.842H119.374V293.625H115.419V295.198H119.319V296.949H115.419V298.827H119.374V300.682ZM129.448 296.259C129.452 296.844 129.347 297.426 129.138 297.973C128.941 298.492 128.648 298.968 128.273 299.378C127.891 299.794 127.426 300.126 126.907 300.35C126.389 300.575 125.829 300.689 125.264 300.683H121.528V291.836H125.264C125.844 291.83 126.418 291.952 126.946 292.193C127.447 292.419 127.899 292.743 128.273 293.146C128.649 293.555 128.943 294.032 129.138 294.552C129.346 295.098 129.451 295.677 129.448 296.262V296.259ZM127.361 296.212C127.369 295.86 127.313 295.509 127.195 295.177C127.084 294.864 126.913 294.575 126.69 294.329C126.466 294.084 126.191 293.89 125.884 293.761C125.542 293.617 125.174 293.546 124.803 293.552H123.6V298.861H124.803C125.167 298.867 125.529 298.8 125.868 298.664C126.168 298.54 126.44 298.353 126.663 298.116C126.886 297.874 127.058 297.59 127.17 297.281C127.295 296.939 127.362 296.579 127.367 296.215L127.361 296.212ZM139.403 291.833V296.616C139.408 297.174 139.318 297.729 139.138 298.257C138.971 298.75 138.708 299.205 138.363 299.596C138.019 299.984 137.596 300.293 137.122 300.502C136.065 300.938 134.878 300.94 133.818 300.508C133.343 300.304 132.915 300.003 132.562 299.624C132.211 299.24 131.94 298.789 131.765 298.299C131.577 297.777 131.484 297.226 131.489 296.671V291.836H133.553V296.682C133.551 296.966 133.592 297.249 133.677 297.521C133.752 297.765 133.874 297.993 134.037 298.19C134.196 298.381 134.395 298.533 134.621 298.637C134.875 298.749 135.151 298.804 135.429 298.799C135.716 298.806 136.001 298.754 136.267 298.645C136.49 298.55 136.688 298.404 136.844 298.219C137.003 298.024 137.122 297.8 137.193 297.559C137.276 297.281 137.317 296.992 137.313 296.702V291.836L139.403 291.833ZM149.865 298.938C149.396 299.531 148.808 300.018 148.139 300.368C147.492 300.687 146.779 300.85 146.058 300.842C145.428 300.846 144.803 300.724 144.22 300.484C143.663 300.256 143.154 299.925 142.72 299.509C142.291 299.095 141.948 298.601 141.708 298.056C141.465 297.488 141.339 296.877 141.339 296.259C141.339 295.641 141.465 295.03 141.708 294.463C142.194 293.353 143.096 292.479 144.22 292.029C144.804 291.791 145.428 291.67 146.058 291.675C146.779 291.666 147.492 291.829 148.138 292.149C148.793 292.488 149.371 292.961 149.834 293.536L148.387 295.022C148.046 294.534 147.685 294.184 147.306 293.974C146.959 293.787 146.575 293.68 146.181 293.661C145.788 293.643 145.395 293.713 145.032 293.867C144.719 294.001 144.434 294.193 144.191 294.431C143.95 294.667 143.758 294.947 143.622 295.256C143.483 295.572 143.413 295.913 143.415 296.259C143.413 296.6 143.484 296.938 143.622 297.25C143.758 297.559 143.95 297.839 144.191 298.075C144.434 298.314 144.719 298.505 145.032 298.639C145.355 298.779 145.704 298.85 146.056 298.848C146.502 298.857 146.942 298.744 147.329 298.523C147.698 298.305 148.059 297.944 148.41 297.441L149.865 298.938ZM160.58 300.683H158.309L157.53 299H153.727L152.941 300.683H150.669L154.852 291.836H156.404L160.58 300.683ZM156.688 297.208L155.629 294.915L154.553 297.208H156.688ZM167.021 293.729H164.697V300.682H162.609V293.729H160.284V291.842H167.021V293.729ZM171.027 300.682H168.963V291.842H171.027V300.682ZM182.544 296.259C182.548 296.875 182.422 297.485 182.174 298.05C181.937 298.598 181.594 299.093 181.165 299.509C180.733 299.924 180.228 300.254 179.675 300.484C178.515 300.961 177.213 300.961 176.053 300.484C175.499 300.255 174.992 299.924 174.559 299.509C174.13 299.095 173.787 298.601 173.547 298.056C173.304 297.487 173.178 296.875 173.178 296.256C173.178 295.637 173.304 295.025 173.547 294.457C173.786 293.909 174.13 293.414 174.559 292.999C175.449 292.147 176.635 291.672 177.867 291.675C178.779 291.667 179.673 291.927 180.438 292.423C181.204 292.918 181.807 293.627 182.174 294.463C182.423 295.028 182.549 295.64 182.544 296.259V296.259ZM180.468 296.259C180.47 295.913 180.4 295.571 180.264 295.254C179.995 294.631 179.498 294.135 178.875 293.867C178.554 293.729 178.21 293.658 177.861 293.658C177.513 293.658 177.168 293.729 176.848 293.867C176.224 294.134 175.726 294.63 175.459 295.254C175.325 295.571 175.256 295.912 175.256 296.256C175.256 296.6 175.325 296.941 175.459 297.258C175.59 297.568 175.78 297.849 176.017 298.088C176.257 298.326 176.54 298.517 176.852 298.65C177.172 298.787 177.517 298.858 177.865 298.858C178.213 298.858 178.558 298.787 178.879 298.65C179.188 298.516 179.47 298.325 179.708 298.087C179.946 297.849 180.136 297.567 180.268 297.257C180.403 296.942 180.473 296.601 180.472 296.258L180.468 296.259ZM192.097 300.682H190.162L186.701 295.305V300.682H184.666V291.835H186.828L190.059 296.807V291.835H192.095L192.097 300.682Z" fill="black"/>
<path d="M212.745 300.682H210.81L207.349 295.305V300.682H205.314V291.835H207.477L210.707 296.807V291.835H212.742L212.745 300.682ZM222.549 300.682H216.56V291.842H222.549V293.625H218.594V295.198H222.496V296.949H218.594V298.827H222.549V300.682ZM232.247 293.729H229.923V300.682H227.836V293.729H225.511V291.842H232.248L232.247 293.729ZM246.783 291.832L243.906 300.679H242.155L240.771 296.028L239.378 300.679H237.625L234.75 291.832H236.933L238.537 296.74L239.924 291.832H241.595L242.981 296.752L244.605 291.832H246.783ZM258.564 296.256C258.568 296.872 258.441 297.482 258.194 298.047C257.957 298.595 257.614 299.09 257.185 299.506C256.753 299.921 256.248 300.251 255.695 300.481C254.535 300.958 253.233 300.958 252.073 300.481C251.518 300.252 251.011 299.921 250.578 299.506C250.15 299.092 249.807 298.598 249.567 298.053C249.324 297.484 249.198 296.872 249.198 296.253C249.198 295.635 249.324 295.022 249.567 294.454C249.806 293.907 250.15 293.413 250.579 292.998C251.012 292.583 251.519 292.253 252.075 292.028C252.93 291.675 253.868 291.58 254.776 291.753C255.684 291.926 256.522 292.361 257.187 293.003C257.614 293.42 257.957 293.915 258.196 294.462C258.444 295.028 258.571 295.64 258.566 296.258L258.564 296.256ZM256.488 296.256C256.49 295.91 256.42 295.568 256.284 295.251C256.015 294.628 255.518 294.132 254.895 293.864C254.574 293.727 254.229 293.656 253.881 293.656C253.533 293.656 253.188 293.727 252.867 293.864C252.243 294.13 251.745 294.627 251.478 295.251C251.345 295.568 251.276 295.909 251.276 296.253C251.276 296.598 251.345 296.938 251.478 297.256C251.61 297.565 251.799 297.846 252.036 298.085C252.275 298.323 252.557 298.514 252.867 298.649C253.188 298.785 253.533 298.856 253.881 298.856C254.229 298.856 254.574 298.785 254.895 298.649C255.519 298.38 256.017 297.881 256.284 297.256C256.419 296.94 256.489 296.599 256.488 296.256V296.256ZM268.951 300.679H266.603L265.955 298.615C265.9 298.43 265.827 298.252 265.737 298.081C265.66 297.933 265.561 297.798 265.442 297.681C265.324 297.57 265.184 297.484 265.032 297.429C264.846 297.364 264.651 297.333 264.455 297.337H264.061V300.679H262.016V291.839L265.555 291.829C265.924 291.825 266.291 291.892 266.636 292.026C266.961 292.151 267.257 292.34 267.507 292.582C267.752 292.821 267.947 293.106 268.08 293.421C268.22 293.75 268.291 294.105 268.288 294.464C268.288 294.731 268.246 294.996 268.162 295.25C268.079 295.5 267.959 295.736 267.807 295.951C267.653 296.166 267.469 296.357 267.26 296.519C267.049 296.684 266.921 296.743 266.879 296.694C266.972 296.664 267.113 296.754 267.302 296.964C267.495 297.179 267.646 297.43 267.747 297.702C267.797 297.822 267.844 297.943 267.886 298.065L268.017 298.441C268.063 298.57 268.116 298.71 268.165 298.862C268.214 299.013 268.276 299.179 268.34 299.362C268.416 299.591 268.485 299.784 268.549 299.941C268.665 300.198 268.8 300.445 268.953 300.681L268.951 300.679ZM266.209 294.585C266.211 294.43 266.18 294.277 266.117 294.136C266.057 294.005 265.972 293.886 265.866 293.786C265.758 293.683 265.63 293.603 265.49 293.551C265.339 293.495 265.18 293.466 265.019 293.467H264.059V295.649H265.019C265.181 295.651 265.341 295.626 265.495 295.575C265.633 295.528 265.761 295.455 265.871 295.359C265.98 295.262 266.067 295.143 266.126 295.009C266.184 294.875 266.213 294.73 266.209 294.585V294.585ZM279.817 300.679H277.102L274.049 297.306V300.679H271.985V291.832H274.049V295.244L277.177 291.832H279.704L275.706 296.184L279.817 300.679Z" fill="black"/>
<path fill-rule="evenodd" clip-rule="evenodd" d="M103.514 104.977C98.2062 107.712 93.658 111.719 90.2754 116.64C94.0896 145.551 118.761 167.888 148.681 168.03H148.707C178.626 167.888 203.298 145.551 207.112 116.64C203.729 111.719 199.181 107.712 193.873 104.977C193.979 106.246 194.031 107.529 194.029 108.824C194.029 133.919 173.765 154.279 148.711 154.438H148.685C123.626 154.282 103.367 133.922 103.367 108.824C103.367 107.527 103.419 106.245 103.523 104.977H103.514Z" fill="#FF872A"/>
<path fill-rule="evenodd" clip-rule="evenodd" d="M148.658 6.23633L67.4043 50.1836L91.2796 63.1008C89.4747 66.452 88.2597 72.8006 88.2597 80.1076V82.6635C88.2597 93.483 90.9218 102.196 94.2219 102.196H94.3615C99.9648 92.3446 110.556 85.7011 122.702 85.7011C133.307 85.7011 142.73 90.7678 148.685 98.6096V98.644C148.687 98.6379 148.69 98.632 148.693 98.6263C148.699 98.6332 148.705 98.6371 148.71 98.644V98.6096C154.665 90.7678 164.087 85.7011 174.692 85.7011C186.838 85.7011 197.425 92.3446 203.034 102.196H203.172C206.472 102.196 209.135 93.483 209.135 82.6635V80.1076C209.135 72.7996 207.919 66.4511 206.114 63.1008L229.991 50.1836L148.735 6.23633L148.692 6.25304L148.658 6.23633Z" fill="#333333"/>
</svg>
