<svg width="116" height="59" viewBox="0 0 116 59" fill="none" xmlns="http://www.w3.org/2000/svg">
<path d="M33.1028 32.209C33.1028 34.6299 32.6861 36.9319 31.8521 39.1151C31.0587 41.298 29.9274 43.2229 28.4589 44.8898C26.9903 46.517 25.2441 47.8266 23.2203 48.819C21.1959 49.7715 18.9733 50.2479 16.552 50.2482C15.044 50.2482 13.6351 50.0299 12.3253 49.5933C11.0155 49.1963 9.78567 48.5413 8.63581 47.6283V49.4146H0V0H8.69212V16.6702C9.68432 15.8764 10.8556 15.2413 12.2059 14.7649C13.6047 14.2871 15.0732 14.0458 16.5514 14.0508C18.6546 14.0508 20.6987 14.527 22.6836 15.4795C24.668 16.3922 26.4345 17.6622 27.9825 19.2896C29.5305 20.9171 30.7603 22.8421 31.6719 25.0648C32.6259 27.2477 33.1028 29.6291 33.1028 32.209ZM24.4107 32.209C24.4107 30.6211 24.1725 29.1717 23.6961 27.8608C23.2197 26.5499 22.5451 25.4387 21.6717 24.5272C20.8462 23.5799 19.805 22.8449 18.6355 22.3838C17.4845 21.8679 16.1944 21.61 14.7664 21.61C13.853 21.61 12.8011 21.8083 11.6107 22.2051C10.4197 22.5621 9.42754 23.0388 8.63243 23.6356V40.1864C10.498 41.8931 12.6012 42.7465 14.9432 42.7465C16.2924 42.7465 17.543 42.4885 18.694 41.9726C19.8844 41.4567 20.8969 40.7423 21.7303 39.8292C22.5637 38.8767 23.2186 37.7654 23.695 36.4952C24.1708 35.1855 24.409 33.7567 24.4096 32.209" fill="black"/>
<path d="M72.972 21.523C73.302 21.9971 73.6004 22.4924 73.8651 23.0058C74.1742 23.5162 74.4783 24.0542 74.7773 24.6199L52.2457 40.3963C53.0836 41.0319 53.9942 41.5655 54.9582 41.9858C55.9487 42.3601 56.9887 42.5868 58.0457 42.6587C59.1162 42.6982 60.1872 42.5848 61.2256 42.3218C62.309 41.9997 63.3704 41.4744 64.4099 40.7459C65.6781 39.8578 66.7981 38.7586 67.77 37.4483C68.7194 36.1052 69.3551 34.7638 69.6767 33.4243L77.2218 34.7547C76.296 37.5834 75.1062 39.9671 73.6522 41.9054C72.209 43.7882 70.447 45.458 68.3663 46.915C66.253 48.3946 63.9966 49.3931 61.5972 49.9105C59.2305 50.405 56.8975 50.4635 54.5984 50.0861C52.3319 49.6862 50.1825 48.8654 48.1502 47.6239C46.0949 46.3493 44.3498 44.688 42.9161 42.6398C41.4825 40.5916 40.5291 38.4002 40.0567 36.0657C39.5623 33.6986 39.5313 31.3708 39.9632 29.0823C40.3957 26.7937 41.2488 24.6212 42.5237 22.5648C43.798 20.5096 45.4755 18.7528 47.5561 17.2943C49.5096 15.919 51.7158 14.9425 54.0476 14.421C56.3693 13.8614 58.6843 13.7424 60.9924 14.0639C63.3012 14.3854 65.4995 15.1719 67.587 16.4233C69.6519 17.6426 71.4471 19.3408 72.972 21.5182V21.523ZM63.6959 23.9435C61.8917 22.5424 59.8983 21.8063 57.7163 21.7352C55.5438 21.6084 53.5639 22.1711 51.7761 23.4235C50.0192 24.6533 48.8293 26.3101 48.2065 28.394C47.5595 30.4457 47.5854 32.5592 48.2854 34.7344L63.6959 23.9435Z" fill="black"/>
<path d="M115.429 49.4145H106.856V28.8749C106.856 27.6451 106.657 26.5735 106.26 25.6599C105.903 24.7074 105.407 23.9333 104.772 23.3378C104.155 22.7145 103.401 22.2455 102.569 21.9688C101.774 21.6509 100.925 21.4891 100.069 21.4922C98.7459 21.4947 97.435 21.7368 96.199 22.2069C94.9286 22.6434 93.7777 23.3578 92.7455 24.3501V49.4145H84.113V15.0029H92.7477V17.5631C93.2635 17.0472 93.8987 16.5709 94.6527 16.1343C95.3915 15.705 96.1686 15.3462 96.9744 15.0627C97.7853 14.7517 98.6221 14.5126 99.4746 14.348C100.3 14.194 101.137 14.1143 101.976 14.11C103.678 14.103 105.369 14.3851 106.976 14.9445C108.572 15.4812 110.033 16.3541 111.263 17.5042C112.533 18.6552 113.545 20.1437 114.3 21.9697C115.054 23.7956 115.431 25.9587 115.43 28.459V49.4154" fill="black"/>
<path d="M3.37419 57.3502C3.37588 57.5146 3.33984 57.6774 3.26889 57.8255C3.20188 57.9674 3.10672 58.0946 2.99015 58.1999C2.87303 58.3047 2.73732 58.3869 2.58978 58.4421C2.43887 58.5001 2.27839 58.5299 2.11678 58.5299L0.501221 58.5249V54.5722H1.95066C2.11621 54.5709 2.28064 54.5976 2.43718 54.6513C2.58303 54.701 2.71761 54.7794 2.83248 54.8819C2.94736 54.9846 3.03802 55.1112 3.09827 55.253C3.16359 55.4073 3.19625 55.5735 3.19343 55.741C3.19343 55.8967 3.15852 56.0505 3.09095 56.1907C3.02225 56.3349 2.96369 56.425 2.91526 56.4622C2.95975 56.492 3.00085 56.5281 3.03689 56.5681C3.10784 56.6362 3.16866 56.7133 3.21878 56.7984C3.31732 56.9667 3.36969 57.1582 3.37025 57.3536L3.37419 57.3502ZM2.28233 55.752C2.28402 55.6862 2.26994 55.6209 2.24066 55.5618C2.21419 55.5099 2.1759 55.4648 2.1286 55.43C2.07792 55.3928 2.02105 55.3652 1.96023 55.3483C1.89322 55.3289 1.82396 55.3193 1.75413 55.3198H1.42415V56.1622C1.43879 56.1622 1.47709 56.1622 1.53903 56.1622H1.75413C1.82452 56.1627 1.89435 56.1546 1.96305 56.138C2.0233 56.124 2.08017 56.0988 2.13085 56.0638C2.17703 56.0318 2.21532 55.9894 2.24179 55.94C2.2705 55.8816 2.28458 55.817 2.28233 55.752ZM2.42367 57.3074C2.42423 57.2472 2.41184 57.1875 2.38707 57.1317C2.36454 57.0805 2.33076 57.0343 2.28852 56.9972C2.24516 56.9589 2.19505 56.929 2.14099 56.9093C2.0813 56.8879 2.01879 56.8772 1.95516 56.8778C1.8493 56.8744 1.74456 56.8744 1.64151 56.8778C1.53903 56.8812 1.46582 56.8778 1.42415 56.8778V57.7219H1.87238C1.94277 57.7219 2.0126 57.7134 2.08074 57.6971C2.14437 57.6825 2.20518 57.6565 2.25924 57.6205C2.30823 57.5873 2.34877 57.5434 2.37862 57.4927C2.41015 57.4358 2.42536 57.3716 2.42254 57.3069L2.42367 57.3074ZM6.70609 58.5215H3.9694V54.5719H4.90528V57.6222H6.70609V58.5215ZM11.0026 56.545C11.0043 56.8203 10.948 57.0934 10.837 57.3452C10.7312 57.5901 10.578 57.8114 10.3866 57.9972C10.1934 58.1825 9.96761 58.33 9.7204 58.4331C9.20235 58.6459 8.62066 58.6459 8.10261 58.4331C7.85484 58.3306 7.6279 58.1831 7.43476 57.9972C7.2433 57.812 7.09014 57.5918 6.98315 57.348C6.8739 57.094 6.81816 56.8203 6.81816 56.5439C6.81816 56.2677 6.8739 55.9941 6.98315 55.7401C7.08957 55.4956 7.24274 55.2743 7.43476 55.0888C7.83231 54.7074 8.36219 54.4948 8.91347 54.4954C9.3206 54.492 9.72041 54.6082 10.0622 54.8296C10.404 55.051 10.6737 55.3679 10.8376 55.741C10.9485 55.9938 11.0054 56.2673 11.0032 56.5433L11.0026 56.545ZM10.0746 56.545C10.0757 56.3907 10.0448 56.238 9.98338 56.0963C9.86344 55.8178 9.64157 55.596 9.36283 55.4766C9.22093 55.4146 9.06777 55.3829 8.91291 55.3835C8.75637 55.3824 8.60095 55.4142 8.4568 55.4766C8.31827 55.5362 8.1927 55.6214 8.0857 55.7278C7.9804 55.8338 7.89595 55.9588 7.83682 56.0963C7.77713 56.238 7.74615 56.3901 7.74615 56.5439C7.74615 56.6981 7.77713 56.8502 7.83682 56.9921C7.89538 57.13 7.97984 57.2562 8.0857 57.3626C8.1927 57.469 8.31884 57.5541 8.4568 57.6143C8.60095 57.6763 8.75637 57.7078 8.91291 57.7067C9.06777 57.7078 9.2215 57.6757 9.3634 57.6138C9.50193 57.5541 9.6275 57.4685 9.73449 57.362C9.84035 57.2556 9.92481 57.13 9.98394 56.9915C10.0448 56.8502 10.0757 56.6981 10.0752 56.545H10.0746ZM15.2974 57.7427C15.0879 58.0068 14.825 58.2247 14.526 58.3813C14.2377 58.5237 13.9189 58.5964 13.5968 58.593C13.3153 58.5947 13.036 58.5406 12.7753 58.4331C12.5264 58.3312 12.2989 58.1831 12.1052 57.9972C11.9137 57.8125 11.7605 57.5918 11.6536 57.348C11.5443 57.0946 11.488 56.8215 11.488 56.5455C11.488 56.2694 11.5443 55.9962 11.6536 55.7428C11.8704 55.2472 12.273 54.8566 12.7753 54.6553C13.036 54.549 13.3153 54.4953 13.5968 54.4972C13.9189 54.4934 14.2371 54.566 14.5254 54.7093C14.8188 54.861 15.0772 55.0724 15.2839 55.3299L14.638 55.994C14.4854 55.7758 14.3244 55.6198 14.1549 55.5258C14 55.4421 13.8283 55.3944 13.6526 55.3861C13.4769 55.3778 13.3012 55.4092 13.1396 55.4779C12.9994 55.5379 12.8716 55.6234 12.7629 55.7301C12.6559 55.8358 12.5697 55.9608 12.5089 56.0985C12.447 56.2397 12.4154 56.3924 12.4166 56.5467C12.416 56.6993 12.4475 56.8502 12.5089 56.9898C12.5697 57.1272 12.6559 57.2522 12.7629 57.3581C12.8716 57.4645 12.9994 57.5501 13.1396 57.6104C13.2843 57.6723 13.4403 57.7033 13.5974 57.7016C13.7967 57.7055 13.9933 57.6554 14.1656 57.5563C14.3306 57.4589 14.4911 57.2978 14.647 57.0732L15.2974 57.7427ZM19.224 58.5215H18.0088L16.6449 57.014V58.5215H15.7226V54.5688H16.6449V56.0933L18.0426 54.5688H19.171L17.3849 56.5129L19.224 58.5215ZM22.6668 57.7421C22.4573 58.0068 22.1944 58.2242 21.8953 58.3807C21.6065 58.5237 21.2883 58.5958 20.9662 58.5924C20.6847 58.5941 20.4054 58.5401 20.1446 58.4325C19.8958 58.3306 19.6683 58.1831 19.474 57.9967C19.2831 57.812 19.1294 57.5912 19.0224 57.3474C18.9137 57.094 18.8574 56.8209 18.8574 56.545C18.8574 56.269 18.9137 55.9959 19.0224 55.7423C19.2392 55.2466 19.6424 54.8559 20.1446 54.6549C20.4054 54.5485 20.6847 54.4948 20.9662 54.4967C21.2883 54.4928 21.6065 54.5656 21.8948 54.7089C22.1865 54.8611 22.4438 55.0727 22.6493 55.3299L22.0029 55.994C21.8503 55.7758 21.6892 55.6198 21.5198 55.5258C21.3649 55.4421 21.1932 55.3944 21.0175 55.3861C20.8418 55.3778 20.6661 55.4092 20.5039 55.4779C20.3643 55.5379 20.2364 55.6234 20.1283 55.7301C20.0208 55.8356 19.9346 55.9606 19.8744 56.0985C19.8124 56.2397 19.7803 56.3924 19.7814 56.5467C19.7809 56.6993 19.8124 56.8502 19.8744 56.9898C19.9346 57.1278 20.0208 57.2528 20.1283 57.3581C20.2364 57.4645 20.3643 57.5501 20.5039 57.6104C20.6486 57.6729 20.8046 57.7044 20.9617 57.7033C21.1611 57.7072 21.3576 57.6571 21.5299 57.558C21.6954 57.4606 21.8554 57.2995 22.0108 57.0749L22.6668 57.7421ZM26.2245 58.5215H25.3021V56.8581H24.0109V58.5215H23.0886V54.5719H24.0109V56.0616H25.2965V54.5719H26.2189L26.2245 58.5215ZM31.0531 58.5215H30.0384L29.6899 57.7697H27.9882L27.6368 58.5215H26.6209L28.4899 54.5688H29.1819L31.0531 58.5215ZM29.3143 56.969L28.8379 55.9448L28.3564 56.9696L29.3143 56.969ZM32.3736 58.5215H31.4513V54.5719H32.3736V58.5215ZM36.4759 58.5215H35.6115L34.0618 56.1205V58.5232H33.153V54.57H34.1193L35.5625 56.7916V54.57H36.4714L36.4759 58.5215Z" fill="black"/>
<path d="M44.316 58.5216H41.6395V54.5719H44.316V55.3686H42.5495V56.0713H44.2923V56.8536H42.5495V57.6927H44.316V58.5216ZM48.8174 56.5451C48.8191 56.8069 48.7724 57.0665 48.6789 57.3115C48.5911 57.5429 48.4599 57.7557 48.2926 57.9388C48.1215 58.1251 47.9137 58.2727 47.6822 58.3735C47.4508 58.4737 47.2002 58.5244 46.9479 58.5221H45.2789V54.5692H46.9479C47.207 54.5666 47.4637 54.621 47.6997 54.7287C47.9232 54.8298 48.1248 54.9747 48.2926 55.1547C48.4604 55.3373 48.5916 55.5505 48.6789 55.7828C48.7718 56.0266 48.8186 56.2856 48.8174 56.5468V56.5451ZM47.8849 56.5248C47.8883 56.3671 47.8635 56.2105 47.8106 56.0621C47.7611 55.9221 47.6845 55.7933 47.5854 55.6831C47.4846 55.5735 47.3618 55.487 47.225 55.4292C47.0724 55.3652 46.908 55.3334 46.7418 55.3361H46.2046V57.7079H46.7418C46.9046 57.7107 47.0668 57.6809 47.2177 57.62C47.3522 57.5643 47.4733 57.481 47.573 57.3751C47.6727 57.267 47.7498 57.1403 47.7994 57.0017C47.8557 56.8491 47.8855 56.6887 47.8872 56.5259L47.8849 56.5248ZM53.2649 54.5679V56.705C53.2671 56.9544 53.2271 57.2022 53.1466 57.4382C53.0717 57.6583 52.9546 57.8616 52.8003 58.0362C52.6471 58.2096 52.4579 58.3476 52.2462 58.441C51.7738 58.6359 51.2433 58.637 50.7697 58.4439C50.5575 58.3526 50.366 58.2181 50.2089 58.0486C50.0518 57.8774 49.9307 57.6758 49.8524 57.4573C49.7685 57.2236 49.7269 56.9775 49.7291 56.7298V54.5692H50.6515V56.7343C50.6504 56.8615 50.6689 56.9877 50.7067 57.1093C50.7405 57.2185 50.7951 57.3199 50.8677 57.4083C50.9387 57.4933 51.0276 57.5615 51.1284 57.6077C51.2422 57.6578 51.3649 57.6825 51.4894 57.6803C51.6178 57.6837 51.745 57.66 51.8639 57.6116C51.9635 57.5694 52.0519 57.504 52.1218 57.4213C52.1927 57.334 52.2456 57.2337 52.2777 57.1262C52.3149 57.0023 52.3329 56.8728 52.3312 56.7433V54.5692L53.2649 54.5679ZM57.9392 57.7428C57.7297 58.0075 57.4668 58.2248 57.1678 58.3814C56.8795 58.5238 56.5607 58.5965 56.2386 58.5931C55.9571 58.5948 55.6778 58.5402 55.4171 58.4332C55.1687 58.3312 54.9412 58.1831 54.747 57.9973C54.5555 57.8126 54.4018 57.5919 54.2948 57.3481C54.1861 57.0947 54.1298 56.8216 54.1298 56.5456C54.1298 56.2695 54.1861 55.9964 54.2948 55.7428C54.5122 55.2473 54.9153 54.8568 55.4171 54.6553C55.6778 54.549 55.9571 54.4953 56.2386 54.4972C56.5607 54.4934 56.8789 54.5661 57.1678 54.7093C57.4606 54.8608 57.7185 55.0718 57.9257 55.3286L57.2793 55.9927C57.1267 55.7746 56.9656 55.6185 56.7961 55.5245C56.6413 55.4409 56.4695 55.3931 56.2933 55.3848C56.1176 55.3766 55.9419 55.4079 55.7803 55.4766C55.6401 55.5367 55.5128 55.6222 55.4041 55.7288C55.2966 55.8343 55.2104 55.9594 55.1501 56.0972C55.0882 56.2384 55.0567 56.3908 55.0578 56.5451C55.0567 56.6977 55.0882 56.8491 55.1501 56.9882C55.2104 57.1262 55.2966 57.2512 55.4041 57.3571C55.5128 57.4635 55.6401 57.5491 55.7803 57.6088C55.9244 57.6713 56.0804 57.7034 56.2375 57.7023C56.4368 57.7062 56.6334 57.6561 56.8063 57.557C56.9712 57.4596 57.1323 57.2985 57.2894 57.0738L57.9392 57.7428ZM62.7268 58.5221H61.712L61.3635 57.7704H59.6646L59.3132 58.5221H58.2985L60.1674 54.5692H60.8606L62.7268 58.5221ZM60.9879 56.9696L60.5149 55.9448L60.034 56.9696H60.9879ZM65.6042 55.4151H64.5659V58.5216H63.6334V55.4151H62.5944V54.5719H65.6042V55.4151ZM67.3938 58.5216H66.472V54.5719H67.3938V58.5216ZM72.54 56.5451C72.5411 56.8204 72.4848 57.0935 72.3745 57.3452C72.2686 57.5902 72.1154 57.8115 71.9234 57.9973C71.7308 58.1826 71.505 58.3307 71.2578 58.4332C70.7392 58.646 70.1581 58.646 69.6395 58.4332C69.3923 58.3307 69.1653 58.1826 68.9722 57.9973C68.7807 57.8126 68.627 57.5919 68.52 57.3481C68.4113 57.0941 68.355 56.8204 68.355 56.5439C68.355 56.2677 68.4113 55.9942 68.52 55.7402C68.6264 55.4955 68.7802 55.2742 68.9722 55.0888C69.3697 54.7081 69.8996 54.4961 70.4503 54.4972C70.8575 54.4938 71.2567 54.61 71.5991 54.8314C71.9409 55.0528 72.2106 55.3697 72.3745 55.7428C72.4854 55.9956 72.5417 56.2691 72.54 56.5451ZM71.612 56.5451C71.6131 56.3908 71.5822 56.2381 71.5208 56.0964C71.4009 55.8181 71.179 55.5963 70.9003 55.4766C70.7572 55.4152 70.6029 55.3835 70.4475 55.3835C70.2915 55.3835 70.1378 55.4152 69.9948 55.4766C69.716 55.5959 69.4936 55.8178 69.3742 56.0964C69.3145 56.2381 69.2836 56.3902 69.2836 56.5439C69.2836 56.6977 69.3145 56.8503 69.3742 56.9922C69.4328 57.1301 69.5178 57.2557 69.6237 57.3627C69.7307 57.4691 69.8574 57.5542 69.9965 57.6138C70.1395 57.6752 70.2938 57.7068 70.4492 57.7068C70.6046 57.7068 70.7589 57.6752 70.9019 57.6138C71.0405 57.5542 71.166 57.4686 71.2725 57.3621C71.3789 57.2557 71.4639 57.1301 71.5225 56.9916C71.5833 56.8503 71.6143 56.6982 71.6137 56.5451H71.612ZM76.8078 58.5216H75.9434L74.3966 56.1192V58.5216H73.4877V54.5688H74.454L75.8973 56.7906V54.5688H76.8067L76.8078 58.5216Z" fill="black"/>
<path d="M86.0337 58.5214H85.1688L83.623 56.119V58.5214H82.7136V54.5686H83.6799L85.1232 56.7904V54.5686H86.0326L86.0337 58.5214ZM90.4141 58.5214H87.7377V54.5717H90.4141V55.3684H88.6471V56.0711H90.3899V56.8534H88.6471V57.6925H90.4141V58.5214ZM94.7466 55.4149H93.7083V58.5214H92.7758V55.4149H91.7374V54.5717H94.7472L94.7466 55.4149ZM101.242 54.5672L99.956 58.5202H99.1732L98.5549 56.4418L97.9327 58.5202H97.1494L95.865 54.5672H96.8403L97.5566 56.76L98.1765 54.5672H98.9232L99.5426 56.7656L100.268 54.5672H101.242ZM106.505 56.5437C106.506 56.8191 106.45 57.0916 106.339 57.3439C106.233 57.5889 106.08 57.8102 105.888 57.996C105.696 58.1812 105.47 58.3288 105.223 58.4313C104.705 58.6447 104.123 58.6447 103.605 58.4313C103.357 58.3288 103.13 58.1812 102.936 57.996C102.746 57.8107 102.592 57.5905 102.485 57.3467C102.376 57.0928 102.32 56.8191 102.32 56.5426C102.32 56.2662 102.376 55.9927 102.485 55.7387C102.592 55.4944 102.746 55.2734 102.937 55.0882C103.13 54.9027 103.357 54.7555 103.605 54.6547C103.987 54.4972 104.407 54.4546 104.812 54.532C105.218 54.6094 105.593 54.8034 105.889 55.0904C106.08 55.2765 106.233 55.4979 106.34 55.7421C106.451 55.9949 106.508 56.2684 106.505 56.5449L106.505 56.5437ZM105.577 56.5437C105.578 56.3894 105.547 56.2366 105.486 56.0948C105.366 55.8165 105.144 55.5948 104.865 55.4751C104.722 55.4137 104.568 55.382 104.412 55.382C104.256 55.382 104.103 55.4137 103.96 55.4751C103.68 55.594 103.458 55.816 103.339 56.0948C103.279 56.2366 103.248 56.3889 103.248 56.5426C103.248 56.6963 103.279 56.8484 103.339 56.9903C103.398 57.1288 103.482 57.2544 103.588 57.3608C103.695 57.4672 103.821 57.5528 103.96 57.6125C104.103 57.6739 104.257 57.7054 104.412 57.7054C104.568 57.7054 104.722 57.6739 104.865 57.6125C105.144 57.4926 105.367 57.2701 105.486 56.9903C105.546 56.8495 105.577 56.6975 105.577 56.5437ZM111.145 58.5202H110.096L109.807 57.5979C109.782 57.5151 109.75 57.4351 109.709 57.3591C109.675 57.2932 109.631 57.2324 109.577 57.1806C109.525 57.131 109.462 57.0922 109.394 57.0674C109.311 57.0387 109.224 57.0246 109.136 57.0269H108.961V58.5202H108.047V54.5703L109.628 54.5659C109.793 54.5642 109.957 54.594 110.111 54.6538C110.256 54.7099 110.389 54.7944 110.5 54.9024C110.61 55.0089 110.697 55.1363 110.756 55.277C110.819 55.4243 110.85 55.583 110.849 55.7431C110.849 55.8624 110.83 55.9811 110.793 56.0944C110.756 56.2061 110.702 56.3117 110.634 56.4075C110.565 56.5037 110.483 56.5893 110.39 56.6614C110.295 56.7352 110.239 56.7611 110.22 56.7397C110.261 56.7262 110.324 56.7662 110.408 56.8602C110.495 56.9565 110.563 57.0685 110.607 57.1896C110.63 57.2431 110.65 57.2972 110.669 57.3518L110.728 57.5202C110.749 57.5776 110.772 57.6407 110.794 57.7082C110.816 57.7758 110.844 57.8501 110.872 57.9318C110.906 58.0337 110.938 58.1199 110.966 58.1903C111.018 58.3051 111.078 58.4155 111.147 58.5208L111.145 58.5202ZM109.921 55.797C109.921 55.7281 109.907 55.6598 109.879 55.5968C109.852 55.538 109.814 55.4849 109.767 55.4404C109.719 55.3944 109.662 55.3587 109.599 55.3354C109.532 55.31 109.461 55.2972 109.389 55.2977H108.959V56.2727H109.389C109.461 56.2734 109.533 56.2621 109.601 56.2393C109.663 56.2187 109.72 56.186 109.769 56.1431C109.818 56.0998 109.857 56.0465 109.883 55.9867C109.909 55.927 109.922 55.8623 109.921 55.797ZM116 58.5202H114.787L113.423 57.0128V58.5202H112.501V54.5672H113.423V56.0918L114.821 54.5672H115.949L114.163 56.5116L116 58.5202Z" fill="black"/>
</svg>
