<?xml version="1.0" encoding="UTF-8"?><svg xmlns="http://www.w3.org/2000/svg" viewBox="0 0 2641.12 2996.85"><defs><style>.d,.e{fill:#333;}.e,.f{fill-rule:evenodd;}.f{fill:#ff872a;}</style></defs><g id="a"/><g id="b"><g id="c"><path class="d" d="M753.66,2396.14c0,55.12-9.49,107.53-28.47,157.24-18.07,49.7-43.83,93.53-77.26,131.48-33.44,37.05-73.2,66.87-119.28,89.46-46.09,21.69-96.7,32.53-151.82,32.53-34.34,0-66.42-4.97-96.24-14.91-29.82-9.04-57.83-23.95-84.04-44.73v40.67H0V1662.81H197.91v379.54c22.59-18.07,49.25-32.53,79.97-43.38,31.63-10.84,64.61-16.26,98.95-16.26,47.89,0,94.43,10.84,139.62,32.53,45.18,20.79,85.39,49.7,120.64,86.75,35.24,37.05,63.25,80.88,84.04,131.48,21.69,49.7,32.53,103.92,32.53,162.66m-197.91,0c0-36.15-5.42-69.13-16.26-98.95-10.84-29.82-26.21-55.12-46.09-75.91-18.98-21.69-42.02-37.96-69.13-48.8-26.21-11.75-55.57-17.62-88.1-17.62-20.79,0-44.74,4.52-71.84,13.55-27.11,8.13-49.7,18.98-67.77,32.53v376.83c42.47,38.86,90.36,58.29,143.68,58.29,30.72,0,59.19-5.88,85.39-17.62,27.11-11.75,50.15-28.01,69.13-48.8,18.98-21.69,33.89-46.99,44.73-75.91,10.84-29.82,16.26-62.35,16.26-97.6"/><path class="d" d="M1661.44,2152.84c7.26,10.37,14.03,21.62,20.33,33.76,7.03,11.62,13.96,23.88,20.77,36.75l-512.99,359.2c18.88,14.36,39.46,26.42,61.75,36.19,22.51,8.51,45.94,13.62,70.3,15.32,23.84,.96,47.97-1.6,72.4-7.67,24.65-7.33,48.82-19.29,72.51-35.88,28.87-20.21,54.37-45.24,76.5-75.08,21.61-30.58,36.08-61.12,43.41-91.62l171.79,30.29c-21.09,64.42-48.18,118.68-81.27,162.81-32.86,42.87-72.98,80.89-120.36,114.06-48.11,33.69-99.49,56.43-154.12,68.2-53.89,11.26-107.01,12.6-159.35,4.02-51.6-9.1-100.54-27.79-146.81-56.06-46.79-29.02-86.52-66.84-119.17-113.48-32.66-46.63-54.36-96.53-65.1-149.68-11.26-53.89-11.97-106.9-2.13-159.02,9.84-52.12,29.27-101.57,58.28-148.37,29.02-46.79,67.21-86.77,114.59-119.95,45.15-31.62,94.42-53.42,147.79-65.43,52.86-12.74,105.57-15.45,158.13-8.13,52.56,7.32,102.61,25.23,150.14,53.73,47.02,27.76,87.89,66.43,122.61,116.03m-211.2,55.22c-41.09-31.9-86.48-48.66-136.15-50.29-49.45-2.88-94.53,9.93-135.25,38.44-39.97,27.99-67.06,65.71-81.27,113.17-14.73,46.71-14.13,94.83,1.8,144.36l350.87-245.68"/><path class="d" d="M2628.1,2787.88h-195.19v-467.65c0-28.01-4.52-52.41-13.56-73.2-8.13-21.69-19.43-39.31-33.89-52.87-14.46-14.46-31.17-24.85-50.15-31.18-18.07-7.23-37.05-10.84-56.93-10.84-29.82,0-59.19,5.42-88.11,16.27-28.92,9.94-55.12,26.21-78.62,48.8v570.67h-196.55v-783.49h196.55v58.29c11.75-11.75,26.21-22.59,43.38-32.53,17.17-9.94,34.79-18.07,52.87-24.4,18.98-7.23,37.95-12.65,56.93-16.27,19.88-3.61,38.86-5.42,56.93-5.42,39.76,0,77.71,6.33,113.86,18.98,37.05,12.65,69.58,32.08,97.59,58.29,28.92,26.21,51.96,60.1,69.13,101.66,17.17,41.57,25.75,90.82,25.75,147.75v477.14"/><path d="M76.84,2968.52c0,3.9-.81,7.51-2.41,10.83-1.59,3.31-3.71,6.15-6.34,8.51-2.64,2.37-5.67,4.2-9.11,5.52-3.43,1.31-7.02,1.97-10.78,1.97l-36.78-.11v-90.03H44.44c3.96,0,7.65,.6,11.08,1.8,3.44,1.19,6.45,2.94,9.03,5.25,2.59,2.31,4.61,5.13,6.05,8.45,1.45,3.31,2.17,7.02,2.17,11.11,0,3.54-.78,6.95-2.34,10.23-1.56,3.28-2.89,5.34-3.97,6.19,.24,.03,1.16,.84,2.78,2.41,1.62,1.58,3,3.32,4.12,5.23,1.13,1.92,1.99,3.95,2.58,6.11,.59,2.16,.89,4.34,.89,6.53h0Zm-24.88-36.39c0-1.7-.31-3.14-.94-4.33-.62-1.2-1.46-2.2-2.55-3.02-1.09-.81-2.37-1.43-3.84-1.86-1.48-.44-3.04-.66-4.69-.66h-7.52v19.19c.33,.01,1.2,.02,2.61,.02h4.91c1.68,0,3.26-.18,4.75-.55,1.49-.38,2.77-.94,3.83-1.69,1.07-.75,1.91-1.69,2.52-2.83,.61-1.14,.92-2.57,.92-4.28h0Zm3.22,35.42c0-1.46-.28-2.79-.83-4-.54-1.21-1.29-2.23-2.25-3.06-.95-.84-2.07-1.5-3.36-1.98-1.28-.48-2.69-.72-4.22-.72-2.42-.07-4.8-.09-7.14-.05-2.34,.03-4,.05-4.95,.05v19.22h10.2c1.6,0,3.19-.19,4.75-.56,1.56-.38,2.92-.97,4.06-1.75,1.14-.79,2.05-1.76,2.72-2.91,.67-1.16,1.01-2.57,1.01-4.23h0Zm97.52,27.69h-62.33v-89.94h21.34v69.45h40.98v20.48Zm97.82-45.02c0,6.45-1.26,12.52-3.77,18.22-2.5,5.7-5.92,10.65-10.27,14.84-4.34,4.19-9.4,7.5-15.16,9.92-5.75,2.43-11.88,3.64-18.39,3.64s-12.66-1.22-18.45-3.64c-5.78-2.43-10.85-5.73-15.2-9.92-4.34-4.19-7.77-9.12-10.28-14.78-2.51-5.66-3.77-11.76-3.77-18.28s1.25-12.63,3.77-18.33c2.51-5.69,5.94-10.64,10.28-14.83,4.35-4.2,9.43-7.49,15.22-9.88,5.79-2.39,11.94-3.59,18.44-3.59s12.63,1.2,18.39,3.59c5.76,2.39,10.81,5.7,15.16,9.92,4.34,4.23,7.77,9.18,10.27,14.84,2.51,5.66,3.77,11.75,3.77,18.27h0Zm-21.13,0c0-3.62-.7-7.03-2.08-10.22-1.39-3.19-3.28-5.98-5.69-8.39-2.4-2.41-5.21-4.31-8.44-5.72-3.23-1.41-6.65-2.12-10.25-2.12s-7.15,.71-10.38,2.12c-3.23,1.41-6.05,3.31-8.45,5.72-2.4,2.41-4.29,5.2-5.67,8.39-1.37,3.19-2.06,6.59-2.06,10.22s.69,6.95,2.06,10.17c1.38,3.22,3.27,6.03,5.67,8.44,2.41,2.41,5.22,4.32,8.45,5.73,3.23,1.41,6.69,2.11,10.38,2.11s7.02-.7,10.25-2.11c3.23-1.41,6.04-3.33,8.44-5.73,2.41-2.41,4.3-5.22,5.69-8.44,1.38-3.23,2.08-6.62,2.08-10.17h0Zm118.91,27.27c-5.31,6.47-11.17,11.31-17.56,14.53-6.4,3.22-13.45,4.83-21.16,4.83-6.64,0-12.87-1.22-18.7-3.64-5.82-2.43-10.91-5.73-15.27-9.92-4.34-4.19-7.77-9.12-10.28-14.78-2.51-5.66-3.77-11.76-3.77-18.28s1.25-12.61,3.77-18.27c2.51-5.66,5.94-10.61,10.28-14.84,4.35-4.23,9.44-7.54,15.27-9.92,5.83-2.39,12.07-3.59,18.7-3.59,7.71,0,14.75,1.61,21.14,4.83,6.39,3.22,12.15,7.92,17.27,14.09l-14.72,15.12c-3.47-4.97-7.13-8.52-10.98-10.66-3.86-2.14-8.09-3.22-12.7-3.22-3.69,0-7.16,.71-10.42,2.12-3.26,1.42-6.12,3.33-8.56,5.74-2.44,2.41-4.37,5.2-5.78,8.39-1.41,3.19-2.11,6.59-2.11,10.2s.7,6.91,2.11,10.09c1.41,3.19,3.34,5.98,5.78,8.39,2.44,2.41,5.3,4.32,8.56,5.73,3.26,1.42,6.73,2.12,10.42,2.12,4.88,0,9.19-1.1,12.94-3.31,3.76-2.21,7.41-5.88,10.95-11l14.83,15.23Zm89.34,17.75h-27.62l-31.05-34.33v34.33h-21.02v-90.03h21.02v34.7l31.81-34.7h25.7l-40.67,44.27,41.83,45.77Zm78.39-17.75c-5.31,6.47-11.17,11.31-17.56,14.53-6.4,3.22-13.45,4.83-21.16,4.83-6.64,0-12.87-1.22-18.7-3.64-5.82-2.43-10.91-5.73-15.27-9.92-4.34-4.19-7.77-9.12-10.28-14.78-2.51-5.66-3.77-11.76-3.77-18.28s1.25-12.61,3.77-18.27c2.51-5.66,5.94-10.61,10.28-14.84,4.35-4.23,9.44-7.54,15.27-9.92,5.83-2.39,12.07-3.59,18.7-3.59,7.71,0,14.75,1.61,21.14,4.83,6.4,3.22,12.15,7.92,17.27,14.09l-14.72,15.12c-3.47-4.97-7.13-8.52-10.98-10.66-3.86-2.14-8.09-3.22-12.7-3.22-3.69,0-7.16,.71-10.42,2.12-3.26,1.42-6.12,3.33-8.56,5.74-2.44,2.41-4.37,5.2-5.78,8.39-1.41,3.19-2.11,6.59-2.11,10.2s.7,6.91,2.11,10.09c1.41,3.19,3.34,5.98,5.78,8.39,2.45,2.41,5.3,4.32,8.56,5.73,3.26,1.42,6.73,2.12,10.42,2.12,4.88,0,9.19-1.1,12.94-3.31,3.76-2.21,7.41-5.88,10.95-11l14.83,15.23Zm80.97,17.75h-21.03v-37.88h-29.27v37.88h-21.01v-89.94h21.01v33.92h29.27v-33.92h21.03v89.94Zm109.95,0h-23.11l-7.92-17.12h-38.69l-8.02,17.12h-23.11l42.55-90.03h15.77l42.53,90.03Zm-39.59-35.36l-10.78-23.33-10.95,23.33h21.73Zm69.66,35.36h-21.02v-89.94h21.02v89.94Zm93.4,0h-19.69l-35.2-54.7v54.7h-20.7v-90.03h22.03l32.86,50.58v-50.58h20.7v90.03Z"/><path d="M1009,2995.24h-60.94v-89.94h60.94v18.14h-40.24v16h39.69v17.81h-39.69v19.11h40.24v18.88Zm102.48-45.02c0,6.19-1.05,12-3.16,17.44-2.09,5.43-5.03,10.19-8.8,14.3-3.76,4.1-8.26,7.34-13.5,9.72-5.23,2.37-10.93,3.56-17.11,3.56h-37.95v-90.03h37.95c6.18,0,11.88,1.21,17.11,3.62,5.24,2.41,9.74,5.64,13.5,9.7,3.77,4.06,6.7,8.83,8.8,14.3,2.1,5.47,3.16,11.27,3.16,17.39h0Zm-21.23-.47c.06-3.72-.5-7.23-1.69-10.53-1.19-3.3-2.9-6.18-5.13-8.62-2.22-2.45-4.95-4.38-8.2-5.78-3.24-1.41-6.91-2.12-11.02-2.12h-12.23v53.99h12.23c4.04,0,7.65-.67,10.83-2.02,3.19-1.34,5.88-3.2,8.09-5.58,2.22-2.38,3.94-5.21,5.16-8.48,1.23-3.28,1.88-6.9,1.95-10.84h0Zm122.5-44.55v48.66c0,5.95-.9,11.51-2.7,16.69-1.79,5.18-4.42,9.72-7.88,13.63-3.45,3.91-7.66,6.98-12.62,9.22-4.96,2.23-10.59,3.34-16.89,3.34s-11.73-1.09-16.72-3.28c-4.99-2.2-9.25-5.21-12.78-9.03-3.52-3.83-6.23-8.32-8.11-13.47-1.88-5.15-2.81-10.66-2.81-16.56v-49.19h21.03v49.3c0,3.05,.42,5.9,1.27,8.53,.85,2.64,2.07,4.91,3.66,6.81,1.58,1.91,3.56,3.42,5.94,4.53,2.38,1.1,5.12,1.66,8.22,1.66,3.32,0,6.16-.52,8.53-1.56,2.38-1.04,4.33-2.49,5.88-4.34,1.55-1.86,2.73-4.1,3.55-6.7,.81-2.61,1.22-5.52,1.22-8.72v-49.5h21.24Zm106.42,72.28c-5.31,6.47-11.17,11.31-17.56,14.53-6.4,3.22-13.45,4.83-21.16,4.83-6.64,0-12.87-1.22-18.7-3.64-5.82-2.43-10.92-5.73-15.27-9.92-4.34-4.19-7.77-9.12-10.28-14.78-2.51-5.66-3.77-11.76-3.77-18.28s1.25-12.61,3.77-18.27c2.51-5.66,5.94-10.61,10.28-14.84,4.35-4.23,9.44-7.54,15.27-9.92,5.83-2.39,12.07-3.59,18.7-3.59,7.71,0,14.75,1.61,21.14,4.83,6.39,3.22,12.15,7.92,17.27,14.09l-14.72,15.12c-3.47-4.97-7.13-8.52-10.98-10.66-3.86-2.14-8.09-3.22-12.7-3.22-3.69,0-7.16,.71-10.42,2.12-3.26,1.42-6.12,3.33-8.56,5.74-2.44,2.41-4.37,5.2-5.78,8.39-1.41,3.19-2.11,6.59-2.11,10.2s.7,6.91,2.11,10.09c1.41,3.19,3.34,5.98,5.78,8.39,2.45,2.41,5.3,4.32,8.56,5.73,3.26,1.42,6.73,2.12,10.42,2.12,4.88,0,9.19-1.1,12.94-3.31,3.76-2.21,7.41-5.88,10.95-11l14.83,15.23Zm109.01,17.75h-23.11l-7.92-17.12h-38.69l-8.01,17.12h-23.11l42.55-90.03h15.77l42.53,90.03Zm-39.59-35.36l-10.78-23.33-10.95,23.33h21.73Zm105.11-35.37h-23.64v70.73h-21.23v-70.73h-23.66v-19.2h68.53v19.2Zm40.75,70.73h-21.02v-89.94h21.02v89.94Zm117.16-45.02c0,6.45-1.26,12.52-3.77,18.22-2.5,5.7-5.92,10.65-10.27,14.84-4.34,4.19-9.4,7.5-15.16,9.92-5.75,2.43-11.88,3.64-18.39,3.64s-12.66-1.22-18.45-3.64c-5.78-2.43-10.85-5.73-15.2-9.92-4.34-4.19-7.77-9.12-10.28-14.78-2.51-5.66-3.76-11.76-3.76-18.28s1.25-12.63,3.76-18.33c2.51-5.69,5.94-10.64,10.28-14.83,4.35-4.2,9.42-7.49,15.22-9.88,5.79-2.39,11.94-3.59,18.44-3.59s12.63,1.2,18.39,3.59c5.76,2.39,10.81,5.7,15.16,9.92,4.34,4.23,7.77,9.18,10.27,14.84,2.51,5.66,3.77,11.75,3.77,18.27h0Zm-21.12,0c0-3.62-.69-7.03-2.08-10.22-1.39-3.19-3.28-5.98-5.69-8.39-2.4-2.41-5.21-4.31-8.44-5.72-3.23-1.41-6.65-2.12-10.25-2.12s-7.15,.71-10.38,2.12c-3.23,1.41-6.05,3.31-8.45,5.72-2.4,2.41-4.29,5.2-5.67,8.39-1.38,3.19-2.06,6.59-2.06,10.22s.69,6.95,2.06,10.17c1.38,3.22,3.27,6.03,5.67,8.44,2.41,2.41,5.22,4.32,8.45,5.73,3.23,1.41,6.69,2.11,10.38,2.11s7.02-.7,10.25-2.11c3.23-1.41,6.04-3.33,8.44-5.73,2.41-2.41,4.3-5.22,5.69-8.44,1.38-3.23,2.08-6.62,2.08-10.17h0Zm118.29,45.02h-19.69l-35.2-54.7v54.7h-20.7v-90.03h22.03l32.86,50.58v-50.58h20.7v90.03Z"/><path d="M1958.83,2995.24h-19.69l-35.2-54.7v54.7h-20.7v-90.03h22.03l32.86,50.58v-50.58h20.7v90.03Zm99.73,0h-60.94v-89.94h60.94v18.14h-40.23v16h39.69v17.81h-39.69v19.11h40.23v18.88Zm98.65-70.73h-23.64v70.73h-21.23v-70.73h-23.66v-19.2h68.53v19.2Zm147.87-19.3l-29.27,90.03h-17.81l-14.08-47.33-14.17,47.33h-17.83l-29.25-90.03h22.2l16.31,49.92,14.11-49.92h17.05l14.11,50.05,16.52-50.05h22.11Zm119.84,45.02c0,6.45-1.26,12.52-3.76,18.22-2.5,5.7-5.92,10.65-10.27,14.84-4.34,4.19-9.4,7.5-15.16,9.92-5.75,2.43-11.88,3.64-18.39,3.64s-12.66-1.22-18.45-3.64c-5.78-2.43-10.85-5.73-15.2-9.92-4.34-4.19-7.77-9.12-10.28-14.78-2.51-5.66-3.77-11.76-3.77-18.28s1.25-12.63,3.77-18.33c2.51-5.69,5.94-10.64,10.28-14.83,4.35-4.2,9.43-7.49,15.22-9.88,5.79-2.39,11.94-3.59,18.44-3.59s12.63,1.2,18.39,3.59c5.76,2.39,10.81,5.7,15.16,9.92,4.34,4.23,7.77,9.18,10.27,14.84,2.51,5.66,3.76,11.75,3.76,18.27h0Zm-21.12,0c0-3.62-.7-7.03-2.08-10.22-1.39-3.19-3.28-5.98-5.69-8.39-2.4-2.41-5.21-4.31-8.44-5.72-3.23-1.41-6.65-2.12-10.25-2.12s-7.15,.71-10.38,2.12c-3.23,1.41-6.05,3.31-8.45,5.72-2.4,2.41-4.29,5.2-5.67,8.39-1.38,3.19-2.06,6.59-2.06,10.22s.69,6.95,2.06,10.17c1.38,3.22,3.27,6.03,5.67,8.44,2.41,2.41,5.22,4.32,8.45,5.73,3.23,1.41,6.69,2.11,10.38,2.11s7.02-.7,10.25-2.11c3.23-1.41,6.04-3.33,8.44-5.73,2.41-2.41,4.3-5.22,5.69-8.44,1.38-3.23,2.08-6.62,2.08-10.17h0Zm126.78,45.02h-23.87l-6.59-21.03c-.6-2.01-1.34-3.82-2.22-5.44-.87-1.61-1.88-2.97-3.05-4.06-1.16-1.1-2.55-1.96-4.17-2.58-1.62-.61-3.58-.92-5.87-.92h-3.98v34.03h-20.81v-89.94l36.03-.09c3.91,0,7.58,.68,10.98,2.03,3.41,1.34,6.37,3.23,8.86,5.66,2.49,2.42,4.43,5.26,5.83,8.53,1.41,3.27,2.11,6.81,2.11,10.61,0,2.73-.43,5.38-1.28,7.95-.86,2.57-2.06,4.95-3.61,7.12-1.55,2.18-3.41,4.11-5.56,5.78-2.15,1.68-3.44,2.27-3.88,1.78,.94-.31,2.38,.6,4.3,2.73,1.93,2.12,3.44,4.63,4.53,7.52,.51,1.22,.98,2.45,1.41,3.69,.44,1.23,.88,2.51,1.34,3.83,.47,1.31,.97,2.74,1.5,4.28,.54,1.53,1.13,3.23,1.78,5.09,.77,2.33,1.48,4.29,2.12,5.89,.65,1.59,2.02,4.11,4.11,7.53h0Zm-27.89-62.03c0-1.68-.31-3.19-.94-4.56-.62-1.36-1.48-2.55-2.55-3.56-1.06-1.02-2.34-1.82-3.83-2.39-1.49-.57-3.09-.86-4.8-.86h-9.77v22.2h9.77c1.74,0,3.35-.25,4.84-.77,1.5-.52,2.77-1.25,3.83-2.19,1.06-.94,1.9-2.08,2.51-3.39,.61-1.32,.92-2.82,.92-4.48h0Zm138.43,62.03h-27.62l-31.05-34.33v34.33h-21.02v-90.03h21.02v34.7l31.81-34.7h25.7l-40.67,44.27,41.83,45.77Z"/><path class="f" d="M847.73,1004.43c-54.12,27.84-100.41,68.81-134.67,118.65,38.8,294.09,289.77,521.31,594.12,522.76h.26c304.35-1.45,555.33-228.67,594.12-522.76-34.27-49.83-80.55-90.81-134.67-118.65,1.08,12.91,1.59,25.95,1.59,39.14,0,255.27-206.14,462.39-461.04,463.97h-.26c-254.9-1.58-461.04-208.69-461.04-463.97,0-13.19,.51-26.23,1.59-39.14h0Z"/><path class="e" d="M1306.91,0L480.36,447.05l242.87,131.4c-18.36,34.09-30.72,98.67-30.72,173.02v26.03c0,110.07,27.09,198.69,60.65,198.69h1.42c57.04-100.21,164.74-167.79,288.3-167.79,107.88,0,203.73,51.54,264.3,131.31v.35s.05-.12,.09-.18c.05,.07,.13,.11,.18,.18v-.35c60.57-79.77,156.42-131.31,264.3-131.31,123.55,0,231.25,67.59,288.3,167.79h1.41c33.56,0,60.65-88.63,60.65-198.69v-26.03c0-74.34-12.37-138.92-30.72-173.02l242.87-131.4L1307.7,0l-.44,.18-.35-.18Z"/></g></g></svg>