<svg width="1700" height="265" viewBox="0 0 1700 265" fill="none" xmlns="http://www.w3.org/2000/svg">
<g clip-path="url(#clip0_73_48)">
<path fill-rule="evenodd" clip-rule="evenodd" d="M135.282 20C145.606 31.2214 151.142 47.2519 160.397 59.542C160.782 61.1771 159.863 61.487 159.863 62.7481C161.311 63.6137 163.806 63.4374 165.74 63.8168C164.896 59.0076 165.073 52.1786 167.878 49.3893C170.897 49.2237 173.435 49.5282 175.359 50.458C176.273 48.855 176.636 46.7176 177.496 45.1145C179.634 44.3878 180.702 42.6298 183.908 42.9771C185.618 39.7015 186.083 35.1756 187.649 31.7557C195.718 29.3992 207.254 31.7183 205.282 40.8397C211.433 42.1702 217.423 43.6611 219.176 49.3893C226.208 42.7046 231.556 34.3366 238.412 27.4809C242.056 32.0282 244.648 37.6336 254.443 36.0305C254.293 41.9405 250.221 43.9176 247.496 47.2519C241.255 45.6489 236.435 42.6405 233.603 37.6336C228.388 41.1496 225.433 46.9206 221.313 51.5267C224.679 59.8519 231.551 53.974 236.275 50.9924C237.018 51.3183 236.355 53.0496 237.344 53.1298V54.1985C236.456 54.9466 236.456 59.3282 237.344 60.0763C237.295 60.8351 237.258 61.5885 237.878 61.6794C239.411 68.1611 244.173 71.4153 250.702 72.9008C251.445 74.1191 254.443 73.0985 256.046 73.4351C255.511 80.916 249.361 82.7809 248.031 89.4656C244.012 88.3221 240.074 87.0931 237.344 84.6565C232.903 89.4656 227.677 93.516 222.916 98.0153C225.321 102.739 228.66 106.522 229.863 112.443C230.979 112.667 231.279 112.074 232 111.908C233.977 111.566 237.344 112.598 238.412 111.374C245.487 111.326 252.434 111.144 258.718 110.305C259.92 110.081 258.718 107.468 259.786 107.099C264.136 108.093 267.342 110.231 272.076 110.84C273.081 111.614 272.14 114.34 273.145 115.114C275.854 115.152 277.569 114.195 280.626 114.58C282.763 114.238 286.306 115.275 287.573 114.046C291.89 114.179 296.876 113.65 300.397 114.58C301.291 118.793 301.65 123.102 301.466 127.405C301.808 129.542 300.771 133.085 302 134.351V147.71C299.489 149.655 295.15 149.762 290.779 149.847C286.857 150.2 281.524 149.142 278.489 150.382C278.137 150.335 277.781 150.417 277.486 150.614C277.19 150.81 276.977 151.108 276.886 151.45V157.863C276.26 157.948 276.437 158.835 276.351 159.466C273.231 161.689 269.939 163.74 265.664 164.809C263.527 164.622 264.232 161.603 262.992 160.534C259.001 161.528 254.363 161.881 249.634 162.137C245.925 161.037 240.24 161.913 236.275 161.069C234.314 160.887 233.534 161.892 233.069 163.206C232.444 163.292 232.62 164.179 232.534 164.809C238.439 166.385 246.844 165.461 253.374 166.412C254.117 167.631 257.115 166.61 258.718 166.947H260.321C262.992 168.186 267.973 167.128 271.542 167.481H274.748C277.073 168.721 281.695 167.668 284.901 168.015H289.176C289.918 169.234 292.916 168.213 294.519 168.55H299.328C295.791 174.898 296.657 180.984 302 184.58C298.409 186.311 291.211 186.76 286.504 185.649C285.049 183.592 284.13 181.204 283.832 178.702V173.359C283.613 172.071 284.81 172.199 284.366 170.687C280.802 169.709 275.154 170.121 272.076 170.153C267.828 168.876 260.973 170.211 256.58 169.084C255.137 167.855 251.429 168.892 249.099 168.55H243.756C240.721 167.663 233.966 167.663 230.931 168.55C227.415 173.765 224.733 179.803 221.313 185.114C226.218 183.084 234.095 179.071 235.206 187.252C240.192 183.757 240.341 188.946 246.427 188.321C249.019 195.705 253.064 201.637 256.046 208.626C253.737 214.205 258.295 217.71 259.786 222.519C260.55 225.244 258.151 224.801 257.649 226.26C263.634 234.451 260.118 237.273 251.771 241.221C244.824 244.513 233.827 249.771 227.191 252.977H226.122C222.996 252.592 222.473 252.833 219.176 252.977C217.53 250.882 215.788 248.884 214.366 246.565C209.867 248.601 208.312 243.947 206.351 241.756C201.077 245.389 192.757 249.285 190.321 240.687C185.837 246.004 182.231 238.368 177.496 241.221C172.783 237.385 168.241 233.377 168.947 224.122C171.216 222.906 173.363 221.474 175.359 219.847C179.569 223.267 183.192 219.089 187.115 217.71C184.785 214.696 183.7 210.437 180.702 208.092C175.428 211.367 164.971 209.46 158.26 211.298H145.435C113.192 206.489 94.4901 188.15 85.5878 160V159.466H74.3664C72.3893 158.579 66.7252 158.579 64.7481 159.466C61.1947 159.279 56.7916 159.941 54.0611 158.931H53.5267C52.2817 157.681 52.8908 154.582 50.855 154.122V153.588C49.2519 153.924 46.2542 152.904 45.5115 154.122C39.5321 152.802 31.1962 153.834 25.7405 151.985C23.1328 142.66 24.1855 129.676 22 119.924V116.718C24.6076 113.271 30.0687 112.678 35.3588 111.908C37.1702 111.759 38.426 111.059 40.7023 111.374C41.974 112.261 46.9115 112.261 48.1832 111.374C48.6 111.256 49.2519 111.374 49.2519 110.84C50.6466 109.028 53.9382 109.114 57.2672 109.237C62.0015 109.488 66.4954 109.979 71.1603 110.305C73.2977 111.54 77.7435 110.492 80.7786 110.84C81.8046 111.711 85.2565 111.759 85.5878 110.305C86.1221 108.376 83.4824 109.563 82.3817 109.237C80.8534 107.911 76.5412 109.381 74.9008 108.168C74.158 106.95 71.1603 107.97 69.5573 107.634C66.3511 107.297 63.1878 106.875 59.4046 107.099C57.8015 105.865 53.8954 106.912 51.3893 106.565C47.2641 104.989 40.7771 105.779 36.4275 104.427C36.2298 101.911 38.6237 99.971 38.0305 96.4122C37.555 93.5534 35.0809 93.8206 34.8244 91.0687C35.6153 90.7908 36.171 90.2779 36.9618 90C40.6595 89.2412 45.8534 90 49.2519 88.9313H51.9237C52.8267 90.5343 53.7405 92.1053 54.5954 93.7405V99.084C53.6496 100.099 54.0985 102.504 52.9924 103.359C60.4237 104.52 67.9181 105.234 75.4351 105.496C76.1779 106.714 79.1756 105.694 80.7786 106.031C82.2748 106.672 84.4657 106.618 86.6565 106.565C89.2695 102.231 91.4657 97.4809 94.6718 93.7405C84.366 76.7451 73.1274 60.3332 61.0076 44.5802V44.0458C59.9389 39.9527 66.5168 43.5114 66.8855 40.8397C69.0229 39.5733 70.6634 37.8473 71.1603 34.9618C72.3679 34.5664 71.3687 31.9641 71.6947 30.687C73.2069 30.2435 73.0786 31.4405 74.3664 31.2214C76.6588 34.6305 79.8168 37.1687 82.3817 40.3053C80.4366 46.1832 76.2687 49.8649 72.229 53.6641C74.0244 57.7466 76.0817 61.5672 79.7099 63.8168C85.0534 62.5718 83.0763 54.0008 84.5191 48.855C89.4298 40.7649 99.4809 37.8153 107.496 32.8244H113.374C115.319 24.0824 126.631 24.7076 132.611 20H135.282ZM134.214 23.2061C127.652 24.1252 124.013 27.9672 118.718 30.1527C118.953 34.5504 121.224 36.9069 126.198 36.5649C127.406 34.6466 131.638 30.9916 133.679 33.3588C133.786 35.6031 130.58 34.5344 130.473 36.5649C132.076 40.1985 134.353 36.1321 136.886 36.0305C138.943 39.0496 134.839 39.8618 133.145 40.8397C133.866 45.1145 129.848 44.671 129.405 47.7863C134.492 51.7832 136.597 58.7618 140.092 64.3511C142.074 64.7305 142.384 63.4374 144.366 63.8168C144.409 61.813 142.063 62.2137 142.763 59.542C144.543 52.2695 152.665 57.6718 152.916 62.7481C154.717 62.4114 157.88 63.4374 158.794 62.2137C150.207 49.6031 143.255 35.3626 134.214 23.2061ZM241.084 34.9618V34.4275C239.956 31.2214 236.136 32.3916 235.206 34.9618C235.618 36.5114 236.05 38.0343 237.344 38.7023C239.689 41.342 242.04 43.9817 246.962 44.0458C248.437 42.4962 250.334 41.374 250.702 38.7023C246.684 38.2695 242.885 37.6336 241.084 34.9618ZM189.786 34.4275C188.408 39.4611 187.595 45.0611 184.977 48.855C183.053 49.8863 182.279 48.0107 179.634 48.3206C178.031 50.0947 179.569 55.0267 176.962 55.8015C174.386 55.8817 174.29 53.5038 171.084 54.1985C170.16 57.0145 169.973 60.5626 169.481 63.8168C178.832 65.687 186.901 68.8397 195.13 71.8321C197.727 59.1947 201.793 50.9229 202.611 37.0992C198.555 35.9878 194.825 34.5557 189.786 34.4275ZM66.3511 45.6489C67.4947 48.0641 68.4458 50.6771 71.1603 51.5267C73.8962 48.2031 78.187 46.4397 79.7099 41.9084C78.4723 39.3404 76.4001 37.2682 73.8321 36.0305C72.4588 40.3534 69.1298 42.726 66.3511 45.6489ZM109.634 36.0305C106.208 36.5328 98.4924 41.1122 94.1374 44.5802C88.2275 49.2878 86.6565 55.8656 85.5878 64.3511C84.7542 65.655 82.7076 65.7458 82.3817 67.5572C82.4886 69.5878 84.6313 69.5824 84.5191 71.8321C94.6718 64.8855 110.873 51.8634 122.992 46.7176C126.802 45.1145 133.027 44.2542 129.405 39.771C122.169 41.9084 117.59 34.8656 109.634 36.0305ZM205.282 44.0458C204.684 45.7611 203.818 47.2145 203.679 49.3893C212.55 51.0244 217.434 56.6565 221.847 62.7481C222.641 62.5965 223.372 62.2097 223.943 61.638C224.515 61.0664 224.902 60.3361 225.053 59.542C217.038 55.8015 217.754 43.3298 205.282 44.0458ZM124.595 51.5267C126.843 53.259 128.714 55.4323 130.092 57.9132C131.47 60.3941 132.327 63.1303 132.611 65.9542C134.449 66.1893 135.603 65.7405 136.886 65.4198C134.086 59.1466 131.157 47.8611 122.992 50.458C120.956 50.5595 119.476 51.2168 119.252 53.1298C121.79 53.3489 122.057 51.3076 124.595 51.5267ZM113.374 56.8702C115.202 55.8443 117.408 55.2031 118.183 53.1298C116.11 53.5466 114.694 54.626 113.374 55.8015C105.295 59.8359 98.6153 65.2649 92 70.7634C92.4809 78.1214 98.1023 80.3336 99.4809 86.7939C101.356 86.8901 101.239 84.9878 102.687 84.6565C102.073 78.4099 95.7939 75.8718 96.8092 70.229C98.0168 63.5282 109.874 62.684 113.374 56.8702ZM234.137 79.313C232.844 74.1672 223.856 74.2847 222.916 67.5572C222.59 66.6328 220.383 67.6 220.244 66.4885C216.082 59.9641 212.496 52.8679 202.611 52.0611C199.987 58.345 199.405 66.6863 197.267 73.4351C203.727 71.6985 204.866 64.645 211.695 63.2824C214.265 66.884 225.305 72.9008 225.588 77.7099C225.85 82.1183 219.998 86.7939 215.435 88.9313C217.038 91.4427 218.54 94.0237 221.313 95.3435C225.737 90.7214 236.163 87.3603 234.137 79.313ZM111.771 62.7481C111.621 64.5863 118.221 69.8603 117.649 71.8321C122.223 70.3519 125.664 67.7229 131.008 67.0229C129.821 62.1496 127.411 58.5107 124.595 55.2672C119.979 55.7695 111.921 60.9099 111.771 62.7481ZM238.947 83.0534C241.458 83.7481 241.912 86.5 245.359 86.2595C248.565 83.5878 250.392 79.5321 252.84 76.1069C241.463 74.5038 234.239 68.7008 234.137 55.8015C230.29 58.0084 227.431 61.2092 225.053 64.8855C227.768 70.5443 232.534 74.1351 237.344 77.7099C238.701 78.6718 236.809 82.8718 238.947 83.0534ZM145.969 59.0076C144.986 60.9527 146.766 64.0893 150.244 63.2824C149.619 61.0595 148.641 59.1893 145.969 59.0076ZM100.015 71.2977C99.4809 74.8725 103.285 78.9015 105.893 81.4504C108.779 78.6397 112.161 76.3153 115.511 73.9695C113.855 70.6405 112.065 67.4397 110.168 64.3511C106.427 66.1305 100.64 67.2099 100.015 71.2977ZM163.603 66.4885C159.147 65.6015 150.96 65.6015 146.504 66.4885C131.173 68.626 118.253 73.1466 109.634 81.9847C109.099 81.9847 108.998 82.4176 108.565 82.5191C106.389 84.2489 104.417 86.2209 102.687 88.3969C102.687 88.9313 102.254 89.0328 102.153 89.4656C89.0771 101.756 80.8908 123.814 86.1221 148.244C86.8115 150.943 86.6031 154.528 87.7252 156.794C94.5756 186.279 113.456 203.735 144.366 209.16C147.936 210.053 155.224 210.053 158.794 209.16C166.494 206.777 173.163 209.871 179.634 206.489C178.239 199.542 165.415 191.019 166.275 182.977C166.644 179.52 173.275 172.985 178.565 172.824C181.696 172.728 183.31 176.031 186.58 174.427C189.711 177.708 190.663 183.169 194.061 186.183C198.16 184.292 204.331 180.241 208.489 184.58C211.908 182.811 216.098 179.237 220.779 181.908C225.31 172.194 231.781 164.681 233.069 153.053C233.956 150.195 233.956 143.622 233.069 140.763C231.198 119.656 225.214 102.664 213.832 91.0687C213.298 88.9313 211.497 88.0603 210.092 86.7939C199.843 74.7817 183.989 68.3695 163.603 66.4885ZM210.092 66.4885C206.666 69.1176 203.353 71.8641 201.008 75.5725C206.848 78.2817 209.365 84.3145 214.901 87.3282C217.915 84.6565 221.521 82.5511 222.382 77.7099C218.892 73.3603 215.259 69.1603 210.092 66.4885ZM89.3282 75.0382C88.8366 74.1084 89.3282 72.1687 87.7252 72.3664C85.871 72.6389 86.913 75.4176 87.7252 76.1069C88.6069 77.0099 88.8847 78.5061 89.8626 79.313C92.3847 83.0534 93.3893 88.258 97.3435 90.5343C97.2954 87.1198 94.0038 82.5191 92 79.313V78.7786C90.5038 78.1374 90.4985 76.0053 89.3282 75.0382ZM50.3206 92.1374C48.5786 91.3038 43.9084 92.1374 41.771 92.6718C38.1107 92.8641 42.2252 96.5084 41.2366 99.084C40.0931 99.4206 40.7344 102.376 41.2366 102.824C43.9992 102.199 49.3107 104.128 50.3206 101.756C52.3458 100.484 52.6931 93.9702 50.855 92.1374H50.3206ZM272.611 131.145C272.408 124.76 270.26 120.314 269.939 114.046C267.684 112.379 265.162 110.984 261.389 110.84C260.962 112.694 262.186 112.892 261.924 114.58C260.214 114.853 260.566 119.961 261.389 120.992C262.383 130.685 263.489 140.266 265.13 149.313C265.269 151.669 265.985 153.449 265.664 156.26C263.473 156.944 265.13 160.406 265.664 161.603C269.65 161.849 271.339 159.797 273.679 158.397V157.328C274.903 156.414 273.877 153.251 274.214 151.45C274.139 148.143 273.968 144.926 273.145 142.366C272.792 138.797 273.85 133.817 272.611 131.145ZM65.2824 112.977C63.4817 112.443 56.3748 111.182 56.1985 114.046C52.2069 116.942 45.1802 118.556 39.6336 116.183C38.9443 114.361 33.1038 114.895 31.6183 115.649C29.7053 115.692 28.5298 116.482 26.8092 116.718V117.252C25.9221 119.758 25.9221 125.967 26.8092 128.473C26.4244 131.53 27.3809 133.245 27.3435 135.954V138.626C27.6802 140.427 26.6542 143.59 27.8779 144.504C27.9687 145.305 27.6855 146.476 28.4122 146.641C28.3109 147.396 28.5021 148.16 28.9466 148.779C30.229 149.099 31.3832 149.548 33.2214 149.313C38.6985 149.003 42.6153 150.248 48.1832 149.847C52.3244 150.515 55.6641 151.985 57.8015 154.656C61.542 155.902 67.5962 154.838 72.229 155.191H72.7634C75.0931 156.078 81.1206 156.078 83.4504 155.191C84.2412 155.089 83.942 153.898 83.9847 153.053C82.5206 149.356 73.8321 152.882 70.626 150.916C67.6122 146.107 64.7481 141.105 63.6794 134.351C63.3321 131.492 64.3794 127.239 63.145 125.267C62.7229 123.066 63.9679 122.526 63.6794 120.458C64.2137 118.695 67.158 119.304 68.4886 118.321H73.8321C76.9847 119.389 79.3626 118.053 82.3817 119.389C83.1565 118.027 83.071 115.804 83.9847 114.58H79.7099C75.0183 113.928 70.7809 112.822 65.2824 112.977ZM244.824 114.046C241.437 114.398 236.638 113.34 234.137 114.58C232.262 114.489 230.135 114.137 230.931 116.718C231.589 118.321 232.769 116.14 234.137 116.718C241.442 116.365 250.168 117.428 256.58 116.183C257.366 116.183 259.252 114.698 257.649 114.046C254.614 113.159 247.86 113.159 244.824 114.046ZM297.725 117.252C293.269 116.365 285.082 116.365 280.626 117.252H273.145C273.76 123.05 274.369 128.853 275.817 133.817C276.164 136.676 275.117 140.929 276.351 142.901V145.038C275.202 148.677 278.772 147.603 281.16 147.71C283.666 148.597 289.876 148.597 292.382 147.71H293.985C296.063 147.475 298.211 147.304 299.863 146.641V145.038C300.75 143.237 300.75 137.755 299.863 135.954C299.515 132.919 300.568 128.473 299.328 126.336C298.794 122.408 299.676 120.314 298.26 117.252H297.725ZM248.565 119.389C243.125 118.524 237.386 118.727 232 119.389C231.69 121.126 232.363 121.874 232.534 123.13H235.74C239.31 122.777 244.29 123.835 246.962 122.595H248.031C249.634 122.259 252.631 123.279 253.374 122.061C256.281 122.296 258.76 122.104 258.183 118.855C257.408 119.149 255.421 118.23 255.511 119.389H248.565ZM74.9008 121.527C72.1435 121.618 68.8679 121.195 66.8855 122.061V124.733C65.2023 132.47 67.3023 141.057 71.1603 145.038C70.8718 146.93 73.0519 146.353 72.7634 148.244H75.9695C76.8886 149.131 81.4626 149.131 82.3817 148.244H82.916C82.916 146.823 83.1191 145.193 82.3817 144.504C78.0374 144.696 74.1954 146.326 71.6947 144.504C71.1229 141.159 68.9641 139.395 68.4886 135.954C67.6176 134.153 68.5313 130.568 67.4198 129.008C67.1099 127.271 67.7832 126.523 67.9542 125.267H68.4886C72.0366 124.198 77.455 124.973 81.8473 124.733C82.2107 120.992 78.2618 121.553 74.9008 121.527ZM260.321 132.748C260.379 129.483 259.786 126.87 259.252 124.198C256.703 124.674 253.374 124.353 251.237 125.267H245.359C241.982 125.802 233.48 124.065 233.603 126.336C233.689 130.349 235.773 132.363 235.74 136.489C236.082 138.813 235.046 142.527 236.275 143.969V146.107C238.412 147.347 242.858 146.294 245.893 146.641H253.374C254.64 147.87 258.183 146.834 260.321 147.176C261.005 147.202 261.058 147.86 261.924 147.71C261.811 144.263 260.967 141.538 260.855 138.092C260.518 136.489 261.539 133.491 260.321 132.748ZM78.6412 127.939C77.3748 126.71 73.8321 127.747 71.6947 127.405C71.6947 128.473 70.2359 128.083 70.626 129.542C70.5779 135.11 72.0153 139.198 74.9008 141.832H75.4351C76.0122 142.719 80.2015 142.719 80.7786 141.832H81.8473C82.4137 141.298 82.9534 138.017 81.8473 137.557V128.473C80.5863 128.473 80.2763 127.554 78.6412 127.939ZM236.275 149.313H235.74V151.45C239.219 152.22 242.286 151.653 246.962 151.985H254.443C255.148 152.653 260.449 153.39 260.321 151.45C258.969 148.527 252.786 150.435 249.634 149.313C246.427 148.426 239.481 148.426 236.275 149.313ZM235.74 154.656C235.569 155.912 234.896 156.66 235.206 158.397C237.018 158.547 238.273 159.247 240.55 158.931C241.463 160.155 244.627 159.129 246.427 159.466C251.771 158.76 260.604 161.528 260.855 155.725C258.45 154.742 254.534 155.282 251.771 154.656C250.857 153.433 247.694 154.459 245.893 154.122C242.687 154.469 238.065 153.417 235.74 154.656ZM286.504 170.687C284.302 174.251 285.376 182.047 288.107 184.046H289.176C289.753 184.933 293.942 184.933 294.519 184.046H296.657C294.786 180.359 295.08 176.287 295.588 171.221C295.053 171.221 294.952 170.789 294.519 170.687C293.071 169.8 287.952 169.8 286.504 170.687ZM211.16 239.618C212.186 241.446 213.063 243.412 214.901 244.427C215.387 243.134 217.038 243.011 218.641 242.824C220.864 244.342 222.221 246.725 222.916 249.771C225.588 249.055 227.875 247.96 228.794 245.496C227.725 243.359 226.213 241.665 226.122 238.55C228.121 239.121 227.645 237.224 229.328 237.481C234.308 248.136 249.318 238.363 254.443 233.206C254.315 231.021 252.626 230.39 252.305 228.397C252.637 226.949 254.539 227.066 254.443 225.191C252.738 221.376 249.997 218.597 249.099 213.969C249.927 213.371 250.211 212.233 251.771 212.366C249.056 204.576 244.322 198.799 241.618 190.992C238.156 193.851 230.653 192.772 230.397 187.786C228.035 187.92 227.378 189.753 225.053 189.924C225.834 193.6 228.393 195.486 229.328 199.008C222.467 200.835 221.751 192.018 218.641 188.321C215.478 187.829 214.211 189.234 211.695 189.389C210.455 194.909 215.831 196.646 214.366 200.611C208.547 198.767 208.227 191.431 203.679 188.321C201.28 189.485 198.491 190.255 196.198 191.527C198.042 197.698 202.461 201.295 204.748 207.023C204.059 207.937 203.642 209.123 202.076 209.16C192.18 201.423 190.369 185.606 180.168 178.168L172.687 181.908C178.96 196.651 188.135 208.498 195.664 221.985C190.582 221.867 187.857 224.94 182.84 227.328C180.847 227.008 180.665 224.87 178.565 224.656C177.496 226.26 174.824 226.26 174.29 228.397C178.282 230.743 177.496 236.765 181.771 237.481C185.196 238.053 186.511 233.965 191.389 234.809C194.115 236.359 194.932 239.816 197.802 241.221C200.313 240.527 201.302 238.309 203.679 237.481C205.817 237.85 206.731 236.947 208.489 236.947C209.899 237.321 209.616 239.378 211.16 239.618Z" fill="#F6926D"/>
<path fill-rule="evenodd" clip-rule="evenodd" d="M135.282 47.7862C135.982 44.7458 139.023 44.0458 141.695 42.9771C142.229 47.0167 137.564 48.3206 135.282 47.7862Z" fill="#F6926D"/>
<path fill-rule="evenodd" clip-rule="evenodd" d="M184.443 65.4199C183.614 64.6451 183.972 62.684 183.908 61.1451C185.207 60.3061 186.19 59.1519 188.717 59.542C187.879 62.0855 186.227 63.8168 184.443 65.4199Z" fill="#F6926D"/>
<path fill-rule="evenodd" clip-rule="evenodd" d="M216.504 80.3816C212.154 79.6816 209.269 74.8778 209.023 71.832C212.603 73.5954 215.97 75.5725 216.504 80.3816Z" fill="#F6926D"/>
<path fill-rule="evenodd" clip-rule="evenodd" d="M128.336 98.5495C123.714 96.7274 123.409 93.1579 122.992 87.8625C125.605 87.0396 125.52 90.5343 124.595 91.603C125.386 94.3709 128.694 94.6274 128.336 98.5495Z" fill="#F6926D"/>
<path fill-rule="evenodd" clip-rule="evenodd" d="M42.8397 118.855C46.2435 120.528 44.742 126.277 42.8397 128.473C41.7229 128.249 41.4236 128.842 40.7023 129.008H35.3588C35.3588 128.473 34.7068 128.591 34.29 128.473C32.3557 126.053 32.2168 122.061 35.3588 120.993C37.7046 120.132 39.4145 118.636 42.8397 118.855ZM36.4275 125.267C37.5229 126.096 41.2366 126.096 42.3053 125.267V122.596C39.6603 122.799 36.6626 122.654 36.4275 125.267Z" fill="#F6926D"/>
<path fill-rule="evenodd" clip-rule="evenodd" d="M294.519 120.458C293.931 123.077 296.122 128.474 292.382 127.939V123.13C290.837 119.256 284.366 122.275 281.16 120.993C283.907 119.203 291.949 117.498 294.519 120.458Z" fill="#F6926D"/>
<path fill-rule="evenodd" clip-rule="evenodd" d="M196.733 122.061C196.733 124.289 192.901 124.653 191.389 123.664V122.061C192.592 121.019 195.408 121.596 196.733 122.061Z" fill="#F6926D"/>
<path fill-rule="evenodd" clip-rule="evenodd" d="M209.023 126.87C207.131 127.939 204.748 125.657 203.145 124.733C204.15 121.462 208.868 124.423 209.023 126.87Z" fill="#F6926D"/>
<path fill-rule="evenodd" clip-rule="evenodd" d="M219.176 132.214C216.157 133.138 212.795 130.146 211.695 127.405C215.109 128.083 217.818 129.478 219.176 132.214Z" fill="#F6926D"/>
<path fill-rule="evenodd" clip-rule="evenodd" d="M45.5115 146.641C42.9056 147.383 40.2056 147.743 37.4962 147.71C36.3153 146.219 36.3741 143.488 35.8932 141.298C38.8481 135.462 48.2741 136.895 45.5115 146.641ZM39.6336 144.504C41.055 144.504 42.6848 144.707 43.3741 143.969C44.2665 139.561 38.4527 140.229 39.6336 144.504Z" fill="#F6926D"/>
<path fill-rule="evenodd" clip-rule="evenodd" d="M145.969 48.8549C144.126 51.4625 141.214 53.0068 137.42 53.664C137.606 52.7528 137.987 51.8923 138.535 51.1408C139.083 50.3893 139.786 49.7644 140.597 49.3084C141.408 48.8524 142.307 48.5759 143.234 48.4976C144.161 48.4194 145.094 48.5412 145.969 48.8549Z" fill="#F6926D"/>
<path fill-rule="evenodd" clip-rule="evenodd" d="M190.321 52.061C187.505 51.7404 189.3 56.0259 186.58 55.8014C186.254 54.0352 186.254 52.2242 186.58 50.4579C188.221 50.1427 190.401 48.2724 190.855 50.9923C190.94 51.6121 190.737 51.9434 190.321 52.061Z" fill="#F6926D"/>
<path fill-rule="evenodd" clip-rule="evenodd" d="M184.443 83.0532V85.1906C183.256 85.6074 182.359 86.3128 180.702 86.2593C180.906 85.1457 181.266 84.0663 181.771 83.0532H184.443Z" fill="#F6926D"/>
<path fill-rule="evenodd" clip-rule="evenodd" d="M178.031 91.6032C175.717 91.9612 176.593 89.1238 176.427 87.3284C177.496 87.3284 177.106 85.8696 178.565 86.2597C179.634 87.5688 178.437 90.091 178.031 91.6032Z" fill="#F6926D"/>
<path fill-rule="evenodd" clip-rule="evenodd" d="M266.733 131.145C267.241 126.384 264.034 120.779 266.733 117.252C269.351 122.115 268.122 130.824 269.939 136.489C269.405 140.405 271.12 146.577 268.87 148.779C267.684 149.073 268.111 147.758 267.267 147.71C266.915 142.366 267.978 135.602 266.733 131.145Z" fill="#F6926D"/>
<path fill-rule="evenodd" clip-rule="evenodd" d="M92 137.557H91.4657C91.1081 137.1 90.9194 136.534 90.9313 135.954C92.0802 134.966 94.8481 135.596 96.8092 135.42V137.023C95.9222 137.915 93.6725 137.45 92 137.557Z" fill="#F6926D"/>
<path fill-rule="evenodd" clip-rule="evenodd" d="M230.397 135.954C230.867 138.396 226.181 138.092 227.191 135.42C228.505 135.351 229.766 135.34 230.397 135.954Z" fill="#F6926D"/>
<path fill-rule="evenodd" clip-rule="evenodd" d="M164.672 150.382C173.221 149.126 177.534 143.649 180.702 137.023C204.214 137.215 177.699 161.266 167.878 164.275C165.741 164.617 162.198 163.58 160.931 164.809C155.668 163.511 148.561 164.51 143.298 162.137C135.657 158.691 127.267 147.4 129.405 141.298C131.237 140.817 131.724 138.989 134.214 139.16C141.631 142.607 145.104 149.997 155.588 150.382C157.389 151.269 162.871 151.269 164.672 150.382ZM163.603 159.466C176.572 158.541 184.053 152.129 187.115 141.298C181.509 137.408 180.109 145.172 177.496 147.71C173.264 151.819 168.006 152.995 160.931 154.122H155.588C145.601 153.053 141.011 146.615 133.679 142.901C131.312 150.547 143.036 158.611 150.779 159.466C153.814 160.353 160.568 160.353 163.603 159.466Z" fill="#F6926D"/>
<path fill-rule="evenodd" clip-rule="evenodd" d="M283.832 131.679C286.942 131.407 289.812 130.888 293.45 131.145C294.84 132.7 295.855 136.863 293.985 138.626C291.548 139.283 294.033 135.014 292.382 134.885V134.351C291.847 131.407 281.866 135.42 283.832 131.679Z" fill="#F6926D"/>
<path fill-rule="evenodd" clip-rule="evenodd" d="M293.45 140.763C295.497 140.464 295.743 145.321 293.985 145.572C291.564 146.39 294.268 142.083 291.847 142.901C291.944 142.446 291.639 142.398 291.313 142.366C289.71 141.132 285.804 142.179 283.298 141.832C283.156 141.832 283.02 141.776 282.92 141.675C282.82 141.575 282.763 141.439 282.763 141.298C282.763 141.156 282.82 141.02 282.92 140.92C283.02 140.82 283.156 140.763 283.298 140.763H293.45Z" fill="#F6926D"/>
<path fill-rule="evenodd" clip-rule="evenodd" d="M55.1297 237.481C46.3129 233.468 52.1213 217.71 62.6107 223.053C66.2442 219.917 67.842 214.75 71.1603 211.298C70.2893 206.457 71.4649 201.567 76.5038 201.145C79.3733 197.784 79.6404 191.815 84.5191 190.458C83.6908 188.037 84.4282 186.776 85.0534 184.58C86.4896 183.309 88.2632 182.482 90.1597 182.197C92.0562 181.913 93.9946 182.184 95.7404 182.977C101.565 189.651 91.0916 198.906 85.5878 192.595C82.1465 194.145 80.4046 197.405 79.1755 201.145C81.6117 201.789 83.8277 203.082 85.5878 204.886C85.3687 210.982 90.8351 211.394 94.6717 213.435C96.3015 212.746 97.4236 211.56 98.9465 210.763C117.008 211.747 97.6267 235.472 94.1374 216.107C92 213.97 88.6603 213.034 86.1221 211.298C83.8778 209.962 82.216 213.788 80.7786 215.038C80.0198 214.99 79.2664 214.947 79.1755 215.573C76.7549 215.503 75.4939 214.263 73.2977 213.97C66.7679 217.218 64.6305 224.683 66.3511 232.137C71.1603 234.462 75.5473 237.192 81.8473 238.015C85 231.149 96.9107 232.137 97.3435 239.618C97.8244 247.906 83.7496 251.246 81.8473 241.221C75.6809 239.047 67.2542 231.534 61.0076 237.481H55.1297ZM89.3282 185.115C86.0687 185.05 86.074 190.266 87.7252 192.061H93.0687C94.1374 190.624 95.4252 189.427 95.2061 186.718H94.6717C95.142 184.265 90.6962 183.955 89.3282 185.115ZM79.1755 212.901C84.4282 212.153 85.6572 201.3 75.4351 203.817C70.7916 207.087 75.0397 213.489 79.1755 212.901ZM96.8091 219.313C98.8343 223.053 105.968 221.627 104.29 215.573C101.49 213.692 95.4198 213.916 96.8091 219.313ZM63.6794 228.397C56.3748 215.102 45.5114 239.731 61.542 235.344C63.5885 234.702 65.2824 230.892 63.6794 228.397ZM84.5191 239.618C84.2412 242.915 87.4152 245.277 91.4656 245.496C100.737 238.689 85.3046 230.315 84.5191 239.618Z" fill="#F6926D"/>
<path fill-rule="evenodd" clip-rule="evenodd" d="M194.595 43.5115C191.315 42.5497 191.448 44.997 190.321 46.1833C185.944 43.7252 194.697 37.0993 194.595 43.5115Z" fill="#F6926D"/>
<path fill-rule="evenodd" clip-rule="evenodd" d="M123.527 85.7253C124.125 82.097 122.752 80.4459 122.458 77.71C125.873 77.5337 127.123 85.1909 123.527 85.7253Z" fill="#F6926D"/>
<path fill-rule="evenodd" clip-rule="evenodd" d="M193.527 79.8472C192.907 82.6151 189.941 83.0533 186.58 83.0533C187.05 80.1411 191.09 80.793 193.527 79.8472Z" fill="#F6926D"/>
<path fill-rule="evenodd" clip-rule="evenodd" d="M126.198 124.199C123.767 119.683 119.252 117.252 116.046 113.512C123.837 99.9283 141.406 96.1238 150.244 83.5879C163.069 85.0039 170.09 92.239 181.237 95.3436C184.042 99.8963 192.832 101.136 193.527 106.031C194.259 111.166 187.296 112.443 185.511 117.252C187.147 122.371 190.727 130.691 188.718 135.954C184.902 135.254 181.552 129.36 175.359 128.473C168.161 127.442 162.914 131.808 158.794 136.489C155.769 135.286 156.384 131.973 153.45 130.076C147.428 126.176 135.224 129.136 134.214 135.954C132.798 137.023 132.611 139.315 129.939 139.16C129.111 138.386 127.855 138.038 126.733 137.557V132.748C126.385 130.076 127.433 125.994 126.198 124.199ZM149.71 124.733C153.701 125.727 155.839 128.58 158.26 131.145C163.774 125.86 176.764 122.916 184.977 127.939C184.87 123.055 182.396 120.544 181.237 116.718C183.668 113.095 187.275 110.642 188.718 106.031C178.624 102.205 169.518 94.478 158.26 91.6032C154.642 90.6787 151.179 93.0406 147.572 94.8093C143.779 96.6688 139.915 98.1009 137.954 99.6184C132.402 103.893 126.198 109.349 121.389 113.512C124.296 116.509 129.992 117.754 131.008 122.061C131.82 125.518 128.453 128.928 130.473 133.283C133.305 129.702 136.25 126.234 141.16 124.733H149.71Z" fill="#F6926D"/>
<path fill-rule="evenodd" clip-rule="evenodd" d="M56.7328 118.32C58.8702 120.682 58.9236 124.701 58.3359 128.473C56.0595 128.51 54.5954 129.365 51.9236 129.007C47.9748 124.786 50.3206 117.973 56.7328 118.32ZM52.9923 125.267C53.6229 125.881 54.8786 125.871 56.1985 125.801C57.8603 121.377 51.7259 120.623 52.9923 125.267Z" fill="#F6926D"/>
<path fill-rule="evenodd" clip-rule="evenodd" d="M119.786 128.473C111.103 128.879 106.962 134.886 99.4809 137.023C99.3686 133.705 101.527 132.657 104.824 132.748C108.415 129.927 112.209 127.308 117.649 126.336C119.006 126.4 119.722 127.116 119.786 128.473Z" fill="#F6926D"/>
<path fill-rule="evenodd" clip-rule="evenodd" d="M220.779 133.282C221.03 131.679 226.934 133.01 226.656 135.42C223.632 135.772 221.698 135.035 220.779 133.282Z" fill="#F6926D"/>
<path fill-rule="evenodd" clip-rule="evenodd" d="M59.4046 148.244C54.3924 150.168 50.1336 147.544 50.3206 143.97C50.6733 137.221 63.984 137.712 59.4046 148.244ZM54.0611 142.901C53.3664 145.653 56.0649 146.919 57.8016 145.573C58.0367 143.2 56.4336 142.666 54.0611 142.901Z" fill="#F6926D"/>
</g>
<g clip-path="url(#clip1_73_48)">
<path fill-rule="evenodd" clip-rule="evenodd" d="M1654.62 21.9238H1655.91C1656.7 18.996 1651.57 21.9839 1651.42 20H1659.11C1662.8 20.8116 1665.97 22.1222 1670.02 22.5671C1671.65 29.5168 1678.15 31.5428 1679 39.238V41.1618C1674.19 61.5721 1661.57 74.185 1649.49 87.351C1646.97 90.6034 1642.95 92.3589 1641.15 96.3327C1633.89 103.986 1620.54 115.775 1613.57 126.482C1610.39 131.364 1606.68 139.528 1610.36 145.72C1610.59 148.949 1606.75 148.083 1606.51 150.854C1603.29 151.299 1603.45 147.884 1598.81 148.287C1584.65 127.612 1606.12 107.172 1618.06 94.4149C1623.04 89.1124 1626.96 83.0705 1632.17 78.3753C1636.21 74.0828 1640.43 69.9586 1644.36 65.5459C1649.94 56.1614 1660.29 48.1115 1661.04 36.0397C1658.24 34.9696 1651 34.9696 1648.21 36.0397C1633.37 39.1719 1618.15 45.0034 1606.51 52.7166C1602.65 55.2716 1599.81 60.3697 1592.4 57.8507C1592.11 57.2495 1591.83 56.7025 1591.11 56.5642C1590.28 53.3839 1592.66 53.414 1592.4 50.7928C1590.76 50.873 1589.91 51.7286 1589.83 53.3599C1589.71 53.7648 1589.45 54.1147 1589.1 54.3487C1588.75 54.5827 1588.33 54.686 1587.91 54.6404C1587.99 53.0352 1589.11 52.6324 1587.26 52.0733C1587.37 51.3218 1588.43 51.5323 1589.19 51.4361C1593.1 49.5664 1594.6 45.2979 1598.17 43.0916C1598.17 42.4904 1597.38 42.5986 1596.89 42.4543C1596.34 42.5686 1596.29 42.2018 1596.25 41.8111C1603.62 35.0718 1613.19 30.5328 1623.83 27.0579C1625.63 26.9497 1626.5 25.8556 1628.32 25.7714C1629.93 25.8856 1630.33 24.7854 1630.89 23.8476C1632.97 24.2203 1633.89 23.4147 1635.38 23.2103C1634.96 22.555 1633.9 22.543 1634.1 21.2805C1637.33 24.3225 1641.07 20.7334 1645 20.6433C1646.13 21.01 1648.77 19.8677 1648.85 21.2805C1647.29 22.4709 1653.08 21.7134 1654.62 21.9238ZM1598.81 41.8111C1600.67 40.8732 1605.23 39.2861 1603.94 37.3202C1602.87 39.4544 1599.7 39.4905 1598.81 41.8111ZM1605.23 37.3202C1607.32 37.242 1611.34 35.7812 1609.72 34.1159C1608.81 35.7631 1605.55 35.0718 1605.23 37.3202V37.3202ZM1626.4 88.6375C1621.97 89.1425 1619.7 95.1905 1618.7 96.982C1620.84 93.7656 1625.25 92.8398 1626.4 88.6375V88.6375Z" fill="#F6926D"/>
<path fill-rule="evenodd" clip-rule="evenodd" d="M1516.7 69.3936C1522.05 69.0329 1528.59 69.9467 1532.09 69.3936C1536.59 70.2473 1542.03 70.1631 1546.21 71.3234C1548.4 72.3394 1551.71 72.2312 1554.55 72.6039C1556.74 72.7663 1557.63 74.2272 1560.32 73.8845C1560.84 74.0107 1560.96 74.5277 1561.61 74.5277C1562.54 76.157 1564.28 76.9866 1564.81 79.0186C1565.68 80.2931 1566.01 82.0726 1566.73 83.5095C1567.41 85.3972 1567.62 87.7599 1568.66 89.2809C1569.55 90.1105 1569.3 92.0704 1569.3 93.7717C1567.12 95.4176 1565.17 97.3625 1563.53 99.5492C1561.89 99.6153 1562.26 101.695 1562.24 103.397C1563.37 110.395 1564.53 117.362 1568.02 121.997C1574.69 130.059 1567.69 142.239 1563.53 148.943C1559.76 152.442 1556.05 156.001 1552.62 159.848C1547.57 164.628 1539.15 166.04 1532.74 169.467C1530.84 169.87 1529.07 170.754 1527.61 172.034C1516.67 177.908 1497.77 178.647 1486.55 172.678C1484.07 170.237 1479.71 169.672 1476.93 167.543C1474.94 163.119 1472.65 159.013 1471.79 153.464C1470.12 152.357 1471.36 148.335 1469.23 147.692C1468.48 146.436 1467.12 144.085 1468.59 142.558C1470.71 141.476 1469.19 138.626 1468.59 136.781C1467.65 137.135 1465.27 136.035 1465.38 137.424C1463.58 138.193 1460.96 138.127 1458.32 138.067C1458.32 137.712 1457.81 137.34 1457.69 138.067C1452.54 138.933 1451.6 135.59 1449.34 133.576V132.903C1448.6 131.099 1448.46 128.659 1446.77 127.775C1445.74 126.285 1445.13 124.54 1445.02 122.73C1444.91 120.919 1445.29 119.113 1446.14 117.507C1448.33 116.304 1450.69 115.222 1451.91 113.016C1454.31 113.503 1453.31 110.569 1455.12 110.449C1457.47 110.034 1458.31 108.086 1459.61 106.601C1462.07 103.078 1466.4 101.419 1469.87 98.9059C1471.94 98.1828 1473.73 96.839 1475.01 95.0583C1478.01 93.5553 1480.04 91.1145 1482.06 88.6376C1488.29 84.4113 1493.29 78.9164 1499.38 74.5277C1502.38 74.3233 1501.59 70.3194 1503.87 69.3936H1509C1511.13 69.1892 1512.95 69.2974 1513.49 70.6802C1513.59 69.2974 1515.11 69.2974 1516.7 69.3936ZM1535.33 76.4515C1530.19 75.3814 1520.59 75.3814 1515.45 76.4515C1512.65 76.8664 1508.2 75.6159 1506.47 77.0948C1497.26 82.6378 1489.63 89.7197 1480.81 95.6955C1473.92 99.0742 1468.9 104.323 1463.49 109.168C1460.51 111.573 1458.02 114.392 1455.15 116.863C1450.67 119.442 1461.57 119.37 1462.84 118.15H1469.23C1468.76 119.899 1470.5 119.442 1470.51 120.717C1469.93 123.237 1469.71 125.829 1469.87 128.412V129.055C1470.74 129.254 1471.07 129.969 1472.44 129.699C1472.67 126.506 1475.6 126.019 1476.29 123.284C1482.93 119.022 1491.66 114.867 1500.66 114.94C1509.12 118.048 1513.98 112.012 1517.34 107.888C1527.09 101.876 1541.63 98.485 1557.12 100.186C1556.93 95.2447 1554.24 92.7978 1551.98 89.9241C1550.39 88.7939 1551.05 88.8661 1551.98 87.3571C1551.23 87.2549 1550.18 87.4653 1550.06 86.7138C1550.06 85.8661 1551.18 86.1126 1551.34 85.4333C1551.84 85.289 1552.61 85.4333 1552.62 84.79C1554.75 83.7079 1555.58 81.3392 1557.12 79.6619C1557.86 79.5537 1557.81 78.6459 1557.76 77.7321C1555.35 76.2712 1551.37 76.4155 1547.49 76.4515H1535.33ZM1562.23 84.79C1561.89 82.9864 1561.29 81.4594 1560.95 79.6619C1557.54 80.9484 1557.25 85.3671 1553.89 86.7138C1553.43 88.4693 1555.17 88.0064 1555.18 89.2809C1556.07 92.0223 1558.01 93.7176 1558.38 96.9821C1561.49 97.0963 1561.95 94.5773 1562.87 92.4912C1564.1 91.0303 1563.94 85.4754 1562.23 84.79ZM1538.5 116.226C1542.55 115.024 1545.72 116.671 1549.41 115.583C1551.45 111.218 1553.3 106.649 1559.67 106.601C1556.06 99.5311 1543.58 101.972 1535.29 103.397C1528.32 104.599 1521.89 107.894 1518.62 110.449C1516.12 111.807 1513.81 113.346 1512.84 116.226C1510.61 120.056 1512.34 123.915 1514.12 127.132C1514.82 127.148 1515.5 126.921 1516.05 126.488C1518.28 125.733 1520.27 124.406 1521.82 122.641C1525.88 121.997 1528.32 119.731 1531.44 118.15C1533.49 117.188 1536.54 117.248 1538.51 116.226H1538.5ZM1558.38 110.449C1557.57 110.449 1557.49 109.631 1556.46 109.811C1544.15 132.139 1525.5 148.131 1491.03 148.287C1489.28 147.043 1485.66 147.686 1483.97 146.364C1479.26 145.732 1478.97 140.682 1473.71 140.592C1471.9 144.314 1474.58 148.552 1477.55 149.574V150.211C1479.43 151.329 1481.2 152.55 1483.97 152.778C1486.9 154.582 1490.92 155.237 1495.52 155.345C1498.1 156.415 1505.14 156.415 1507.71 155.345C1525.46 153.211 1539.72 147.578 1548.76 136.709C1549.97 134.075 1553.07 133.318 1553.89 130.294C1555.74 125.298 1559.69 122.406 1560.31 116.184C1561.57 114.94 1560.17 110.851 1558.4 110.449H1558.38ZM1507.07 118.15C1505.12 117.086 1498.75 117.086 1496.8 118.15C1483.62 119.076 1475.83 125.412 1471.78 135.47C1472.28 135.614 1472.53 136.005 1472.43 136.751H1475.66C1478.88 135.921 1480.34 140.159 1482.08 138.68C1485.63 137.099 1488.47 134.809 1492.34 133.546C1494.37 132.795 1496.73 132.344 1498.11 130.979C1502.58 129.885 1507.62 129.368 1511.59 127.775C1511.28 123.567 1509.01 121.366 1507.74 118.156L1507.07 118.15ZM1563.52 121.36C1563.48 120.537 1562.69 120.47 1562.87 119.43C1559.74 119.01 1560.07 127.21 1557.1 129.049C1555.84 130.991 1554.3 132.657 1553.26 134.821C1546.79 142.263 1540.45 149.814 1529.52 152.784C1527.72 153.349 1525.61 153.584 1524.39 154.708C1519.46 155.772 1514.71 157.011 1509.63 157.918C1506.84 158.327 1502.38 157.077 1500.65 158.556C1489.9 159.043 1483.97 154.708 1476.27 152.141C1475.79 158.183 1478.24 161.297 1479.48 165.614C1486.17 168.121 1492.71 170.748 1501.93 170.748C1503.25 171.812 1508.96 171.812 1510.28 170.748C1512.22 170.345 1515.8 171.565 1516.69 170.104C1540.35 163.401 1560.91 153.602 1565.44 127.769C1565.5 124.943 1564.31 123.356 1563.53 121.36H1563.52ZM1467.3 126.488C1471.37 121.114 1463.31 118.967 1459.61 121.36C1456.4 120.927 1454.64 121.961 1451.91 121.997C1451.91 127.787 1454.56 130.889 1455.76 135.47C1460.37 135.374 1463.02 133.33 1467.3 132.903V126.488ZM1509 141.247C1524.6 138.446 1537.34 132.831 1544.29 121.36C1530.81 122.208 1520.77 126.5 1513.49 133.546C1504.24 134.346 1495.85 136.029 1489.76 139.961C1485.44 142.462 1494.39 141.933 1496.82 141.885H1501.31C1503.68 141.476 1507.7 142.714 1509 141.247V141.247Z" fill="#F6926D"/>
<path fill-rule="evenodd" clip-rule="evenodd" d="M1538.51 116.226C1536.54 117.248 1533.49 117.188 1531.46 118.15C1532.42 116.124 1535.47 116.19 1538.51 116.226Z" fill="#F6926D"/>
<path fill-rule="evenodd" clip-rule="evenodd" d="M1601.37 179.735C1607.63 180.481 1605.98 191.687 1599.46 190.641H1598.81C1598.31 189.222 1596.57 189.036 1595.6 188.074C1594.79 186.06 1590.35 185.146 1592.4 182.303C1593.18 182.23 1593.91 182.11 1593.68 181.016C1592.33 179.591 1588.67 180.463 1588.55 177.812C1592.86 178.1 1594.98 175.774 1598.81 177.812C1600.02 177.74 1599.26 175.689 1600.74 175.882C1601.1 177.012 1599.96 179.651 1601.37 179.735Z" fill="#F6926D"/>
</g>
<defs>
<clipPath id="clip0_73_48">
<rect width="280" height="232.977" fill="white" transform="translate(22 20)"/>
</clipPath>
<clipPath id="clip1_73_48">
<rect width="234" height="170.707" fill="white" transform="translate(1445 20)"/>
</clipPath>
</defs>
</svg>
