<svg width="82" height="82" viewBox="0 0 82 82" fill="none" xmlns="http://www.w3.org/2000/svg">
<g filter="url(#filter0_d_3_6686)">
<rect x="7.48828" y="7.48816" width="56.6487" height="56.6487" rx="2" fill="white"/>
<rect x="7.98828" y="7.98816" width="55.6487" height="55.6487" rx="1.5" stroke="url(#paint0_linear_3_6686)"/>
</g>
<g clip-path="url(#clip0_3_6686)">
<path d="M27.3933 25.8861H22.4298C21.9748 25.8861 21.6025 26.2584 21.6025 26.7134V44.9129C21.6025 45.3679 21.9748 45.7401 22.4298 45.7401H27.3933C27.8483 45.7401 28.2205 45.3679 28.2205 44.9129V26.7134C28.2205 26.2584 27.8483 25.8861 27.3933 25.8861ZM26.566 30.8496H23.257V29.1951H26.566V30.8496ZM35.6658 25.8861H30.7023C30.2473 25.8861 29.875 26.2584 29.875 26.7134V44.9129C29.875 45.3679 30.2473 45.7401 30.7023 45.7401H35.6658C36.1208 45.7401 36.493 45.3679 36.493 44.9129V26.7134C36.493 26.2584 36.1208 25.8861 35.6658 25.8861ZM34.8385 30.8496H31.5295V29.1951H34.8385V30.8496Z" fill="#D55F05"/>
<path d="M41.6033 27.6131C41.6036 27.6129 41.604 27.6128 41.6043 27.6126C41.6821 27.5742 41.7719 27.568 41.8543 27.5952C41.9369 27.6225 42.0053 27.6812 42.0449 27.7586C42.045 27.7588 42.0451 27.759 42.0452 27.7592L49.4884 42.53C49.4886 42.5303 49.4887 42.5306 49.4889 42.5308C49.5273 42.6087 49.5336 42.6985 49.5063 42.781C49.479 42.8635 49.4202 42.932 49.3428 42.9716C49.3426 42.9716 49.3424 42.9717 49.3422 42.9718L44.9138 45.2034C44.9135 45.2035 44.9132 45.2037 44.9129 45.2038C44.8351 45.2422 44.7452 45.2485 44.6628 45.2212C44.5803 45.1939 44.5119 45.1352 44.4723 45.0579C44.4722 45.0576 44.4721 45.0574 44.472 45.0572L37.0287 30.2865C37.0286 30.2862 37.0284 30.2859 37.0283 30.2856C36.9899 30.2077 36.9836 30.1179 37.0109 30.0355C37.0382 29.9529 37.0969 29.8845 37.1743 29.845C37.1745 29.8449 37.1747 29.8447 37.1749 29.8446L41.6033 27.6131Z" fill="#D55F05" stroke="#D55F05"/>
</g>
<defs>
<filter id="filter0_d_3_6686" x="0.488281" y="0.488159" width="80.6484" height="80.6487" filterUnits="userSpaceOnUse" color-interpolation-filters="sRGB">
<feFlood flood-opacity="0" result="BackgroundImageFix"/>
<feColorMatrix in="SourceAlpha" type="matrix" values="0 0 0 0 0 0 0 0 0 0 0 0 0 0 0 0 0 0 127 0" result="hardAlpha"/>
<feOffset dx="5" dy="5"/>
<feGaussianBlur stdDeviation="6"/>
<feColorMatrix type="matrix" values="0 0 0 0 0 0 0 0 0 0 0 0 0 0 0 0 0 0 0.12 0"/>
<feBlend mode="normal" in2="BackgroundImageFix" result="effect1_dropShadow_3_6686"/>
<feBlend mode="normal" in="SourceGraphic" in2="effect1_dropShadow_3_6686" result="shape"/>
</filter>
<linearGradient id="paint0_linear_3_6686" x1="-20.8361" y1="35.8125" x2="35.8126" y2="92.4612" gradientUnits="userSpaceOnUse">
<stop stop-color="#FFEE92"/>
<stop offset="0.732292" stop-color="#E66000" stop-opacity="0"/>
</linearGradient>
<clipPath id="clip0_3_6686">
<rect width="29.781" height="29.781" fill="white" transform="translate(20.9219 20.9226)"/>
</clipPath>
</defs>
</svg>
