<svg width="326" height="105" viewBox="0 0 326 105" fill="none" xmlns="http://www.w3.org/2000/svg">
<path fill-rule="evenodd" clip-rule="evenodd" d="M22.21 62.73C18.9453 64.4126 16.1479 66.8772 14.0674 69.9039C16.4134 87.6855 31.5878 101.424 49.9903 101.512H50.0061C68.408 101.424 83.5825 87.6855 85.9284 69.9039C83.8479 66.8772 81.0505 64.4126 77.7859 62.73C77.8512 63.5108 77.8832 64.2996 77.882 65.0965C77.882 80.5309 65.4181 93.0541 50.0085 93.1514H49.9928C34.5801 93.0559 22.1193 80.5333 22.1193 65.0965C22.1193 64.2988 22.1513 63.51 22.2154 62.73H22.21Z" fill="#FF872A"/>
<path fill-rule="evenodd" clip-rule="evenodd" d="M49.9758 2L0 29.0301L14.6847 36.9749C13.5746 39.0361 12.8273 42.9408 12.8273 47.435V49.0071C12.8273 55.6617 14.4646 61.0205 16.4943 61.0205H16.5802C20.0266 54.9615 26.5409 50.8754 34.0111 50.8754C40.5339 50.8754 46.3299 53.9917 49.9921 58.8148V58.836C49.9935 58.8322 49.9951 58.8286 49.997 58.8251C50.0006 58.8293 50.0048 58.8317 50.0079 58.836V58.8148C53.6701 53.9917 59.4655 50.8754 65.9883 50.8754C73.4585 50.8754 79.9704 54.9615 83.4198 61.0205H83.505C85.5348 61.0205 87.1727 55.6617 87.1727 49.0071V47.435C87.1727 42.9402 86.4248 39.0355 85.3147 36.9749L100 29.0301L50.023 2L49.9964 2.01028L49.9758 2Z" fill="#333333"/>
<path d="M178.786 57.1987C178.786 61.4979 178.046 65.586 176.565 69.463C175.156 73.3395 173.147 76.7578 170.539 79.7181C167.931 82.6077 164.83 84.9335 161.236 86.6958C157.641 88.3873 153.694 89.2333 149.394 89.2338C146.716 89.2338 144.214 88.8461 141.888 88.0709C139.562 87.3658 137.378 86.2026 135.336 84.5812V87.7534H120V0H135.436V29.6039C137.198 28.1943 139.278 27.0664 141.676 26.2204C144.16 25.372 146.768 24.9434 149.393 24.9522C153.128 24.9522 156.758 25.7979 160.283 27.4894C163.807 29.1102 166.944 31.3656 169.693 34.2557C172.442 37.1458 174.626 40.5644 176.245 44.5116C177.939 48.3881 178.786 52.6171 178.786 57.1987ZM163.35 57.1987C163.35 54.3788 162.927 51.8049 162.081 49.4769C161.235 47.149 160.037 45.1756 158.486 43.5569C157.02 41.8747 155.171 40.5693 153.094 39.7506C151.05 38.8344 148.759 38.3763 146.223 38.3763C144.601 38.3763 142.733 38.7286 140.619 39.4332C138.504 40.0671 136.742 40.9138 135.33 41.9736V71.3654C138.643 74.3963 142.378 75.9118 146.537 75.9118C148.933 75.9118 151.154 75.4537 153.198 74.5375C155.312 73.6213 157.11 72.3526 158.59 70.7312C160.07 69.0397 161.233 67.0661 162.079 64.8104C162.924 62.4846 163.347 59.9473 163.348 57.1987" fill="#333333"/>
<path d="M249.588 38.2219C250.174 39.0638 250.704 39.9434 251.174 40.8551C251.723 41.7615 252.263 42.7169 252.794 43.7215L212.781 71.7383C214.269 72.8671 215.886 73.8147 217.598 74.561C219.357 75.2257 221.204 75.6283 223.081 75.7559C224.982 75.8262 226.884 75.6248 228.728 75.1577C230.652 74.5857 232.537 73.6528 234.383 72.3591C236.635 70.782 238.624 68.83 240.35 66.5031C242.036 64.1179 243.165 61.7358 243.736 59.3569L257.135 61.7195C255.491 66.743 253.378 70.976 250.796 74.4183C248.233 77.7618 245.104 80.7272 241.409 83.3146C237.656 85.9421 233.649 87.7153 229.388 88.6341C225.185 89.5123 221.042 89.6163 216.959 88.9461C212.934 88.2358 209.117 86.7783 205.508 84.5735C201.858 82.31 198.759 79.3597 196.213 75.7224C193.667 72.0851 191.974 68.1935 191.135 64.0477C190.257 59.8441 190.202 55.7103 190.969 51.6461C191.737 47.5819 193.252 43.7239 195.516 40.072C197.779 36.4223 200.758 33.3024 204.453 30.7123C207.922 28.2699 211.84 26.5359 215.981 25.6097C220.104 24.616 224.215 24.4047 228.314 24.9756C232.414 25.5465 236.318 26.9432 240.025 29.1656C243.692 31.3308 246.88 34.3467 249.588 38.2133V38.2219ZM233.115 42.5204C229.911 40.0322 226.371 38.725 222.496 38.5987C218.638 38.3735 215.122 39.3729 211.947 41.5969C208.827 43.7808 206.714 46.7231 205.608 50.4239C204.459 54.0674 204.505 57.8206 205.748 61.6836L233.115 42.5204Z" fill="#333333"/>
<path d="M324.985 87.7536H309.761V51.278C309.761 49.0941 309.408 47.191 308.703 45.5686C308.069 43.8771 307.188 42.5025 306.06 41.4449C304.965 40.3381 303.625 39.5052 302.148 39.0137C300.736 38.4492 299.229 38.1618 297.708 38.1674C295.359 38.1719 293.031 38.6018 290.836 39.4365C288.58 40.2118 286.536 41.4805 284.703 43.2427V87.7536H269.373V26.6433H284.707V31.1898C285.623 30.2736 286.751 29.4278 288.09 28.6525C289.402 27.8901 290.782 27.2529 292.213 26.7494C293.653 26.1971 295.139 25.7725 296.653 25.4803C298.118 25.2067 299.605 25.0652 301.095 25.0576C304.117 25.0451 307.12 25.5462 309.975 26.5396C312.809 27.4926 315.404 29.0428 317.587 31.0853C319.843 33.1293 321.64 35.7726 322.98 39.0153C324.319 42.2579 324.989 46.0993 324.988 50.5394V87.7552" fill="#333333"/>
<path d="M125.992 101.846C125.995 102.138 125.931 102.427 125.805 102.69C125.686 102.942 125.517 103.168 125.31 103.355C125.102 103.541 124.861 103.687 124.599 103.785C124.331 103.888 124.046 103.941 123.759 103.941L120.89 103.932V96.9127H123.464C123.758 96.9103 124.05 96.9578 124.328 97.0531C124.587 97.1413 124.826 97.2806 125.03 97.4626C125.234 97.6449 125.395 97.8699 125.502 98.1217C125.618 98.3957 125.676 98.6908 125.671 98.9883C125.671 99.2648 125.609 99.5378 125.489 99.7869C125.367 100.043 125.263 100.203 125.177 100.269C125.256 100.322 125.329 100.386 125.393 100.457C125.519 100.578 125.627 100.715 125.716 100.866C125.891 101.165 125.984 101.505 125.985 101.852L125.992 101.846ZM124.053 99.0078C124.056 98.8909 124.031 98.7749 123.979 98.67C123.932 98.5778 123.864 98.4977 123.78 98.436C123.69 98.3699 123.589 98.3208 123.481 98.2909C123.362 98.2564 123.239 98.2393 123.115 98.2403H122.529V99.7362C122.555 99.7362 122.623 99.7362 122.733 99.7362H123.115C123.24 99.7371 123.364 99.7227 123.486 99.6933C123.593 99.6684 123.694 99.6237 123.784 99.5615C123.866 99.5047 123.934 99.4293 123.981 99.3416C124.032 99.2379 124.057 99.1232 124.053 99.0078V99.0078ZM124.304 101.77C124.305 101.663 124.283 101.557 124.239 101.458C124.199 101.367 124.139 101.285 124.064 101.219C123.987 101.151 123.898 101.098 123.802 101.063C123.696 101.025 123.585 101.006 123.472 101.007C123.284 101.001 123.098 101.001 122.915 101.007C122.733 101.013 122.603 101.007 122.529 101.007V102.506H123.325C123.45 102.506 123.574 102.491 123.695 102.462C123.808 102.436 123.916 102.39 124.012 102.326C124.099 102.267 124.171 102.189 124.224 102.099C124.28 101.998 124.307 101.884 124.302 101.769L124.304 101.77ZM131.909 103.926H127.049V96.912H128.711V102.329H131.909V103.926ZM139.539 100.416C139.542 100.905 139.442 101.39 139.245 101.837C139.057 102.272 138.785 102.665 138.445 102.995C138.102 103.324 137.701 103.586 137.262 103.769C136.342 104.147 135.309 104.147 134.389 103.769C133.949 103.587 133.546 103.325 133.203 102.995C132.863 102.666 132.591 102.275 132.401 101.842C132.207 101.391 132.108 100.905 132.108 100.414C132.108 99.9236 132.207 99.4378 132.401 98.9867C132.59 98.5524 132.862 98.1594 133.203 97.83C133.909 97.1527 134.85 96.7751 135.829 96.7763C136.552 96.7702 137.262 96.9766 137.869 97.3698C138.476 97.7629 138.955 98.3257 139.246 98.9883C139.443 99.4372 139.544 99.9228 139.54 100.413L139.539 100.416ZM137.891 100.416C137.893 100.142 137.838 99.8708 137.729 99.6192C137.516 99.1247 137.122 98.7307 136.627 98.5187C136.375 98.4086 136.103 98.3523 135.828 98.3533C135.55 98.3515 135.274 98.4079 135.018 98.5187C134.772 98.6245 134.549 98.7759 134.359 98.9648C134.172 99.153 134.022 99.3751 133.917 99.6192C133.811 99.8709 133.756 100.141 133.756 100.414C133.756 100.688 133.811 100.958 133.917 101.21C134.021 101.455 134.171 101.679 134.359 101.868C134.549 102.057 134.773 102.208 135.018 102.315C135.274 102.425 135.55 102.481 135.828 102.479C136.103 102.481 136.376 102.424 136.628 102.314C136.874 102.208 137.097 102.056 137.287 101.867C137.475 101.678 137.625 101.455 137.73 101.209C137.838 100.958 137.893 100.688 137.892 100.416L137.891 100.416ZM147.166 102.543C146.794 103.012 146.327 103.399 145.796 103.677C145.284 103.93 144.718 104.059 144.146 104.053C143.646 104.056 143.15 103.96 142.687 103.769C142.245 103.588 141.841 103.325 141.497 102.995C141.157 102.667 140.885 102.275 140.695 101.842C140.501 101.392 140.401 100.907 140.401 100.417C140.401 99.9266 140.501 99.4415 140.695 98.9914C141.08 98.1113 141.795 97.4177 142.687 97.0602C143.15 96.8714 143.646 96.776 144.146 96.7794C144.718 96.7726 145.283 96.9017 145.795 97.1561C146.316 97.4255 146.775 97.8009 147.142 98.2582L145.995 99.4375C145.724 99.0501 145.438 98.773 145.137 98.6061C144.862 98.4575 144.557 98.3727 144.245 98.358C143.933 98.3433 143.621 98.399 143.334 98.5211C143.085 98.6276 142.858 98.7794 142.665 98.9688C142.475 99.1566 142.322 99.3786 142.214 99.6231C142.104 99.8739 142.048 100.145 142.05 100.419C142.049 100.69 142.105 100.958 142.214 101.206C142.322 101.45 142.475 101.672 142.665 101.86C142.858 102.049 143.085 102.201 143.334 102.308C143.591 102.418 143.868 102.473 144.147 102.47C144.501 102.477 144.85 102.388 145.156 102.212C145.449 102.039 145.734 101.753 146.011 101.354L147.166 102.543ZM154.139 103.926H151.981L149.559 101.249V103.926H147.921V96.9065H149.559V99.6138L152.041 96.9065H154.045L150.873 100.359L154.139 103.926ZM160.253 102.542C159.881 103.012 159.414 103.398 158.883 103.676C158.37 103.93 157.805 104.058 157.233 104.052C156.733 104.055 156.237 103.959 155.774 103.768C155.332 103.587 154.928 103.325 154.583 102.994C154.244 102.666 153.971 102.274 153.781 101.841C153.588 101.391 153.488 100.906 153.488 100.416C153.488 99.9259 153.588 99.4409 153.781 98.9906C154.166 98.1102 154.882 97.4165 155.774 97.0594C156.237 96.8706 156.733 96.7752 157.233 96.7786C157.805 96.7717 158.37 96.9009 158.882 97.1553C159.4 97.4257 159.857 97.8014 160.222 98.2582L159.074 99.4375C158.803 99.0501 158.517 98.773 158.216 98.6061C157.941 98.4575 157.636 98.3727 157.324 98.358C157.012 98.3433 156.7 98.399 156.412 98.5211C156.164 98.6276 155.937 98.7794 155.745 98.9688C155.554 99.1562 155.401 99.3783 155.294 99.6231C155.184 99.8738 155.127 100.145 155.129 100.419C155.128 100.69 155.184 100.958 155.294 101.206C155.401 101.451 155.554 101.673 155.745 101.86C155.937 102.049 156.164 102.201 156.412 102.308C156.669 102.419 156.946 102.475 157.225 102.473C157.579 102.48 157.928 102.391 158.234 102.215C158.528 102.042 158.812 101.756 159.088 101.357L160.253 102.542ZM166.571 103.926H164.933V100.972H162.64V103.926H161.002V96.912H162.64V99.5576H164.923V96.912H166.561L166.571 103.926ZM175.146 103.926H173.344L172.725 102.591H169.703L169.079 103.926H167.275L170.594 96.9065H171.823L175.146 103.926ZM172.058 101.169L171.212 99.3501L170.357 101.17L172.058 101.169ZM177.491 103.926H175.853V96.912H177.491V103.926ZM184.776 103.926H183.241L180.489 99.6621V103.929H178.875V96.9088H180.591L183.154 100.854V96.9088H184.768L184.776 103.926Z" fill="black"/>
<path d="M198.699 103.926H193.946V96.9119H198.699V98.3268H195.562V99.5747H198.657V100.964H195.562V102.454H198.699V103.926ZM206.693 100.416C206.696 100.881 206.613 101.342 206.447 101.777C206.291 102.188 206.058 102.566 205.761 102.891C205.457 103.222 205.088 103.484 204.677 103.663C204.266 103.841 203.821 103.931 203.373 103.927H200.409V96.9072H203.373C203.833 96.9026 204.289 96.9992 204.708 97.1904C205.105 97.37 205.463 97.6272 205.761 97.9469C206.059 98.2711 206.292 98.6498 206.447 99.0623C206.612 99.4953 206.695 99.9552 206.693 100.419V100.416ZM205.037 100.38C205.043 100.1 204.999 99.8218 204.905 99.5583C204.817 99.3097 204.681 99.0809 204.505 98.8852C204.326 98.6907 204.108 98.537 203.865 98.4344C203.594 98.3207 203.302 98.2643 203.007 98.269H202.053V102.481H203.007C203.296 102.486 203.584 102.433 203.852 102.325C204.091 102.226 204.306 102.078 204.483 101.89C204.66 101.698 204.797 101.473 204.885 101.227C204.985 100.956 205.038 100.671 205.041 100.382L205.037 100.38ZM214.591 96.9049V100.7C214.595 101.143 214.524 101.583 214.381 102.002C214.248 102.393 214.04 102.754 213.766 103.064C213.494 103.372 213.158 103.617 212.782 103.783C211.943 104.129 211.001 104.131 210.16 103.788C209.783 103.626 209.443 103.387 209.164 103.086C208.885 102.782 208.67 102.424 208.531 102.036C208.382 101.621 208.308 101.184 208.312 100.744V96.9072H209.95V100.752C209.948 100.978 209.981 101.202 210.048 101.418C210.108 101.612 210.205 101.792 210.334 101.949C210.46 102.1 210.618 102.221 210.797 102.303C210.999 102.392 211.217 102.436 211.438 102.432C211.666 102.438 211.892 102.396 212.103 102.31C212.28 102.235 212.437 102.119 212.561 101.972C212.687 101.817 212.781 101.639 212.838 101.448C212.904 101.228 212.936 100.998 212.933 100.768V96.9072L214.591 96.9049ZM222.892 102.543C222.52 103.013 222.053 103.399 221.522 103.677C221.01 103.93 220.444 104.059 219.872 104.053C219.372 104.056 218.876 103.959 218.413 103.769C217.972 103.588 217.568 103.325 217.223 102.995C216.883 102.667 216.61 102.275 216.42 101.842C216.227 101.392 216.127 100.907 216.127 100.417C216.127 99.9266 216.227 99.4416 216.42 98.9913C216.806 98.1113 217.522 97.4178 218.413 97.0601C218.876 96.8713 219.372 96.7759 219.872 96.7793C220.444 96.7725 221.009 96.9016 221.522 97.156C222.042 97.425 222.5 97.7996 222.868 98.2558L221.72 99.4351C221.449 99.0477 221.163 98.7706 220.862 98.6037C220.587 98.4551 220.282 98.3703 219.969 98.3556C219.657 98.3409 219.345 98.3966 219.058 98.5186C218.809 98.6253 218.583 98.7771 218.39 98.9664C218.199 99.1538 218.046 99.3759 217.939 99.6207C217.829 99.8714 217.773 100.142 217.775 100.416C217.773 100.687 217.829 100.956 217.939 101.203C218.046 101.448 218.199 101.67 218.39 101.858C218.583 102.047 218.809 102.199 219.058 102.305C219.314 102.416 219.591 102.473 219.87 102.471C220.224 102.478 220.573 102.389 220.88 102.213C221.173 102.04 221.459 101.754 221.738 101.355L222.892 102.543ZM231.394 103.927H229.592L228.973 102.592H225.956L225.332 103.927H223.53L226.849 96.9072H228.08L231.394 103.927ZM228.306 101.17L227.466 99.3501L226.612 101.17H228.306ZM236.504 98.4094H234.66V103.926H233.004V98.4094H231.159V96.9119H236.504V98.4094ZM239.682 103.926H238.045V96.9119H239.682V103.926ZM248.821 100.416C248.823 100.905 248.723 101.39 248.527 101.837C248.339 102.272 248.067 102.665 247.726 102.995C247.384 103.324 246.983 103.587 246.544 103.769C245.623 104.147 244.591 104.147 243.67 103.769C243.231 103.587 242.828 103.324 242.485 102.995C242.145 102.667 241.872 102.275 241.682 101.842C241.489 101.391 241.389 100.905 241.389 100.414C241.389 99.9235 241.489 99.4378 241.682 98.9866C241.871 98.5522 242.144 98.1591 242.485 97.8299C243.191 97.1538 244.132 96.7773 245.11 96.7793C245.833 96.7733 246.542 96.9796 247.15 97.3728C247.757 97.766 248.236 98.3287 248.527 98.9913C248.724 99.4402 248.824 99.9259 248.821 100.416V100.416ZM247.173 100.416C247.175 100.142 247.12 99.8708 247.011 99.6192C246.798 99.125 246.404 98.7312 245.909 98.5186C245.655 98.4096 245.381 98.3533 245.105 98.3533C244.828 98.3533 244.555 98.4096 244.301 98.5186C243.806 98.7304 243.411 99.1244 243.199 99.6192C243.093 99.8709 243.038 100.141 243.038 100.414C243.038 100.687 243.093 100.958 243.199 101.21C243.303 101.455 243.454 101.678 243.642 101.868C243.832 102.057 244.057 102.208 244.304 102.314C244.558 102.423 244.832 102.479 245.108 102.479C245.384 102.479 245.658 102.423 245.912 102.314C246.158 102.208 246.381 102.056 246.57 101.867C246.759 101.678 246.91 101.455 247.014 101.209C247.122 100.958 247.177 100.688 247.176 100.416L247.173 100.416ZM256.4 103.926H254.865L252.118 99.6597V103.926H250.504V96.9064H252.22L254.783 100.852V96.9064H256.398L256.4 103.926Z" fill="black"/>
<path d="M272.784 103.926H271.248L268.503 99.6597V103.926H266.888V96.9064H268.604L271.167 100.852V96.9064H272.782L272.784 103.926ZM280.563 103.926H275.81V96.9119H280.563V98.3267H277.425V99.5747H280.52V100.964H277.425V102.454H280.563V103.926ZM288.257 98.4094H286.413V103.926H284.757V98.4094H282.913V96.9119H288.258L288.257 98.4094ZM299.791 96.904L297.508 103.924H296.118L295.02 100.233L293.915 103.924H292.524L290.243 96.904H291.975L293.247 100.798L294.348 96.904H295.674L296.774 100.808L298.062 96.904H299.791ZM309.138 100.414C309.14 100.903 309.04 101.387 308.844 101.835C308.656 102.27 308.384 102.663 308.043 102.993C307.701 103.322 307.3 103.584 306.861 103.766C305.941 104.145 304.908 104.145 303.988 103.766C303.547 103.584 303.145 103.322 302.801 102.993C302.462 102.664 302.189 102.273 301.999 101.84C301.806 101.389 301.706 100.903 301.706 100.412C301.706 99.9211 301.806 99.4354 301.999 98.9843C302.189 98.5505 302.462 98.158 302.802 97.8291C303.145 97.4997 303.548 97.2384 303.989 97.0593C304.667 96.7797 305.412 96.704 306.132 96.8414C306.853 96.9789 307.518 97.3235 308.045 97.833C308.384 98.1636 308.656 98.5567 308.845 98.9905C309.043 99.4394 309.143 99.9251 309.139 100.416L309.138 100.414ZM307.49 100.414C307.492 100.14 307.437 99.8685 307.328 99.6168C307.115 99.1226 306.721 98.7288 306.226 98.5163C305.972 98.4072 305.698 98.3509 305.422 98.3509C305.145 98.3509 304.872 98.4072 304.618 98.5163C304.122 98.7274 303.727 99.1216 303.516 99.6168C303.41 99.8685 303.355 100.139 303.355 100.412C303.355 100.685 303.41 100.955 303.516 101.207C303.62 101.453 303.77 101.676 303.958 101.865C304.148 102.054 304.372 102.206 304.618 102.312C304.872 102.421 305.146 102.477 305.422 102.477C305.698 102.477 305.972 102.421 306.226 102.312C306.722 102.099 307.117 101.704 307.328 101.207C307.436 100.957 307.491 100.687 307.49 100.414V100.414ZM317.379 103.924H315.516L315.002 102.286C314.958 102.139 314.9 101.997 314.828 101.862C314.768 101.745 314.689 101.637 314.594 101.545C314.501 101.457 314.39 101.388 314.269 101.344C314.122 101.293 313.967 101.268 313.811 101.272H313.499V103.924H311.876V96.9095L314.684 96.9017C314.977 96.8986 315.269 96.9515 315.542 97.0577C315.8 97.1573 316.035 97.3074 316.233 97.4992C316.428 97.6884 316.582 97.9146 316.688 98.1645C316.799 98.4261 316.855 98.7078 316.852 98.9921C316.853 99.2041 316.819 99.4148 316.753 99.616C316.687 99.8144 316.592 100.002 316.471 100.172C316.349 100.343 316.203 100.495 316.037 100.623C315.869 100.754 315.769 100.8 315.735 100.762C315.809 100.738 315.92 100.809 316.07 100.976C316.224 101.147 316.344 101.346 316.423 101.561C316.464 101.656 316.5 101.752 316.533 101.849L316.638 102.148C316.675 102.25 316.716 102.362 316.755 102.482C316.794 102.602 316.843 102.734 316.894 102.879C316.954 103.06 317.01 103.213 317.06 103.338C317.152 103.542 317.259 103.738 317.381 103.925L317.379 103.924ZM315.204 99.088C315.205 98.9655 315.18 98.8443 315.13 98.7323C315.082 98.6279 315.015 98.5336 314.931 98.4547C314.845 98.373 314.744 98.3096 314.633 98.2682C314.513 98.2231 314.387 98.2004 314.259 98.2012H313.497V99.9327H314.259C314.387 99.9339 314.515 99.9139 314.637 99.8734C314.746 99.8368 314.848 99.7787 314.935 99.7026C315.022 99.6257 315.091 99.531 315.137 99.4248C315.183 99.3187 315.206 99.2038 315.204 99.088V99.088ZM326 103.924H323.846L321.424 101.247V103.924H319.786V96.904H321.424V99.6114L323.906 96.904H325.91L322.738 100.357L326 103.924Z" fill="black"/>
</svg>
