<svg id="Layer_1" data-name="Layer 1" xmlns="http://www.w3.org/2000/svg" viewBox="0 0 1722.5 542.59"><defs><style>.cls-1,.cls-3{fill:#333;}.cls-2{fill:#ff872a;}.cls-2,.cls-3{fill-rule:evenodd;}</style></defs><title>ben_wide_logo</title><path class="cls-1" d="M1057.76,582.71a176.75,176.75,0,0,1-11.52,63.61A164.67,164.67,0,0,1,1015,699.5a157.87,157.87,0,0,1-48.25,36.19q-28,13.17-61.41,13.16a122.38,122.38,0,0,1-38.93-6,102.15,102.15,0,0,1-34-18.1v16.46H752.9V286.07H833V439.6a109.61,109.61,0,0,1,32.35-17.54,122.47,122.47,0,0,1,40-6.58,129,129,0,0,1,56.47,13.16,157.77,157.77,0,0,1,48.8,35.09,170,170,0,0,1,34,53.19q13.15,30.15,13.16,65.79m-80.06,0a116.5,116.5,0,0,0-6.57-40A86.61,86.61,0,0,0,952.48,512a72.34,72.34,0,0,0-28-19.74q-15.9-7.12-35.64-7.13-12.61,0-29.06,5.49-16.46,4.93-27.42,13.15V656.19q25.77,23.58,58.12,23.57a83.37,83.37,0,0,0,34.55-7.13,81,81,0,0,0,28-19.73,98.9,98.9,0,0,0,18.1-30.71,114.84,114.84,0,0,0,6.57-39.48" transform="translate(-98.75 -283.94)"/><path class="cls-1" d="M1425,484.3a120.08,120.08,0,0,1,8.23,13.65q4.26,7.05,8.4,14.87l-207.51,145.3a121.79,121.79,0,0,0,25,14.64,99.33,99.33,0,0,0,28.43,6.19,103.46,103.46,0,0,0,29.29-3.1,101.82,101.82,0,0,0,29.33-14.51A134.49,134.49,0,0,0,1377.05,631q13.13-18.56,17.56-37.06l69.5,12.25q-12.79,39.08-32.88,65.86a218.81,218.81,0,0,1-48.68,46.13,170.5,170.5,0,0,1-62.35,27.59,174.47,174.47,0,0,1-64.46,1.63,169.49,169.49,0,0,1-59.38-22.68,163.73,163.73,0,0,1-48.21-45.9,160,160,0,0,1-26.33-60.55,163.47,163.47,0,0,1-.86-64.32,174.74,174.74,0,0,1,23.57-60,165.3,165.3,0,0,1,46.35-48.51,167.25,167.25,0,0,1,59.79-26.47,170.45,170.45,0,0,1,64-3.29,160.21,160.21,0,0,1,60.74,21.73q28.52,16.84,49.59,46.94m-85.43,22.34q-24.93-19.36-55.07-20.35a86,86,0,0,0-87.59,61.33q-8.92,28.35.73,58.4l141.93-99.38" transform="translate(-98.75 -283.94)"/><path class="cls-1" d="M1816,741.18h-79V552q0-17-5.49-29.61-4.93-13.15-13.71-21.39a51.37,51.37,0,0,0-20.28-12.61,61.52,61.52,0,0,0-23-4.38,100.72,100.72,0,0,0-35.64,6.58,85.86,85.86,0,0,0-31.8,19.73V741.18h-79.51V424.25h79.51v23.58a84.62,84.62,0,0,1,17.54-13.16A125.55,125.55,0,0,1,1646,424.8a135.27,135.27,0,0,1,23-6.58,128.92,128.92,0,0,1,23-2.19,138.32,138.32,0,0,1,46.06,7.67,108.33,108.33,0,0,1,39.48,23.58q17.55,15.9,28,41.12T1816,548.17v193" transform="translate(-98.75 -283.94)"/><path d="M784,814.24a9.9,9.9,0,0,1-1,4.38,11,11,0,0,1-2.56,3.45,11.71,11.71,0,0,1-3.69,2.23,12.09,12.09,0,0,1-4.36.8l-14.88-.05V788.63h13.37a13.62,13.62,0,0,1,4.48.73,10.71,10.71,0,0,1,3.65,2.12,9.83,9.83,0,0,1,2.45,3.42,11.22,11.22,0,0,1,.87,4.5,9.56,9.56,0,0,1-.94,4.14,7.76,7.76,0,0,1-1.61,2.5,5.8,5.8,0,0,1,1.13,1,10.28,10.28,0,0,1,2.71,4.59,9.94,9.94,0,0,1,.36,2.64Zm-10.06-14.72a3.77,3.77,0,0,0-.38-1.75,3.67,3.67,0,0,0-1-1.22,4.71,4.71,0,0,0-1.56-.75,6.54,6.54,0,0,0-1.89-.26h-3v7.76h3a8,8,0,0,0,1.92-.22,4.53,4.53,0,0,0,1.54-.68,3.1,3.1,0,0,0,1-1.14,3.64,3.64,0,0,0,.38-1.74Zm1.3,14.33a3.76,3.76,0,0,0-.34-1.62A3.5,3.5,0,0,0,774,811a4.1,4.1,0,0,0-1.36-.81,4.85,4.85,0,0,0-1.7-.29c-1,0-1.94,0-2.89,0s-1.62,0-2,0v7.78h4.13a8.27,8.27,0,0,0,1.92-.23,5.05,5.05,0,0,0,1.65-.71,3.71,3.71,0,0,0,1.1-1.17,3.39,3.39,0,0,0,.41-1.72Zm39.44,11.2H789.45V788.67h8.64v28.1h16.57Zm39.57-18.21a18,18,0,0,1-1.52,7.37,18.63,18.63,0,0,1-4.15,6,19.91,19.91,0,0,1-6.13,4,19.64,19.64,0,0,1-14.91,0,20,20,0,0,1-6.15-4,18.88,18.88,0,0,1-4.15-6,18.68,18.68,0,0,1,0-14.81,18.74,18.74,0,0,1,4.15-6,19.6,19.6,0,0,1,27.19,0,18.92,18.92,0,0,1,4.15,6,18,18,0,0,1,1.52,7.39Zm-8.54,0a10.27,10.27,0,0,0-.84-4.13,10.93,10.93,0,0,0-5.72-5.71,10.2,10.2,0,0,0-4.14-.86,10.42,10.42,0,0,0-4.2.86,10.87,10.87,0,0,0-5.71,5.71,10.55,10.55,0,0,0,0,8.25,10.82,10.82,0,0,0,2.29,3.41,11.12,11.12,0,0,0,3.42,2.32,10.41,10.41,0,0,0,4.2.85,10.19,10.19,0,0,0,4.14-.85,11,11,0,0,0,3.42-2.32,10.85,10.85,0,0,0,2.3-3.41,10.36,10.36,0,0,0,.84-4.12Zm48.1,11a22.15,22.15,0,0,1-7.1,5.88,18.8,18.8,0,0,1-8.56,2,19.53,19.53,0,0,1-7.57-1.47,19.86,19.86,0,0,1-6.17-4,18.75,18.75,0,0,1-4.16-6,18.75,18.75,0,0,1,0-14.79,18.94,18.94,0,0,1,4.16-6,19.17,19.17,0,0,1,6.17-4,19.71,19.71,0,0,1,7.57-1.46,18.61,18.61,0,0,1,8.55,2,21.73,21.73,0,0,1,7,5.7l-5.95,6.11a14,14,0,0,0-4.44-4.31,10.8,10.8,0,0,0-9.36-.44,11.49,11.49,0,0,0-3.46,2.32,10.87,10.87,0,0,0-2.34,3.4,10.34,10.34,0,0,0,0,8.21,10.82,10.82,0,0,0,2.34,3.39,11.31,11.31,0,0,0,3.46,2.32,10.55,10.55,0,0,0,4.22.86,10.15,10.15,0,0,0,5.23-1.34,14.71,14.71,0,0,0,4.43-4.45Zm36.14,7.18H918.76L906.2,811.17v13.88h-8.5V788.63h8.5v14l12.87-14h10.39L913,806.54Zm31.71-7.18a22.15,22.15,0,0,1-7.1,5.88,18.8,18.8,0,0,1-8.56,2,19.53,19.53,0,0,1-7.57-1.47,19.86,19.86,0,0,1-6.17-4,18.75,18.75,0,0,1-4.16-6,18.75,18.75,0,0,1,0-14.79,18.94,18.94,0,0,1,4.16-6,19.17,19.17,0,0,1,6.17-4A19.71,19.71,0,0,1,946,788a18.61,18.61,0,0,1,8.55,2,21.73,21.73,0,0,1,7,5.7l-6,6.11a14,14,0,0,0-4.44-4.31,10.8,10.8,0,0,0-9.36-.44,11.49,11.49,0,0,0-3.46,2.32,10.87,10.87,0,0,0-2.34,3.4,10.34,10.34,0,0,0,0,8.21,10.82,10.82,0,0,0,2.34,3.39,11.31,11.31,0,0,0,3.46,2.32,10.55,10.55,0,0,0,4.22.86,10.15,10.15,0,0,0,5.23-1.34,14.71,14.71,0,0,0,4.43-4.45Zm32.75,7.18h-8.5V809.73H974.05v15.32h-8.5V788.67h8.5v13.72h11.84V788.67h8.5Zm44.48,0h-9.35l-3.21-6.93h-15.65l-3.24,6.93h-9.35l17.21-36.42h6.38Zm-16-14.3-4.36-9.44-4.43,9.44Zm28.18,14.3h-8.5V788.67h8.5Zm37.78,0h-8l-14.24-22.13v22.13h-8.38V788.63h8.91l13.3,20.46V788.63h8.37Z" transform="translate(-98.75 -283.94)"/><path d="M1161.05,825.05H1136.4V788.67h24.65V796h-16.28v6.47h16.06v7.21h-16.06v7.73h16.28Zm41.45-18.21a19.41,19.41,0,0,1-1.28,7.06,18.06,18.06,0,0,1-3.55,5.78,16.74,16.74,0,0,1-5.47,3.93,16.52,16.52,0,0,1-6.92,1.44h-15.35V788.63h15.35a16.24,16.24,0,0,1,6.92,1.47,17,17,0,0,1,5.47,3.93,17.63,17.63,0,0,1,3.55,5.78,19.44,19.44,0,0,1,1.28,7Zm-8.59-.19a11.83,11.83,0,0,0-.68-4.26,10.46,10.46,0,0,0-2.07-3.49,9.57,9.57,0,0,0-3.32-2.33,10.92,10.92,0,0,0-4.46-.86h-5v21.83h5a11.21,11.21,0,0,0,4.38-.81,9.56,9.56,0,0,0,3.28-2.26,10.24,10.24,0,0,0,2.08-3.43,13.08,13.08,0,0,0,.79-4.39Zm49.56-18v19.69a20.42,20.42,0,0,1-1.1,6.75,16.31,16.31,0,0,1-3.18,5.51,15,15,0,0,1-5.11,3.73,17.92,17.92,0,0,1-13.6,0,15.34,15.34,0,0,1-5.17-3.65,16.23,16.23,0,0,1-3.28-5.45,19.36,19.36,0,0,1-1.13-6.7v-19.9h8.5v19.94a11.35,11.35,0,0,0,.51,3.46,8.34,8.34,0,0,0,1.48,2.75,6.89,6.89,0,0,0,2.41,1.83,7.75,7.75,0,0,0,3.32.67,8.57,8.57,0,0,0,3.45-.63,6.39,6.39,0,0,0,2.38-1.75,8,8,0,0,0,1.43-2.72,11.74,11.74,0,0,0,.5-3.52v-20Zm43,29.24a22,22,0,0,1-7.1,5.88,18.8,18.8,0,0,1-8.56,2,19.51,19.51,0,0,1-7.56-1.47,19.79,19.79,0,0,1-6.18-4,18.91,18.91,0,0,1-4.16-6,18.75,18.75,0,0,1,0-14.79,19,19,0,0,1,10.34-10,19.69,19.69,0,0,1,7.56-1.46,18.61,18.61,0,0,1,8.55,2,21.76,21.76,0,0,1,7,5.7l-6,6.11a13.92,13.92,0,0,0-4.44-4.31,10.78,10.78,0,0,0-9.35-.44,11.53,11.53,0,0,0-3.47,2.32,11.21,11.21,0,0,0-2.34,3.4,10.34,10.34,0,0,0,0,8.21,11.16,11.16,0,0,0,2.34,3.39,11.35,11.35,0,0,0,3.47,2.32,10.46,10.46,0,0,0,4.21.86,10.13,10.13,0,0,0,5.23-1.34,14.84,14.84,0,0,0,4.44-4.45Zm44.1,7.18h-9.35l-3.2-6.93h-15.65l-3.24,6.93h-9.35L1307,788.63h6.38Zm-16-14.3-4.36-9.44-4.43,9.44Zm42.52-14.31h-9.56v28.61H1339V796.44h-9.57v-7.77h27.72Zm16.48,28.61h-8.5V788.67h8.5Zm47.4-18.21a18,18,0,0,1-1.53,7.37,18.63,18.63,0,0,1-4.15,6,19.91,19.91,0,0,1-6.13,4,19.61,19.61,0,0,1-14.9,0,19.88,19.88,0,0,1-6.15-4,18.75,18.75,0,0,1-4.16-6,18.68,18.68,0,0,1,0-14.81,18.61,18.61,0,0,1,4.16-6,19.59,19.59,0,0,1,27.18,0,18.92,18.92,0,0,1,4.15,6,18,18,0,0,1,1.53,7.39Zm-8.55,0a10.27,10.27,0,0,0-.84-4.13,11,11,0,0,0-5.71-5.71,10.28,10.28,0,0,0-4.15-.86,10.42,10.42,0,0,0-4.2.86,10.91,10.91,0,0,0-3.41,2.32,10.71,10.71,0,0,0-2.3,3.39,10.67,10.67,0,0,0,0,8.25,10.69,10.69,0,0,0,2.3,3.41,11.08,11.08,0,0,0,3.41,2.32,10.41,10.41,0,0,0,4.2.85,10.27,10.27,0,0,0,4.15-.85,11.08,11.08,0,0,0,3.41-2.32,10.85,10.85,0,0,0,2.3-3.41,10.36,10.36,0,0,0,.84-4.12Zm47.85,18.21h-8l-14.24-22.13v22.13h-8.38V788.63h8.91l13.3,20.46V788.63h8.37Z" transform="translate(-98.75 -283.94)"/><path d="M1545.26,825.05h-8l-14.24-22.13v22.13h-8.38V788.63h8.91l13.29,20.46V788.63h8.38Zm40.34,0H1561V788.67h24.65V796h-16.27v6.47h16.05v7.21h-16.05v7.73h16.27Zm39.91-28.61h-9.57v28.61h-8.59V796.44h-9.57v-7.77h27.73Zm59.81-7.81-11.84,36.42h-7.2l-5.7-19.14-5.73,19.14h-7.21l-11.83-36.42h9l6.6,20.2,5.7-20.2h6.9l5.71,20.25,6.68-20.25Zm48.48,18.21a18,18,0,0,1-1.53,7.37,18.63,18.63,0,0,1-4.15,6,19.91,19.91,0,0,1-6.13,4,19.61,19.61,0,0,1-14.9,0,19.88,19.88,0,0,1-6.15-4,18.75,18.75,0,0,1-4.16-6,18.68,18.68,0,0,1,0-14.81,18.61,18.61,0,0,1,4.16-6,19.59,19.59,0,0,1,27.18,0,18.92,18.92,0,0,1,4.15,6,18,18,0,0,1,1.53,7.39Zm-8.55,0a10.27,10.27,0,0,0-.84-4.13,11,11,0,0,0-5.71-5.71,10.28,10.28,0,0,0-4.15-.86,10.42,10.42,0,0,0-4.2.86,11.07,11.07,0,0,0-3.42,2.32,10.85,10.85,0,0,0-2.29,3.39,10.67,10.67,0,0,0,0,8.25,10.82,10.82,0,0,0,2.29,3.41,11.24,11.24,0,0,0,3.42,2.32,10.41,10.41,0,0,0,4.2.85,10.27,10.27,0,0,0,4.15-.85,11.08,11.08,0,0,0,3.41-2.32,10.85,10.85,0,0,0,2.3-3.41,10.36,10.36,0,0,0,.84-4.12Zm51.28,18.21h-9.65l-2.67-8.51a11.89,11.89,0,0,0-.9-2.2,6.34,6.34,0,0,0-1.23-1.64,5.07,5.07,0,0,0-1.69-1,6.7,6.7,0,0,0-2.37-.37h-1.62v13.76H1748V788.67l14.57,0a11.85,11.85,0,0,1,4.44.83,10.69,10.69,0,0,1,3.59,2.28,10.57,10.57,0,0,1,2.35,3.45,10.79,10.79,0,0,1,.86,4.3,10.28,10.28,0,0,1-.52,3.21,10.83,10.83,0,0,1-3.71,5.22c-.87.68-1.39.92-1.57.72q.57-.18,1.74,1.11a9.38,9.38,0,0,1,1.83,3c.21.49.4,1,.57,1.49l.55,1.55c.19.53.39,1.11.6,1.73l.72,2.06c.31.94.6,1.74.86,2.39a24.89,24.89,0,0,0,1.66,3ZM1765.25,800a4.31,4.31,0,0,0-.38-1.85,4.57,4.57,0,0,0-2.58-2.4,5.39,5.39,0,0,0-1.94-.35h-3.95v9h3.95a5.88,5.88,0,0,0,2-.31,4.58,4.58,0,0,0,1.55-.88,4.35,4.35,0,0,0,1-1.38,4.21,4.21,0,0,0,.37-1.81Zm56,25.09h-11.18l-12.55-13.88v13.88H1789V788.63h8.51v14l12.86-14h10.4l-16.45,17.91Z" transform="translate(-98.75 -283.94)"/><path class="cls-2" d="M219.86,615.08a121.36,121.36,0,0,0-44.4,39.11c12.8,97,95.53,171.86,195.87,172.34h.09c100.33-.48,183.07-75.38,195.86-172.34a121.25,121.25,0,0,0-44.39-39.11q.52,6.38.52,12.9a153,153,0,0,1-152,153h-.09a153,153,0,0,1-152-153q0-6.53.52-12.9Z" transform="translate(-98.75 -283.94)"/><path class="cls-3" d="M371.24,283.94,98.75,431.32l80.07,43.32c-6,11.24-10.13,32.53-10.13,57v8.58c0,36.29,8.93,65.51,20,65.51h.46a109.32,109.32,0,0,1,182.18-12v.12l0-.06.06.06v-.12a109.32,109.32,0,0,1,182.18,12h.46c11.07,0,20-29.22,20-65.51v-8.58c0-24.51-4.08-45.8-10.13-57L644,431.32,371.5,283.94l-.14.06Z" transform="translate(-98.75 -283.94)"/></svg>