<svg width="2642" height="2997" viewBox="0 0 2642 2997" fill="none" xmlns="http://www.w3.org/2000/svg">
<g clip-path="url(#clip0_2_131)">
<path d="M753.66 2396.14C753.66 2451.26 744.17 2503.67 725.19 2553.38C707.12 2603.08 681.36 2646.91 647.93 2684.86C614.49 2721.91 574.73 2751.73 528.65 2774.32C482.56 2796.01 431.95 2806.85 376.83 2806.85C342.49 2806.85 310.41 2801.88 280.59 2791.94C250.77 2782.9 222.76 2767.99 196.55 2747.21V2787.88H0V1662.81H197.91V2042.35C220.5 2024.28 247.16 2009.82 277.88 1998.97C309.51 1988.13 342.49 1982.71 376.83 1982.71C424.72 1982.71 471.26 1993.55 516.45 2015.24C561.63 2036.03 601.84 2064.94 637.09 2101.99C672.33 2139.04 700.34 2182.87 721.13 2233.47C742.82 2283.17 753.66 2337.39 753.66 2396.13V2396.14ZM555.75 2396.13C555.75 2359.98 550.33 2327 539.49 2297.18C528.65 2267.36 513.28 2242.06 493.4 2221.27C474.42 2199.58 451.38 2183.31 424.27 2172.47C398.06 2160.72 368.7 2154.85 336.17 2154.85C315.38 2154.85 291.43 2159.37 264.33 2168.4C237.22 2176.53 214.63 2187.38 196.56 2200.93V2577.76C239.03 2616.62 286.92 2636.05 340.24 2636.05C370.96 2636.05 399.43 2630.17 425.63 2618.43C452.74 2606.68 475.78 2590.42 494.76 2569.63C513.74 2547.94 528.65 2522.64 539.49 2493.72C550.33 2463.9 555.75 2431.37 555.75 2396.12" fill="white"/>
<path d="M1661.44 2152.84C1668.7 2163.21 1675.47 2174.46 1681.77 2186.6C1688.8 2198.22 1695.73 2210.48 1702.54 2223.35L1189.55 2582.55C1208.43 2596.91 1229.01 2608.97 1251.3 2618.74C1273.81 2627.25 1297.24 2632.36 1321.6 2634.06C1345.44 2635.02 1369.57 2632.46 1394 2626.39C1418.65 2619.06 1442.82 2607.1 1466.51 2590.51C1495.38 2570.3 1520.88 2545.27 1543.01 2515.43C1564.62 2484.85 1579.09 2454.31 1586.42 2423.81L1758.21 2454.1C1737.12 2518.52 1710.03 2572.78 1676.94 2616.91C1644.08 2659.78 1603.96 2697.8 1556.58 2730.97C1508.47 2764.66 1457.09 2787.4 1402.46 2799.17C1348.57 2810.43 1295.45 2811.77 1243.11 2803.19C1191.51 2794.09 1142.57 2775.4 1096.3 2747.13C1049.51 2718.11 1009.78 2680.29 977.13 2633.65C944.47 2587.02 922.77 2537.12 912.03 2483.97C900.77 2430.08 900.06 2377.07 909.9 2324.95C919.74 2272.83 939.17 2223.38 968.18 2176.58C997.2 2129.79 1035.39 2089.81 1082.77 2056.63C1127.92 2025.01 1177.19 2003.21 1230.56 1991.2C1283.42 1978.46 1336.13 1975.75 1388.69 1983.07C1441.25 1990.39 1491.3 2008.3 1538.83 2036.8C1585.85 2064.56 1626.72 2103.23 1661.44 2152.83V2152.84ZM1450.24 2208.05C1409.15 2176.15 1363.76 2159.39 1314.09 2157.76C1264.64 2154.88 1219.56 2167.69 1178.84 2196.2C1138.87 2224.19 1111.78 2261.91 1097.57 2309.37C1082.84 2356.08 1083.44 2404.2 1099.37 2453.73L1450.24 2208.05" fill="white"/>
<path d="M2628.1 2787.88H2432.91V2320.23C2432.91 2292.22 2428.39 2267.82 2419.35 2247.03C2411.22 2225.34 2399.92 2207.72 2385.46 2194.16C2371 2179.7 2354.29 2169.31 2335.31 2162.98C2317.24 2155.75 2298.26 2152.14 2278.38 2152.14C2248.56 2152.14 2219.19 2157.56 2190.27 2168.41C2161.35 2178.35 2135.15 2194.62 2111.65 2217.21V2787.88H1915.1V2004.39H2111.65V2062.68C2123.4 2050.93 2137.86 2040.09 2155.03 2030.15C2172.2 2020.21 2189.82 2012.08 2207.9 2005.75C2226.88 1998.52 2245.85 1993.1 2264.83 1989.48C2284.71 1985.87 2303.69 1984.06 2321.76 1984.06C2361.52 1984.06 2399.47 1990.39 2435.62 2003.04C2472.67 2015.69 2505.2 2035.12 2533.21 2061.33C2562.13 2087.54 2585.17 2121.43 2602.34 2162.99C2619.51 2204.56 2628.09 2253.81 2628.09 2310.74V2787.88" fill="white"/>
<path d="M76.8399 2968.52C76.8399 2972.42 76.0299 2976.03 74.4299 2979.35C72.8399 2982.66 70.7199 2985.5 68.0899 2987.86C65.4499 2990.23 62.4199 2992.06 58.9799 2993.38C55.5499 2994.69 51.9599 2995.35 48.1999 2995.35L11.4199 2995.24V2905.21H44.4399C48.3999 2905.21 52.0899 2905.81 55.5199 2907.01C58.9599 2908.2 61.9699 2909.95 64.5499 2912.26C67.1399 2914.57 69.1599 2917.39 70.5999 2920.71C72.0499 2924.02 72.7699 2927.73 72.7699 2931.82C72.7699 2935.36 71.9899 2938.77 70.4299 2942.05C68.8699 2945.33 67.5399 2947.39 66.4599 2948.24C66.6999 2948.27 67.6199 2949.08 69.2399 2950.65C70.8599 2952.23 72.2399 2953.97 73.3599 2955.88C74.4899 2957.8 75.3499 2959.83 75.9399 2961.99C76.5299 2964.15 76.8299 2966.33 76.8299 2968.52H76.8399ZM51.9599 2932.13C51.9599 2930.43 51.6499 2928.99 51.0199 2927.8C50.3999 2926.6 49.5599 2925.6 48.4699 2924.78C47.3799 2923.97 46.0999 2923.35 44.6299 2922.92C43.1499 2922.48 41.5899 2922.26 39.9399 2922.26H32.4199V2941.45C32.7499 2941.46 33.6199 2941.47 35.0299 2941.47H39.9399C41.6199 2941.47 43.1999 2941.29 44.6899 2940.92C46.1799 2940.54 47.4599 2939.98 48.5199 2939.23C49.5899 2938.48 50.4299 2937.54 51.0399 2936.4C51.6499 2935.26 51.9599 2933.83 51.9599 2932.12V2932.13ZM55.1799 2967.55C55.1799 2966.09 54.8999 2964.76 54.3499 2963.55C53.8099 2962.34 53.0599 2961.32 52.0999 2960.49C51.1499 2959.65 50.0299 2958.99 48.7399 2958.51C47.4599 2958.03 46.0499 2957.79 44.5199 2957.79C42.0999 2957.72 39.7199 2957.7 37.3799 2957.74C35.0399 2957.77 33.3799 2957.79 32.4299 2957.79V2977.01H42.6299C44.2299 2977.01 45.8199 2976.82 47.3799 2976.45C48.9399 2976.07 50.2999 2975.48 51.4399 2974.7C52.5799 2973.91 53.4899 2972.94 54.1599 2971.79C54.8299 2970.63 55.1699 2969.22 55.1699 2967.56L55.1799 2967.55ZM152.7 2995.24H90.3699V2905.3H111.71V2974.75H152.69V2995.23L152.7 2995.24ZM250.52 2950.22C250.52 2956.67 249.26 2962.74 246.75 2968.44C244.25 2974.14 240.83 2979.09 236.48 2983.28C232.14 2987.47 227.08 2990.78 221.32 2993.2C215.57 2995.63 209.44 2996.84 202.93 2996.84C196.42 2996.84 190.27 2995.62 184.48 2993.2C178.7 2990.77 173.63 2987.47 169.28 2983.28C164.94 2979.09 161.51 2974.16 159 2968.5C156.49 2962.84 155.23 2956.74 155.23 2950.22C155.23 2943.7 156.48 2937.59 159 2931.89C161.51 2926.2 164.94 2921.25 169.28 2917.06C173.63 2912.86 178.71 2909.57 184.5 2907.18C190.29 2904.79 196.44 2903.59 202.94 2903.59C209.44 2903.59 215.57 2904.79 221.33 2907.18C227.09 2909.57 232.14 2912.88 236.49 2917.1C240.83 2921.33 244.26 2926.28 246.76 2931.94C249.27 2937.6 250.53 2943.69 250.53 2950.21L250.52 2950.22ZM229.39 2950.22C229.39 2946.6 228.69 2943.19 227.31 2940C225.92 2936.81 224.03 2934.02 221.62 2931.61C219.22 2929.2 216.41 2927.3 213.18 2925.89C209.95 2924.48 206.53 2923.77 202.93 2923.77C199.33 2923.77 195.78 2924.48 192.55 2925.89C189.32 2927.3 186.5 2929.2 184.1 2931.61C181.7 2934.02 179.81 2936.81 178.43 2940C177.06 2943.19 176.37 2946.59 176.37 2950.22C176.37 2953.85 177.06 2957.17 178.43 2960.39C179.81 2963.61 181.7 2966.42 184.1 2968.83C186.51 2971.24 189.32 2973.15 192.55 2974.56C195.78 2975.97 199.24 2976.67 202.93 2976.67C206.62 2976.67 209.95 2975.97 213.18 2974.56C216.41 2973.15 219.22 2971.23 221.62 2968.83C224.03 2966.42 225.92 2963.61 227.31 2960.39C228.69 2957.16 229.39 2953.77 229.39 2950.22ZM348.3 2977.49C342.99 2983.96 337.13 2988.8 330.74 2992.02C324.34 2995.24 317.29 2996.85 309.58 2996.85C302.94 2996.85 296.71 2995.63 290.88 2993.21C285.06 2990.78 279.97 2987.48 275.61 2983.29C271.27 2979.1 267.84 2974.17 265.33 2968.51C262.82 2962.85 261.56 2956.75 261.56 2950.23C261.56 2943.71 262.81 2937.62 265.33 2931.96C267.84 2926.3 271.27 2921.35 275.61 2917.12C279.96 2912.89 285.05 2909.58 290.88 2907.2C296.71 2904.81 302.95 2903.61 309.58 2903.61C317.29 2903.61 324.33 2905.22 330.72 2908.44C337.11 2911.66 342.87 2916.36 347.99 2922.53L333.27 2937.65C329.8 2932.68 326.14 2929.13 322.29 2926.99C318.43 2924.85 314.2 2923.77 309.59 2923.77C305.9 2923.77 302.43 2924.48 299.17 2925.89C295.91 2927.31 293.05 2929.22 290.61 2931.63C288.17 2934.04 286.24 2936.83 284.83 2940.02C283.42 2943.21 282.72 2946.61 282.72 2950.22C282.72 2953.83 283.42 2957.13 284.83 2960.31C286.24 2963.5 288.17 2966.29 290.61 2968.7C293.05 2971.11 295.91 2973.02 299.17 2974.43C302.43 2975.85 305.9 2976.55 309.59 2976.55C314.47 2976.55 318.78 2975.45 322.53 2973.24C326.29 2971.03 329.94 2967.36 333.48 2962.24L348.31 2977.47L348.3 2977.49ZM437.64 2995.24H410.02L378.97 2960.91V2995.24H357.95V2905.21H378.97V2939.91L410.78 2905.21H436.48L395.81 2949.48L437.64 2995.25V2995.24ZM516.03 2977.49C510.72 2983.96 504.86 2988.8 498.47 2992.02C492.07 2995.24 485.02 2996.85 477.31 2996.85C470.67 2996.85 464.44 2995.63 458.61 2993.21C452.79 2990.78 447.7 2987.48 443.34 2983.29C439 2979.1 435.57 2974.17 433.06 2968.51C430.55 2962.85 429.29 2956.75 429.29 2950.23C429.29 2943.71 430.54 2937.62 433.06 2931.96C435.57 2926.3 439 2921.35 443.34 2917.12C447.69 2912.89 452.78 2909.58 458.61 2907.2C464.44 2904.81 470.68 2903.61 477.31 2903.61C485.02 2903.61 492.06 2905.22 498.45 2908.44C504.85 2911.66 510.6 2916.36 515.72 2922.53L501 2937.65C497.53 2932.68 493.87 2929.13 490.02 2926.99C486.16 2924.85 481.93 2923.77 477.32 2923.77C473.63 2923.77 470.16 2924.48 466.9 2925.89C463.64 2927.31 460.78 2929.22 458.34 2931.63C455.9 2934.04 453.97 2936.83 452.56 2940.02C451.15 2943.21 450.45 2946.61 450.45 2950.22C450.45 2953.83 451.15 2957.13 452.56 2960.31C453.97 2963.5 455.9 2966.29 458.34 2968.7C460.79 2971.11 463.64 2973.02 466.9 2974.43C470.16 2975.85 473.63 2976.55 477.32 2976.55C482.2 2976.55 486.51 2975.45 490.26 2973.24C494.02 2971.03 497.67 2967.36 501.21 2962.24L516.04 2977.47L516.03 2977.49ZM597 2995.24H575.97V2957.36H546.7V2995.24H525.69V2905.3H546.7V2939.22H575.97V2905.3H597V2995.24ZM706.95 2995.24H683.84L675.92 2978.12H637.23L629.21 2995.24H606.1L648.65 2905.21H664.42L706.95 2995.24V2995.24ZM667.36 2959.88L656.58 2936.55L645.63 2959.88H667.36ZM737.02 2995.24H716V2905.3H737.02V2995.24ZM830.42 2995.24H810.73L775.53 2940.54V2995.24H754.83V2905.21H776.86L809.72 2955.79V2905.21H830.42V2995.24V2995.24Z" fill="white"/>
<path d="M1009 2995.24H948.06V2905.3H1009V2923.44H968.76V2939.44H1008.45V2957.25H968.76V2976.36H1009V2995.24ZM1111.48 2950.22C1111.48 2956.41 1110.43 2962.22 1108.32 2967.66C1106.23 2973.09 1103.29 2977.85 1099.52 2981.96C1095.76 2986.06 1091.26 2989.3 1086.02 2991.68C1080.79 2994.05 1075.09 2995.24 1068.91 2995.24H1030.96V2905.21H1068.91C1075.09 2905.21 1080.79 2906.42 1086.02 2908.83C1091.26 2911.24 1095.76 2914.47 1099.52 2918.53C1103.29 2922.59 1106.22 2927.36 1108.32 2932.83C1110.42 2938.3 1111.48 2944.1 1111.48 2950.22V2950.22ZM1090.25 2949.75C1090.31 2946.03 1089.75 2942.52 1088.56 2939.22C1087.37 2935.92 1085.66 2933.04 1083.43 2930.6C1081.21 2928.15 1078.48 2926.22 1075.23 2924.82C1071.99 2923.41 1068.32 2922.7 1064.21 2922.7H1051.98V2976.69H1064.21C1068.25 2976.69 1071.86 2976.02 1075.04 2974.67C1078.23 2973.33 1080.92 2971.47 1083.13 2969.09C1085.35 2966.71 1087.07 2963.88 1088.29 2960.61C1089.52 2957.33 1090.17 2953.71 1090.24 2949.77L1090.25 2949.75ZM1212.75 2905.2V2953.86C1212.75 2959.81 1211.85 2965.37 1210.05 2970.55C1208.26 2975.73 1205.63 2980.27 1202.17 2984.18C1198.72 2988.09 1194.51 2991.16 1189.55 2993.4C1184.59 2995.63 1178.96 2996.74 1172.66 2996.74C1166.36 2996.74 1160.93 2995.65 1155.94 2993.46C1150.95 2991.26 1146.69 2988.25 1143.16 2984.43C1139.64 2980.6 1136.93 2976.11 1135.05 2970.96C1133.17 2965.81 1132.24 2960.3 1132.24 2954.4V2905.21H1153.27V2954.51C1153.27 2957.56 1153.69 2960.41 1154.54 2963.04C1155.39 2965.68 1156.61 2967.95 1158.2 2969.85C1159.78 2971.76 1161.76 2973.27 1164.14 2974.38C1166.52 2975.48 1169.26 2976.04 1172.36 2976.04C1175.68 2976.04 1178.52 2975.52 1180.89 2974.48C1183.27 2973.44 1185.22 2971.99 1186.77 2970.14C1188.32 2968.28 1189.5 2966.04 1190.32 2963.44C1191.13 2960.83 1191.54 2957.92 1191.54 2954.72V2905.22H1212.78L1212.75 2905.2ZM1319.17 2977.48C1313.86 2983.95 1308 2988.79 1301.61 2992.01C1295.21 2995.23 1288.16 2996.84 1280.45 2996.84C1273.81 2996.84 1267.58 2995.62 1261.75 2993.2C1255.93 2990.77 1250.83 2987.47 1246.48 2983.28C1242.14 2979.09 1238.71 2974.16 1236.2 2968.5C1233.69 2962.84 1232.43 2956.74 1232.43 2950.22C1232.43 2943.7 1233.68 2937.61 1236.2 2931.95C1238.71 2926.29 1242.14 2921.34 1246.48 2917.11C1250.83 2912.88 1255.92 2909.57 1261.75 2907.19C1267.58 2904.8 1273.82 2903.6 1280.45 2903.6C1288.16 2903.6 1295.2 2905.21 1301.59 2908.43C1307.98 2911.65 1313.74 2916.35 1318.86 2922.52L1304.14 2937.64C1300.67 2932.67 1297.01 2929.12 1293.16 2926.98C1289.3 2924.84 1285.07 2923.76 1280.46 2923.76C1276.77 2923.76 1273.3 2924.47 1270.04 2925.88C1266.78 2927.3 1263.92 2929.21 1261.48 2931.62C1259.04 2934.03 1257.11 2936.82 1255.7 2940.01C1254.29 2943.2 1253.59 2946.6 1253.59 2950.21C1253.59 2953.82 1254.29 2957.12 1255.7 2960.3C1257.11 2963.49 1259.04 2966.28 1261.48 2968.69C1263.93 2971.1 1266.78 2973.01 1270.04 2974.42C1273.3 2975.84 1276.77 2976.54 1280.46 2976.54C1285.34 2976.54 1289.65 2975.44 1293.4 2973.23C1297.16 2971.02 1300.81 2967.35 1304.35 2962.23L1319.18 2977.46L1319.17 2977.48ZM1428.18 2995.23H1405.07L1397.15 2978.11H1358.46L1350.45 2995.23H1327.34L1369.89 2905.2H1385.66L1428.19 2995.23H1428.18ZM1388.59 2959.87L1377.81 2936.54L1366.86 2959.87H1388.59ZM1493.7 2924.5H1470.06V2995.23H1448.83V2924.5H1425.17V2905.3H1493.7V2924.5V2924.5ZM1534.45 2995.23H1513.43V2905.29H1534.45V2995.23ZM1651.61 2950.21C1651.61 2956.66 1650.35 2962.73 1647.84 2968.43C1645.34 2974.13 1641.92 2979.08 1637.57 2983.27C1633.23 2987.46 1628.17 2990.77 1622.41 2993.19C1616.66 2995.62 1610.53 2996.83 1604.02 2996.83C1597.51 2996.83 1591.36 2995.61 1585.57 2993.19C1579.79 2990.76 1574.72 2987.46 1570.37 2983.27C1566.03 2979.08 1562.6 2974.15 1560.09 2968.49C1557.58 2962.83 1556.33 2956.73 1556.33 2950.21C1556.33 2943.69 1557.58 2937.58 1560.09 2931.88C1562.6 2926.19 1566.03 2921.24 1570.37 2917.05C1574.72 2912.85 1579.79 2909.56 1585.59 2907.17C1591.38 2904.78 1597.53 2903.58 1604.03 2903.58C1610.53 2903.58 1616.66 2904.78 1622.42 2907.17C1628.18 2909.56 1633.23 2912.87 1637.58 2917.09C1641.92 2921.32 1645.35 2926.27 1647.85 2931.93C1650.36 2937.59 1651.62 2943.68 1651.62 2950.2L1651.61 2950.21ZM1630.49 2950.21C1630.49 2946.59 1629.8 2943.18 1628.41 2939.99C1627.02 2936.8 1625.13 2934.01 1622.72 2931.6C1620.32 2929.19 1617.51 2927.29 1614.28 2925.88C1611.05 2924.47 1607.63 2923.76 1604.03 2923.76C1600.43 2923.76 1596.88 2924.47 1593.65 2925.88C1590.42 2927.29 1587.6 2929.19 1585.2 2931.6C1582.8 2934.01 1580.91 2936.8 1579.53 2939.99C1578.15 2943.18 1577.47 2946.58 1577.47 2950.21C1577.47 2953.84 1578.16 2957.16 1579.53 2960.38C1580.91 2963.6 1582.8 2966.41 1585.2 2968.82C1587.61 2971.23 1590.42 2973.14 1593.65 2974.55C1596.88 2975.96 1600.34 2976.66 1604.03 2976.66C1607.72 2976.66 1611.05 2975.96 1614.28 2974.55C1617.51 2973.14 1620.32 2971.22 1622.72 2968.82C1625.13 2966.41 1627.02 2963.6 1628.41 2960.38C1629.79 2957.15 1630.49 2953.76 1630.49 2950.21ZM1748.78 2995.23H1729.09L1693.89 2940.53V2995.23H1673.19V2905.2H1695.22L1728.08 2955.78V2905.2H1748.78V2995.23V2995.23Z" fill="white"/>
<path d="M1958.83 2995.24H1939.14L1903.94 2940.54V2995.24H1883.24V2905.21H1905.27L1938.13 2955.79V2905.21H1958.83V2995.24V2995.24ZM2058.56 2995.24H1997.62V2905.3H2058.56V2923.44H2018.33V2939.44H2058.02V2957.25H2018.33V2976.36H2058.56V2995.24ZM2157.21 2924.51H2133.57V2995.24H2112.34V2924.51H2088.68V2905.31H2157.21V2924.51V2924.51ZM2305.08 2905.21L2275.81 2995.24H2258L2243.92 2947.91L2229.75 2995.24H2211.92L2182.67 2905.21H2204.87L2221.18 2955.13L2235.29 2905.21H2252.34L2266.45 2955.26L2282.97 2905.21H2305.08V2905.21ZM2424.92 2950.23C2424.92 2956.68 2423.66 2962.75 2421.16 2968.45C2418.66 2974.15 2415.24 2979.1 2410.89 2983.29C2406.55 2987.48 2401.49 2990.79 2395.73 2993.21C2389.98 2995.64 2383.85 2996.85 2377.34 2996.85C2370.83 2996.85 2364.68 2995.63 2358.89 2993.21C2353.11 2990.78 2348.04 2987.48 2343.69 2983.29C2339.35 2979.1 2335.92 2974.17 2333.41 2968.51C2330.9 2962.85 2329.64 2956.75 2329.64 2950.23C2329.64 2943.71 2330.89 2937.6 2333.41 2931.9C2335.92 2926.21 2339.35 2921.26 2343.69 2917.07C2348.04 2912.87 2353.12 2909.58 2358.91 2907.19C2364.7 2904.8 2370.85 2903.6 2377.35 2903.6C2383.85 2903.6 2389.98 2904.8 2395.74 2907.19C2401.5 2909.58 2406.55 2912.89 2410.9 2917.11C2415.24 2921.34 2418.67 2926.29 2421.17 2931.95C2423.68 2937.61 2424.93 2943.7 2424.93 2950.22L2424.92 2950.23ZM2403.8 2950.23C2403.8 2946.61 2403.1 2943.2 2401.72 2940.01C2400.33 2936.82 2398.44 2934.03 2396.03 2931.62C2393.63 2929.21 2390.82 2927.31 2387.59 2925.9C2384.36 2924.49 2380.94 2923.78 2377.34 2923.78C2373.74 2923.78 2370.19 2924.49 2366.96 2925.9C2363.73 2927.31 2360.91 2929.21 2358.51 2931.62C2356.11 2934.03 2354.22 2936.82 2352.84 2940.01C2351.46 2943.2 2350.78 2946.6 2350.78 2950.23C2350.78 2953.86 2351.47 2957.18 2352.84 2960.4C2354.22 2963.62 2356.11 2966.43 2358.51 2968.84C2360.92 2971.25 2363.73 2973.16 2366.96 2974.57C2370.19 2975.98 2373.65 2976.68 2377.34 2976.68C2381.03 2976.68 2384.36 2975.98 2387.59 2974.57C2390.82 2973.16 2393.63 2971.24 2396.03 2968.84C2398.44 2966.43 2400.33 2963.62 2401.72 2960.4C2403.1 2957.17 2403.8 2953.78 2403.8 2950.23ZM2530.58 2995.25H2506.71L2500.12 2974.22C2499.52 2972.21 2498.78 2970.4 2497.9 2968.78C2497.03 2967.17 2496.02 2965.81 2494.85 2964.72C2493.69 2963.62 2492.3 2962.76 2490.68 2962.14C2489.06 2961.53 2487.1 2961.22 2484.81 2961.22H2480.83V2995.25H2460.02V2905.31L2496.05 2905.22C2499.96 2905.22 2503.63 2905.9 2507.03 2907.25C2510.44 2908.59 2513.4 2910.48 2515.89 2912.91C2518.38 2915.33 2520.32 2918.17 2521.72 2921.44C2523.13 2924.71 2523.83 2928.25 2523.83 2932.05C2523.83 2934.78 2523.4 2937.43 2522.55 2940C2521.69 2942.57 2520.49 2944.95 2518.94 2947.12C2517.39 2949.3 2515.53 2951.23 2513.38 2952.9C2511.23 2954.58 2509.94 2955.17 2509.5 2954.68C2510.44 2954.37 2511.88 2955.28 2513.8 2957.41C2515.73 2959.53 2517.24 2962.04 2518.33 2964.93C2518.84 2966.15 2519.31 2967.38 2519.74 2968.62C2520.18 2969.85 2520.62 2971.13 2521.08 2972.45C2521.55 2973.76 2522.05 2975.19 2522.58 2976.73C2523.12 2978.26 2523.71 2979.96 2524.36 2981.82C2525.13 2984.15 2525.84 2986.11 2526.48 2987.71C2527.13 2989.3 2528.5 2991.82 2530.59 2995.24L2530.58 2995.25ZM2502.69 2933.22C2502.69 2931.54 2502.38 2930.03 2501.75 2928.66C2501.13 2927.3 2500.27 2926.11 2499.2 2925.1C2498.14 2924.08 2496.86 2923.28 2495.37 2922.71C2493.88 2922.14 2492.28 2921.85 2490.57 2921.85H2480.8V2944.05H2490.57C2492.31 2944.05 2493.92 2943.8 2495.41 2943.28C2496.91 2942.76 2498.18 2942.03 2499.24 2941.09C2500.3 2940.15 2501.14 2939.01 2501.75 2937.7C2502.36 2936.38 2502.67 2934.88 2502.67 2933.22H2502.69ZM2641.12 2995.25H2613.5L2582.45 2960.92V2995.25H2561.43V2905.22H2582.45V2939.92L2614.26 2905.22H2639.96L2599.29 2949.49L2641.12 2995.26V2995.25Z" fill="white"/>
<path fill-rule="evenodd" clip-rule="evenodd" d="M847.73 1004.43C793.61 1032.27 747.32 1073.24 713.06 1123.08C751.86 1417.17 1002.83 1644.39 1307.18 1645.84H1307.44C1611.79 1644.39 1862.77 1417.17 1901.56 1123.08C1867.29 1073.25 1821.01 1032.27 1766.89 1004.43C1767.97 1017.34 1768.48 1030.38 1768.48 1043.57C1768.48 1298.84 1562.34 1505.96 1307.44 1507.54H1307.18C1052.28 1505.96 846.14 1298.85 846.14 1043.57C846.14 1030.38 846.65 1017.34 847.73 1004.43V1004.43Z" fill="#FF872A"/>
<path fill-rule="evenodd" clip-rule="evenodd" d="M1306.91 0L480.36 447.05L723.23 578.45C704.87 612.54 692.51 677.12 692.51 751.47V777.5C692.51 887.57 719.6 976.19 753.16 976.19H754.58C811.62 875.98 919.32 808.4 1042.88 808.4C1150.76 808.4 1246.61 859.94 1307.18 939.71V940.06C1307.18 940.06 1307.23 939.94 1307.27 939.88C1307.32 939.95 1307.4 939.99 1307.45 940.06V939.71C1368.02 859.94 1463.87 808.4 1571.75 808.4C1695.3 808.4 1803 875.99 1860.05 976.19H1861.46C1895.02 976.19 1922.11 887.56 1922.11 777.5V751.47C1922.11 677.13 1909.74 612.55 1891.39 578.45L2134.26 447.05L1307.7 0L1307.26 0.18L1306.91 0Z" fill="#333333"/>
</g>
<defs>
<clipPath id="clip0_2_131">
<rect width="2641.12" height="2996.85" fill="white"/>
</clipPath>
</defs>
</svg>
