<svg width="26" height="26" viewBox="0 0 26 26" fill="none" xmlns="http://www.w3.org/2000/svg">
<g clip-path="url(#clip0_4_990)">
<path fill-rule="evenodd" clip-rule="evenodd" d="M6.31923 15.3789C5.50454 15.798 4.80772 16.4147 4.29199 17.165C4.87606 21.592 8.65402 25.0125 13.2355 25.0343H13.2394C17.8209 25.0125 21.599 21.592 22.183 17.165C21.6671 16.4149 20.9704 15.798 20.1557 15.3789C20.172 15.5732 20.1796 15.7695 20.1796 15.9681C20.1796 19.8108 17.0765 22.9286 13.2394 22.9524H13.2355C9.39841 22.9286 6.2953 19.8109 6.2953 15.9681C6.2953 15.7695 6.30298 15.5732 6.31923 15.3789Z" fill="white"/>
<path fill-rule="evenodd" clip-rule="evenodd" d="M13.2315 0.258789L0.789062 6.98841L4.44508 8.96643C4.1687 9.4796 3.98264 10.4517 3.98264 11.571V11.9628C3.98264 13.6197 4.39044 14.9538 4.89563 14.9538H4.91701C5.77565 13.4453 7.3969 12.428 9.2569 12.428C10.8809 12.428 12.3237 13.2038 13.2355 14.4046V14.4099C13.2355 14.4099 13.2363 14.4081 13.2369 14.4072C13.2376 14.4082 13.2388 14.4088 13.2396 14.4099V14.4046C14.1514 13.2038 15.5942 12.428 17.2182 12.428C19.078 12.428 20.6993 13.4454 21.5581 14.9538H21.5793C22.0845 14.9538 22.4923 13.6196 22.4923 11.9628V11.571C22.4923 10.4519 22.3061 9.47975 22.0299 8.96643L25.6859 6.98841L13.2433 0.258789L13.2367 0.261499L13.2315 0.258789Z" fill="white"/>
</g>
<defs>
<clipPath id="clip0_4_990">
<rect width="25" height="25" fill="white" transform="translate(0.737305 0.146484)"/>
</clipPath>
</defs>
</svg>
