<svg width="4207" height="2256" viewBox="0 0 4207 2256" fill="none" xmlns="http://www.w3.org/2000/svg">
<g clip-path="url(#clip0_412_78)">
<path d="M1097.46 368.062H286.739V1062H1097.46V368.062Z" fill="white"/>
<path d="M972.399 911.129H395.235V1239.01H972.399V911.129Z" fill="white"/>
<path fill-rule="evenodd" clip-rule="evenodd" d="M328.204 829.288C284.998 851.513 248.046 884.222 220.693 924.005C251.666 1158.79 452.024 1340.18 694.991 1341.34C695.061 1341.34 695.13 1341.34 695.203 1341.34C938.173 1340.18 1138.53 1158.79 1169.5 924.005C1142.15 884.222 1105.19 851.513 1061.99 829.288C1062.85 839.595 1063.26 850.006 1063.26 860.534C1063.26 1064.32 898.697 1229.66 695.203 1230.93C695.13 1230.93 695.061 1230.93 694.991 1230.93C491.499 1229.66 326.933 1064.32 326.933 860.534C326.933 850.006 327.344 839.595 328.204 829.288Z" fill="white" stroke="white" stroke-width="17.0079" stroke-linecap="round" stroke-linejoin="round"/>
<path fill-rule="evenodd" clip-rule="evenodd" d="M694.78 27.4316L34.9297 384.323L228.818 489.219C214.164 516.437 204.293 567.991 204.293 627.341V648.122C204.293 735.987 225.916 806.742 252.711 806.742H253.844C299.38 726.746 385.356 672.791 483.995 672.791C570.117 672.791 646.639 713.939 694.99 777.617V777.897C695.023 777.86 695.031 777.799 695.06 777.757C695.103 777.811 695.164 777.846 695.202 777.897V777.617C743.556 713.939 820.077 672.791 906.2 672.791C1004.83 672.791 1090.81 726.746 1136.35 806.742H1137.48C1164.27 806.742 1185.9 735.987 1185.9 648.122V627.34C1185.9 567.991 1176.03 516.436 1161.37 489.218L1355.27 384.322L695.413 27.4316L695.062 27.5716L694.78 27.4316Z" fill="white" stroke="white" stroke-width="17.0079" stroke-linecap="round" stroke-linejoin="round"/>
<path d="M2357.21 758.384C2357.21 812.382 2347.91 863.717 2329.33 912.404C2311.62 961.09 2286.39 1004.02 2253.64 1041.2C2220.89 1077.49 2181.94 1106.7 2136.8 1128.83C2091.65 1150.08 2042.08 1160.69 1988.09 1160.69C1954.45 1160.69 1923.02 1155.83 1893.82 1146.09C1864.61 1137.24 1837.16 1122.63 1811.5 1102.27V1142.11H1618.97V40.0635H1812.82V411.835C1834.96 394.134 1861.07 379.972 1891.16 369.347C1922.14 358.728 1954.45 353.418 1988.09 353.418C2035 353.418 2080.59 364.039 2124.84 385.281C2169.11 405.641 2208.5 433.967 2243.02 470.261C2277.54 506.553 2304.98 549.484 2325.34 599.053C2346.59 647.735 2357.21 700.846 2357.21 758.384ZM2163.35 758.384C2163.35 722.975 2158.04 690.669 2147.42 661.456C2136.8 632.247 2121.75 607.459 2102.27 587.104C2083.68 565.858 2061.11 549.923 2034.56 539.3C2008.89 527.796 1980.12 522.039 1948.26 522.039C1927.89 522.039 1904.44 526.468 1877.88 535.318C1851.33 543.286 1829.2 553.907 1811.5 567.182V936.3C1853.1 974.366 1900.01 993.398 1952.24 993.398C1982.33 993.398 2010.21 987.644 2035.88 976.133C2062.44 964.626 2085.01 948.698 2103.61 928.336C2122.19 907.093 2136.8 882.304 2147.42 853.982C2158.04 824.769 2163.35 792.905 2163.35 758.384Z" fill="#333333"/>
<path d="M3246.41 520.068C3253.52 530.223 3260.15 541.242 3266.32 553.133C3273.21 564.517 3279.99 576.52 3286.67 589.135L2784.18 940.982C2802.67 955.05 2822.83 966.862 2844.66 976.435C2866.71 984.772 2889.66 989.769 2913.52 991.435C2936.87 992.373 2960.51 989.873 2984.44 983.923C3008.58 976.738 3032.26 965.023 3055.46 948.777C3083.75 928.977 3108.72 904.46 3130.4 875.234C3151.57 845.282 3165.74 815.364 3172.92 785.488L3341.19 815.157C3320.54 878.255 3294 931.414 3261.59 974.636C3229.41 1016.63 3190.1 1053.87 3143.7 1086.36C3096.57 1119.36 3046.25 1141.63 2992.73 1153.17C2939.94 1164.2 2887.91 1165.51 2836.64 1157.11C2786.09 1148.2 2738.16 1129.89 2692.83 1102.2C2646.99 1073.78 2608.09 1036.73 2576.1 991.047C2544.12 945.37 2522.86 896.495 2512.34 844.426C2501.31 791.639 2500.62 739.718 2510.25 688.663C2519.89 637.613 2538.92 589.167 2567.33 543.332C2595.76 497.501 2633.17 458.335 2679.58 425.841C2723.8 394.871 2772.06 373.508 2824.34 361.752C2876.12 349.275 2927.75 346.618 2979.24 353.789C3030.72 360.964 3079.75 378.505 3126.3 406.416C3172.36 433.605 3212.4 471.489 3246.41 520.068ZM3039.53 574.161C2999.28 542.911 2954.82 526.491 2906.17 524.902C2857.72 522.079 2813.56 534.635 2773.68 562.559C2734.53 589.976 2708 626.924 2694.08 673.412C2679.65 719.168 2680.24 766.304 2695.84 814.816L3039.53 574.161Z" fill="#333333"/>
<path d="M4193.28 1142.11H4002.08V684.027C4002.08 656.588 3997.66 632.689 3988.8 612.33C3980.84 591.087 3969.77 573.825 3955.61 560.546C3941.45 546.385 3925.07 536.206 3906.48 530.007C3888.78 522.929 3870.19 519.384 3850.72 519.384C3821.5 519.384 3792.74 524.696 3764.41 535.318C3736.09 545.056 3710.42 560.99 3687.4 583.116V1142.11H3494.88V374.659H3687.4V431.75C3698.91 420.245 3713.07 409.625 3729.89 399.888C3746.71 390.153 3763.97 382.187 3781.67 375.989C3800.26 368.905 3818.85 363.594 3837.44 360.055C3856.91 356.516 3875.5 354.744 3893.2 354.744C3932.15 354.744 3969.33 360.939 4004.74 373.334C4041.03 385.726 4072.9 404.759 4100.33 430.424C4128.66 456.095 4151.23 489.293 4168.05 530.008C4184.87 570.725 4193.28 618.969 4193.28 674.733V1142.11" fill="#333333"/>
<path d="M1694.24 1319.04C1694.24 1322.86 1693.45 1326.4 1691.88 1329.65C1690.32 1332.9 1688.24 1335.68 1685.66 1337.99C1683.08 1340.31 1680.11 1342.11 1676.74 1343.4C1673.38 1344.68 1669.86 1345.33 1666.18 1345.33L1630.15 1345.22V1257.03H1662.51C1666.38 1257.03 1670 1257.62 1673.36 1258.79C1676.73 1259.95 1679.67 1261.66 1682.21 1263.93C1684.75 1266.2 1686.72 1268.96 1688.13 1272.21C1689.54 1275.46 1690.26 1279.08 1690.26 1283.09C1690.26 1286.57 1689.49 1289.91 1687.96 1293.12C1686.43 1296.33 1685.13 1298.35 1684.07 1299.18C1684.31 1299.21 1685.21 1300 1686.8 1301.54C1688.39 1303.08 1689.74 1304.79 1690.84 1306.67C1691.95 1308.54 1692.79 1310.54 1693.36 1312.65C1693.94 1314.76 1694.24 1316.9 1694.24 1319.04ZM1669.87 1283.4C1669.87 1281.74 1669.56 1280.33 1668.95 1279.16C1668.35 1277.99 1667.52 1277 1666.46 1276.21C1665.39 1275.41 1664.14 1274.81 1662.69 1274.39C1661.24 1273.96 1659.71 1273.74 1658.1 1273.74H1650.74V1292.54C1651.06 1292.55 1651.92 1292.55 1653.29 1292.55C1654.68 1292.55 1656.28 1292.55 1658.1 1292.55C1659.74 1292.55 1661.29 1292.38 1662.75 1292.02C1664.21 1291.65 1665.46 1291.1 1666.5 1290.37C1667.55 1289.63 1668.37 1288.71 1668.97 1287.6C1669.57 1286.47 1669.87 1285.08 1669.87 1283.4ZM1673.02 1318.1C1673.02 1316.67 1672.75 1315.36 1672.21 1314.18C1671.68 1313 1670.94 1312 1670.01 1311.18C1669.08 1310.35 1667.98 1309.7 1666.72 1309.24C1665.46 1308.77 1664.08 1308.53 1662.58 1308.53C1660.22 1308.46 1657.89 1308.45 1655.59 1308.49C1653.29 1308.51 1651.67 1308.53 1650.74 1308.53V1327.36H1660.73C1662.3 1327.36 1663.85 1327.17 1665.38 1326.8C1666.91 1326.43 1668.24 1325.86 1669.36 1325.09C1670.48 1324.32 1671.37 1323.37 1672.03 1322.24C1672.69 1321.11 1673.02 1319.73 1673.02 1318.1ZM1768.55 1345.22H1707.49V1257.12H1728.4V1325.15H1768.54V1345.22H1768.55ZM1864.36 1301.13C1864.36 1307.44 1863.13 1313.39 1860.67 1318.97C1858.22 1324.55 1854.87 1329.4 1850.62 1333.51C1846.36 1337.61 1841.41 1340.85 1835.77 1343.23C1830.14 1345.61 1824.13 1346.8 1817.75 1346.8C1811.38 1346.8 1805.35 1345.61 1799.68 1343.23C1794.02 1340.85 1789.05 1337.61 1784.79 1333.51C1780.54 1329.4 1777.17 1324.57 1774.72 1319.03C1772.26 1313.48 1771.03 1307.51 1771.03 1301.13C1771.03 1294.74 1772.26 1288.76 1774.72 1283.17C1777.17 1277.59 1780.54 1272.75 1784.79 1268.65C1789.05 1264.54 1794.02 1261.32 1799.7 1258.97C1805.37 1256.63 1811.39 1255.45 1817.75 1255.45C1824.12 1255.45 1830.13 1256.63 1835.77 1258.97C1841.41 1261.32 1846.36 1264.55 1850.62 1268.69C1854.87 1272.84 1858.22 1277.69 1860.67 1283.24C1863.13 1288.78 1864.36 1294.74 1864.36 1301.13ZM1843.67 1301.13C1843.67 1297.57 1842.99 1294.23 1841.64 1291.11C1840.28 1287.99 1838.42 1285.25 1836.06 1282.9C1833.72 1280.54 1830.96 1278.67 1827.8 1277.29C1824.64 1275.91 1821.29 1275.21 1817.76 1275.21C1814.15 1275.21 1810.76 1275.91 1807.6 1277.29C1804.43 1278.67 1801.67 1280.54 1799.32 1282.9C1796.97 1285.25 1795.11 1287.99 1793.76 1291.11C1792.41 1294.23 1791.74 1297.57 1791.74 1301.13C1791.74 1304.61 1792.41 1307.93 1793.76 1311.09C1795.11 1314.24 1796.97 1317 1799.32 1319.36C1801.67 1321.71 1804.43 1323.58 1807.6 1324.97C1810.76 1326.35 1814.15 1327.03 1817.76 1327.03C1821.29 1327.03 1824.64 1326.35 1827.8 1324.97C1830.96 1323.58 1833.72 1321.71 1836.06 1319.36C1838.42 1317 1840.28 1314.24 1841.64 1311.09C1842.99 1307.93 1843.67 1304.61 1843.67 1301.13ZM1960.15 1327.83C1954.95 1334.17 1949.21 1338.91 1942.95 1342.07C1936.68 1345.22 1929.77 1346.8 1922.22 1346.8C1915.72 1346.8 1909.61 1345.61 1903.9 1343.23C1898.2 1340.85 1893.21 1337.61 1888.95 1333.51C1884.7 1329.4 1881.33 1324.57 1878.88 1319.03C1876.42 1313.48 1875.19 1307.51 1875.19 1301.13C1875.19 1294.74 1876.42 1288.78 1878.88 1283.24C1881.33 1277.68 1884.7 1272.84 1888.95 1268.69C1893.21 1264.55 1898.2 1261.31 1903.9 1258.97C1909.61 1256.63 1915.72 1255.45 1922.22 1255.45C1929.77 1255.45 1936.67 1257.03 1942.93 1260.18C1949.2 1263.33 1954.83 1267.94 1959.84 1273.99L1945.43 1288.8C1942.03 1283.94 1938.44 1280.46 1934.67 1278.37C1930.89 1276.26 1926.74 1275.21 1922.22 1275.21C1918.61 1275.21 1915.21 1275.91 1912.02 1277.29C1908.82 1278.68 1906.02 1280.56 1903.63 1282.91C1901.24 1285.27 1899.35 1288.01 1897.96 1291.13C1896.59 1294.25 1895.9 1297.58 1895.9 1301.13C1895.9 1304.6 1896.59 1307.89 1897.96 1311.01C1899.35 1314.14 1901.24 1316.87 1903.63 1319.23C1906.02 1321.59 1908.82 1323.46 1912.02 1324.84C1915.21 1326.24 1918.61 1326.93 1922.22 1326.93C1927 1326.93 1931.22 1325.85 1934.9 1323.68C1938.58 1321.52 1942.16 1317.93 1945.63 1312.91L1960.15 1327.83ZM2047.66 1345.22H2020.6L1990.19 1311.59V1345.22H1969.61V1257.03H1990.19V1291.02L2021.35 1257.03H2046.53L2006.69 1300.39L2047.66 1345.22ZM2124.45 1327.83C2119.25 1334.17 2113.51 1338.91 2107.25 1342.07C2100.98 1345.22 2094.07 1346.8 2086.52 1346.8C2080.02 1346.8 2073.92 1345.61 2068.2 1343.23C2062.5 1340.85 2057.52 1337.61 2053.25 1333.51C2049 1329.4 2045.64 1324.57 2043.18 1319.03C2040.72 1313.48 2039.49 1307.51 2039.49 1301.13C2039.49 1294.74 2040.72 1288.78 2043.18 1283.24C2045.64 1277.68 2049 1272.84 2053.25 1268.69C2057.52 1264.55 2062.5 1261.31 2068.2 1258.97C2073.92 1256.63 2080.02 1255.45 2086.52 1255.45C2094.07 1255.45 2100.98 1257.03 2107.23 1260.18C2113.49 1263.33 2119.13 1267.94 2124.14 1273.99L2109.73 1288.8C2106.33 1283.94 2102.74 1280.46 2098.96 1278.37C2095.19 1276.26 2091.05 1275.21 2086.52 1275.21C2082.91 1275.21 2079.51 1275.91 2076.31 1277.29C2073.12 1278.68 2070.33 1280.56 2067.93 1282.91C2065.54 1285.27 2063.65 1288.01 2062.26 1291.13C2060.89 1294.25 2060.2 1297.58 2060.2 1301.13C2060.2 1304.6 2060.89 1307.89 2062.26 1311.01C2063.65 1314.14 2065.54 1316.87 2067.93 1319.23C2070.33 1321.59 2073.12 1323.46 2076.31 1324.84C2079.51 1326.24 2082.91 1326.93 2086.52 1326.93C2091.3 1326.93 2095.52 1325.85 2099.2 1323.68C2102.88 1321.52 2106.45 1317.93 2109.92 1312.91L2124.45 1327.83ZM2203.76 1345.22H2183.17V1308.12H2154.49V1345.22H2133.91V1257.12H2154.49V1290.35H2183.17V1257.12H2203.76V1345.22ZM2311.46 1345.22H2288.82L2281.07 1328.45H2243.17L2235.31 1345.22H2212.68L2254.36 1257.03H2269.8L2311.46 1345.22ZM2272.68 1310.58L2262.12 1287.73L2251.39 1310.58H2272.68ZM2340.91 1345.22H2320.33V1257.12H2340.91V1345.22ZM2432.4 1345.22H2413.12L2378.64 1291.64V1345.22H2358.36V1257.03H2379.93L2412.12 1306.57V1257.03H2432.4V1345.22H2432.4Z" fill="#333333"/>
<path d="M2607.32 1345.22H2547.63V1257.12H2607.32V1274.89H2567.91V1290.56H2606.78V1308.01H2567.91V1326.73H2607.32V1345.22ZM2707.7 1301.13C2707.7 1307.19 2706.68 1312.88 2704.61 1318.2C2702.56 1323.52 2699.69 1328.19 2696 1332.21C2692.31 1336.23 2687.91 1339.4 2682.78 1341.73C2677.65 1344.06 2672.06 1345.22 2666.01 1345.22H2628.83V1257.03H2666.01C2672.06 1257.03 2677.65 1258.22 2682.78 1260.58C2687.91 1262.94 2692.31 1266.11 2696 1270.09C2699.69 1274.07 2702.56 1278.73 2704.61 1284.09C2706.68 1289.45 2707.7 1295.12 2707.7 1301.13ZM2686.91 1300.67C2686.97 1297.02 2686.41 1293.59 2685.26 1290.35C2684.09 1287.12 2682.41 1284.3 2680.23 1281.9C2678.06 1279.51 2675.38 1277.62 2672.2 1276.24C2669.02 1274.85 2665.42 1274.16 2661.4 1274.16H2649.42V1327.04H2661.4C2665.36 1327.04 2668.9 1326.38 2672.01 1325.06C2675.14 1323.75 2677.78 1321.93 2679.94 1319.6C2682.12 1317.27 2683.8 1314.49 2685 1311.29C2686.19 1308.07 2686.83 1304.53 2686.91 1300.67ZM2806.9 1257.03V1304.69C2806.9 1310.52 2806.02 1315.97 2804.25 1321.04C2802.5 1326.11 2799.93 1330.56 2796.54 1334.38C2793.16 1338.21 2789.04 1341.22 2784.17 1343.41C2779.32 1345.59 2773.8 1346.69 2767.63 1346.69C2761.6 1346.69 2756.14 1345.62 2751.25 1343.48C2746.36 1341.32 2742.19 1338.37 2738.73 1334.63C2735.28 1330.87 2732.63 1326.48 2730.79 1321.43C2728.95 1316.4 2728.04 1310.99 2728.04 1305.21V1257.03H2748.63V1305.32C2748.63 1308.31 2749.05 1311.09 2749.88 1313.67C2750.71 1316.26 2751.9 1318.48 2753.46 1320.35C2755.01 1322.22 2756.95 1323.7 2759.27 1324.79C2761.61 1325.87 2764.29 1326.41 2767.32 1326.41C2770.57 1326.41 2773.36 1325.9 2775.68 1324.88C2778 1323.86 2779.92 1322.44 2781.43 1320.62C2782.95 1318.8 2784.11 1316.61 2784.91 1314.06C2785.7 1311.5 2786.1 1308.65 2786.1 1305.52V1257.03H2806.9V1257.03ZM2911.15 1327.83C2905.94 1334.17 2900.21 1338.91 2893.94 1342.07C2887.68 1345.22 2880.77 1346.8 2873.22 1346.8C2866.72 1346.8 2860.61 1345.61 2854.9 1343.23C2849.19 1340.85 2844.21 1337.61 2839.95 1333.51C2835.69 1329.4 2832.33 1324.57 2829.88 1319.03C2827.42 1313.48 2826.19 1307.51 2826.19 1301.13C2826.19 1294.74 2827.42 1288.78 2829.88 1283.24C2832.33 1277.68 2835.69 1272.84 2839.95 1268.69C2844.21 1264.55 2849.19 1261.31 2854.9 1258.97C2860.61 1256.63 2866.72 1255.45 2873.22 1255.45C2880.77 1255.45 2887.67 1257.03 2893.93 1260.18C2900.19 1263.33 2905.83 1267.94 2910.84 1273.99L2896.42 1288.8C2893.02 1283.94 2889.43 1280.46 2885.66 1278.37C2881.89 1276.26 2877.74 1275.21 2873.22 1275.21C2869.61 1275.21 2866.2 1275.91 2863.01 1277.29C2859.82 1278.68 2857.02 1280.56 2854.62 1282.91C2852.23 1285.27 2850.35 1288.01 2848.96 1291.13C2847.58 1294.25 2846.9 1297.58 2846.9 1301.13C2846.9 1304.6 2847.58 1307.89 2848.96 1311.01C2850.35 1314.14 2852.23 1316.87 2854.62 1319.23C2857.02 1321.59 2859.81 1323.46 2863.01 1324.84C2866.2 1326.24 2869.61 1326.93 2873.22 1326.93C2877.99 1326.93 2882.22 1325.85 2885.89 1323.68C2889.57 1321.52 2893.15 1317.93 2896.62 1312.91L2911.15 1327.83ZM3017.93 1345.22H2995.29L2987.53 1328.45H2949.64L2941.78 1345.22H2919.15L2960.82 1257.03H2976.27L3017.93 1345.22ZM2979.14 1310.58L2968.58 1287.73L2957.86 1310.58H2979.14ZM3082.1 1275.93H3058.94V1345.22H3038.14V1275.93H3014.97V1257.12H3082.1V1275.93ZM3122.01 1345.22H3101.43V1257.12H3122.01V1345.22ZM3236.78 1301.13C3236.78 1307.44 3235.55 1313.39 3233.09 1318.97C3230.64 1324.55 3227.29 1329.4 3223.04 1333.51C3218.78 1337.61 3213.83 1340.85 3208.19 1343.23C3202.56 1345.61 3196.55 1346.8 3190.17 1346.8C3183.8 1346.8 3177.77 1345.61 3172.1 1343.23C3166.43 1340.85 3161.47 1337.61 3157.21 1333.51C3152.95 1329.4 3149.59 1324.57 3147.13 1319.03C3144.67 1313.48 3143.44 1307.51 3143.44 1301.13C3143.44 1294.74 3144.67 1288.76 3147.13 1283.17C3149.59 1277.59 3152.95 1272.75 3157.21 1268.65C3161.47 1264.54 3166.44 1261.32 3172.11 1258.97C3177.78 1256.63 3183.8 1255.45 3190.17 1255.45C3196.54 1255.45 3202.54 1256.63 3208.19 1258.97C3213.83 1261.32 3218.78 1264.55 3223.04 1268.69C3227.29 1272.84 3230.64 1277.69 3233.09 1283.24C3235.55 1288.78 3236.78 1294.74 3236.78 1301.13ZM3216.09 1301.13C3216.09 1297.57 3215.4 1294.23 3214.05 1291.11C3212.69 1287.99 3210.83 1285.25 3208.48 1282.9C3206.13 1280.54 3203.37 1278.67 3200.22 1277.29C3197.05 1275.91 3193.7 1275.21 3190.18 1275.21C3186.57 1275.21 3183.17 1275.91 3180.01 1277.29C3176.85 1278.67 3174.09 1280.54 3171.73 1282.9C3169.38 1285.25 3167.53 1287.99 3166.18 1291.11C3164.83 1294.23 3164.15 1297.57 3164.15 1301.13C3164.15 1304.61 3164.83 1307.93 3166.18 1311.09C3167.53 1314.24 3169.38 1317 3171.73 1319.36C3174.09 1321.71 3176.85 1323.58 3180.01 1324.97C3183.17 1326.35 3186.57 1327.03 3190.18 1327.03C3193.7 1327.03 3197.05 1326.35 3200.22 1324.97C3203.37 1323.58 3206.13 1321.71 3208.48 1319.36C3210.83 1317 3212.69 1314.24 3214.05 1311.09C3215.4 1307.93 3216.09 1304.61 3216.09 1301.13ZM3331.96 1345.22H3312.67L3278.19 1291.64V1345.22H3257.91V1257.03H3279.48L3311.68 1306.57V1257.03H3331.96V1345.22V1345.22Z" fill="#333333"/>
<path d="M3537.71 1345.22H3518.43L3483.94 1291.64V1345.22H3463.66V1257.03H3485.25L3517.43 1306.57V1257.03H3537.71V1345.22H3537.71ZM3635.4 1345.22H3575.71V1257.12H3635.4V1274.89H3595.99V1290.56H3634.87V1308.01H3595.99V1326.73H3635.4V1345.22ZM3732.03 1275.93H3708.87V1345.22H3688.08V1275.93H3664.91V1257.12H3732.03V1275.93ZM3876.87 1257.03L3848.21 1345.22H3830.76L3816.97 1298.86L3803.08 1345.22H3785.62L3756.97 1257.03H3778.72L3794.7 1305.93L3808.52 1257.03H3825.22L3839.04 1306.05L3855.21 1257.03H3876.87ZM3994.26 1301.13C3994.26 1307.44 3993.03 1313.39 3990.57 1318.97C3988.12 1324.55 3984.77 1329.4 3980.51 1333.51C3976.26 1337.61 3971.31 1340.85 3965.67 1343.23C3960.03 1345.61 3954.03 1346.8 3947.65 1346.8C3941.28 1346.8 3935.25 1345.61 3929.58 1343.23C3923.92 1340.85 3918.95 1337.61 3914.69 1333.51C3910.43 1329.4 3907.07 1324.57 3904.61 1319.03C3902.16 1313.48 3900.93 1307.51 3900.93 1301.13C3900.93 1294.74 3902.16 1288.76 3904.61 1283.17C3907.07 1277.59 3910.43 1272.75 3914.69 1268.65C3918.95 1264.54 3923.92 1261.32 3929.59 1258.97C3935.26 1256.63 3941.28 1255.45 3947.65 1255.45C3954.02 1255.45 3960.02 1256.63 3965.67 1258.97C3971.31 1261.32 3976.26 1264.55 3980.51 1268.69C3984.77 1272.84 3988.12 1277.69 3990.57 1283.24C3993.03 1288.78 3994.26 1294.74 3994.26 1301.13ZM3973.56 1301.13C3973.56 1297.57 3972.88 1294.23 3971.53 1291.11C3970.17 1287.99 3968.32 1285.25 3965.96 1282.9C3963.61 1280.54 3960.86 1278.67 3957.69 1277.29C3954.53 1275.91 3951.18 1275.21 3947.65 1275.21C3944.04 1275.21 3940.65 1275.91 3937.49 1277.29C3934.32 1278.67 3931.57 1280.54 3929.21 1282.9C3926.86 1285.25 3925.01 1287.99 3923.66 1291.11C3922.3 1294.23 3921.64 1297.57 3921.64 1301.13C3921.64 1304.61 3922.31 1307.93 3923.66 1311.09C3925.01 1314.24 3926.86 1317 3929.21 1319.36C3931.57 1321.71 3934.32 1323.58 3937.49 1324.97C3940.65 1326.35 3944.04 1327.03 3947.65 1327.03C3951.18 1327.03 3954.53 1326.35 3957.69 1324.97C3960.86 1323.58 3963.61 1321.71 3965.96 1319.36C3968.32 1317 3970.17 1314.24 3971.53 1311.09C3972.89 1307.93 3973.56 1304.61 3973.56 1301.13ZM4097.75 1345.22H4074.36L4067.9 1324.62C4067.31 1322.65 4066.59 1320.88 4065.73 1319.29C4064.88 1317.71 4063.89 1316.39 4062.75 1315.31C4061.62 1314.23 4060.26 1313.39 4058.66 1312.79C4057.07 1312.19 4055.15 1311.88 4052.91 1311.88H4049.01V1345.22H4028.62V1257.12L4063.91 1257.03C4067.75 1257.03 4071.34 1257.7 4074.67 1259.02C4078.01 1260.34 4080.91 1262.18 4083.35 1264.56C4085.79 1266.93 4087.69 1269.71 4089.06 1272.92C4090.44 1276.12 4091.12 1279.59 4091.12 1283.31C4091.12 1285.98 4090.71 1288.58 4089.87 1291.1C4089.03 1293.62 4087.86 1295.95 4086.33 1298.08C4084.81 1300.21 4082.99 1302.1 4080.89 1303.74C4078.78 1305.39 4077.52 1305.97 4077.09 1305.49C4078.01 1305.18 4079.42 1306.07 4081.3 1308.17C4083.18 1310.25 4084.67 1312.7 4085.74 1315.53C4086.23 1316.72 4086.69 1317.92 4087.11 1319.14C4087.54 1320.34 4087.98 1321.6 4088.43 1322.88C4088.89 1324.18 4089.38 1325.57 4089.9 1327.08C4090.43 1328.58 4091.01 1330.24 4091.64 1332.07C4092.4 1334.35 4093.09 1336.27 4093.73 1337.84C4094.36 1339.4 4095.7 1341.86 4097.75 1345.22ZM4070.43 1284.46C4070.43 1282.82 4070.12 1281.33 4069.51 1279.99C4068.9 1278.65 4068.07 1277.49 4067.02 1276.5C4065.98 1275.5 4064.73 1274.72 4063.27 1274.16C4061.81 1273.6 4060.25 1273.31 4058.57 1273.31H4049.01V1295.06H4058.57C4060.27 1295.06 4061.85 1294.82 4063.32 1294.31C4064.79 1293.81 4066.03 1293.09 4067.07 1292.17C4068.11 1291.24 4068.92 1290.14 4069.53 1288.85C4070.13 1287.56 4070.43 1286.09 4070.43 1284.46ZM4206.03 1345.22H4178.97L4148.55 1311.59V1345.22H4127.97V1257.03H4148.55V1291.02L4179.72 1257.03H4204.9L4165.05 1300.39L4206.03 1345.22Z" fill="#333333"/>
<path fill-rule="evenodd" clip-rule="evenodd" d="M328.204 836.756C284.998 858.981 248.046 891.69 220.693 931.473C251.666 1166.25 452.024 1347.64 694.991 1348.8C695.061 1348.8 695.13 1348.8 695.203 1348.8C938.173 1347.64 1138.53 1166.25 1169.5 931.473C1142.15 891.689 1105.19 858.981 1061.99 836.756C1062.85 847.063 1063.26 857.475 1063.26 868.002C1063.26 1071.79 898.697 1237.13 695.203 1238.39C695.13 1238.39 695.061 1238.39 694.991 1238.39C491.499 1237.13 326.933 1071.79 326.933 868.002C326.933 857.475 327.344 847.063 328.204 836.756Z" fill="#F68731"/>
<path fill-rule="evenodd" clip-rule="evenodd" d="M312.226 805.694C264.204 830.396 222.6 867.047 191.911 911.683C187.018 918.8 184.935 927.479 186.065 936.04C202.229 1058.57 262.282 1171.44 355.16 1253.87C448.85 1337.02 569.478 1383.13 694.826 1383.73C694.937 1383.73 695.26 1383.73 695.37 1383.73C820.72 1383.13 941.348 1337.01 1035.04 1253.87C1127.91 1171.45 1187.97 1058.57 1204.13 936.042C1205.26 927.478 1203.18 918.799 1198.28 911.681C1167.59 867.044 1125.99 830.395 1077.97 805.694C1066.68 799.886 1053.13 800.663 1042.57 807.72C1032.02 814.779 1026.13 827.008 1027.18 839.661C1027.95 848.799 1028.33 858.334 1028.33 868C1028.33 957.24 993.686 1041.23 930.772 1104.51C867.885 1167.77 784.149 1202.91 694.987 1203.46C606.047 1202.91 522.31 1167.77 459.423 1104.51C396.511 1041.23 361.863 957.24 361.863 868C361.863 858.333 362.249 848.799 363.012 839.661C364.069 827.008 358.176 814.779 347.622 807.72C337.069 800.663 323.517 799.887 312.226 805.694ZM293.517 902.161C301.399 997.116 341.955 1085.45 409.882 1153.77C485.863 1230.19 587.041 1272.65 694.775 1273.32C694.92 1273.32 695.275 1273.32 695.42 1273.32C803.154 1272.65 904.331 1230.2 980.314 1153.77C1048.24 1085.45 1088.79 997.121 1096.68 902.163C1109.95 913.647 1122.05 926.477 1132.77 940.445C1116.31 1041.07 1065.54 1133.4 988.667 1201.62C907.682 1273.49 803.402 1313.36 695.038 1313.87C586.796 1313.36 482.517 1273.49 401.531 1201.62C324.656 1133.4 273.888 1041.07 257.422 940.444C268.139 926.476 280.245 913.646 293.517 902.161Z" fill="white"/>
<path fill-rule="evenodd" clip-rule="evenodd" d="M694.78 34.8994L34.9297 391.79L228.818 496.686C214.164 523.904 204.293 575.458 204.293 634.808V655.589C204.293 743.455 225.916 814.209 252.711 814.209H253.844C299.38 734.212 385.356 680.258 483.995 680.258C570.117 680.258 646.639 721.405 694.99 785.083V785.363C695.023 785.326 695.031 785.266 695.06 785.224C695.103 785.278 695.164 785.313 695.202 785.363V785.083C743.556 721.405 820.077 680.258 906.2 680.258C1004.83 680.258 1090.81 734.212 1136.35 814.209H1137.48C1164.27 814.209 1185.9 743.455 1185.9 655.589V634.808C1185.9 575.458 1176.03 523.904 1161.37 496.686L1355.27 391.79L695.413 34.8994L695.062 35.0394L694.78 34.8994Z" fill="#333333"/>
<path fill-rule="evenodd" clip-rule="evenodd" d="M695.065 0.00175186C694.29 -0.00424814 693.532 0.174752 692.757 0.219752C691.231 0.336752 689.711 0.463752 688.203 0.782752C686.414 1.12675 684.697 1.67975 682.966 2.30575C682.819 2.36275 682.663 2.37875 682.516 2.43675L682.165 2.57675C682.302 2.52275 682.449 2.50775 682.586 2.45375C681.104 3.01075 679.575 3.41075 678.162 4.17475L18.313 361.066C7.031 367.169 0.001 378.963 0 391.789V391.791C0 404.617 7.029 416.411 18.309 422.513C18.309 422.513 144.949 491.027 185.077 512.736C175.086 545.681 169.362 588.685 169.362 634.809V655.59C169.362 701.438 174.932 744.929 185.047 778.051C202.988 836.807 231.746 849.14 252.712 849.14H253.845C266.402 849.14 277.991 842.401 284.201 831.489C325.035 759.752 401.593 715.189 483.996 715.189C555.831 715.189 622.014 747.804 665.947 804.685C672.237 814.087 682.955 820.295 695.097 820.295C707.239 820.295 717.957 814.088 724.247 804.686C768.182 747.804 834.365 715.188 906.2 715.188C988.598 715.188 1065.16 759.752 1106 831.491C1112.21 842.402 1123.8 849.139 1136.35 849.139H1137.48C1158.44 849.139 1187.2 836.806 1205.15 778.05C1215.26 744.928 1220.83 701.437 1220.83 655.589V634.808C1220.83 588.685 1215.11 545.68 1205.12 512.737C1245.24 491.027 1371.89 422.513 1371.89 422.513C1383.17 416.411 1390.2 404.617 1390.2 391.791V391.789C1390.2 378.963 1383.17 367.169 1371.88 361.067L712.03 4.17475C706.761 1.32575 700.918 -0.0562481 695.065 0.00175186ZM689.127 0.668752C688.894 0.706752 688.658 0.711752 688.425 0.754752C688.658 0.710752 688.894 0.709752 689.127 0.668752ZM695.096 74.4398C723.37 89.7318 1189.53 341.864 1281.85 391.794C1225.06 422.517 1144.75 465.963 1144.75 465.963C1133.07 472.283 1126.44 484.301 1126.44 496.715C1126.44 502.305 1127.78 507.977 1130.62 513.244C1140.01 530.68 1150.97 572.979 1150.97 634.807V655.588C1150.97 700.232 1145.19 734.505 1138.77 756.381C1082.38 686.992 997.08 645.326 906.202 645.326C825.83 645.326 750.938 676.683 695.098 732.392C639.261 676.683 564.369 645.326 483.996 645.326C393.112 645.326 307.811 686.992 251.42 756.382C245.01 734.506 239.223 700.233 239.223 655.588V634.807C239.223 572.98 250.186 530.68 259.575 513.244C262.41 507.977 263.756 502.305 263.756 496.715C263.756 484.301 257.123 472.283 245.441 465.963C245.441 465.963 165.136 422.516 108.347 391.794C200.661 341.864 666.822 89.7318 695.096 74.4398ZM660.179 786.519C660.233 788.15 660.393 789.751 660.665 791.319C660.379 789.739 660.245 788.135 660.179 786.519ZM730.016 786.519C729.95 788.135 729.816 789.739 729.53 791.319C729.802 789.752 729.961 788.149 730.016 786.519ZM661.562 794.923C661.757 795.601 661.957 796.276 662.192 796.935C661.95 796.272 661.762 795.6 661.562 794.923ZM728.633 794.924C728.434 795.599 728.244 796.273 728.004 796.935C728.238 796.275 728.437 795.602 728.633 794.924ZM663.938 801.004C664.099 801.32 664.277 801.625 664.447 801.937C664.274 801.625 664.1 801.319 663.938 801.004ZM726.256 801.005C726.094 801.32 725.921 801.625 725.748 801.935C725.918 801.625 726.096 801.321 726.256 801.005Z" fill="white"/>
<path fill-rule="evenodd" clip-rule="evenodd" d="M325.121 836.756C281.915 858.981 244.963 891.69 217.61 931.473C248.583 1166.25 448.941 1347.64 691.908 1348.8C691.978 1348.8 692.047 1348.8 692.12 1348.8C935.09 1347.64 1135.44 1166.25 1166.42 931.473C1139.06 891.689 1102.11 858.981 1058.91 836.756C1059.77 847.063 1060.18 857.475 1060.18 868.002C1060.18 1071.79 895.613 1237.13 692.12 1238.39C692.047 1238.39 691.978 1238.39 691.908 1238.39C488.416 1237.13 323.85 1071.79 323.85 868.002C323.85 857.475 324.26 847.063 325.121 836.756Z" fill="#F68731"/>
<path fill-rule="evenodd" clip-rule="evenodd" d="M691.697 34.9004L31.8467 391.791L225.735 496.687C211.081 523.905 201.209 575.459 201.209 634.809V655.59C201.209 743.456 222.833 814.21 249.628 814.21H250.761C296.297 734.213 382.273 680.259 480.912 680.259C567.034 680.259 643.556 721.406 691.907 785.084V785.364C691.94 785.327 691.948 785.267 691.977 785.225C692.02 785.279 692.081 785.314 692.119 785.364V785.084C740.473 721.406 816.994 680.259 903.117 680.259C1001.75 680.259 1087.73 734.213 1133.27 814.21H1134.4C1161.19 814.21 1182.82 743.456 1182.82 655.59V634.809C1182.82 575.459 1172.95 523.905 1158.29 496.687L1352.18 391.791L692.33 34.9004L691.979 35.0404L691.697 34.9004Z" fill="#333333"/>
<path d="M39.124 1572.1H288.851V1607.75H78.042V1725.6H266.636V1761.25H78.042V1882.09H291.321V1917.74H39.124V1572.1Z" fill="#333333"/>
<path d="M447.948 1922.64C429.513 1922.64 410.918 1919.26 392.157 1912.51C373.394 1905.76 356.776 1896.62 342.295 1885.09L361.55 1857.94C375.371 1868.47 389.77 1876.53 404.747 1882.13C419.725 1887.73 434.783 1890.53 449.92 1890.53C465.391 1890.53 478.06 1886.91 487.935 1879.67C497.809 1872.43 502.747 1862.57 502.747 1850.06V1849.07C502.747 1842.82 501.015 1837.4 497.554 1832.79C494.093 1828.18 489.394 1824.15 483.462 1820.7C477.53 1817.25 470.691 1814.21 462.944 1811.57C455.195 1808.94 447.204 1806.47 438.969 1804.17C429.076 1801.21 419.105 1798 409.052 1794.55C399 1791.09 389.932 1786.73 381.857 1781.47C373.782 1776.21 367.19 1769.63 362.083 1761.73C356.972 1753.84 354.422 1743.97 354.422 1732.12V1731.13C354.422 1720.28 356.556 1710.33 360.825 1701.28C365.096 1692.24 371.09 1684.51 378.813 1678.09C386.536 1671.68 395.742 1666.74 406.441 1663.29C417.136 1659.83 428.736 1658.1 441.242 1658.1C457.041 1658.1 473.005 1660.66 489.13 1665.76C505.256 1670.87 519.906 1677.7 533.071 1686.27L515.792 1714.9C503.942 1707.33 491.517 1701.32 478.517 1696.88C465.517 1692.44 452.764 1690.22 440.258 1690.22C425.118 1690.22 413.105 1693.76 404.217 1700.83C395.329 1707.9 390.889 1716.7 390.889 1727.23V1728.21C390.889 1734.14 392.701 1739.32 396.325 1743.76C399.947 1748.2 404.809 1752.06 410.907 1755.36C416.999 1758.65 424 1761.61 431.909 1764.24C439.819 1766.87 448.056 1769.51 456.625 1772.13C466.507 1775.09 476.309 1778.39 486.031 1782C495.75 1785.62 504.562 1790.23 512.472 1795.82C520.381 1801.42 526.721 1808.16 531.501 1816.05C536.28 1823.95 538.672 1833.65 538.672 1845.16V1846.15C538.672 1858.33 536.291 1869.1 531.535 1878.47C526.776 1887.85 520.376 1895.83 512.339 1902.4C504.298 1908.99 494.765 1914.01 483.737 1917.46C472.711 1920.91 460.783 1922.64 447.948 1922.64Z" fill="#333333"/>
<path d="M694.601 1922.1C684.408 1922.1 674.872 1920.78 665.998 1918.14C657.123 1915.51 649.482 1911.31 643.073 1905.55C636.66 1899.8 631.647 1892.31 628.032 1883.09C624.417 1873.87 622.609 1862.84 622.609 1850V1695.93H587.064V1662.45H622.609L622.606 1585.43H660.711V1662.45H741.543V1695.93H660.711V1845.06C660.711 1860.87 664.649 1871.89 672.525 1878.15C680.4 1884.4 690.737 1887.53 703.537 1887.53C710.1 1887.53 716.252 1886.88 721.993 1885.56C727.736 1884.24 733.889 1881.94 740.454 1878.65V1911.24C733.88 1914.86 726.893 1917.57 719.498 1919.38C712.1 1921.19 703.802 1922.1 694.601 1922.1Z" fill="#333333"/>
<path d="M884.664 1923.18C872.817 1923.18 861.141 1921.54 849.624 1918.25C838.108 1914.96 827.911 1909.94 819.028 1903.2C810.143 1896.45 802.987 1888.15 797.561 1878.28C792.134 1868.41 789.422 1856.89 789.422 1843.73V1842.74C789.422 1828.93 792.05 1816.84 797.314 1806.47C802.573 1796.11 810.055 1787.47 819.759 1780.56C829.463 1773.66 840.974 1768.39 854.293 1764.78C867.61 1761.15 882.329 1759.34 898.444 1759.34C914.889 1759.34 929.113 1760.33 941.119 1762.31C953.123 1764.3 964.882 1766.94 976.393 1770.24V1762.34C976.393 1739.63 969.81 1722.43 956.644 1710.74C943.479 1699.05 924.881 1693.21 900.855 1693.21C885.715 1693.21 871.972 1694.86 859.631 1698.15C847.291 1701.44 835.193 1705.88 823.346 1711.48L811.991 1680.37C826.143 1673.79 840.456 1668.53 854.941 1664.57C869.425 1660.62 886.043 1658.64 904.806 1658.64C941.01 1658.64 968.494 1668.02 987.265 1686.78C1005.05 1704.54 1013.95 1729.55 1013.95 1761.79V1917.74H976.391L976.446 1879.75C967.564 1891.27 955.639 1901.39 940.67 1910.11C925.705 1918.82 907.031 1923.18 884.664 1923.18ZM891.996 1892.7C903.847 1892.7 914.879 1891.06 925.084 1887.77C935.29 1884.48 944.259 1879.79 951.998 1873.7C959.733 1867.62 965.822 1860.38 970.27 1851.99C974.714 1843.6 976.937 1834.3 976.937 1824.1V1800.41C967.387 1797.78 956.521 1795.32 944.343 1793.01C932.159 1790.71 918.169 1789.56 902.367 1789.56C878.659 1789.56 860.304 1794.24 847.302 1803.62C834.299 1813 827.795 1825.42 827.795 1840.88V1841.87C827.795 1849.76 829.522 1856.92 832.98 1863.34C836.436 1869.76 841.127 1875.1 847.055 1879.38C852.982 1883.66 859.811 1886.94 867.552 1889.25C875.288 1891.55 883.436 1892.7 891.996 1892.7Z" fill="#333333"/>
<path d="M1230.44 1923.18C1218.59 1923.18 1207.74 1921.7 1197.87 1918.74C1187.99 1915.78 1179.11 1911.83 1171.21 1906.9C1163.32 1901.96 1156.16 1896.2 1149.75 1889.62C1143.33 1883.04 1137.65 1876.13 1132.72 1868.89V1917.74H1094.62V1557.4H1132.72L1132.64 1713.88C1137.9 1706.3 1143.74 1699.05 1150.16 1692.13C1156.58 1685.2 1163.74 1679.19 1171.64 1674.08C1179.54 1668.97 1188.34 1664.85 1198.06 1661.71C1207.77 1658.58 1218.54 1657.01 1230.4 1657.01C1245.54 1657.01 1260.43 1659.98 1275.08 1665.91C1289.73 1671.84 1302.81 1680.47 1314.33 1691.83C1325.85 1703.19 1335.07 1717.02 1341.98 1733.31C1348.9 1749.61 1352.35 1768.29 1352.35 1789.36V1790.34C1352.35 1811.09 1348.9 1829.69 1341.99 1846.15C1335.07 1862.61 1325.95 1876.52 1314.6 1887.88C1303.24 1899.23 1290.25 1907.96 1275.6 1914.05C1260.96 1920.13 1245.9 1923.18 1230.44 1923.18ZM1223.63 1889.16C1235.8 1889.16 1247.39 1886.94 1258.41 1882.5C1269.43 1878.05 1278.97 1871.63 1287.03 1863.23C1295.09 1854.83 1301.5 1844.53 1306.28 1832.34C1311.05 1820.15 1313.43 1806.32 1313.43 1790.84V1789.85C1313.43 1774.7 1311.05 1761.03 1306.28 1748.84C1301.5 1736.65 1295.01 1726.28 1286.79 1717.71C1278.56 1709.15 1269.02 1702.56 1258.17 1697.95C1247.31 1693.34 1235.8 1691.03 1223.63 1691.03C1211.79 1691.03 1200.36 1693.42 1189.34 1698.2C1178.32 1702.97 1168.45 1709.72 1159.73 1718.46C1151.02 1727.19 1144.11 1737.56 1139.01 1749.58C1133.91 1761.61 1131.36 1774.87 1131.36 1789.36V1790.34C1131.36 1805.17 1133.91 1818.67 1139.01 1830.86C1144.11 1843.05 1151.02 1853.42 1159.73 1861.99C1168.45 1870.55 1178.32 1877.22 1189.34 1882C1200.36 1886.78 1211.79 1889.16 1223.63 1889.16Z" fill="#333333"/>
<path d="M1425.99 1557.4H1464.09V1917.74H1425.99V1557.4Z" fill="#333333"/>
<path d="M1553.39 1564.75H1596.94V1606.66H1553.39V1564.75ZM1555.84 1662.45H1593.94V1917.74H1555.84V1662.45Z" fill="#333333"/>
<path d="M1766.7 1922.64C1748.26 1922.64 1729.67 1919.26 1710.9 1912.51C1692.14 1905.76 1675.52 1896.62 1661.04 1885.09L1680.3 1857.94C1694.12 1868.47 1708.52 1876.53 1723.49 1882.13C1738.47 1887.73 1753.53 1890.53 1768.67 1890.53C1784.14 1890.53 1796.81 1886.91 1806.68 1879.67C1816.55 1872.43 1821.5 1862.57 1821.5 1850.06V1849.07C1821.5 1842.82 1819.76 1837.4 1816.3 1832.79C1812.84 1828.18 1808.14 1824.15 1802.21 1820.7C1796.28 1817.25 1789.44 1814.21 1781.69 1811.57C1773.94 1808.94 1765.95 1806.47 1757.72 1804.17C1747.82 1801.21 1737.85 1798 1727.8 1794.55C1717.74 1791.09 1708.68 1786.73 1700.61 1781.47C1692.53 1776.21 1685.93 1769.63 1680.83 1761.73C1675.72 1753.84 1673.17 1743.97 1673.17 1732.12V1731.13C1673.17 1720.28 1675.3 1710.33 1679.57 1701.28C1683.84 1692.24 1689.84 1684.51 1697.56 1678.09C1705.28 1671.68 1714.48 1666.74 1725.19 1663.29C1735.88 1659.83 1747.49 1658.1 1759.99 1658.1C1775.79 1658.1 1791.75 1660.66 1807.88 1665.76C1824 1670.87 1838.65 1677.7 1851.82 1686.27L1834.54 1714.9C1822.69 1707.33 1810.26 1701.32 1797.26 1696.88C1784.26 1692.44 1771.51 1690.22 1759 1690.22C1743.86 1690.22 1731.85 1693.76 1722.97 1700.83C1714.08 1707.9 1709.64 1716.7 1709.64 1727.23V1728.21C1709.64 1734.14 1711.45 1739.32 1715.07 1743.76C1718.7 1748.2 1723.55 1752.06 1729.65 1755.36C1735.75 1758.65 1742.75 1761.61 1750.66 1764.24C1758.57 1766.87 1766.8 1769.51 1775.37 1772.13C1785.26 1775.09 1795.06 1778.39 1804.78 1782C1814.49 1785.62 1823.31 1790.23 1831.22 1795.82C1839.13 1801.42 1845.47 1808.16 1850.25 1816.05C1855.03 1823.95 1857.42 1833.65 1857.42 1845.16V1846.15C1857.42 1858.33 1855.04 1869.1 1850.28 1878.47C1845.52 1887.85 1839.13 1895.83 1831.09 1902.4C1823.04 1908.99 1813.51 1914.01 1802.49 1917.46C1791.45 1920.91 1779.53 1922.64 1766.7 1922.64Z" fill="#333333"/>
<path d="M1928.03 1557.4H1966.13V1706.97C1974.68 1693.12 1985.86 1681.33 1999.68 1671.6C2013.5 1661.88 2031.43 1657.01 2053.47 1657.01C2068.93 1657.01 2082.68 1659.49 2094.69 1664.42C2106.7 1669.36 2116.9 1676.36 2125.28 1685.41C2133.68 1694.46 2140.09 1705.24 2144.53 1717.75C2148.97 1730.26 2151.2 1744.09 2151.2 1759.23V1917.74H2113.09V1768.61C2113.09 1744.91 2107.01 1726.15 2094.84 1712.32C2082.68 1698.49 2065.25 1691.58 2042.57 1691.58C2031.72 1691.58 2021.6 1693.47 2012.23 1697.26C2002.86 1701.04 1994.73 1706.48 1987.82 1713.55C1980.92 1720.63 1975.58 1729.11 1971.79 1738.99C1968.02 1748.86 1966.13 1759.73 1966.13 1771.58V1917.74H1928.03V1557.4H1928.03Z" fill="#333333"/>
<path d="M2254.89 1805.61C2256.2 1819.11 2259.49 1831.12 2264.76 1841.65C2270.02 1852.19 2276.77 1861.07 2285 1868.31C2293.23 1875.55 2302.44 1881.06 2312.65 1884.85C2322.85 1888.63 2333.54 1890.53 2344.73 1890.53C2362.51 1890.53 2377.73 1887.23 2390.41 1880.65C2403.08 1874.07 2414.68 1865.34 2425.21 1854.48L2448.9 1875.71C2436.07 1890.22 2421.43 1901.85 2404.97 1910.6C2388.51 1919.35 2368.11 1923.73 2343.75 1923.73C2326.31 1923.73 2309.85 1920.52 2294.38 1914.1C2278.91 1907.67 2265.42 1898.62 2253.9 1886.93C2242.37 1875.24 2233.24 1861.17 2226.49 1844.7C2219.75 1828.24 2216.37 1810.13 2216.37 1790.37C2216.37 1771.93 2219.42 1754.56 2225.5 1738.27C2231.59 1721.97 2240.07 1707.8 2250.93 1695.79C2261.79 1683.77 2274.71 1674.3 2289.69 1667.39C2304.67 1660.47 2321.04 1657.01 2338.82 1657.01C2357.57 1657.01 2374.36 1660.55 2389.17 1667.63C2403.98 1674.7 2416.48 1684.33 2426.69 1696.51C2436.89 1708.69 2444.63 1723 2449.89 1739.46C2455.15 1755.92 2457.79 1773.52 2457.79 1792.28C2457.79 1793.93 2457.79 1795.82 2457.79 1797.96C2457.79 1800.1 2457.63 1802.65 2457.3 1805.61H2254.89V1805.61ZM2419.29 1775.13C2418.3 1763.6 2415.83 1752.64 2411.88 1742.26C2407.93 1731.88 2402.58 1722.74 2395.83 1714.83C2389.09 1706.92 2380.86 1700.66 2371.15 1696.05C2361.44 1691.44 2350.33 1689.13 2337.83 1689.13C2326.97 1689.13 2316.76 1691.27 2307.22 1695.55C2297.67 1699.84 2289.28 1705.85 2282.04 1713.59C2274.8 1721.34 2268.79 1730.48 2264.01 1741.02C2259.24 1751.57 2256.2 1762.94 2254.89 1775.13H2419.29Z" fill="#333333"/>
<path d="M2631.73 1923.18C2616.26 1923.18 2601.28 1920.22 2586.8 1914.3C2572.31 1908.37 2559.31 1899.73 2547.79 1888.37C2536.27 1877.01 2527.06 1863.18 2520.14 1846.89C2513.23 1830.59 2509.78 1811.91 2509.78 1790.84V1789.85C2509.78 1769.11 2513.23 1750.51 2520.13 1734.05C2527.05 1717.59 2536.26 1703.68 2547.77 1692.32C2559.29 1680.97 2572.29 1672.24 2586.77 1666.15C2601.25 1660.06 2616.21 1657.01 2631.68 1657.01C2643.52 1657.01 2654.38 1658.5 2664.26 1661.46C2674.12 1664.43 2683.01 1668.39 2690.9 1673.33C2698.8 1678.28 2705.96 1684.05 2712.38 1690.64C2718.79 1697.24 2724.46 1704.16 2729.4 1711.41V1557.4H2767.51V1917.74H2729.4L2729.49 1866.42C2724.22 1873.99 2718.38 1881.23 2711.96 1888.14C2705.54 1895.05 2698.38 1901.14 2690.48 1906.4C2682.58 1911.67 2673.78 1915.78 2664.07 1918.74C2654.36 1921.7 2643.57 1923.18 2631.73 1923.18ZM2638.49 1889.16C2650.34 1889.16 2661.77 1886.78 2672.79 1882C2683.8 1877.23 2693.68 1870.47 2702.39 1861.75C2711.11 1853.02 2718.02 1842.64 2723.11 1830.62C2728.21 1818.59 2730.77 1805.17 2730.77 1790.34V1789.36C2730.77 1774.54 2728.21 1761.12 2723.11 1749.09C2718.02 1737.07 2711.11 1726.77 2702.39 1718.21C2693.68 1709.64 2683.8 1702.97 2672.79 1698.2C2661.77 1693.42 2650.34 1691.03 2638.49 1691.03C2625.99 1691.03 2614.32 1693.26 2603.46 1697.71C2592.61 1702.15 2583.15 1708.57 2575.09 1716.97C2567.03 1725.38 2560.62 1735.67 2555.84 1747.85C2551.07 1760.04 2548.69 1773.88 2548.69 1789.36V1790.34C2548.69 1805.5 2551.07 1819.17 2555.84 1831.36C2560.62 1843.54 2567.12 1853.92 2575.34 1862.48C2583.56 1871.05 2593.1 1877.64 2603.96 1882.25C2614.81 1886.86 2626.32 1889.16 2638.49 1889.16Z" fill="#333333"/>
<path d="M2981.76 1887.63L3107.15 1777.05C3120.32 1765.21 3131.5 1754.51 3140.72 1744.97C3149.93 1735.43 3157.34 1726.46 3162.94 1718.07C3168.53 1709.67 3172.64 1701.45 3175.28 1693.39C3177.91 1685.32 3179.23 1677.01 3179.23 1668.46C3179.23 1658.25 3177.34 1649.12 3173.55 1641.06C3169.77 1632.99 3164.75 1626.08 3158.5 1620.33C3152.24 1614.57 3144.83 1610.13 3136.27 1607C3127.72 1603.87 3118.83 1602.31 3109.62 1602.31C3089.87 1602.31 3072.92 1607.33 3058.77 1617.37C3044.62 1627.41 3030.62 1642.13 3016.8 1661.55L2988.17 1640.82C2996.07 1629.3 3004.13 1618.93 3012.35 1609.71C3020.59 1600.49 3029.55 1592.75 3039.26 1586.49C3048.98 1580.23 3059.84 1575.45 3071.84 1572.15C3083.86 1568.85 3097.44 1567.2 3112.58 1567.2C3128.05 1567.2 3142.36 1569.67 3155.53 1574.6C3168.69 1579.54 3180.05 1586.37 3189.61 1595.09C3199.17 1603.81 3206.59 1614.09 3211.86 1625.94C3217.13 1637.78 3219.78 1650.78 3219.78 1664.92V1665.91C3219.78 1678.42 3218.05 1690.02 3214.59 1700.71C3211.14 1711.4 3205.87 1721.93 3198.8 1732.3C3191.72 1742.66 3182.67 1753.27 3171.64 1764.13C3160.61 1774.99 3147.53 1787 3132.39 1800.16L3040.07 1882.09H3223.32V1917.74H2981.76V1887.63H2981.76Z" fill="#333333"/>
<path d="M3429.96 1923.73C3407.56 1923.73 3387.39 1919.04 3369.43 1909.65C3351.48 1900.27 3336.16 1887.42 3323.47 1871.13C3310.79 1854.83 3301.08 1835.97 3294.33 1814.57C3287.57 1793.16 3284.2 1770.28 3284.2 1745.91V1744.92C3284.2 1720.89 3287.65 1698 3294.58 1676.27C3301.49 1654.53 3311.37 1635.51 3324.22 1619.21C3337.07 1602.91 3352.47 1589.99 3370.42 1580.44C3388.38 1570.89 3408.55 1566.11 3430.95 1566.11C3453.02 1566.11 3473.03 1570.81 3490.99 1580.19C3508.94 1589.58 3524.26 1602.42 3536.94 1618.72C3549.62 1635.02 3559.34 1653.95 3566.09 1675.52C3572.85 1697.09 3576.22 1719.89 3576.22 1743.93V1744.92C3576.22 1769.29 3572.76 1792.26 3565.85 1813.83C3558.92 1835.4 3549.13 1854.33 3536.45 1870.63C3523.76 1886.93 3508.36 1899.85 3490.25 1909.41C3472.12 1918.95 3452.03 1923.73 3429.96 1923.73ZM3430.95 1888.08C3447.08 1888.08 3461.65 1884.21 3474.67 1876.47C3487.67 1868.74 3498.7 1858.38 3507.76 1845.38C3516.82 1832.38 3523.73 1817.24 3528.5 1799.96C3533.28 1782.69 3535.67 1764.67 3535.67 1745.91V1744.92C3535.67 1726.16 3533.2 1708.15 3528.26 1690.87C3523.32 1673.59 3516.24 1658.37 3507.02 1645.21C3497.8 1632.04 3486.68 1621.51 3473.68 1613.61C3460.67 1605.71 3446.1 1601.76 3429.96 1601.76C3413.82 1601.76 3399.25 1605.63 3386.25 1613.36C3373.24 1621.1 3362.21 1631.47 3353.15 1644.46C3344.09 1657.46 3337.1 1672.52 3332.16 1689.63C3327.22 1706.74 3324.75 1724.85 3324.75 1743.93V1744.92C3324.75 1763.68 3327.22 1781.7 3332.16 1798.97C3337.1 1816.25 3344.18 1831.47 3353.39 1844.63C3362.61 1857.8 3373.82 1868.33 3386.99 1876.23C3400.15 1884.13 3414.81 1888.08 3430.95 1888.08Z" fill="#333333"/>
<path d="M3694.92 1610.14L3629.75 1630.38L3620.37 1598.78L3704.83 1569.65H3733.56V1917.74H3694.92V1610.14H3694.92Z" fill="#333333"/>
<path d="M3996.86 1835.82H3814.69L3804.82 1807.68L4000.32 1569.65H4034.42V1803.16H4088.23V1835.82H4034.42V1917.74H3996.86V1835.82V1835.82ZM3996.86 1803.16V1624.94L3851.72 1803.16H3996.86Z" fill="#333333"/>
<path d="M4152.88 1866.03H4198.34V1917.74H4152.88V1866.03Z" fill="#333333"/>
<path d="M3677.67 2083.17C3682.15 2083.23 3687.2 2080.72 3690.82 2080.61C3696.35 2080.01 3700.34 2078.18 3704.66 2079.11C3705.51 2079.3 3707.04 2080.53 3707.91 2080.72L3709.14 2079.18C3711.04 2078.7 3711.9 2078.89 3711.9 2078.89C3720.02 2078.85 3725.06 2076.34 3730.42 2076.61L3741.48 2075.4C3742.34 2075.59 3743.2 2075.78 3743.38 2074.92C3743.38 2074.92 3743.57 2074.07 3742.9 2073.01C3744.62 2073.39 3746.52 2072.9 3747.38 2073.09C3749.1 2073.46 3750.64 2074.69 3751.5 2074.88L3753.22 2075.26C3756.36 2073.24 3758.94 2073.8 3762.37 2074.54C3762.37 2074.54 3763.23 2074.73 3765.14 2074.25C3770 2072.6 3776.39 2072.19 3781.93 2071.58C3784.5 2072.15 3788.51 2070.31 3791.08 2070.88C3793.66 2071.44 3795.56 2070.95 3797.47 2070.46L3798.33 2070.65C3798.7 2068.94 3797.85 2068.74 3797.85 2068.74L3796.13 2068.37C3794.41 2068 3794.6 2067.14 3794.6 2067.14L3801.48 2068.63C3803.01 2069.86 3804.72 2070.24 3806.45 2070.61C3808.16 2070.99 3809.88 2071.36 3811.79 2070.88L3812.35 2068.3L3808.05 2067.36L3808.24 2066.5C3809.29 2065.83 3811 2066.2 3811.85 2066.39C3813.59 2066.76 3814.45 2066.95 3814.93 2068.85L3816.28 2070.95C3818 2071.32 3818.38 2069.6 3819.24 2069.79C3818.57 2068.74 3818.57 2068.74 3818.75 2067.89C3819.12 2066.17 3821.89 2065.87 3822.26 2064.14C3823.12 2064.34 3823.31 2063.47 3825.21 2062.99C3825.21 2062.99 3826.26 2062.32 3827.12 2062.5L3826.75 2064.22C3826.56 2065.08 3827.41 2065.27 3829.14 2065.64L3830.87 2066.02C3831.72 2066.2 3831.72 2066.2 3831.35 2067.92L3839.08 2069.6C3842.04 2068.45 3846.52 2068.52 3851 2068.59C3853.96 2067.44 3856.73 2067.13 3860.35 2067.02L3860.73 2065.3C3861.66 2061 3866.45 2063.84 3866.82 2062.12L3868.54 2062.5L3868.35 2063.36C3868.17 2064.22 3868.65 2066.13 3868.65 2066.13C3870.37 2066.5 3872.95 2067.06 3875.04 2065.71C3875.9 2065.89 3877.62 2066.27 3877.81 2065.41C3877.81 2065.41 3877.99 2064.54 3877.14 2064.36C3876.46 2063.32 3875.6 2063.13 3875.79 2062.27C3875.79 2062.27 3876.84 2061.59 3877.7 2061.79C3877.88 2060.92 3878.74 2061.11 3880.46 2061.49C3881.32 2061.67 3882.37 2061 3883.23 2061.18C3884.09 2061.37 3884.09 2061.37 3884.57 2063.27C3882.86 2062.91 3882.86 2062.91 3881.81 2063.58C3880.09 2063.2 3880.09 2063.2 3879.71 2064.92C3879.71 2064.92 3879.53 2065.78 3881.25 2066.16C3885.73 2066.23 3890.89 2067.35 3895.75 2065.7C3895.75 2065.7 3897.47 2066.07 3897.66 2065.22C3898.89 2063.68 3900.12 2062.15 3901.84 2062.52C3902.7 2062.72 3902.7 2062.72 3903.38 2063.76C3904.24 2063.95 3905.77 2065.18 3906.63 2065.37C3908.35 2065.74 3909.4 2065.06 3910.63 2063.54L3912.35 2063.91L3914.26 2063.42L3909.95 2062.48C3908.24 2062.11 3908.24 2062.11 3907.19 2062.79C3905.47 2062.41 3905.65 2061.56 3903.94 2061.18C3905.65 2061.56 3905.84 2060.69 3905.84 2060.69C3910.52 2059.91 3914.82 2060.85 3917.59 2060.55C3919.31 2060.91 3920.35 2060.25 3922.07 2060.62L3924.65 2061.18C3928.65 2059.35 3931.41 2059.04 3935.71 2059.99C3938.3 2060.54 3940.87 2061.1 3944.69 2060.13C3947.83 2058.11 3950.4 2058.67 3954.03 2058.56C3954.89 2058.75 3956.8 2058.26 3957.66 2058.45C3963.68 2059.76 3970.26 2058.48 3974.74 2058.55C3978.55 2057.58 3981.99 2058.33 3986.29 2059.26L3988.01 2059.64L3987.33 2058.58L3987.53 2057.73C3991.34 2056.75 3992.2 2056.94 3995.63 2057.69C3995.63 2057.69 3996.87 2056.15 3997.73 2056.34C3997.73 2056.34 3997.54 2057.2 3998.4 2057.39C3998.21 2058.24 3996.12 2059.6 3995.26 2059.41L3993.36 2059.89C3993.36 2059.89 3990.78 2059.33 3991.45 2060.39C3992.12 2061.42 3992.79 2062.48 3993.65 2062.66C3994.52 2062.85 3994.7 2061.99 3995.74 2061.31C3997.66 2060.82 4000.42 2060.53 4003 2061.09L4004.72 2061.46C4006.45 2061.83 4007.49 2061.16 4007.87 2059.44L4008.43 2056.86C4010.15 2057.23 4009.58 2059.81 4011.31 2060.19L4015.61 2061.13L4016.84 2059.59C4015.98 2059.4 4014.45 2058.17 4012.73 2057.8C4012.05 2056.75 4010.33 2056.37 4009.47 2056.19C4010.33 2056.38 4012.42 2055.03 4013.29 2055.22C4016.72 2055.96 4017.59 2056.15 4020.35 2055.85C4022.26 2055.37 4024.83 2055.92 4028.28 2056.68C4028.28 2056.68 4029.13 2056.86 4029.51 2055.14L4029.7 2054.28C4029.88 2053.42 4029.88 2053.42 4030.74 2053.61C4031.6 2053.79 4033.14 2055.03 4034 2055.22C4038.3 2056.15 4041.43 2054.13 4045.73 2055.06L4050.03 2056C4049.84 2056.86 4048.98 2056.67 4046.9 2058.01C4045.17 2057.65 4042.6 2057.09 4040.68 2057.56C4038.11 2057.01 4036.88 2058.54 4033.44 2057.79L4026.18 2058.02C4024.46 2057.65 4024.09 2059.37 4024.09 2059.37L4025.63 2060.6C4028.38 2060.29 4032.2 2059.33 4036.5 2060.26C4040.12 2060.15 4044.98 2058.5 4051 2059.82C4051 2059.82 4054.14 2057.79 4054.33 2056.93L4050.03 2056C4054.21 2053.31 4054.21 2053.31 4056.8 2053.87L4061.1 2054.8C4063 2054.32 4065.58 2054.87 4066.45 2055.06C4070.74 2056 4075.6 2054.35 4079.23 2054.24L4080.46 2052.7C4079.6 2052.52 4079.78 2051.65 4079.78 2051.65C4078.07 2051.28 4075.48 2050.72 4073.58 2051.21C4069.28 2050.28 4063.75 2050.88 4059.45 2049.94C4056.01 2049.19 4053.43 2048.63 4051.53 2049.12L4042.93 2047.25C4041.02 2047.74 4041.02 2047.74 4040.16 2047.56C4039.31 2047.37 4038.44 2047.18 4037.77 2046.13C4036.06 2045.76 4035.19 2045.57 4033.28 2046.06C4031.56 2045.69 4030.52 2046.36 4028.8 2045.99C4027.94 2045.8 4027.08 2045.61 4026.41 2044.56L4024.68 2044.19C4020.87 2045.17 4016.39 2045.09 4012.09 2044.16C4009.51 2043.6 4007.98 2042.36 4006.25 2041.99L4004.34 2042.48L4004.16 2043.34C4002.43 2042.97 4001.76 2041.92 4000.05 2041.54C3999.18 2041.36 3998.63 2043.94 3996.9 2043.56L3992.6 2042.62C3991.74 2042.44 3990.21 2041.21 3988.5 2040.83C3987.63 2040.65 3987.63 2040.65 3986.59 2041.32C3985.73 2041.13 3982.29 2040.39 3981.81 2038.48L3980.08 2038.1C3979.22 2037.91 3978.37 2037.73 3977.13 2039.27C3976.95 2040.12 3975.22 2039.75 3975.22 2039.75L3973.5 2039.38C3970.93 2038.81 3967.98 2039.98 3964.53 2039.23C3963.67 2039.04 3961.95 2038.67 3961.28 2037.62C3959.56 2037.25 3956.99 2036.69 3953.84 2038.71C3952.31 2037.48 3950.59 2037.1 3949.73 2036.91C3945.43 2035.98 3941.44 2037.82 3937.13 2036.88L3934.56 2036.32L3933.51 2037L3930.93 2036.43C3924.91 2035.12 3919.19 2036.58 3913.17 2035.28L3911.44 2034.9C3907.15 2033.96 3900.94 2033.52 3895.78 2032.4L3891.49 2031.47C3889.76 2031.09 3888.71 2031.77 3888.91 2030.9L3885.47 2030.16C3882.89 2029.6 3880.31 2029.04 3878.4 2029.53C3877.35 2030.2 3876.31 2030.87 3875.45 2030.68C3874.59 2030.5 3873.92 2029.45 3873.24 2028.4L3872.68 2030.98C3872.49 2031.84 3871.64 2031.66 3871.64 2031.66C3870.78 2031.47 3870.11 2030.42 3869.24 2030.24L3863.23 2028.93C3862.37 2028.74 3860.64 2028.37 3859.41 2029.9C3859.41 2029.9 3857.69 2029.53 3857.5 2030.39C3851.48 2029.08 3847.86 2029.19 3841.84 2027.89C3837.17 2028.67 3832.87 2027.74 3828.38 2027.67C3825.61 2027.97 3822.85 2028.27 3820.27 2027.7C3818.55 2027.33 3817.88 2026.29 3817.21 2025.24L3815.29 2025.72C3814.74 2028.3 3813.87 2028.12 3812.16 2027.75C3806.81 2027.48 3800.42 2027.89 3793.54 2026.4L3791.64 2026.89C3789.92 2026.52 3787.52 2025.1 3786.66 2024.91C3786.1 2027.49 3784.39 2027.12 3782.66 2026.74C3781.81 2026.56 3781.61 2027.41 3781.61 2027.41L3773.88 2025.74C3772.83 2026.4 3771.97 2026.22 3771.11 2026.04L3764.23 2024.54C3762.51 2024.17 3759.94 2023.6 3757.84 2024.95C3757.84 2024.95 3756.79 2025.63 3756.98 2024.76C3750.96 2023.46 3746.29 2024.24 3740.76 2024.84C3739.04 2024.47 3738.86 2025.33 3737.14 2024.95L3730.25 2023.46C3723.48 2025.59 3717.17 2021.52 3711.07 2024.69C3709.35 2024.32 3706.78 2023.76 3703.14 2023.87C3699.52 2023.99 3695.22 2023.05 3690.55 2023.84C3686.25 2022.91 3679.86 2023.32 3675.56 2022.38C3672.99 2021.82 3670.04 2022.99 3668.31 2022.61C3665.54 2022.91 3664.01 2021.67 3661.73 2023.88C3661.73 2023.88 3661.54 2024.74 3660.68 2024.56C3656.38 2023.62 3651.9 2023.55 3647.6 2022.61C3641.2 2023.03 3635.86 2022.76 3629.65 2022.31C3629.47 2023.18 3628.6 2022.99 3628.6 2022.99C3628.6 2022.99 3627.93 2021.94 3627.07 2021.75C3624.98 2023.1 3624.12 2022.92 3622.4 2022.54C3619.63 2022.84 3616.01 2022.96 3615.15 2022.76C3609.99 2021.65 3605.99 2023.48 3601.69 2022.54L3599.11 2021.98C3595.12 2023.82 3589.96 2022.7 3586.81 2024.72C3585.1 2024.34 3583.19 2024.83 3582.33 2024.64C3578.89 2023.89 3576.31 2023.33 3574.03 2025.54L3573.17 2025.35C3568.87 2024.42 3566.11 2024.72 3562.3 2025.69C3557.81 2025.62 3555.04 2025.92 3552.46 2025.36C3546.44 2024.05 3542.25 2026.74 3537.09 2025.62L3534.51 2025.06C3531.93 2024.5 3527.94 2026.33 3527.08 2026.15C3522.59 2026.07 3520.01 2025.51 3515.34 2026.29C3511.72 2026.41 3508.77 2027.57 3504.27 2027.49C3503.23 2028.17 3499.12 2026.37 3496.84 2028.58C3490.44 2028.99 3485.77 2029.78 3480.43 2029.52C3475.76 2030.3 3469.55 2029.86 3464.2 2029.59C3463.83 2031.31 3462.12 2030.94 3460.39 2030.56L3456.94 2029.82C3453.13 2030.79 3450.56 2030.23 3447.97 2029.67L3446.25 2029.29C3445.39 2029.11 3444.53 2028.92 3443.98 2031.5C3443.98 2031.5 3442.93 2032.19 3441.21 2031.81C3438.63 2031.25 3436.05 2030.69 3432.05 2032.51C3431.86 2033.38 3431.86 2033.38 3431.01 2033.19C3430.14 2033.01 3428.61 2031.77 3427.75 2031.58C3424.8 2032.75 3422.22 2032.19 3420.13 2033.53C3419.08 2034.21 3418.03 2034.88 3416.31 2034.51L3414.59 2034.14C3414.59 2034.14 3412.88 2033.76 3412.69 2034.62C3407.64 2037.12 3401.81 2034.95 3396.76 2037.46C3395.9 2037.27 3395.9 2037.27 3394.37 2036.04C3393.71 2034.99 3392.84 2034.81 3391.98 2034.62C3391.12 2034.43 3390.26 2034.25 3389.88 2035.96C3389.7 2036.83 3388.46 2038.36 3386.75 2037.99C3382.26 2037.91 3377.78 2037.84 3373.1 2038.63L3351.82 2041.21C3347.34 2041.13 3342.48 2042.78 3338.18 2041.84C3337.32 2041.66 3333.88 2040.91 3332.84 2041.58C3332.47 2043.3 3330.74 2042.93 3329.02 2042.55C3325.4 2042.68 3320.54 2044.32 3316.25 2043.38C3311.2 2045.89 3304.5 2043.53 3299.83 2044.32C3297.74 2045.66 3295.16 2045.1 3293.44 2044.73C3290.86 2044.17 3289.14 2043.8 3288.77 2045.51C3288.77 2045.51 3287.05 2045.14 3286.67 2046.86C3282.19 2046.79 3278.74 2046.04 3272.36 2046.45C3272.17 2047.32 3272.17 2047.32 3271.31 2047.12L3269.59 2046.75C3265.4 2049.45 3260.23 2048.32 3253.66 2049.6C3250.89 2049.89 3247.94 2051.05 3244.32 2051.16C3238.97 2050.91 3233.93 2053.41 3227.05 2051.92L3226.18 2051.73C3224.47 2051.36 3222.38 2052.7 3220.65 2052.33C3218.74 2052.82 3216.17 2052.25 3215.31 2052.07C3213.59 2051.69 3211.68 2052.18 3210.83 2052C3205.59 2055.36 3201.11 2055.29 3196.62 2055.21L3180.88 2057.19C3177.56 2060.08 3173.63 2057.42 3170.67 2058.58C3165.82 2060.23 3163.23 2059.67 3159.61 2059.78C3150.45 2060.49 3143.2 2060.72 3133.67 2063.15C3126.04 2065.1 3117.26 2064.09 3107.92 2065.66C3102.19 2067.12 3095.31 2065.63 3090.27 2068.13C3088.37 2068.62 3086.64 2068.24 3085.79 2068.05C3082.34 2067.31 3081.1 2068.84 3078.33 2069.14L3076.43 2069.63L3075.57 2069.45C3073.85 2069.07 3071.76 2070.41 3069 2070.71C3060.89 2070.75 3053.26 2072.7 3045.64 2074.64L3043.91 2074.27C3041.34 2073.71 3036.85 2073.63 3035.43 2076.03C3027.69 2074.35 3022.46 2077.71 3015.21 2077.94C3014.35 2077.75 3012.44 2078.24 3010.72 2077.86C3009 2077.49 3007.47 2076.26 3006.12 2074.16L3004.4 2073.79C3003.17 2075.32 3001.26 2075.81 3000.4 2075.62C2999.55 2075.44 2998.88 2074.39 2998.01 2074.2L2993.72 2073.27C2992.67 2073.94 2992.48 2074.8 2990.75 2074.43C2990.95 2073.57 2991.13 2072.71 2990.65 2070.8C2990.83 2069.94 2991.02 2069.08 2989.3 2068.71C2988.62 2067.66 2987.96 2066.62 2988.15 2065.76C2988.33 2064.9 2989.56 2063.37 2990.61 2062.69L2990.98 2060.97C2991.17 2060.11 2990.68 2058.21 2988.95 2057.83C2988.1 2057.64 2988.1 2057.64 2987.05 2058.32C2985.33 2057.94 2984.28 2058.61 2984.28 2058.61C2983.24 2059.29 2982.2 2059.96 2981.33 2059.77L2980.66 2058.73C2979.8 2058.54 2979.99 2057.68 2980.17 2056.82C2980.55 2055.1 2979.68 2054.91 2978.83 2054.73L2976.25 2054.16C2976.25 2054.16 2976.43 2053.31 2977.29 2053.49L2979.02 2053.87C2983.32 2054.8 2986.45 2052.78 2988.74 2050.57C2991.69 2049.42 2995.51 2048.45 2996.74 2046.92C2998.46 2047.29 2998.83 2045.57 2998.83 2045.57C2997.11 2045.19 2996.26 2045 2996.44 2044.14C2996.63 2043.29 2997.49 2043.48 2997.67 2042.62L2997.86 2041.76L2997.18 2040.71C2998.05 2040.9 2998.23 2040.04 2999.09 2040.22C2999.09 2040.22 2999.95 2040.41 3000.62 2041.46L3001.49 2041.64C3002.35 2041.83 3004.25 2041.34 3004.63 2039.62C3005.18 2037.04 3006.04 2037.23 3007.76 2037.6C3012.25 2037.68 3016.55 2038.61 3018.83 2036.41C3021.97 2034.38 3024.55 2034.94 3026.64 2033.59C3035.79 2032.88 3043.42 2030.94 3052.77 2029.36C3053.14 2027.65 3053.14 2027.65 3054 2027.83C3057.63 2027.72 3061.92 2028.66 3065.07 2026.64L3072.32 2026.41L3074.03 2026.79C3074.41 2025.06 3072.69 2024.68 3072.69 2024.68C3071.16 2023.46 3071.16 2023.46 3070.3 2023.27C3071.16 2023.46 3071.53 2021.73 3073.25 2022.11C3074.97 2022.48 3076.02 2021.81 3079.46 2022.56C3080.51 2021.88 3083.94 2022.63 3085.17 2021.09C3091.56 2020.69 3096.25 2019.9 3101.59 2020.16C3102.45 2020.35 3104.35 2019.86 3105.22 2020.05C3106.08 2020.24 3106.08 2020.24 3105.89 2021.09L3107.61 2021.47C3115.05 2020.39 3122.11 2021.02 3128.88 2018.89C3130.78 2018.4 3133.55 2018.1 3135.27 2018.48L3137.85 2019.04C3138.71 2019.22 3140.61 2018.73 3140.61 2018.73C3142.52 2018.25 3143.75 2016.72 3145.48 2017.09C3148.05 2017.65 3149.77 2018.03 3150.33 2015.45C3152.25 2014.96 3153.1 2015.14 3154.82 2015.52C3157.4 2016.08 3160.16 2015.78 3163.98 2014.8C3164.83 2014.99 3166.74 2014.5 3168.46 2014.88C3169.32 2015.07 3171.04 2015.44 3172.95 2014.95C3173.99 2014.28 3175.04 2013.61 3176.76 2013.98L3180.2 2014.73C3181.25 2014.05 3183.16 2013.57 3185.73 2014.13C3186.79 2013.45 3187.64 2013.65 3188.5 2013.83C3189.36 2014.02 3189.36 2014.02 3190.41 2013.35C3192.13 2013.72 3192.32 2012.85 3194.41 2011.51C3197.17 2011.21 3199.94 2010.91 3202.52 2011.48C3205.96 2012.22 3206.82 2012.4 3210.64 2011.43C3213.21 2011.99 3216.17 2010.84 3219.98 2009.86L3228.46 2008.11C3228.64 2007.25 3230.36 2007.62 3230.36 2007.62C3237.24 2009.11 3244.01 2006.98 3251.45 2005.9L3266.92 2009.26C3268.64 2009.63 3268.64 2009.63 3269.69 2008.96L3269.2 2007.05C3267.67 2005.82 3267.67 2005.82 3268.04 2004.1L3270.63 2004.66C3271.49 2004.85 3271.97 2006.75 3273.69 2007.12C3274.55 2007.32 3275.42 2007.5 3276.65 2005.96C3278.54 2005.49 3282.67 2007.28 3283.91 2005.74L3287.34 2006.49C3288.19 2006.68 3288.19 2006.68 3288.58 2004.95L3288.76 2004.1C3288.95 2003.24 3290 2002.56 3290.85 2002.75C3291.72 2002.94 3293.25 2004.17 3294.11 2004.36C3294.97 2004.54 3295.16 2003.69 3295.34 2002.82C3296.2 2003 3295.83 2004.73 3297.55 2005.11C3298.41 2005.29 3299.94 2006.52 3301.66 2006.9C3302.51 2007.09 3303.38 2007.27 3304.43 2006.6C3305.48 2005.92 3305.48 2005.92 3306.33 2006.11C3307.19 2006.3 3307.86 2007.35 3308.73 2007.54C3312.54 2006.55 3315.12 2007.11 3317.88 2006.82C3320.84 2005.66 3325.13 2006.59 3329.32 2003.9C3332.09 2003.6 3336.2 2005.39 3339.15 2004.23L3340.87 2004.6C3341.54 2005.65 3343.27 2006.02 3343.27 2006.02L3343.45 2005.16C3346.59 2003.14 3350.03 2003.89 3352.8 2003.59C3358.32 2002.99 3364.91 2001.72 3370.93 2003.03C3371.79 2003.22 3371.97 2002.36 3373.7 2002.74C3373.88 2001.88 3375.6 2002.25 3375.6 2002.25L3376.47 2002.43C3378.18 2002.81 3379.42 2001.28 3381.32 2000.79C3383.23 2000.3 3384.09 2000.49 3385.8 2000.86C3392.2 2000.45 3399.64 1999.37 3404.98 1999.62L3411 2000.93C3412.72 2001.31 3412.91 2000.45 3412.91 2000.45C3414.15 1998.92 3416.05 1998.42 3417.77 1998.8C3426.07 1997.91 3434.85 1998.91 3444.2 1997.34C3450.58 1996.92 3454.88 1997.86 3460.23 1998.12C3466.82 1996.85 3472.35 1996.26 3478.37 1997.56C3480.94 1998.12 3483.22 1995.91 3484.95 1996.28C3488.39 1997.03 3492.39 1995.2 3496.68 1996.14C3499.26 1996.7 3501.17 1996.21 3502.4 1994.67C3505.84 1995.42 3506.89 1994.74 3508.61 1995.12C3511.19 1995.68 3513.77 1996.24 3516.04 1994.04C3516.04 1994.04 3517.77 1994.41 3517.95 1993.55C3520.53 1994.11 3523.3 1993.81 3526.73 1994.56C3529.69 1993.4 3534.17 1993.47 3537.12 1992.31C3544.19 1992.95 3550.4 1993.4 3557.65 1993.17C3558.7 1992.5 3560.42 1992.87 3561.28 1993.06C3562.14 1993.24 3563 1993.43 3563.67 1994.48C3564.34 1995.52 3565.21 1995.71 3566.07 1995.9C3566.92 1996.08 3567.79 1996.27 3568.17 1994.55C3568.72 1991.98 3569.76 1991.3 3573.21 1992.05C3575.78 1992.61 3578.37 1993.17 3580.46 1991.82L3584.76 1992.76C3585.43 1993.81 3586.97 1995.04 3587.82 1995.22C3588.68 1995.41 3588.87 1994.55 3590.1 1993.02C3590.29 1992.16 3590.29 1992.16 3592.01 1992.53C3596.3 1993.46 3601.16 1991.83 3603.74 1992.38C3609.95 1992.83 3614.63 1992.04 3619.11 1992.12C3622.73 1992 3628.75 1993.31 3633.61 1991.67L3635.33 1992.04C3636.19 1992.22 3637.91 1992.6 3640.3 1994.02C3640.86 1991.44 3640.87 1991.44 3642.58 1991.81C3643.63 1991.14 3647.25 1991.03 3648.12 1991.21C3654.14 1992.52 3660.53 1992.11 3667.78 1991.88C3670.74 1990.73 3675.04 1991.65 3679.53 1991.72L3681.24 1992.1C3681.91 1993.15 3682.77 1993.34 3684.49 1993.72C3685.35 1993.9 3687.07 1994.27 3688.98 1993.78L3689.16 1992.92C3689.16 1992.92 3688.31 1992.73 3688.68 1991.02L3695.56 1992.51C3697.28 1992.88 3699.86 1993.45 3702.14 1991.24C3704.72 1991.8 3709.2 1991.88 3713.69 1991.94C3717.98 1992.88 3723.71 1991.43 3729.72 1992.73C3732.31 1993.29 3735.06 1992.99 3736.79 1993.37C3741.46 1992.58 3745.95 1992.65 3750.25 1993.59C3754.92 1992.8 3759.41 1992.88 3764.76 1993.13C3768.57 1992.16 3771.33 1991.87 3775.63 1992.8L3779.93 1993.73C3781.65 1994.1 3783.18 1995.34 3784.05 1995.52C3784.9 1995.71 3784.9 1995.71 3785.28 1994C3787.86 1994.55 3789.95 1993.21 3791.67 1993.58C3792.53 1993.77 3793.2 1994.81 3793.88 1995.86L3794.74 1996.05C3795.59 1996.23 3796.65 1995.56 3796.83 1994.7L3803.22 1994.29C3807.89 1993.5 3813.91 1994.81 3819.63 1993.35C3824.11 1993.42 3830.13 1994.73 3834.44 1995.67C3837.2 1995.37 3839.79 1995.92 3841.5 1996.3C3846.18 1995.51 3850.48 1996.45 3853.23 1996.15L3855.82 1996.71C3856.68 1996.89 3857.54 1997.08 3858.21 1998.13C3858.88 1999.18 3859.74 1999.37 3860.6 1999.55C3861.46 1999.74 3861.46 1999.74 3862.7 1998.2C3863.26 1995.62 3864.98 1995.99 3867.56 1996.55C3870.99 1997.3 3873.76 1997 3876.72 1995.85C3878.43 1996.22 3880.15 1996.6 3880.64 1998.5C3881.31 1999.55 3881.12 2000.41 3881.99 2000.59C3882.84 2000.78 3884.75 2000.3 3886.66 1999.81L3887.03 1998.09L3886.36 1997.04L3887.22 1997.23C3889.8 1997.79 3891.7 1997.3 3894.28 1997.86C3896.01 1998.24 3897.23 1996.7 3898.96 1997.07C3899.63 1998.12 3901.16 1999.36 3902.03 1999.54C3902.88 1999.73 3904.79 1999.24 3906.02 1997.71L3910.32 1998.65C3913.76 1999.4 3917.39 1999.28 3921.68 2000.21C3926.36 1999.43 3930.85 1999.51 3936.87 2000.81C3937.73 2001 3939.63 2000.51 3941.35 2000.89C3942.21 2001.07 3942.21 2001.07 3944.6 2002.49C3946.13 2003.72 3947 2003.91 3947.85 2004.1C3948.71 2004.29 3949.58 2004.47 3950.62 2003.8C3953.38 2003.5 3955.48 2002.15 3957.2 2002.53L3959.78 2003.09C3959.97 2002.23 3961.69 2002.6 3961.69 2002.6C3965.98 2003.54 3969.8 2002.56 3974.28 2002.64L3982.02 2004.31C3982.58 2001.74 3983.43 2001.93 3985.16 2002.3L3998.06 2005.11C4000.64 2005.66 4003.22 2006.23 4004.56 2008.31L4008.86 2009.25C4010.58 2009.62 4012.3 2010 4014.39 2008.65C4014.57 2007.78 4016.3 2008.16 4018.03 2008.53C4018.88 2008.72 4020.41 2009.96 4022.14 2010.33C4023.18 2009.65 4026.81 2009.54 4027.67 2009.74L4029.39 2010.11C4029.76 2008.39 4031.67 2007.9 4032.53 2008.09C4033.39 2008.27 4034.06 2009.32 4034.92 2009.51L4035.78 2009.69L4036.83 2009.02C4036.83 2009.02 4037.2 2007.3 4038.92 2007.68C4043.22 2008.61 4048.38 2009.73 4054.58 2010.18L4064.04 2012.23C4068.53 2012.31 4072.82 2013.24 4077.12 2014.17C4078.17 2013.5 4078.17 2013.5 4079.03 2013.68L4081.6 2014.25C4082.47 2014.43 4082.47 2014.43 4083.51 2013.76C4085.05 2014.99 4086.77 2015.36 4088.49 2015.74C4091.92 2016.48 4094.69 2016.19 4098.99 2017.12C4099.85 2017.31 4101.57 2017.69 4102.92 2019.78C4102.73 2020.64 4103.6 2020.82 4105.31 2021.2L4107.22 2020.71L4105.88 2018.62L4107.59 2018.99C4110.17 2019.55 4112.94 2019.25 4115.52 2019.81C4118.1 2020.37 4120.49 2021.79 4123.07 2022.35C4123.74 2023.4 4125.28 2024.63 4126.14 2024.82C4127 2025.01 4128.9 2024.52 4129.94 2023.84C4130.99 2023.17 4133.58 2023.74 4135.29 2024.1L4141.31 2025.42C4143.02 2025.79 4145.62 2026.35 4147.14 2027.58C4147.63 2029.49 4149.35 2029.86 4151.07 2030.23C4151.92 2030.43 4154.02 2029.08 4155.74 2029.45L4156.6 2029.63C4157.46 2029.82 4157.27 2030.69 4157.27 2030.69L4157.08 2031.54C4157.08 2031.54 4156.9 2032.4 4157.95 2031.73C4158.13 2030.87 4158.13 2030.87 4159 2031.05C4159.86 2031.24 4161.38 2032.47 4162.25 2032.66C4163.1 2032.85 4164.34 2031.32 4166.24 2030.83C4166.24 2030.83 4165.57 2029.79 4165.94 2028.07L4166.13 2027.21L4167.85 2027.58C4169.87 2030.71 4171.4 2031.95 4175.7 2032.88C4176.56 2033.07 4176.38 2033.93 4177.72 2036.02C4180.11 2037.45 4181.28 2040.4 4183.85 2040.96L4185.38 2042.19C4184.64 2045.63 4189.42 2048.47 4190.4 2052.28C4189.83 2054.87 4191.18 2056.96 4193.77 2057.52C4195.97 2059.79 4197.51 2061.03 4197.13 2062.75L4196.95 2063.61C4196.2 2067.05 4195.64 2069.63 4198.03 2071.04C4199.56 2072.28 4199.19 2074 4199.19 2074C4195.38 2074.97 4196.54 2077.92 4194.26 2080.13C4194.07 2080.99 4193.7 2082.71 4192.65 2083.38C4185.7 2086.38 4179.41 2090.41 4170.26 2091.12L4168.54 2090.74C4165.21 2093.62 4162.63 2093.07 4158.14 2092.99C4151.57 2094.26 4143.94 2096.22 4137.06 2094.73C4132.87 2097.42 4127.9 2095.43 4122.86 2097.94L4121.14 2097.56C4114.26 2096.07 4107.49 2098.21 4100.43 2097.57C4095.76 2098.36 4092.13 2098.47 4087.82 2097.54L4084.39 2096.79C4084.39 2096.79 4082.48 2097.27 4081.62 2097.08C4076.77 2098.73 4070.56 2098.28 4065.89 2099.07C4065.02 2098.88 4063.3 2098.51 4061.4 2099C4060.54 2098.81 4060.54 2098.81 4058.45 2100.16C4056.73 2099.78 4056.54 2100.64 4055.68 2100.46L4053.1 2099.89C4049.66 2099.15 4047.76 2099.64 4044.8 2100.79L4030.67 2099.53C4027.72 2100.68 4023.42 2099.75 4019.42 2101.58C4016.66 2101.88 4014.08 2101.32 4010.64 2100.58C4000.62 2101.1 3989.55 2102.3 3981.44 2102.33L3978 2101.6C3974 2103.42 3969.33 2104.2 3964.17 2103.09L3961.59 2102.53C3958.27 2105.4 3951.75 2102.19 3946.9 2103.84C3942.6 2102.9 3937.75 2104.55 3933.26 2104.48C3924.1 2105.18 3917.03 2104.55 3909.41 2106.5L3903.38 2105.18C3901.3 2106.53 3898.71 2105.97 3897.67 2106.64C3894.23 2105.9 3893.18 2106.57 3889.36 2107.55C3888.32 2108.22 3885.06 2106.61 3883.65 2109C3881.93 2108.63 3881.74 2109.49 3881.74 2109.49C3881.07 2108.45 3881.07 2108.45 3880.21 2108.26C3878.49 2107.88 3875.35 2109.9 3874.3 2110.57C3872.59 2110.2 3869.82 2110.5 3868.1 2110.12C3858.76 2111.7 3849.3 2109.65 3839.58 2112.94C3837.67 2113.42 3836.81 2113.23 3835.1 2112.86C3833.37 2112.49 3831.65 2112.12 3830.98 2111.07L3829.26 2110.69C3829.26 2110.69 3829.08 2111.55 3829.94 2111.75C3829.75 2112.6 3827.65 2113.95 3825.94 2113.58C3823.35 2113.01 3820.59 2113.31 3817.15 2112.57L3808.54 2110.69C3808.54 2110.69 3808.36 2111.56 3809.23 2111.76C3808.85 2113.47 3808.66 2114.32 3806.94 2113.95C3805.21 2113.58 3803.99 2115.11 3802.26 2114.74C3799.68 2114.18 3796.25 2113.43 3794.63 2116.69C3794.46 2117.55 3792.74 2117.17 3791.01 2116.8C3785.66 2116.54 3779.1 2117.81 3771.65 2118.89C3767.17 2118.82 3762.49 2119.6 3757.82 2120.4L3756.96 2120.2C3750.94 2118.9 3744.37 2120.17 3740.37 2122C3738.65 2121.63 3738.65 2121.63 3736.74 2122.12C3734.16 2121.55 3731.58 2121 3726.72 2122.64C3724.82 2123.13 3720.52 2122.19 3719.1 2124.59L3717.37 2124.21C3710.3 2123.58 3703.73 2124.85 3698.01 2126.31C3694.57 2125.56 3691.43 2127.58 3687.13 2126.65C3683.62 2130.39 3677.6 2129.08 3673.3 2128.15C3672.44 2127.96 3672.44 2127.96 3672.25 2128.82C3665.67 2130.09 3662.72 2131.25 3656.51 2130.8C3654.79 2130.42 3654.79 2130.42 3653.75 2131.1C3651.47 2133.31 3647.17 2132.38 3644.41 2132.67L3641.83 2132.11C3640.59 2133.64 3639.36 2135.18 3636.78 2134.62C3635.92 2134.43 3634.21 2134.06 3633.53 2133.01C3633.53 2133.01 3633.71 2132.15 3632.86 2131.96C3632 2131.78 3630.95 2132.45 3629.71 2133.98C3629.53 2134.85 3627.81 2134.47 3627.81 2134.47C3625.04 2134.76 3623.51 2133.54 3621.24 2135.74C3621.05 2136.6 3616.74 2135.66 3616.18 2138.24C3611.88 2137.31 3608.92 2138.47 3604.25 2139.25C3601.67 2138.7 3598.91 2139 3595.1 2139.97C3593.19 2140.46 3590.24 2141.62 3587.66 2141.06C3586.8 2140.87 3586.13 2139.82 3585.27 2139.64C3584.4 2139.45 3583.55 2139.26 3583.36 2140.12C3583.18 2140.98 3583.85 2142.03 3584.7 2142.21C3584.52 2143.07 3584.15 2144.79 3581.57 2144.23C3579.85 2143.86 3577.27 2143.3 3573.64 2143.41C3571.06 2142.85 3569.15 2143.34 3566.2 2144.5L3565.16 2145.16C3563.92 2146.7 3562.88 2147.38 3561.15 2147C3560.3 2146.81 3559.62 2145.77 3558.76 2145.58C3558.09 2144.54 3557.23 2144.35 3557.23 2144.35C3556.37 2144.16 3556.18 2145.02 3556.18 2145.02C3556.18 2145.02 3556 2145.88 3556.85 2146.07L3555.81 2146.75C3554.09 2146.37 3552.37 2146 3552 2147.72C3550.95 2148.39 3549.05 2148.87 3547.32 2148.5L3546.47 2148.31C3545.61 2148.13 3543.7 2148.62 3542.65 2149.3L3539.51 2151.31C3534.17 2151.05 3529.12 2153.56 3524.63 2153.48L3522.91 2153.11C3520.07 2157.9 3516.63 2157.15 3510.42 2156.7C3510.42 2156.7 3508.71 2156.33 3508.33 2158.04C3507.1 2159.58 3503.65 2158.83 3500.7 2159.99C3498.98 2159.61 3497.94 2160.29 3495.17 2160.59C3494.8 2162.31 3493.08 2161.94 3491.36 2161.57C3488.6 2161.86 3486.88 2161.49 3485.46 2163.88L3483.55 2164.36C3480.6 2165.53 3478.88 2165.15 3476.11 2165.45C3475.06 2166.12 3474.2 2165.94 3474.02 2166.79C3473.83 2167.66 3474.69 2167.84 3475.55 2168.04C3477.75 2170.32 3480.34 2170.87 3483.4 2173.34C3484.64 2171.8 3485.68 2171.13 3486.54 2171.32C3487.4 2171.51 3488.08 2172.55 3488.94 2172.74C3488.94 2172.74 3490.66 2173.11 3490.83 2172.26L3492.56 2172.63C3493.42 2172.82 3495.33 2172.32 3495.33 2172.32L3509.09 2175.31C3509.94 2175.5 3510.62 2176.55 3511.48 2176.74L3508.9 2176.18C3506.99 2176.66 3504.22 2176.96 3501.64 2176.4C3500.79 2176.22 3499.06 2175.84 3497.53 2174.6C3497.53 2174.6 3495.44 2175.95 3494.58 2175.76L3494.39 2176.62L3495.25 2176.81C3496.79 2178.04 3499.37 2178.61 3501.09 2178.98C3505.38 2179.91 3509.87 2179.99 3515.22 2180.25C3524.19 2180.39 3534.7 2181.78 3543.29 2183.65C3552.08 2184.65 3560.19 2184.61 3567.93 2186.3C3568.79 2186.48 3568.97 2185.62 3570.69 2186C3572.42 2186.37 3573.46 2185.7 3575.18 2186.07C3576.04 2186.25 3577.57 2187.49 3578.44 2187.68C3581.87 2188.42 3583.97 2187.08 3587.4 2187.83C3588.27 2188.01 3588.94 2189.06 3590.66 2189.43C3593.8 2187.41 3599.62 2189.58 3602.57 2188.42L3606.89 2189.36C3610.32 2190.1 3614.13 2189.13 3617.58 2189.88L3633.05 2193.24C3633.05 2193.24 3633.92 2193.42 3634.1 2192.56C3635.82 2192.94 3638.77 2191.78 3640.49 2192.16C3642.21 2192.53 3642.89 2193.57 3644.61 2193.94C3645.47 2194.13 3646.51 2193.46 3647.56 2192.78L3658.74 2195.22C3663.22 2195.29 3667.52 2196.22 3671.82 2197.16C3673.54 2197.53 3676.11 2198.09 3679.07 2196.93L3683.37 2197.87C3685.08 2198.24 3686.62 2199.47 3688.33 2199.84C3689.19 2200.04 3691.1 2199.55 3692.16 2198.87L3702.47 2201.12C3705.91 2201.86 3712.12 2202.31 3716.42 2203.24C3720.72 2204.17 3725.39 2203.39 3730.74 2203.66L3735.03 2204.59C3737.61 2205.14 3741.25 2205.03 3744.68 2205.78C3746.39 2206.15 3748.12 2206.53 3749.65 2207.76C3750.52 2207.95 3750.52 2207.95 3752.6 2206.61C3756.23 2206.49 3760.53 2207.42 3763.97 2208.17L3776.86 2210.97C3778.58 2211.34 3778.58 2211.34 3779.63 2210.67C3782.4 2210.37 3786.03 2210.26 3788.61 2210.82L3795.49 2212.31C3798.06 2212.87 3800.65 2213.43 3802.85 2215.71C3802.85 2215.71 3803.71 2215.9 3804.08 2214.18C3807.71 2214.07 3810.28 2214.62 3812.87 2215.19C3814.58 2215.57 3817.16 2216.12 3819.07 2215.64C3823.37 2216.57 3828.9 2215.97 3833.39 2216.04L3843.71 2218.29C3846.28 2218.84 3848.01 2219.22 3850.77 2218.92L3860.23 2220.97C3861.27 2220.3 3862.14 2220.48 3862.99 2220.68C3864.72 2221.05 3867.11 2222.47 3868.64 2223.7C3868.64 2223.7 3872.08 2224.45 3872.27 2223.59C3872.64 2221.87 3873.5 2222.06 3876.09 2222.62C3880.38 2223.56 3884.68 2224.48 3889.17 2224.56C3892.61 2225.3 3892.61 2225.3 3892.91 2228.07C3892.91 2228.07 3894.44 2229.3 3895.29 2229.49C3895.97 2230.54 3895.97 2230.54 3896.83 2230.72L3897.69 2230.91C3897.69 2230.91 3897.5 2231.77 3896.46 2232.45C3895.41 2233.12 3895.41 2233.12 3895.22 2233.98C3895.04 2234.84 3895.71 2235.89 3897.43 2236.26C3901.72 2237.19 3906.4 2236.4 3910.71 2237.34L3912.42 2237.72C3914.14 2238.08 3915 2238.27 3915.29 2241.03L3917.69 2242.46C3925.43 2244.14 3930.78 2244.4 3936.79 2245.7C3941.28 2245.78 3945.58 2246.71 3950.73 2247.84C3954.17 2248.58 3956.75 2249.15 3961.42 2248.35L3961.61 2247.5C3959.89 2247.12 3958.17 2246.75 3957.5 2245.7L3957.87 2243.98C3960.08 2246.26 3963.03 2245.11 3964.19 2248.06C3965.73 2249.29 3966.6 2249.48 3968.31 2249.85L3976.91 2251.72C3976.53 2253.44 3974.82 2253.07 3973.95 2252.88L3958.97 2251.43C3954.1 2253.07 3949.13 2251.08 3944.27 2252.73C3942.37 2253.22 3939.79 2252.66 3936.34 2251.91L3932.91 2251.17C3931.19 2250.8 3930.33 2250.61 3930.14 2251.47C3930.14 2251.47 3929.95 2252.33 3930.63 2253.37L3930.26 2255.09L3927.67 2254.53C3925.96 2254.16 3926.51 2251.58 3924.79 2251.21C3924.79 2251.21 3924.61 2252.07 3923.74 2251.88C3921.84 2252.36 3921.65 2253.23 3919.56 2254.57L3916.98 2254.01C3914.4 2253.45 3911.26 2255.46 3907.82 2254.71C3906.97 2254.54 3907.15 2253.68 3906.29 2253.49C3904.57 2253.12 3902.47 2254.46 3900.76 2254.09L3895.61 2252.97C3889.58 2251.65 3884.23 2251.39 3878.71 2251.99L3876.13 2251.43C3870.11 2250.13 3863.23 2248.63 3857.69 2249.23C3856.84 2249.05 3854.92 2249.53 3854.06 2249.34C3853.21 2249.16 3853.21 2249.16 3853.39 2248.3L3850.81 2247.74C3849.1 2247.37 3848.05 2248.04 3845.96 2249.38L3844.23 2249.01C3843.08 2246.06 3843.08 2246.06 3842.22 2245.87C3838.41 2246.84 3835.45 2248.01 3831.15 2247.07L3821.69 2245.02C3818.25 2244.27 3813.59 2245.05 3810.14 2244.3L3808.42 2243.93C3806.71 2243.56 3804.98 2243.18 3804.8 2244.05C3802.22 2243.48 3799.26 2244.64 3797.55 2244.27C3794.97 2243.71 3791.72 2242.1 3789.13 2241.54C3787.42 2241.17 3786.56 2240.99 3784.65 2241.47L3772.23 2240.57C3767.93 2239.64 3761.92 2238.33 3757.24 2239.13C3752.09 2238 3747.6 2237.92 3741.58 2236.62L3740.72 2236.43C3737.95 2236.73 3736.91 2237.4 3735.19 2237.02C3734.33 2236.85 3733.47 2236.65 3732.8 2235.61C3731.94 2235.43 3728.5 2234.68 3727.94 2237.25C3726.71 2238.78 3724.8 2239.28 3723.08 2238.9C3716.2 2237.41 3710.86 2237.14 3704.84 2235.83C3703.98 2235.65 3702.93 2236.33 3702.07 2236.13C3701.21 2235.95 3701.21 2235.95 3700.54 2234.91L3699.68 2234.71C3698.82 2234.53 3696.92 2235.02 3695.87 2235.69C3695.01 2235.5 3695.01 2235.5 3693.11 2235.99L3680.21 2233.19C3677.62 2232.63 3674.85 2232.92 3671.42 2232.18C3666.74 2232.96 3662.44 2232.02 3658.14 2231.1C3657.28 2230.91 3656.61 2229.86 3655.76 2229.68C3654.89 2229.49 3653.84 2230.16 3652.8 2230.84L3648.5 2229.9C3646.78 2229.53 3645.73 2230.2 3644.01 2229.82L3643.16 2229.64C3641.43 2229.27 3639.34 2230.61 3637.62 2230.24C3636.95 2229.19 3636.09 2229.01 3635.23 2228.82C3633.51 2228.44 3633.33 2229.3 3632.47 2229.12C3628.16 2228.18 3623.49 2228.98 3618.33 2227.86C3616.62 2227.48 3614.9 2227.11 3613.37 2225.87C3613.55 2225.01 3613.37 2225.87 3612.5 2225.69C3609.36 2227.7 3605.93 2226.95 3603.35 2226.39C3600.77 2225.83 3597.32 2225.08 3596.27 2225.76C3595.9 2227.48 3594.19 2227.11 3594.19 2227.11C3593.51 2226.06 3592.66 2225.87 3591.79 2225.69C3590.07 2225.31 3588.16 2225.8 3585.58 2225.23L3576.61 2225.09C3575.38 2226.62 3573.66 2226.25 3571.94 2225.87C3571.27 2224.83 3569.55 2224.45 3568.69 2224.27C3566.11 2223.7 3564.2 2224.19 3562.29 2224.68L3560.57 2224.31C3560.76 2223.45 3559.9 2223.26 3559.04 2223.07L3552.17 2221.58C3552.35 2220.72 3551.49 2220.53 3551.49 2220.53C3550.63 2220.34 3549.4 2221.88 3549.03 2223.6C3548.83 2224.46 3547.98 2224.27 3547.98 2224.27C3547.98 2224.27 3547.12 2224.09 3546.44 2223.04L3544.54 2223.53C3544.54 2223.53 3543.49 2224.2 3541.78 2223.82C3537.1 2224.61 3531.08 2223.3 3526.78 2222.37C3525.93 2222.19 3524.02 2222.67 3523.16 2222.48C3520.88 2224.69 3518.3 2224.13 3516.58 2223.76C3515.05 2222.52 3513.33 2222.15 3511.61 2221.77C3508.16 2221.03 3504.54 2221.14 3500.91 2221.25L3494.03 2219.75C3492.31 2219.38 3490.59 2219.01 3489.55 2219.69C3489.36 2220.54 3489.36 2220.54 3488.5 2220.35C3487.64 2220.17 3486.78 2219.98 3485.74 2220.66L3478.85 2219.16C3477.81 2219.84 3476.09 2219.46 3474.37 2219.09L3469.21 2217.96C3463.2 2216.66 3458.52 2217.45 3454.23 2216.51C3452.5 2216.14 3451.83 2215.09 3450.11 2214.72C3449.25 2214.54 3447.35 2215.02 3445.44 2215.51L3421.37 2210.27C3418.79 2209.72 3416.38 2208.29 3414.67 2207.92C3412.09 2207.36 3410.74 2205.27 3409.88 2205.08C3408.35 2203.85 3405.77 2203.29 3404.43 2201.19C3402.89 2199.96 3403.08 2199.1 3402.59 2197.2C3400.2 2195.77 3398.67 2194.54 3396.09 2193.98C3393.03 2191.52 3393.4 2189.79 3392.91 2187.89C3392.05 2187.71 3391.38 2186.65 3391.56 2185.79C3391.75 2184.94 3392.8 2184.26 3393.84 2183.59L3394.21 2181.87C3394.59 2180.15 3393.24 2178.06 3393.43 2177.19C3392.27 2174.24 3391.79 2172.34 3392.16 2170.62C3392.34 2169.76 3393.57 2168.23 3393.95 2166.51C3393.95 2166.51 3394.32 2164.79 3393.65 2163.74C3390.21 2162.99 3390.77 2160.42 3390.1 2159.37C3388.57 2158.14 3388.76 2157.27 3388.94 2156.42C3389.13 2155.56 3389.13 2155.56 3391.22 2154.21L3392.08 2154.39L3391.52 2156.97C3394.96 2157.72 3394.77 2158.58 3395.26 2160.49C3395.07 2161.35 3396.79 2161.72 3396.79 2161.72L3398.7 2161.24C3399.25 2158.66 3400 2155.22 3398.84 2152.26C3398.84 2152.26 3397.31 2151.03 3396.45 2150.84C3396.64 2149.99 3395.11 2148.75 3394.25 2148.56C3395.11 2148.75 3395.29 2147.89 3397.01 2148.26C3399.77 2147.97 3402.06 2145.76 3402.25 2144.9C3403.66 2142.51 3405.76 2141.17 3407.66 2140.67C3412.15 2140.75 3415.29 2138.73 3418.61 2135.85C3420.89 2133.64 3423.66 2133.35 3426.8 2131.33L3428.52 2131.7C3429.2 2132.75 3429.2 2132.75 3430.06 2132.93C3431.77 2133.31 3433.19 2130.92 3433.38 2130.05C3436.71 2127.18 3439.48 2126.88 3444.15 2126.09C3446.73 2126.65 3449.5 2126.36 3452.07 2126.92L3454.65 2127.47L3455.21 2124.89C3454.54 2123.84 3454.73 2122.98 3454.73 2122.98C3454.91 2122.12 3455.77 2122.31 3457.87 2120.96C3461.68 2119.99 3466.17 2120.06 3470.16 2118.23C3471.21 2117.56 3472.07 2117.75 3473.79 2118.12L3477.23 2118.87C3479.81 2119.43 3481.71 2118.94 3483.81 2117.59C3486.76 2116.44 3489.72 2115.28 3490.46 2111.84L3492.18 2112.21C3493.71 2113.44 3494.38 2114.49 3496.11 2114.86C3496.97 2115.05 3497.83 2115.24 3498.87 2114.56L3509.45 2111.46C3514.31 2109.82 3518.8 2109.89 3522.61 2108.92C3523.47 2109.1 3523.66 2108.25 3523.66 2108.25C3530.42 2106.12 3533.37 2104.95 3539.59 2105.41C3545.31 2103.95 3549.79 2104.02 3554.65 2102.37C3559.13 2102.44 3562.28 2100.43 3565.9 2100.31L3567.14 2098.78L3565.6 2097.54C3565.79 2096.69 3568.56 2096.39 3569.6 2095.72C3572.18 2096.28 3575.8 2096.16 3577.23 2093.77C3578.94 2094.14 3579.13 2093.29 3579.99 2093.47L3581.71 2093.85C3581.52 2094.7 3581.52 2094.7 3579.8 2094.33C3579.62 2095.19 3578.76 2095.01 3576.67 2096.35L3576.48 2097.21L3578.2 2097.58C3580.97 2097.28 3582.69 2097.65 3585.64 2096.49C3587.36 2096.88 3589.94 2097.43 3590.31 2095.71C3590.31 2095.71 3592.03 2096.08 3592.4 2094.37C3599.66 2094.14 3605.37 2092.68 3613.67 2091.79C3614.53 2091.98 3618.16 2091.86 3619.01 2092.04C3621.11 2090.7 3621.97 2090.89 3623.88 2090.4C3625.78 2089.91 3626.64 2090.1 3628.74 2088.75C3635.13 2088.34 3642.38 2088.11 3650.01 2086.17L3661.07 2084.98L3667.95 2086.47C3667.95 2086.47 3667.39 2089.05 3665.67 2088.68C3658.8 2087.18 3652.4 2087.6 3647.54 2089.24C3641.83 2090.69 3635.81 2089.39 3630.76 2091.9C3625.41 2091.64 3620.36 2094.13 3613.97 2094.55L3606.34 2096.49C3606.16 2097.35 3606.16 2097.35 3607.88 2097.72C3608.74 2097.92 3608.93 2097.05 3610.64 2097.43C3611.69 2096.75 3612.74 2096.08 3613.59 2096.27C3613.59 2096.27 3614.46 2096.46 3615.13 2097.5L3615.99 2097.69C3617.71 2098.07 3619.99 2095.86 3622.56 2096.42C3623.42 2096.6 3624.29 2096.79 3624.95 2097.84L3626.88 2097.35C3626.88 2097.35 3634.5 2095.41 3634.31 2096.27C3638.61 2097.2 3641.38 2096.91 3645.38 2095.07C3647.47 2093.73 3648.33 2093.91 3649.19 2094.1C3650.05 2094.29 3651.77 2094.65 3652.44 2095.7C3654.15 2096.08 3654.15 2096.08 3655.39 2094.54C3657.3 2094.06 3659.21 2093.57 3661.79 2094.14C3661.6 2095 3662.64 2094.32 3662.64 2094.32C3667.87 2090.95 3675.61 2092.63 3680.85 2089.27L3681.71 2089.46C3687.73 2090.77 3692.77 2088.26 3698.3 2087.67C3698.3 2087.67 3700.2 2087.17 3700.4 2086.31C3701.26 2086.5 3701.45 2085.64 3701.45 2085.64C3701.63 2084.77 3700.77 2084.58 3700.77 2084.58L3699.05 2084.21C3697.82 2085.75 3694.19 2085.86 3691.43 2086.17C3689.33 2087.51 3686.57 2087.81 3683.98 2087.24C3681.41 2086.69 3681.03 2088.41 3679.31 2088.04C3677.41 2088.52 3675.31 2089.87 3673.59 2089.49C3672.73 2089.31 3671.2 2088.07 3670.53 2087.03L3667.95 2086.47C3668.52 2083.89 3668.69 2083.03 3671.28 2083.59C3673 2083.96 3673.37 2082.25 3674.23 2082.43L3677.67 2083.17ZM3315.68 2004.53L3309.65 2003.23L3309.85 2002.36L3310.71 2002.55C3311.56 2002.73 3311.94 2001.01 3312.8 2001.2C3312.8 2001.2 3312.61 2002.06 3313.48 2002.25C3314.33 2002.44 3315.86 2003.66 3315.86 2003.66L3315.68 2004.53ZM3338.55 1998.69C3340.27 1999.06 3339.9 2000.79 3339.9 2000.79L3340.76 2000.98L3339.71 2001.64C3338.67 2002.32 3336.76 2002.8 3335.04 2002.43C3333.32 2002.06 3331.78 2000.82 3330.06 2000.45C3332.83 2000.15 3335.6 1999.85 3338.55 1998.69ZM3421.6 2142.79L3423.32 2143.17C3426.27 2142 3429.04 2141.71 3433.04 2139.88C3434.47 2137.49 3436.37 2136.99 3438.95 2137.55C3440.67 2137.93 3441.72 2137.26 3442.09 2135.54C3446.46 2131.98 3453.35 2133.48 3456.67 2130.6C3463.54 2132.09 3468.3 2126.81 3475.36 2127.45L3475.74 2125.73C3477.64 2125.24 3478.5 2125.43 3478.5 2125.43C3480.59 2124.09 3482.31 2124.46 3483.36 2123.78C3484.41 2123.11 3486.5 2121.77 3489.26 2121.47L3485.82 2120.72C3483.25 2120.16 3481.34 2120.65 3479.25 2121.99C3474.58 2122.78 3469.05 2123.38 3464.85 2126.07C3464.85 2126.07 3463.99 2125.89 3462.09 2126.37C3462.09 2126.37 3460.37 2126 3459.14 2127.53C3454.65 2127.46 3451.51 2129.48 3447.51 2131.31L3446.66 2131.12C3444.18 2134.2 3441.6 2133.63 3439.7 2134.12C3436.93 2134.42 3433.97 2135.58 3431.89 2136.92C3431.32 2139.5 3429.6 2139.13 3426.65 2140.29C3424.93 2139.91 3423.88 2140.59 3421.97 2141.07L3421.6 2142.79ZM3739.97 1999.44C3738.43 1998.21 3736.71 1997.83 3734.99 1997.46C3734.14 1997.28 3732.41 1996.91 3731.37 1997.58C3729.46 1998.06 3727.55 1998.55 3724.97 1997.99L3721.53 1997.24C3719.26 1999.44 3716.68 1998.89 3714.96 1998.52C3711.52 1997.77 3707.52 1999.6 3704.08 1998.86C3703.22 1998.66 3702.55 1997.62 3701.68 1997.44C3701.01 1996.38 3700.83 1997.25 3700.83 1997.25C3697.01 1998.23 3694.43 1997.66 3692.71 1997.29C3689.95 1997.59 3687.56 1996.17 3685.46 1997.51C3684.61 1997.33 3683.56 1998 3683.56 1998C3683.56 1998 3682.7 1997.82 3682.88 1996.96C3679.45 1996.21 3676.3 1998.23 3672.87 1997.48L3671.15 1997.11C3669.42 1996.73 3669.43 1996.73 3669.24 1997.6C3664.56 1998.38 3661.99 1997.82 3657.68 1996.88C3657.68 1996.88 3655.97 1996.51 3654.92 1997.19C3650.62 1996.25 3645.94 1997.04 3641.27 1997.83C3636.59 1998.61 3630.59 1997.31 3626.09 1997.22C3620.75 1996.97 3616.08 1997.75 3609.87 1997.31L3595.37 1997.76C3592.42 1998.91 3590.69 1998.54 3588.12 1997.99C3584.68 1997.23 3581.54 1999.26 3577.24 1998.32C3576.38 1998.14 3574.66 1997.76 3573.13 1996.53C3573.13 1996.53 3572.27 1996.34 3571.9 1998.06L3569.99 1998.54L3552.04 1998.25C3549.47 1997.69 3546.88 1997.13 3544.6 1999.34C3544.41 2000.19 3542.7 1999.82 3541.84 1999.63C3538.4 1998.88 3533.73 1999.67 3530.96 1999.97C3528.38 1999.41 3524.08 1998.47 3521.8 2000.69C3520.75 2001.36 3519.04 2000.98 3517.32 2000.61L3515.6 2000.23C3513.02 1999.67 3510.92 2001.03 3508.35 2000.46C3507.48 2000.28 3506.62 2000.08 3505.96 1999.04L3505.4 2001.62L3512.27 2003.12C3512.27 2003.12 3512.08 2003.98 3512.94 2004.16C3512.94 2004.16 3513.99 2003.49 3514.18 2002.63L3515.89 2003C3516.94 2002.33 3518.66 2002.7 3520.38 2003.08C3522.1 2003.45 3522.96 2003.64 3524.86 2003.15C3527.45 2003.71 3529.54 2002.36 3532.12 2002.92C3540.72 2004.79 3547.18 1999.9 3554.06 2001.39C3555.97 2000.9 3557.88 2000.41 3558.74 2000.6C3560.46 2000.98 3561.13 2002.03 3562.84 2002.4C3562.84 2002.4 3564.94 2001.05 3566.66 2001.42C3566.85 2000.56 3567.89 1999.9 3569.61 2000.27C3570.48 2000.45 3572.01 2001.69 3573.54 2002.92L3574.59 2002.24C3576.86 2000.04 3578.58 2000.41 3581.36 2000.11C3585.65 2001.04 3588.61 1999.89 3593.09 1999.97L3597.39 2000.9C3598.25 2001.09 3599.11 2001.27 3600.15 2000.6C3600.15 2000.6 3602.24 1999.25 3603.97 1999.62C3604.64 2000.67 3605.5 2000.85 3606.36 2001.04C3608.08 2001.42 3609.99 2000.93 3611.03 2000.26C3613.13 1998.91 3613.99 1999.1 3615.71 1999.47C3616.57 1999.66 3618.1 2000.9 3619.82 2001.27C3621.54 2001.64 3622.58 2000.97 3624.68 1999.62L3628.97 2000.56C3631.56 2001.11 3634.32 2000.82 3636.23 2000.33C3636.42 1999.47 3638.13 1999.84 3638.13 1999.84C3639.85 2000.21 3642.8 1999.06 3645.39 1999.62C3646.24 1999.8 3646.92 2000.85 3647.78 2001.05C3647.59 2001.9 3650.74 1999.88 3652.46 2000.25C3654.36 1999.77 3655.22 1999.96 3655.22 1999.96L3657.8 2000.51C3661.24 2001.26 3663.15 2000.78 3666.96 1999.8C3669.73 1999.51 3674.21 1999.57 3677.65 2000.32C3679.37 2000.7 3680.23 2000.89 3681.76 2002.12L3682.99 2000.58C3686.81 1999.61 3689.76 1998.45 3692.34 1999.02L3696.64 1999.95C3703.03 1999.54 3708.56 1998.94 3714.58 2000.24C3718.88 2001.18 3721.83 2000.02 3725.27 2000.76C3728.71 2001.51 3733.38 2000.72 3737.87 2000.79L3739.97 1999.44ZM3498.91 2122.66L3499.28 2120.94C3498.61 2119.9 3496.41 2117.61 3494.68 2117.24C3493.82 2117.06 3491.91 2117.54 3490.87 2118.21L3490.31 2120.79C3491.17 2120.99 3493.08 2120.5 3493.94 2120.68C3494.79 2120.87 3495.47 2121.91 3497.19 2122.29L3498.91 2122.66ZM3553.9 2105.8L3551.31 2105.23C3549.6 2104.86 3546.65 2106.02 3544.74 2106.51C3543.69 2107.18 3539.88 2108.15 3537.3 2107.59C3535.58 2107.21 3534.54 2107.89 3532.62 2108.38C3530.53 2109.72 3527.77 2110.02 3526.9 2109.84C3520.33 2111.11 3515.46 2112.75 3510.42 2115.25C3508.51 2115.75 3508.33 2116.6 3508.33 2116.6L3512.63 2117.54L3514.53 2117.06C3521.3 2114.92 3524.63 2112.04 3531.69 2112.68C3534.83 2110.65 3538.94 2112.45 3542.94 2110.62C3543.99 2109.95 3546.94 2108.79 3548.67 2109.16C3549.52 2109.34 3549.34 2110.21 3550.19 2110.4C3551.06 2110.58 3553.15 2109.23 3553.34 2108.38L3553.9 2105.8ZM3578.49 2100.34C3574.86 2100.45 3568.85 2099.14 3565.14 2103.74C3565.14 2103.74 3564.96 2104.6 3563.24 2104.22C3564.96 2104.6 3565.64 2105.64 3565.64 2105.64C3569.44 2104.67 3572.02 2105.23 3574.98 2104.07C3576.89 2103.59 3577.93 2102.91 3580.21 2100.71L3578.49 2100.34ZM3591.94 2100.56C3592.13 2099.7 3593.85 2100.07 3595.57 2100.45L3601.49 2098.13L3601.86 2096.41C3598.71 2098.42 3594.42 2097.49 3591.65 2097.8L3591.28 2099.51L3591.94 2100.56ZM3600.93 2183.54C3599.02 2184.03 3597.12 2184.51 3595.4 2184.14L3593.68 2183.77C3593.68 2183.77 3592.63 2184.44 3591.77 2184.26C3590.91 2184.07 3590.91 2184.07 3590.24 2183.02C3591.96 2183.4 3594.05 2182.05 3594.05 2182.05L3600.93 2183.54ZM3608.19 2183.32L3610.77 2183.88L3610.4 2185.6C3607.82 2185.05 3604.86 2186.2 3603.14 2185.82C3601.42 2185.45 3600.93 2183.55 3600.93 2183.55C3601.98 2182.87 3605.42 2183.62 3608.19 2183.32ZM3635.05 2092.81C3636.96 2092.32 3639.54 2092.89 3642.5 2091.72L3641.93 2094.31C3641.07 2094.12 3638.3 2094.42 3634.87 2093.68L3635.05 2092.81ZM3632.64 2186.83L3632.08 2189.41L3620.91 2186.99C3623.66 2186.69 3625.38 2187.05 3626.61 2185.52L3632.64 2186.83ZM3669.44 2079.57C3670.3 2079.76 3673.74 2080.5 3674.98 2078.97C3676.69 2079.35 3678.6 2078.86 3679.46 2079.05C3678.04 2081.43 3676.14 2081.92 3674.23 2082.42C3673.56 2081.36 3669.93 2081.48 3669.44 2079.57ZM3679.46 2079.05C3679.65 2078.18 3681.36 2078.56 3681.36 2078.56C3681.18 2079.42 3681.18 2079.42 3679.46 2079.05ZM3771.83 2076.6L3770.97 2076.41C3769.26 2076.04 3767.53 2075.66 3766.3 2077.2C3764.58 2076.82 3764.4 2077.69 3762.68 2077.31C3760.1 2076.75 3757.33 2077.05 3755.23 2078.39C3752.47 2078.7 3749.89 2078.14 3746.45 2077.38L3745.58 2077.2C3740.73 2078.84 3736.25 2078.77 3730.23 2077.47L3729.86 2079.18C3729.67 2080.04 3728.81 2079.86 3727.09 2079.48C3725.38 2079.11 3724.5 2078.92 3722.6 2079.41C3717.37 2082.77 3710.3 2082.14 3704.09 2081.69C3703.24 2081.51 3702.87 2083.22 3701.14 2082.85C3702.87 2083.22 3702.87 2083.22 3703.54 2084.27L3703.35 2085.13C3705.07 2085.5 3704.69 2087.23 3704.5 2088.08C3704.69 2087.23 3706.42 2087.6 3707.27 2087.78C3709.85 2088.34 3713.66 2087.37 3716.62 2086.21L3719.2 2086.77C3727.51 2085.88 3733.41 2083.55 3740.84 2082.47C3743.31 2079.41 3749.14 2081.57 3750.19 2080.9C3758.79 2082.77 3764.4 2077.69 3770.6 2078.13L3771.83 2076.6ZM3706.66 2198.41L3694.61 2195.8L3694.99 2194.07C3699.28 2195.01 3703.59 2195.94 3707.22 2195.82C3707.22 2195.82 3707.03 2196.69 3708.75 2197.06C3707.03 2196.69 3706.66 2198.41 3706.66 2198.41ZM3739.97 1999.44L3751.15 2001.88C3755.44 2002.81 3757.91 1999.74 3762.21 2000.68C3762.21 2000.68 3764.98 2000.37 3765.16 1999.52C3764.49 1998.47 3764.49 1998.47 3763.63 1998.28C3762.77 1998.09 3761.73 1998.77 3760.87 1998.58L3753.98 1997.09C3749.31 1997.88 3746.74 1997.32 3742.43 1996.38C3741.58 1996.2 3740.72 1996.01 3740.53 1996.87C3740.34 1997.72 3741.02 1998.77 3741.02 1998.77L3739.97 1999.44ZM3775.18 1998.99C3772.6 1998.43 3770.89 1998.06 3768.11 1998.36C3768.11 1998.36 3767.26 1998.17 3766.88 1999.89L3767.55 2000.94C3770.32 2000.64 3773.77 2001.39 3774.62 2001.57C3776.35 2001.94 3776.72 2000.23 3776.72 2000.23C3776.9 1999.36 3776.9 1999.36 3775.18 1998.99ZM3806.58 1999.51L3804.86 1999.14C3802.1 1999.44 3802.1 1999.44 3799.52 1998.87L3796.08 1998.13C3792.26 1999.1 3786.06 1998.65 3779.86 1998.21C3779.86 1998.21 3779.48 1999.92 3778.62 1999.74C3779.48 1999.92 3779.3 2000.79 3779.3 2000.79C3785.5 2001.23 3789.8 2002.16 3794.47 2001.38L3804.31 2001.71C3807.74 2002.46 3810.69 2001.31 3813.28 2001.86C3811.74 2000.63 3808.3 1999.88 3806.58 1999.51ZM3763.12 2071.11L3763.3 2070.25C3765.89 2070.81 3767.79 2070.31 3768.35 2067.74L3769.59 2066.21C3771.31 2066.58 3772.65 2068.67 3773.32 2069.72C3769.02 2068.79 3767.6 2071.18 3763.98 2071.29L3763.12 2071.11ZM3751.63 2202.77C3747.81 2203.75 3744.37 2203 3740.07 2202.07L3739.21 2201.88L3739.59 2200.16C3740.45 2200.35 3742.36 2199.85 3742.36 2199.85C3745.8 2200.6 3750.1 2201.54 3752.49 2202.96L3751.63 2202.77ZM3783.01 2079.03C3784.73 2079.4 3786.45 2079.77 3787.49 2079.1C3788.54 2078.43 3789.58 2077.75 3791.31 2078.12C3792.16 2078.32 3793.02 2078.5 3793.7 2079.55C3795.42 2079.92 3795.42 2079.92 3796.66 2078.39C3796.84 2077.53 3793.39 2076.78 3790.82 2076.22L3788.24 2075.66C3787.87 2077.38 3787.87 2077.38 3787.01 2077.2C3787.01 2077.2 3786.15 2077.01 3785.48 2075.96C3784.61 2075.77 3783.08 2074.54 3782.22 2074.36C3781.36 2074.17 3780.31 2074.84 3779.46 2074.65L3783.01 2079.03ZM3764.71 2204.72C3761.76 2205.88 3760.89 2205.69 3759.18 2205.31C3757.46 2204.94 3755.74 2204.56 3754.21 2203.33C3756.12 2202.85 3757.83 2203.22 3759.55 2203.59L3764.71 2204.72ZM3764.71 2204.72C3764.9 2203.85 3765.94 2203.18 3766.8 2203.37L3766.62 2204.23L3768.33 2204.6C3773.5 2205.72 3779.21 2204.27 3784.37 2205.39L3793.83 2207.44C3795.56 2207.82 3795.56 2207.82 3796.6 2207.14C3797.65 2206.47 3797.65 2206.47 3798.51 2206.65C3799.37 2206.85 3800.9 2208.07 3802.62 2208.44C3802.62 2208.44 3802.43 2209.31 3804.16 2209.68L3800.71 2208.93C3795 2210.4 3789.35 2207.36 3783.81 2207.96C3780.18 2208.07 3777.6 2207.51 3774.17 2206.77L3764.71 2204.72ZM3819.48 2002.31L3820.03 1999.73L3819.36 1998.69C3818.51 1998.5 3818.32 1999.36 3817.95 2001.08L3815.37 2000.52C3813.65 2000.14 3813.46 2001 3813.28 2001.86C3815.18 2001.38 3816.04 2001.56 3819.48 2002.31ZM3847.07 2003.81L3848.12 2003.12C3848.3 2002.26 3846.77 2001.04 3845.91 2000.85C3839.04 1999.36 3831.59 2000.44 3824.33 2000.67C3824.33 2000.67 3823.48 2000.48 3823.29 2001.34C3823.29 2001.34 3823.11 2002.2 3823.97 2002.39L3823.77 2003.25C3824.64 2003.43 3826.35 2003.81 3826.54 2002.95C3829.49 2001.78 3832.94 2002.53 3835.52 2003.09L3838.1 2003.65C3840.2 2002.31 3842.77 2002.87 3845.35 2003.43L3847.07 2003.81ZM3786.73 2219.41L3803.94 2223.14C3804.79 2223.32 3807.37 2223.88 3807.74 2222.16C3807.93 2221.3 3807.93 2221.3 3807.26 2220.26L3809.35 2218.91L3809.72 2217.19L3808 2216.82C3808 2216.82 3807.15 2216.63 3806.96 2217.49C3806.59 2219.21 3805.53 2219.89 3803.81 2219.51L3796.08 2217.83C3793.32 2218.13 3792.08 2219.66 3788.63 2218.91L3786.93 2218.54L3786.73 2219.41ZM3838.67 2063.21L3838.85 2062.35C3841.62 2062.05 3844.58 2060.89 3847.15 2061.44C3848.02 2061.64 3848.88 2061.82 3850.41 2063.06C3852.13 2063.43 3853.17 2062.76 3854.89 2063.13L3857.47 2063.69L3856.42 2064.36C3853.66 2064.66 3850.89 2064.96 3848.32 2064.4L3843.15 2063.28C3842.97 2064.14 3842.11 2063.96 3841.26 2063.76L3838.67 2063.21ZM3871.71 2006.45C3872.94 2004.92 3873.79 2005.11 3875.52 2005.48L3883.25 2007.16C3883.44 2006.3 3883.63 2005.44 3885.34 2005.81C3890.88 2005.22 3896.9 2006.53 3902.24 2006.78C3905.87 2006.67 3910.17 2007.61 3913.12 2006.45C3913.12 2006.45 3914.84 2006.82 3915.03 2005.96L3913.3 2005.59C3907.1 2005.13 3900.22 2003.65 3894.69 2004.25C3886.77 2003.41 3879.02 2001.74 3869.88 2002.46C3869.2 2001.4 3868.33 2001.22 3867.48 2001.03C3864.9 2000.47 3862.8 2001.82 3860.91 2002.31L3860.53 2004.02L3861.39 2004.21C3863.29 2003.73 3864.34 2003.05 3866.06 2003.42C3866.92 2003.61 3868.46 2004.85 3868.94 2006.75C3869.8 2006.93 3869.8 2006.93 3871.71 2006.45ZM3815.86 2222.13C3817.57 2222.5 3817.39 2223.36 3817.39 2223.36C3818.92 2224.59 3821.5 2225.16 3823.22 2225.53C3827.52 2226.46 3832 2226.53 3837.35 2226.79L3837.72 2225.08L3830.84 2223.58C3828.26 2223.02 3824.64 2223.13 3822.06 2222.57C3820.34 2222.21 3819.48 2222.01 3818.8 2220.97C3817.95 2220.78 3817.57 2222.5 3815.86 2222.13ZM3835.67 2213.83L3828.78 2212.33C3828.78 2212.33 3828.98 2211.47 3829.83 2211.66C3831.74 2211.17 3832.79 2210.49 3834.5 2210.87C3836.23 2211.24 3837.76 2212.47 3840.15 2213.9C3838.24 2214.39 3836.53 2214.01 3835.67 2213.83ZM3840.15 2213.9C3840.52 2212.17 3840.71 2211.32 3843.29 2211.88C3844.82 2213.11 3847.4 2213.66 3849.13 2214.04C3849.13 2214.04 3849.98 2214.23 3849.61 2215.95L3840.15 2213.9ZM3866.28 2230.38L3871.44 2231.5C3873.16 2231.87 3874.87 2232.24 3877.65 2231.95L3882.81 2233.07C3886.25 2233.81 3887.48 2232.28 3890.92 2233.03C3891.78 2233.21 3891.11 2232.17 3891.11 2232.17C3891.11 2232.17 3889.39 2231.79 3889.57 2230.94C3887.86 2230.56 3887.86 2230.56 3888.23 2228.84L3889.27 2228.17L3885.83 2227.42C3884.97 2227.23 3883.26 2226.86 3883.44 2226.01L3883.25 2226.86C3882.88 2228.58 3883.56 2229.63 3883.56 2229.63L3882.7 2229.44C3879.26 2228.69 3876.49 2229 3873.9 2228.43C3870.28 2228.54 3867.7 2227.99 3865.12 2227.42L3858.24 2225.93C3857.2 2226.61 3857.2 2226.61 3856.34 2226.42C3855.48 2226.23 3854.8 2225.18 3854.8 2225.18C3853.94 2224.99 3854.14 2224.13 3854.14 2224.13C3854.14 2224.13 3853.08 2224.81 3852.23 2224.63C3850.8 2227.02 3848.9 2227.5 3846.32 2226.94L3841.17 2225.82C3843.56 2227.24 3846.8 2228.85 3850.25 2229.59L3852.83 2230.16L3853.01 2229.3C3853.01 2229.3 3854.55 2230.53 3855.41 2230.72C3854.35 2231.39 3854.18 2232.25 3854.18 2232.25C3853.98 2233.11 3855.7 2233.48 3857.42 2233.86C3859.14 2234.23 3859.52 2232.51 3859.71 2231.64C3860.26 2229.07 3862.84 2229.63 3866.28 2230.38ZM3861.34 2215.8C3861.53 2214.93 3861.53 2214.93 3862.4 2215.12C3862.4 2215.12 3863.92 2216.36 3864.78 2216.55L3861.34 2215.8ZM3873.39 2218.42C3871.66 2218.04 3871.48 2218.9 3871.48 2218.9C3869.76 2218.52 3867.18 2217.96 3865.64 2216.74L3873.39 2218.42ZM3883.03 2219.6L3883.4 2217.89L3889.43 2219.19C3889.24 2220.05 3890.1 2220.24 3890.1 2220.24L3890.95 2220.43C3890.95 2220.43 3891.82 2220.62 3891.63 2221.47L3883.03 2219.6ZM3934.96 2063.42C3933.25 2063.04 3933.62 2061.32 3933.62 2061.32L3931.04 2060.76C3928.96 2062.11 3928.09 2061.92 3926.36 2061.55C3926.18 2062.41 3927.9 2062.78 3928.76 2062.97C3930.48 2063.34 3931.52 2062.67 3934.96 2063.42ZM3910.47 2230.07L3906.18 2229.15C3904.45 2228.77 3904.45 2228.77 3904.07 2230.49L3905.61 2231.72L3908.19 2232.28L3908 2233.14L3903.7 2232.21C3902.84 2232.02 3902.66 2232.88 3901.8 2232.7C3900.08 2232.32 3900.64 2229.74 3898.91 2229.37L3899.29 2227.65C3900.34 2226.97 3904.15 2225.99 3905.01 2226.18C3906.73 2226.55 3908.07 2228.65 3910.66 2229.21L3910.47 2230.07ZM3967.26 2010.1L3965.91 2008.01L3959.03 2006.51C3957.31 2006.14 3956.08 2007.67 3955.89 2008.53C3955.89 2008.53 3956.56 2009.57 3956.19 2011.3C3960.01 2010.32 3964.49 2010.41 3967.26 2010.1ZM3917.06 2228.8C3917.06 2228.8 3917.24 2227.94 3918.09 2228.13C3919.63 2229.36 3921.35 2229.73 3923.06 2230.1C3924.79 2230.48 3926.51 2230.85 3928.42 2230.37L3929.27 2230.56L3929.08 2231.41C3924.42 2232.21 3920.11 2231.26 3916.68 2230.52L3917.06 2228.8ZM3965.2 2060.98C3960.91 2060.05 3959.01 2060.53 3956.05 2061.69L3962.93 2063.19C3964.64 2063.56 3965.01 2061.84 3965.01 2061.84L3965.2 2060.98ZM3937.2 2231.37L3940.64 2232.12C3942.36 2232.49 3944.08 2232.86 3946.47 2234.29L3940.45 2232.99C3939.59 2232.79 3937.68 2233.28 3936.82 2233.09L3937.2 2231.37ZM4065.2 2056.59C4063.48 2056.2 4063.48 2056.2 4063.11 2057.93L4064.83 2058.31C4065.69 2058.49 4066.36 2059.54 4067.22 2059.73C4068.95 2060.1 4070.85 2059.62 4073.99 2057.59C4070.55 2056.84 4067.78 2057.15 4065.2 2056.59ZM4073.99 2057.59L4080.87 2059.09L4081.05 2058.23C4080.2 2058.04 4079.52 2056.99 4077.8 2056.62C4076.94 2056.43 4076.09 2056.24 4075.03 2056.92L4073.99 2057.59Z" fill="#F68731"/>
</g>
<defs>
<clipPath id="clip0_412_78">
<rect width="4206.03" height="2255.08" fill="white"/>
</clipPath>
</defs>
</svg>
