<svg width="88" height="30" viewBox="0 0 88 30" fill="none" xmlns="http://www.w3.org/2000/svg">
<g clip-path="url(#clip0_35_310)">
<path d="M53.2548 18.3719C53.2548 19.3676 53.0834 20.3144 52.7405 21.2123C52.4141 22.1101 51.9488 22.9019 51.3449 23.5874C50.7408 24.2567 50.0226 24.7953 49.1902 25.2034C48.3576 25.5952 47.4434 25.791 46.4477 25.791C45.8274 25.791 45.2479 25.7013 44.7092 25.5217C44.1706 25.3584 43.6646 25.0891 43.1911 24.7137V25.4484H39.6406V5.125H43.2157V11.981C43.6238 11.6546 44.1053 11.3934 44.6603 11.1974C45.2316 11.0016 45.8274 10.9037 46.4477 10.9037C47.3128 10.9037 48.1535 11.0995 48.9698 11.4913C49.786 11.8669 50.5123 12.3891 51.1491 13.0584C51.7856 13.7277 52.2916 14.5194 52.6672 15.4334C53.059 16.3312 53.2548 17.3107 53.2548 18.3717M49.6797 18.3717C49.6797 17.7187 49.5818 17.123 49.386 16.5843C49.1902 16.0456 48.9126 15.5886 48.5534 15.2131C48.2106 14.8213 47.7944 14.5274 47.3047 14.3315C46.8312 14.1193 46.3009 14.0133 45.7132 14.0133C45.3377 14.0133 44.905 14.0949 44.4155 14.258C43.9258 14.4049 43.5177 14.6009 43.1913 14.8456V21.6527C43.9585 22.3547 44.8236 22.7057 45.7867 22.7057C46.3417 22.7057 46.856 22.5995 47.3292 22.3874C47.819 22.1751 48.2352 21.8814 48.578 21.5059C48.9209 21.1141 49.1902 20.657 49.386 20.1346C49.5818 19.596 49.6797 19.0083 49.6797 18.3716" fill="#333333"/>
<path d="M69.653 13.977C69.7842 14.1643 69.9064 14.3676 70.0203 14.5869C70.1472 14.7968 70.2724 15.0182 70.3954 15.2507L61.1288 21.7393C61.4698 21.9987 61.8416 22.2166 62.2442 22.3931C62.6508 22.5468 63.0741 22.6391 63.5141 22.6698C63.9448 22.6871 64.3806 22.6409 64.822 22.5312C65.2672 22.3988 65.7038 22.1828 66.1318 21.8831C66.6533 21.518 67.1139 21.0659 67.5137 20.5269C67.904 19.9745 68.1654 19.4228 68.2978 18.8718L71.4011 19.419C71.0201 20.5827 70.5307 21.5628 69.933 22.36C69.3394 23.1344 68.6147 23.8212 67.7588 24.4204C66.8897 25.029 65.9616 25.4397 64.9748 25.6524C64.0013 25.8558 63.0417 25.88 62.0963 25.725C61.1642 25.5606 60.2801 25.223 59.4443 24.7123C58.5991 24.1881 57.8814 23.5049 57.2916 22.6624C56.7016 21.8201 56.3096 20.9187 56.1156 19.9586C55.9122 18.9851 55.8994 18.0275 56.0771 17.086C56.2549 16.1445 56.6059 15.2512 57.1299 14.4058C57.6541 13.5606 58.344 12.8384 59.1999 12.2391C60.0155 11.6679 60.9055 11.2741 61.8696 11.0571C62.8244 10.827 63.7766 10.778 64.726 10.9103C65.6755 11.0425 66.5796 11.366 67.4382 11.8809C68.2875 12.3823 69.0258 13.0808 69.653 13.9768M65.8379 14.9743C65.0956 14.3981 64.2757 14.0953 63.3784 14.0659C62.4852 14.0139 61.6709 14.2453 60.9353 14.7603C60.2133 15.2659 59.7239 15.9473 59.4672 16.8046C59.2011 17.6484 59.212 18.5176 59.4997 19.4123L65.8379 14.9743Z" fill="#333333"/>
<path d="M87.1148 25.4485H83.5889V17.0008C83.5889 16.4948 83.5073 16.0541 83.344 15.6785C83.1971 15.2867 82.993 14.9684 82.7318 14.7235C82.4706 14.4623 82.1687 14.2746 81.8258 14.1602C81.4994 14.0296 81.1566 13.9644 80.7975 13.9644C80.2588 13.9644 79.7282 14.0623 79.2058 14.2583C78.6834 14.4379 78.2101 14.7318 77.7856 15.1399V25.4485H74.2351V11.2955H77.7856V12.3484C77.9979 12.1362 78.2591 11.9404 78.5693 11.7608C78.8794 11.5812 79.1977 11.4344 79.5243 11.32C79.8672 11.1894 80.2098 11.0915 80.5527 11.0261C80.9118 10.9609 81.2547 10.9282 81.5811 10.9282C82.2993 10.9282 82.9848 11.0426 83.6379 11.2711C84.3071 11.4996 84.8948 11.8506 85.4007 12.324C85.9231 12.7975 86.3393 13.4097 86.6495 14.1604C86.9597 14.9114 87.1146 15.801 87.1146 16.8294V25.4485" fill="#333333"/>
<g clip-path="url(#clip1_35_310)">
<path fill-rule="evenodd" clip-rule="evenodd" d="M7.31617 18.2788C6.33855 18.7817 5.50236 19.5218 4.88348 20.4221C5.58437 25.7346 10.1179 29.8391 15.6157 29.8653H15.6204C21.1182 29.8391 25.6519 25.7346 26.3526 20.4221C25.7336 19.522 24.8976 18.7817 23.92 18.2788C23.9395 18.512 23.9487 18.7476 23.9487 18.9858C23.9487 23.5971 20.2249 27.3385 15.6204 27.367H15.6157C11.0112 27.3385 7.28745 23.5972 7.28745 18.9858C7.28745 18.7476 7.29666 18.512 7.31617 18.2788Z" fill="#FF872A"/>
<path fill-rule="evenodd" clip-rule="evenodd" d="M15.6109 0.134766L0.679993 8.21031L5.06721 10.5839C4.73556 11.1997 4.51229 12.3663 4.51229 13.7094V14.1796C4.51229 16.1679 5.00164 17.7687 5.60787 17.7687H5.63352C6.6639 15.9585 8.6094 14.7378 10.8414 14.7378C12.7902 14.7378 14.5216 15.6688 15.6157 17.1098V17.1161C15.6157 17.1161 15.6166 17.1139 15.6174 17.1128C15.6183 17.1141 15.6197 17.1148 15.6206 17.1161V17.1098C16.7148 15.6688 18.4462 14.7378 20.3949 14.7378C22.6268 14.7378 24.5723 15.9587 25.6028 17.7687H25.6283C26.2345 17.7687 26.7239 16.1677 26.7239 14.1796V13.7094C26.7239 12.3665 26.5004 11.1999 26.1689 10.5839L30.5562 8.21031L15.6251 0.134766L15.6172 0.138017L15.6109 0.134766Z" fill="#333333"/>
</g>
</g>
<defs>
<clipPath id="clip0_35_310">
<rect width="86.8421" height="30" fill="white" transform="translate(0.612793)"/>
</clipPath>
<clipPath id="clip1_35_310">
<rect width="30" height="30" fill="white" transform="translate(0.618103)"/>
</clipPath>
</defs>
</svg>
