<svg width="60" height="60" viewBox="0 0 60 60" fill="none" xmlns="http://www.w3.org/2000/svg">
<rect width="60" height="60" rx="30" fill="#E9983D"/>
<path d="M38.0817 28.5372C40.088 27.4063 41.1723 25.1425 40.7985 22.8715C40.3341 19.3654 36.1546 18.0417 32.8573 17.7632V12.4923H29.6065V17.7168H27.4239V12.4923H24.1731V17.7168H17.625V21.0837H20.0631C21.1545 21.0837 21.6885 21.4088 21.6885 22.2911V36.757C21.6885 37.9644 21.0847 38.336 20.4346 38.336H17.9501V41.7725H24.2659V47.1131H27.5399V41.7725H29.7225V47.1131H32.9037V41.7725H33.6002C40.2876 41.7725 42.5167 38.4986 42.5167 34.0404C42.4633 31.4118 40.6405 29.1502 38.0817 28.5372ZM27.4238 21.2926H29.7457C31.3711 21.2926 34.5755 21.5713 34.5755 24.2183C34.6869 25.9459 33.4354 27.4598 31.7194 27.6781H27.4238C27.4238 27.6781 27.4238 21.2926 27.4238 21.2926ZM31.0228 38.0108V37.9876H27.4238V31.0216H31.6034C32.5786 31.0216 36.2473 31.3467 36.2473 33.9473C36.2473 36.548 34.5059 38.0108 31.0228 38.0108Z" fill="white"/>
</svg>
