<svg width="38" height="38" viewBox="0 0 38 38" fill="none" xmlns="http://www.w3.org/2000/svg">
<path d="M32.0615 32.0646C39.2775 24.8486 39.2775 13.1492 32.0615 5.93323C24.8455 -1.28276 13.1461 -1.28276 5.93009 5.93323C-1.2859 13.1492 -1.2859 24.8486 5.93009 32.0646C13.1461 39.2806 24.8455 39.2806 32.0615 32.0646Z" fill="#FF936B"/>
<path d="M23.9708 18.4423C24.3227 17.9255 24.5478 17.3329 24.6276 16.7128C24.7074 16.0926 24.6398 15.4624 24.4303 14.8733C24.2208 14.2842 23.8752 13.7528 23.4217 13.3224C22.9682 12.892 22.4195 12.5746 21.8203 12.3961V10.0754H19.4453V12.2278H17.3671V10.0754H14.9922V12.2278H12.1897V14.6028H13.9724V23.3968H12.1894V25.7718H14.9922V27.9242H17.3671V25.7718H19.4453V27.9242H21.8203V25.7718H21.8307C22.6914 25.7726 23.5292 25.4941 24.2181 24.9781C24.907 24.462 25.4099 23.7364 25.6511 22.9101C25.8924 22.0838 25.8589 21.2016 25.5559 20.3959C25.2528 19.5903 24.6965 18.9047 23.9705 18.4423H23.9708ZM16.3471 14.6028H20.6815C20.8922 14.6028 21.1008 14.6443 21.2955 14.7249C21.4901 14.8056 21.667 14.9237 21.816 15.0727C21.965 15.2217 22.0831 15.3986 22.1638 15.5933C22.2444 15.7879 22.2859 15.9966 22.2859 16.2073C22.2859 16.418 22.2444 16.6266 22.1638 16.8213C22.0831 17.0159 21.965 17.1928 21.816 17.3418C21.667 17.4908 21.4901 17.6089 21.2955 17.6896C21.1008 17.7702 20.8922 17.8117 20.6815 17.8117H16.3471V14.6028ZM21.831 23.3968H16.3471V20.1876H21.831C22.2565 20.1876 22.6647 20.3567 22.9656 20.6576C23.2665 20.9585 23.4356 21.3666 23.4356 21.7922C23.4356 22.2178 23.2665 22.6259 22.9656 22.9269C22.6647 23.2278 22.2565 23.3968 21.831 23.3968Z" fill="#333333"/>
</svg>
