<svg width="82" height="82" viewBox="0 0 82 82" fill="none" xmlns="http://www.w3.org/2000/svg">
<g filter="url(#filter0_d_3_6742)">
<rect x="7.48828" y="7.48804" width="56.6487" height="56.6487" rx="2" fill="white"/>
<rect x="7.98828" y="7.98804" width="55.6487" height="55.6487" rx="1.5" stroke="url(#paint0_linear_3_6742)"/>
</g>
<path d="M29.1921 30.4337C28.5374 30.4337 27.8973 30.2395 27.353 29.8758C26.8086 29.512 26.3843 28.995 26.1337 28.3901C25.8832 27.7853 25.8176 27.1197 25.9453 26.4775C26.0731 25.8354 26.3884 25.2455 26.8513 24.7826C27.3143 24.3196 27.9041 24.0043 28.5463 23.8766C29.1884 23.7489 29.854 23.8144 30.4589 24.065C31.0638 24.3155 31.5808 24.7398 31.9445 25.2842C32.3083 25.8286 32.5024 26.4686 32.5024 27.1233C32.5024 28.0013 32.1537 28.8433 31.5328 29.4641C30.912 30.0849 30.07 30.4337 29.1921 30.4337ZM29.1921 25.4682C28.8647 25.4682 28.5447 25.5652 28.2725 25.7471C28.0003 25.929 27.7882 26.1875 27.6629 26.4899C27.5376 26.7924 27.5048 27.1252 27.5687 27.4462C27.6326 27.7673 27.7902 28.0622 28.0217 28.2937C28.2532 28.5252 28.5481 28.6828 28.8692 28.7467C29.1902 28.8106 29.523 28.7778 29.8255 28.6525C30.1279 28.5272 30.3864 28.3151 30.5683 28.0429C30.7502 27.7707 30.8473 27.4507 30.8473 27.1233C30.8473 26.6844 30.6729 26.2634 30.3625 25.953C30.0521 25.6425 29.6311 25.4682 29.1921 25.4682ZM42.4335 30.4337C41.7787 30.4337 41.1387 30.2395 40.5943 29.8758C40.0499 29.512 39.6257 28.995 39.3751 28.3901C39.1245 27.7853 39.059 27.1197 39.1867 26.4775C39.3145 25.8354 39.6297 25.2455 40.0927 24.7826C40.5557 24.3196 41.1455 24.0043 41.7876 23.8766C42.4298 23.7489 43.0954 23.8144 43.7003 24.065C44.3052 24.3155 44.8222 24.7398 45.1859 25.2842C45.5497 25.8286 45.7438 26.4686 45.7438 27.1233C45.7438 28.0013 45.395 28.8433 44.7742 29.4641C44.1534 30.0849 43.3114 30.4337 42.4335 30.4337ZM42.4335 25.4682C42.1061 25.4682 41.7861 25.5652 41.5139 25.7471C41.2417 25.929 41.0296 26.1875 40.9043 26.4899C40.779 26.7924 40.7462 27.1252 40.8101 27.4462C40.874 27.7673 41.0316 28.0622 41.2631 28.2937C41.4946 28.5252 41.7895 28.6828 42.1106 28.7467C42.4316 28.8106 42.7644 28.7778 43.0669 28.6525C43.3693 28.5272 43.6278 28.3151 43.8097 28.0429C43.9916 27.7707 44.0886 27.4507 44.0886 27.1233C44.0886 26.6844 43.9142 26.2634 43.6038 25.953C43.2934 25.6425 42.8724 25.4682 42.4335 25.4682ZM44.0886 47.813H40.7783C40.3393 47.813 39.9183 47.6386 39.6079 47.3282C39.2975 47.0178 39.1231 46.5968 39.1231 46.1578V40.3647H40.7783V46.1578H44.0886V38.7095H45.7438V33.744C45.7438 33.5245 45.6566 33.314 45.5014 33.1588C45.3462 33.0036 45.1357 32.9164 44.9162 32.9164H39.6031L35.8128 39.5371L32.0224 32.9164H26.7093C26.4898 32.9164 26.2793 33.0036 26.1241 33.1588C25.9689 33.314 25.8817 33.5245 25.8817 33.744V38.7095H27.5369V46.1578H30.8473V40.3647H32.5024V46.1578C32.5024 46.5968 32.328 47.0178 32.0176 47.3282C31.7072 47.6386 31.2862 47.813 30.8473 47.813H27.5369C27.0979 47.813 26.6769 47.6386 26.3665 47.3282C26.0561 47.0178 25.8817 46.5968 25.8817 46.1578V40.3647C25.4428 40.3647 25.0218 40.1903 24.7114 39.8799C24.4009 39.5695 24.2266 39.1485 24.2266 38.7095V33.744C24.2266 33.0856 24.4881 32.4541 24.9537 31.9884C25.4194 31.5228 26.0509 31.2613 26.7093 31.2613H32.9824L35.8128 36.2268L38.6431 31.2613H44.9162C45.5747 31.2613 46.2062 31.5228 46.6718 31.9884C47.1374 32.4541 47.399 33.0856 47.399 33.744V38.7095C47.399 39.1485 47.2246 39.5695 46.9142 39.8799C46.6038 40.1903 46.1828 40.3647 45.7438 40.3647V46.1578C45.7438 46.5968 45.5694 47.0178 45.259 47.3282C44.9486 47.6386 44.5276 47.813 44.0886 47.813Z" fill="#D45F05" stroke="#D45F05" stroke-width="0.5"/>
<defs>
<filter id="filter0_d_3_6742" x="0.488281" y="0.488037" width="80.6484" height="80.6487" filterUnits="userSpaceOnUse" color-interpolation-filters="sRGB">
<feFlood flood-opacity="0" result="BackgroundImageFix"/>
<feColorMatrix in="SourceAlpha" type="matrix" values="0 0 0 0 0 0 0 0 0 0 0 0 0 0 0 0 0 0 127 0" result="hardAlpha"/>
<feOffset dx="5" dy="5"/>
<feGaussianBlur stdDeviation="6"/>
<feColorMatrix type="matrix" values="0 0 0 0 0 0 0 0 0 0 0 0 0 0 0 0 0 0 0.12 0"/>
<feBlend mode="normal" in2="BackgroundImageFix" result="effect1_dropShadow_3_6742"/>
<feBlend mode="normal" in="SourceGraphic" in2="effect1_dropShadow_3_6742" result="shape"/>
</filter>
<linearGradient id="paint0_linear_3_6742" x1="-20.8361" y1="35.8124" x2="35.8126" y2="92.461" gradientUnits="userSpaceOnUse">
<stop stop-color="#FFEE92"/>
<stop offset="0.732292" stop-color="#E66000" stop-opacity="0"/>
</linearGradient>
</defs>
</svg>
