<svg width="100" height="100" viewBox="0 0 100 100" fill="none" xmlns="http://www.w3.org/2000/svg">
<path d="M53.0536 58.8394C48.8353 63.0676 42.2176 63.7268 37.2493 60.4133C32.2803 57.0999 30.3447 50.737 32.6267 45.2179C34.9086 39.6988 40.7726 36.5608 46.6304 37.7243C52.4883 38.8878 56.7081 44.0277 56.7081 50C56.7081 53.3142 55.3943 56.4926 53.0536 58.8394Z" fill="#FF936B"/>
<path d="M41.4521 57.6966L35.9102 52.1546L38.1196 49.9436L41.4178 53.241L50.9042 43.4441L53.1495 45.6185L41.4521 57.6966Z" fill="black"/>
<path d="M23 77H48V80.125H23V77Z" fill="#FF936B"/>
<path d="M23 83.25H48V86.375H23V83.25Z" fill="#FF936B"/>
<path d="M25 75H50V78.125H25V75Z" fill="black"/>
<path d="M25 81.25H50V84.375H25V81.25Z" fill="black"/>
<path d="M81.25 75.9872V9.375H53.125C53.125 4.19769 48.9273 0 43.75 0C38.5727 0 34.375 4.19769 34.375 9.375H6.25V100H81.25V98.0827L82.8842 99.7169L93.9331 88.6703L81.25 75.9872ZM62.5 12.5H78.125V72.8622L75 69.7372V15.625H62.5V12.5ZM34.375 12.5H37.5V9.375C37.5 5.92346 40.2985 3.125 43.75 3.125C47.2015 3.125 50 5.92346 50 9.375V12.5H53.125V15.625H34.375V12.5ZM28.125 12.5H31.25V18.75H56.25V12.5H59.375V20.3125C59.375 21.1754 58.6754 21.875 57.8125 21.875H29.6875C28.8246 21.875 28.125 21.1754 28.125 20.3125V12.5ZM29.6875 25H57.8125C60.4012 25 62.5 22.9012 62.5 20.3125V18.75H71.875V66.6122L69.6266 64.3623L67.4156 66.5733L62.6404 61.7981C68.663 52.3918 66.6313 39.9597 57.9292 32.959C49.2264 25.9583 36.6478 26.638 28.7498 34.536C20.8519 42.4332 20.1729 55.0125 27.1729 63.7146C34.1736 72.4174 46.6064 74.4484 56.0127 68.4265L60.7811 73.2018L58.5785 75.4128L71.875 88.7093V90.625H15.625V18.75H25V20.3125C25 22.9012 27.0988 25 29.6875 25ZM65.2061 68.7828L62.9967 70.9923L56.356 64.3517L55.275 65.1421C47.7982 70.5437 37.5122 69.7464 30.9563 63.2576C26.1986 58.5251 24.3324 51.6106 26.0635 45.1271C27.7946 38.6429 32.859 33.5793 39.3433 31.8481C45.8267 30.1178 52.7412 31.9839 57.4738 36.7424C63.9603 43.2983 64.7568 53.5835 59.3575 61.0611L58.5655 62.1422L65.2061 68.7828ZM78.125 96.875H9.375V12.5H25V15.625H12.5V93.75H75V91.8343L78.125 94.9593V96.875ZM62.9967 75.4128L69.6266 68.7828L89.5142 88.6703L82.8842 95.2988L62.9967 75.4128Z" fill="black"/>
<path d="M55.2624 38.9518C49.9905 33.67 41.7217 32.8491 35.5137 36.9903C29.3064 41.1315 26.8894 49.0821 29.7421 55.9776C32.5947 62.873 39.9212 66.793 47.2408 65.3389C54.5597 63.8847 59.8324 57.4623 59.8324 50C59.8324 45.8572 58.1883 41.8838 55.2624 38.9518ZM53.0529 58.8394C48.8346 63.0676 42.2169 63.7268 37.2486 60.4133C32.2796 57.0999 30.344 50.737 32.626 45.2178C34.9079 39.6987 40.7719 36.5608 46.6297 37.7243C52.4876 38.8877 56.7074 44.0277 56.7074 50C56.7074 53.3142 55.3936 56.4926 53.0529 58.8394Z" fill="black"/>
</svg>
