<svg width="36" height="36" viewBox="0 0 36 36" fill="none" xmlns="http://www.w3.org/2000/svg">
<circle opacity="0.1" cx="18" cy="18" r="18" fill="#333333"/>
<path fill-rule="evenodd" clip-rule="evenodd" d="M14.2836 15.6772L16.6096 17.9991L14.2836 20.3211C13.9055 20.714 13.9055 21.3284 14.2836 21.7214C14.676 22.0929 15.2968 22.0929 15.6821 21.7214L17.9938 19.3923L20.3197 21.7214C20.7122 22.0929 21.3329 22.0929 21.711 21.7214C22.0963 21.3284 22.0963 20.714 21.711 20.3211L19.3851 17.9991L21.711 15.6772C22.0963 15.2842 22.0963 14.6626 21.711 14.284C21.3329 13.9053 20.7122 13.9053 20.3197 14.284L17.9938 16.6131L15.6821 14.284C15.2968 13.9053 14.6618 13.9053 14.2836 14.284C13.9055 14.6626 13.9055 15.2842 14.2836 15.6772Z" fill="#9FA9B9"/>
<mask id="mask0_917_1495" style="mask-type:alpha" maskUnits="userSpaceOnUse" x="14" y="14" width="8" height="8">
<path fill-rule="evenodd" clip-rule="evenodd" d="M14.2836 15.6772L16.6096 17.9991L14.2836 20.3211C13.9055 20.714 13.9055 21.3284 14.2836 21.7214C14.676 22.0929 15.2968 22.0929 15.6821 21.7214L17.9938 19.3923L20.3197 21.7214C20.7122 22.0929 21.3329 22.0929 21.711 21.7214C22.0963 21.3284 22.0963 20.714 21.711 20.3211L19.3851 17.9991L21.711 15.6772C22.0963 15.2842 22.0963 14.6626 21.711 14.284C21.3329 13.9053 20.7122 13.9053 20.3197 14.284L17.9938 16.6131L15.6821 14.284C15.2968 13.9053 14.6618 13.9053 14.2836 14.284C13.9055 14.6626 13.9055 15.2842 14.2836 15.6772Z" fill="white"/>
</mask>
<g mask="url(#mask0_917_1495)">
<rect x="8.10059" y="18" width="14" height="14" transform="rotate(-45 8.10059 18)" className="hidden" fill="black"/>
</g>
</svg>
