<svg width="100" height="100" viewBox="0 0 100 100" fill="none" xmlns="http://www.w3.org/2000/svg">
<path d="M46.3384 29.8277C47.8228 31.3121 52.2224 34.5772 60.9941 32.8447L59.4945 36.0445C55.4535 36.5301 48.8158 36.4481 44.2669 31.8992C43.6949 31.3273 43.6949 30.3998 44.2669 29.8277C44.8388 29.2557 45.7664 29.2557 46.3384 29.8277Z" fill="#FF936B"/>
<path d="M44.5547 55.0936L50.0002 60.5393L55.4459 55.0938C55.0317 54.3969 54.7979 53.5911 54.7979 52.7477V52.1518C53.3209 52.7725 51.7002 53.1163 50.0004 53.1163C48.3006 53.1163 46.6797 52.7723 45.2025 52.1516V52.7477C45.2025 53.5909 44.9688 54.3969 44.5547 55.0936Z" fill="#FF936B"/>
<path d="M67.229 54.0537L58.7169 50.2705C58.1155 50.0033 57.7272 49.4055 57.7272 48.7477V46.4102C60.5866 44.1318 62.4245 40.6234 62.4245 36.6918V33.4013C63.3665 32.8808 63.9901 31.875 63.9901 30.7484V30.4291C63.9901 23.5783 58.4165 18.0046 51.5657 18.0046H48.4344C41.5836 18.0046 36.01 23.5783 36.01 30.4291V33.3265C36.01 34.3168 36.4361 35.2139 37.1789 35.7879C37.3049 35.8851 37.4375 35.9707 37.5756 36.0447V36.6916C37.5756 40.6232 39.4133 44.1316 42.2725 46.4098V48.7475C42.2725 49.4053 41.884 50.0031 41.2828 50.2703L32.7707 54.0535C29.983 55.2924 28.1816 58.0643 28.1816 61.1149V80.5298C28.1816 81.3388 28.8375 81.9946 29.6465 81.9946C30.4555 81.9946 31.1113 81.3388 31.1113 80.5298V61.1151C31.1113 60.9454 31.1234 60.7776 31.141 60.6112L35.0633 64.5334C35.6736 65.144 36.01 65.9555 36.01 66.819V80.53C36.01 81.3389 36.6658 81.9948 37.4748 81.9948C38.2838 81.9948 38.9397 81.3389 38.9397 80.53V66.819C38.9397 65.1731 38.2988 63.6258 37.135 62.462L32.459 57.7858C32.8803 57.3487 33.3858 56.9864 33.9608 56.7307L42.3293 53.0113L48.5354 59.2174V80.5298C48.5354 81.3388 49.1913 81.9946 50.0002 81.9946C50.8092 81.9946 51.4651 81.3388 51.4651 80.5298V59.2176L57.6712 53.0115L66.0395 56.7307C66.6145 56.9864 67.12 57.3487 67.5413 57.786L62.8653 62.462C61.7014 63.6258 61.0606 65.1731 61.0606 66.819V80.53C61.0606 81.3389 61.7165 81.9948 62.5255 81.9948C63.3344 81.9948 63.9903 81.3389 63.9903 80.53V66.819C63.9903 65.9557 64.3264 65.144 64.937 64.5334L68.8591 60.6114C68.8767 60.7778 68.8888 60.9452 68.8888 61.1149V80.5298C68.8888 81.3388 69.5446 81.9946 70.3536 81.9946C71.1626 81.9946 71.8185 81.3388 71.8185 80.5298V61.1151C71.8179 58.0645 70.0167 55.2926 67.229 54.0537ZM49.9997 56.5393L44.5541 51.0936C44.9682 50.3969 45.202 49.5908 45.202 48.7477V48.1516C46.6791 48.7723 48.3 49.1162 49.9999 49.1162C51.6997 49.1162 53.3204 48.7725 54.7973 48.1518V48.7477C54.7973 49.591 55.0311 50.3969 55.4454 51.0938L49.9997 56.5393ZM49.9999 46.1863C44.7645 46.1865 40.5051 41.9271 40.5051 36.6918V36.033C41.4192 35.6707 42.3114 35.0941 43.1655 34.306C43.7598 33.7574 43.7971 32.8306 43.2483 32.2361C42.6996 31.6418 41.7731 31.6045 41.1783 32.1531C40.4457 32.8295 39.7137 33.2664 39.0031 33.4519C38.986 33.4564 38.9733 33.4584 38.9643 33.4592C38.9537 33.4387 38.9395 33.3957 38.9395 33.3267V30.4293C38.9395 25.1939 43.1989 20.9345 48.4342 20.9345H51.5655C56.801 20.9345 61.0602 25.1939 61.0602 30.4293V30.7486C61.0602 30.7961 61.0317 30.8373 60.9942 30.8447C52.2225 32.5771 47.8229 29.3121 46.3385 27.8277C45.7664 27.2556 44.8389 27.2556 44.267 27.8277C43.695 28.3998 43.695 29.3273 44.267 29.8992C48.8159 34.448 55.4536 34.5301 59.4946 34.0445V36.6916C59.4946 41.927 55.2352 46.1863 49.9999 46.1863Z" fill="black"/>
<path d="M21.4858 44.9546C21.4858 40.5826 17.9287 37.0255 13.5567 37.0255C9.25274 37.0255 5.74121 40.473 5.63281 44.7515C6.62188 44.4259 7.99141 43.7515 9.38966 42.3533C9.68985 42.0531 10.1059 41.8982 10.5293 41.9279C10.9527 41.9579 11.3424 42.1704 11.5973 42.5101C11.7526 42.7134 15.3871 47.3527 21.4858 45.4855V44.9546Z" fill="#FF936B"/>
<path d="M17.7883 32.9949C17.7883 31.2128 16.3385 29.7628 14.5563 29.7628C12.774 29.7628 11.3242 31.2126 11.3242 32.9949C11.3242 33.1908 11.3461 33.3822 11.3799 33.5706C12.385 33.2624 13.4514 33.0956 14.5563 33.0956C15.6627 33.0956 16.7305 33.263 17.7371 33.572C17.7707 33.3835 17.7883 33.1911 17.7883 32.9949Z" fill="#FF936B"/>
<path d="M26.4145 46.0863V42.9545C26.4145 39.133 24.4286 35.7689 21.4362 33.8329C21.6209 33.2402 21.7174 32.6193 21.7174 31.9949C21.7174 28.5972 18.9534 25.8331 15.5557 25.8331C12.158 25.8331 9.39396 28.5974 9.39396 31.9949C9.39396 32.6271 9.48967 33.2419 9.67482 33.8333C6.68263 35.7691 4.69688 39.1332 4.69688 42.9545V46.0857C4.69688 49.7863 6.5588 53.0586 9.39377 55.0199V58.2412C9.39377 58.8766 9.04084 59.4476 8.47267 59.7318L3.40606 62.265C1.30508 63.3158 0 65.4275 0 67.7766V80.5303C0 81.3393 0.655861 81.9952 1.46485 81.9952C2.27383 81.9952 2.92969 81.3393 2.92969 80.5303V68.4102L5.31603 70.7965C5.92638 71.407 6.26271 72.2186 6.26271 73.082V80.5303C6.26271 81.3393 6.91857 81.9952 7.72755 81.9952C8.53654 81.9952 9.1924 81.3393 9.1924 80.5303V73.082C9.1924 71.4361 8.55138 69.8889 7.38771 68.725L4.06641 65.4037C4.0504 65.3877 4.03321 65.3738 4.0168 65.3588C4.2252 65.1748 4.45899 65.0146 4.71642 64.8857L9.78303 62.3525C10.0426 62.2226 10.2842 62.0693 10.5094 61.899L14.0908 65.4807V80.5305C14.0908 81.3395 14.7467 81.9953 15.5557 81.9953C16.3647 81.9953 17.0205 81.3395 17.0205 80.5305V65.4805L20.6022 61.8988C20.8276 62.0693 21.069 62.2227 21.3286 62.3523L22.7256 63.051C22.936 63.1562 23.1594 63.2061 23.3797 63.2061C23.917 63.2061 24.4344 62.9092 24.6911 62.3961C25.053 61.6725 24.7596 60.7926 24.036 60.4309L22.6389 59.7322C22.0705 59.448 21.7176 58.8769 21.7176 58.2418V55.0205C24.5526 53.0592 26.4145 49.7867 26.4145 46.0863ZM15.5557 28.7628C17.3379 28.7628 18.7877 30.2128 18.7877 31.9949C18.7877 32.1912 18.7702 32.3835 18.7366 32.572C17.7299 32.263 16.6621 32.0956 15.5557 32.0956C14.4508 32.0956 13.3844 32.2624 12.3793 32.5706C12.3455 32.3822 12.3237 32.1908 12.3237 31.9949C12.3237 30.2126 13.7735 28.7628 15.5557 28.7628ZM15.5557 35.0255C19.9278 35.0255 23.4848 38.5826 23.4848 42.9546V43.4855C17.3862 45.3527 13.7516 40.7134 13.5963 40.5101C13.3414 40.1705 12.9518 39.958 12.5283 39.9279C12.1049 39.8982 11.6889 40.0531 11.3887 40.3533C9.99045 41.7515 8.62092 42.4259 7.63185 42.7515C7.74025 38.473 11.2518 35.0255 15.5557 35.0255ZM15.5557 62.802L12.1707 59.417C12.2696 59.0392 12.3237 58.6455 12.3237 58.2414V56.4533C13.3449 56.7724 14.4307 56.9445 15.5557 56.9445C16.6807 56.9445 17.7664 56.7724 18.7877 56.4533V58.2414C18.7877 58.6455 18.8418 59.0394 18.9407 59.417L15.5557 62.802ZM15.5557 54.0148C11.1836 54.0148 7.62658 50.4578 7.62658 46.0857V45.7822C8.79474 45.5138 10.5268 44.8902 12.3336 43.4371C12.9729 44.0402 13.8865 44.78 15.05 45.4146C16.4262 46.1652 18.3268 46.8595 20.6483 46.8595C21.5305 46.8595 22.4745 46.757 23.4723 46.5215C23.2452 50.6918 19.7815 54.0148 15.5557 54.0148Z" fill="black"/>
<path d="M72.3848 40.2574V41.6226C73.3721 41.2978 74.7453 40.6232 76.1469 39.2217C76.4301 38.9387 76.8051 38.7926 77.1832 38.7926C77.4647 38.7926 77.7475 38.8734 77.9953 39.0387C78.0326 39.0631 81.8754 41.541 88.2432 41.8846V40.2574C88.2432 36.7486 85.3885 33.8939 81.8797 33.8939H78.7485C75.2397 33.8939 72.3848 36.7486 72.3848 40.2574Z" fill="#FF936B"/>
<path d="M96.5948 59.1339L88.3969 55.0348C87.8287 54.7507 87.4758 54.1796 87.4758 53.5444V51.4684C89.3948 49.7647 90.6071 47.2819 90.6071 44.5202V42.8528C90.6409 42.8528 90.6741 42.8538 90.7079 42.8538C91.5168 42.8538 92.1727 42.1979 92.1727 41.3889V38.2577C92.1727 33.1334 88.0037 28.9645 82.8795 28.9645H79.7483C74.624 28.9645 70.4551 33.1334 70.4551 38.2577V41.3889C70.4551 42.1979 71.1109 42.8538 71.9199 42.8538C71.932 42.8538 71.9672 42.8534 72.0207 42.8512V44.5202C72.0207 47.2821 73.2332 49.7649 75.1522 51.4686V53.5446C75.1522 54.18 74.7992 54.751 74.2309 55.035C73.5072 55.3968 73.2139 56.2766 73.5758 57.0003C73.8324 57.5136 74.3498 57.8104 74.8871 57.8104C75.1072 57.8104 75.3307 57.7606 75.541 57.6556C75.8006 57.5257 76.0422 57.3723 76.2674 57.202L79.849 60.7837V80.5304C79.849 81.3394 80.5049 81.9952 81.3139 81.9952C82.1229 81.9952 82.7787 81.3394 82.7787 80.5304V60.7833L86.3602 57.2016C86.5856 57.3722 86.827 57.5255 87.0866 57.6552L95.0192 61.6216L92.6131 64.0276C91.4495 65.1915 90.8084 66.7388 90.8084 68.3847V80.53C90.8084 81.339 91.4643 81.9949 92.2733 81.9949C93.0823 81.9949 93.7381 81.339 93.7381 80.53V68.3847C93.7381 67.5214 94.0743 66.7097 94.6848 66.0991L96.9639 63.82C97.0331 64.0851 97.0709 64.3614 97.0709 64.645V80.53C97.0709 81.339 97.7268 81.9949 98.5358 81.9949C99.3448 81.9949 100.001 81.339 100.001 80.53V64.645C100.001 62.2962 98.6958 60.1845 96.5948 59.1339ZM73.3846 39.6227V38.2575C73.3846 34.7487 76.2395 31.894 79.7483 31.894H82.8795C86.3883 31.894 89.243 34.7487 89.243 38.2575V39.8846C82.8752 39.5411 79.0324 37.0631 78.9951 37.0387C78.7473 36.8735 78.4645 36.7926 78.183 36.7926C77.8049 36.7926 77.4299 36.9387 77.1467 37.2217C75.7451 38.6233 74.3719 39.2979 73.3846 39.6227ZM81.3139 58.105L77.9289 54.72C78.0277 54.3423 78.0818 53.9485 78.0818 53.5444V53.2325C79.0889 53.6073 80.1778 53.8132 81.3139 53.8132C82.45 53.8132 83.5389 53.6073 84.5459 53.2325V53.5444C84.5459 53.9485 84.5998 54.3423 84.6989 54.72L81.3139 58.105ZM81.3139 50.8837C77.8051 50.8837 74.9504 48.0292 74.9504 44.5202V42.1586C75.9764 41.7487 77.1717 41.0969 78.3881 40.0606C79.9264 40.861 83.1447 42.2444 87.6774 42.7014V44.5202C87.6774 48.029 84.8227 50.8837 81.3139 50.8837Z" fill="black"/>
</svg>
