<svg width="195" height="130" viewBox="0 0 195 130" fill="none" xmlns="http://www.w3.org/2000/svg">
<g opacity="0.6">
<rect x="85" y="39" width="4" height="4" rx="2" fill="#FF936B"/>
<rect x="94" y="39" width="4" height="4" rx="2" fill="#FF936B"/>
<rect x="103" y="39" width="4" height="4" rx="2" fill="#FF936B"/>
<rect x="112" y="39" width="4" height="4" rx="2" fill="#FF936B"/>
<rect x="121" y="39" width="4" height="4" rx="2" fill="#FF936B"/>
<rect x="130" y="39" width="4" height="4" rx="2" fill="#FF936B"/>
<rect x="139" y="39" width="4" height="4" rx="2" fill="#FF936B"/>
<rect x="148" y="39" width="4" height="4" rx="2" fill="#FF936B"/>
<rect x="157" y="39" width="4" height="4" rx="2" fill="#FF936B"/>
<rect x="166" y="39" width="4" height="4" rx="2" fill="#FF936B"/>
<rect x="175" y="39" width="4" height="4" rx="2" fill="#FF936B"/>
<rect x="184" y="39" width="4" height="4" rx="2" fill="#FF936B"/>
<rect x="65" y="47" width="4" height="4" rx="2" fill="#FF936B"/>
<rect x="74" y="47" width="4" height="4" rx="2" fill="#FF936B"/>
<rect x="83" y="47" width="4" height="4" rx="2" fill="#FF936B"/>
<rect x="92" y="47" width="4" height="4" rx="2" fill="#FF936B"/>
<rect x="101" y="47" width="4" height="4" rx="2" fill="#FF936B"/>
<rect x="110" y="47" width="4" height="4" rx="2" fill="#FF936B"/>
<rect x="119" y="47" width="4" height="4" rx="2" fill="#FF936B"/>
<rect x="128" y="47" width="4" height="4" rx="2" fill="#FF936B"/>
<rect x="137" y="47" width="4" height="4" rx="2" fill="#FF936B"/>
<rect x="146" y="47" width="4" height="4" rx="2" fill="#FF936B"/>
<rect x="155" y="47" width="4" height="4" rx="2" fill="#FF936B"/>
<rect x="164" y="47" width="4" height="4" rx="2" fill="#FF936B"/>
</g>
<g opacity="0.6">
<rect x="26" y="106" width="4" height="4" rx="2" fill="#FF936B"/>
<rect x="35" y="106" width="4" height="4" rx="2" fill="#FF936B"/>
<rect x="44" y="106" width="4" height="4" rx="2" fill="#FF936B"/>
<rect x="53" y="106" width="4" height="4" rx="2" fill="#FF936B"/>
<rect x="62" y="106" width="4" height="4" rx="2" fill="#FF936B"/>
<rect x="71" y="106" width="4" height="4" rx="2" fill="#FF936B"/>
<rect x="80" y="106" width="4" height="4" rx="2" fill="#FF936B"/>
<rect x="89" y="106" width="4" height="4" rx="2" fill="#FF936B"/>
<rect x="98" y="106" width="4" height="4" rx="2" fill="#FF936B"/>
<rect x="107" y="106" width="4" height="4" rx="2" fill="#FF936B"/>
<rect x="116" y="106" width="4" height="4" rx="2" fill="#FF936B"/>
<rect x="125" y="106" width="4" height="4" rx="2" fill="#FF936B"/>
<rect x="6" y="114" width="4" height="4" rx="2" fill="#FF936B"/>
<rect x="15" y="114" width="4" height="4" rx="2" fill="#FF936B"/>
<rect x="24" y="114" width="4" height="4" rx="2" fill="#FF936B"/>
<rect x="33" y="114" width="4" height="4" rx="2" fill="#FF936B"/>
<rect x="42" y="114" width="4" height="4" rx="2" fill="#FF936B"/>
<rect x="51" y="114" width="4" height="4" rx="2" fill="#FF936B"/>
<rect x="60" y="114" width="4" height="4" rx="2" fill="#FF936B"/>
<rect x="69" y="114" width="4" height="4" rx="2" fill="#FF936B"/>
<rect x="78" y="114" width="4" height="4" rx="2" fill="#FF936B"/>
<rect x="87" y="114" width="4" height="4" rx="2" fill="#FF936B"/>
<rect x="96" y="114" width="4" height="4" rx="2" fill="#FF936B"/>
<rect x="105" y="114" width="4" height="4" rx="2" fill="#FF936B"/>
</g>
<path opacity="0.6" d="M87.5 35.2656H62.5V63.3906H87.5V35.2656Z" fill="#FF936B"/>
<path opacity="0.6" d="M115.625 72.7656H90.625V100.891H115.625V72.7656Z" fill="#FF936B"/>
<path opacity="0.6" d="M59.375 72.7656H34.375V100.891H59.375V72.7656Z" fill="#FF936B"/>
<path d="M31.25 19.6406H34.375V22.7656H31.25V19.6406Z" fill="black"/>
<path d="M37.5 19.6406H40.625V22.7656H37.5V19.6406Z" fill="black"/>
<path d="M43.75 19.6406H46.875V22.7656H43.75V19.6406Z" fill="black"/>
<path d="M73.4375 41.5156H76.5625V43.8594H73.4375V41.5156Z" fill="black"/>
<path d="M73.4375 54.7969H76.5625V57.1406H73.4375V54.7969Z" fill="black"/>
<path d="M76.2138 55.5781H71.875V52.4531H76.2138C76.3771 52.4531 76.5183 52.3394 76.5533 52.18C76.5884 52.0205 76.5091 51.858 76.3611 51.7894L72.3106 49.8919C71.0938 49.3167 70.3163 48.0929 70.3125 46.7471C70.314 44.7215 71.9559 43.0797 73.9815 43.0781H78.125V46.2031H73.9815C73.6809 46.2031 73.4375 46.4465 73.4375 46.7471C73.4398 46.8806 73.5176 47.0019 73.6389 47.0591L77.6894 48.9566C79.1672 49.6447 79.9667 51.2683 79.6127 52.8598C79.258 54.4513 77.8442 55.5819 76.2138 55.5781V55.5781Z" fill="black"/>
<path d="M101.562 79.0156H104.688V81.3594H101.562V79.0156Z" fill="black"/>
<path d="M101.562 92.2969H104.688V94.6406H101.562V92.2969Z" fill="black"/>
<path d="M104.339 93.0781H100V89.9531H104.339C104.503 89.9539 104.644 89.8402 104.68 89.6808C104.716 89.5213 104.636 89.358 104.488 89.2894L100.436 87.3904C99.2187 86.8167 98.4406 85.5929 98.4375 84.2471C98.439 82.2215 100.081 80.5797 102.106 80.5781H106.25V83.7031H102.106C101.806 83.7031 101.562 83.9465 101.562 84.2471C101.564 84.3806 101.642 84.5019 101.762 84.5591L105.814 86.4581C107.29 87.147 108.088 88.7698 107.734 90.3598C107.38 91.9497 105.968 93.0804 104.339 93.0781Z" fill="black"/>
<path d="M45.3125 79.0156H48.4375V81.3594H45.3125V79.0156Z" fill="black"/>
<path d="M45.3125 92.2969H48.4375V94.6406H45.3125V92.2969Z" fill="black"/>
<path d="M48.0888 93.0781H43.75V89.9531H48.0888C48.2544 89.9577 48.3994 89.8456 48.4367 89.6846C48.4749 89.5244 48.3948 89.3588 48.2452 89.2894L44.1856 87.3904C42.9688 86.8167 42.1906 85.5929 42.1875 84.2471C42.189 82.2215 43.8309 80.5797 45.8565 80.5781H50V83.7031H45.8565C45.5559 83.7031 45.3125 83.9465 45.3125 84.2471C45.314 84.3806 45.3918 84.5019 45.5124 84.5591L49.5644 86.4581C51.0399 87.147 51.8379 88.7698 51.4839 90.3598C51.1299 91.9497 49.7177 93.0804 48.0888 93.0781Z" fill="black"/>
<path d="M68.75 75.8906H81.25V79.0156H68.75V75.8906Z" fill="black"/>
<path d="M68.75 82.1406H81.25V85.2656H68.75V82.1406Z" fill="black"/>
<path d="M68.75 88.3906H81.25V91.5156H68.75V88.3906Z" fill="black"/>
<path d="M40.625 44.6406H53.125V47.7656H40.625V44.6406Z" fill="black"/>
<path d="M40.625 50.8906H53.125V54.0156H40.625V50.8906Z" fill="black"/>
<path d="M40.625 57.1406H53.125V60.2656H40.625V57.1406Z" fill="black"/>
<path d="M96.875 44.6406H109.375V47.7656H96.875V44.6406Z" fill="black"/>
<path d="M96.875 50.8906H109.375V54.0156H96.875V50.8906Z" fill="black"/>
<path d="M96.875 57.1406H109.375V60.2656H96.875V57.1406Z" fill="black"/>
<path d="M56.25 19.6406H118.75V22.7656H56.25V19.6406Z" fill="black"/>
<path d="M25 13.3906V108.873L32.6172 112.805L38.6719 109.68L44.7266 112.805L50.7797 109.68L56.8344 112.805L62.8891 109.68L68.9438 112.805L74.9985 109.68L81.0516 112.805L87.1063 109.68L93.161 112.805L99.2157 109.68L105.272 112.805L111.327 109.68L117.383 112.805L125 108.873V13.3906H25ZM121.875 106.97L117.383 109.289L111.327 106.164L105.272 109.289L99.2157 106.164L93.161 109.289L87.1063 106.164L81.0516 109.289L74.9985 106.164L68.9438 109.289L62.8891 106.164L56.8344 109.289L50.7797 106.164L44.7266 109.289L38.6719 106.164L32.6172 109.289L28.125 106.97V29.0156H121.875V106.97ZM121.875 25.8906H28.125V16.5156H121.875V25.8906Z" fill="black"/>
<path d="M87.5 35.2656H62.5V63.3906H87.5V35.2656ZM84.375 60.2656H65.625V38.3906H84.375V60.2656Z" fill="black"/>
<path d="M87.5 66.5156H62.5V100.891H87.5V66.5156ZM84.375 97.7656H65.625V69.6406H84.375V97.7656Z" fill="black"/>
<path d="M115.625 35.2656H90.625V69.6406H115.625V35.2656ZM112.5 66.5156H93.75V38.3906H112.5V66.5156Z" fill="black"/>
<path d="M115.625 72.7656H90.625V100.891H115.625V72.7656ZM112.5 97.7656H93.75V75.8906H112.5V97.7656Z" fill="black"/>
<path d="M59.375 35.2656H34.375V69.6406H59.375V35.2656ZM56.25 66.5156H37.5V38.3906H56.25V66.5156Z" fill="black"/>
<path d="M59.375 72.7656H34.375V100.891H59.375V72.7656ZM56.25 97.7656H37.5V75.8906H56.25V97.7656Z" fill="black"/>
</svg>
