<svg width="221" height="120" viewBox="0 0 221 120" fill="none" xmlns="http://www.w3.org/2000/svg">
<path d="M211.376 35.384L217.964 27.248V24.8H201.332V27.932H213.464L207.128 35.708V38.228H209.144C213.464 38.228 215.372 39.956 215.372 42.62C215.372 45.356 213.212 47.084 209.432 47.084C206.336 47.084 203.528 45.968 201.836 44.384L200.18 47.228C202.304 49.136 205.832 50.288 209.432 50.288C215.84 50.288 218.972 46.832 218.972 42.584C218.972 38.696 216.416 35.852 211.376 35.384Z" fill="#FF936B"/>
<g opacity="0.4">
<rect x="73" y="10" width="4" height="4" rx="2" fill="#FF936B"/>
<rect x="82" y="10" width="4" height="4" rx="2" fill="#FF936B"/>
<rect x="91" y="10" width="4" height="4" rx="2" fill="#FF936B"/>
<rect x="100" y="10" width="4" height="4" rx="2" fill="#FF936B"/>
<rect x="109" y="10" width="4" height="4" rx="2" fill="#FF936B"/>
<rect x="118" y="10" width="4" height="4" rx="2" fill="#FF936B"/>
<rect x="127" y="10" width="4" height="4" rx="2" fill="#FF936B"/>
<rect x="136" y="10" width="4" height="4" rx="2" fill="#FF936B"/>
<rect x="145" y="10" width="4" height="4" rx="2" fill="#FF936B"/>
<rect x="154" y="10" width="4" height="4" rx="2" fill="#FF936B"/>
<rect x="163" y="10" width="4" height="4" rx="2" fill="#FF936B"/>
<rect x="172" y="10" width="4" height="4" rx="2" fill="#FF936B"/>
<rect x="73" width="4" height="4" rx="2" fill="#FF936B"/>
<rect x="82" width="4" height="4" rx="2" fill="#FF936B"/>
<rect x="91" width="4" height="4" rx="2" fill="#FF936B"/>
<rect x="100" width="4" height="4" rx="2" fill="#FF936B"/>
<rect x="109" width="4" height="4" rx="2" fill="#FF936B"/>
<rect x="118" width="4" height="4" rx="2" fill="#FF936B"/>
<rect x="127" width="4" height="4" rx="2" fill="#FF936B"/>
<rect x="136" width="4" height="4" rx="2" fill="#FF936B"/>
<rect x="145" width="4" height="4" rx="2" fill="#FF936B"/>
<rect x="154" width="4" height="4" rx="2" fill="#FF936B"/>
<rect x="163" width="4" height="4" rx="2" fill="#FF936B"/>
<rect x="172" width="4" height="4" rx="2" fill="#FF936B"/>
</g>
<g opacity="0.4">
<rect y="116" width="4" height="4" rx="2" fill="#FF936B"/>
<rect x="9" y="116" width="4" height="4" rx="2" fill="#FF936B"/>
<rect x="18" y="116" width="4" height="4" rx="2" fill="#FF936B"/>
<rect x="27" y="116" width="4" height="4" rx="2" fill="#FF936B"/>
<rect x="36" y="116" width="4" height="4" rx="2" fill="#FF936B"/>
<rect x="45" y="116" width="4" height="4" rx="2" fill="#FF936B"/>
<rect x="54" y="116" width="4" height="4" rx="2" fill="#FF936B"/>
<rect x="63" y="116" width="4" height="4" rx="2" fill="#FF936B"/>
<rect x="72" y="116" width="4" height="4" rx="2" fill="#FF936B"/>
<rect x="81" y="116" width="4" height="4" rx="2" fill="#FF936B"/>
<rect x="90" y="116" width="4" height="4" rx="2" fill="#FF936B"/>
<rect x="99" y="116" width="4" height="4" rx="2" fill="#FF936B"/>
<rect y="106" width="4" height="4" rx="2" fill="#FF936B"/>
<rect x="9" y="106" width="4" height="4" rx="2" fill="#FF936B"/>
<rect x="18" y="106" width="4" height="4" rx="2" fill="#FF936B"/>
<rect x="27" y="106" width="4" height="4" rx="2" fill="#FF936B"/>
<rect x="36" y="106" width="4" height="4" rx="2" fill="#FF936B"/>
<rect x="45" y="106" width="4" height="4" rx="2" fill="#FF936B"/>
<rect x="54" y="106" width="4" height="4" rx="2" fill="#FF936B"/>
<rect x="63" y="106" width="4" height="4" rx="2" fill="#FF936B"/>
<rect x="72" y="106" width="4" height="4" rx="2" fill="#FF936B"/>
<rect x="81" y="106" width="4" height="4" rx="2" fill="#FF936B"/>
<rect x="90" y="106" width="4" height="4" rx="2" fill="#FF936B"/>
<rect x="99" y="106" width="4" height="4" rx="2" fill="#FF936B"/>
</g>
<path d="M83.1797 45.9841L89.8081 39.3564L92.0176 41.5659L85.3892 48.1943L83.1797 45.9841Z" fill="#FF936B"/>
<path d="M89.4023 53.3151L98.4592 50.8882L99.2679 53.9071L90.2111 56.3333L89.4023 53.3151Z" fill="#FF936B"/>
<path d="M75.0391 41.1613L77.466 32.106L80.4842 32.9147L78.058 41.97L75.0391 41.1613Z" fill="#FF936B"/>
<path d="M85.1797 43.9841L91.8081 37.3564L94.0176 39.5659L87.3892 46.1943L85.1797 43.9841Z" fill="black"/>
<path d="M91.4023 51.3151L100.459 48.8882L101.268 51.9071L92.2111 54.3333L91.4023 51.3151Z" fill="black"/>
<path d="M77.0391 39.1613L79.466 30.106L82.4842 30.9147L80.058 39.97L77.0391 39.1613Z" fill="black"/>
<path d="M52 24.2598H55.125V43.0098H52V24.2598Z" fill="black"/>
<path d="M58.25 24.2598H61.375V36.7598H58.25V24.2598Z" fill="black"/>
<path d="M64.5 24.2598H67.625V30.5098H64.5V24.2598Z" fill="black"/>
<path d="M98.875 71.1348H102V89.8848H98.875V71.1348Z" fill="black"/>
<path d="M92.625 77.3848H95.75V89.8848H92.625V77.3848Z" fill="black"/>
<path d="M86.375 83.6348H89.5V89.8848H86.375V83.6348Z" fill="black"/>
<path d="M123.875 99.2597V53.9472C123.87 49.6343 120.375 46.1393 116.062 46.1347H109.812V16.4144L103.786 12.1953L99.3221 15.3203L94.8596 12.1953L90.3934 15.3203L85.931 12.1953L81.467 15.3203L77 12.1953L72.5376 15.3203L68.0721 12.1953L63.6081 15.3203L59.1419 12.1953L54.6779 15.3203L50.2109 12.1953L44.1875 16.4144V46.1347H37.9375C33.6246 46.1393 30.1303 49.6343 30.125 53.9472V99.2597H27V103.947C27.0053 108.259 30.4996 111.754 34.8125 111.76H119.188C123.5 111.754 126.995 108.259 127 103.947V99.2597H123.875ZM109.812 58.6347H112.938V93.0097H109.812V58.6347ZM47.3125 18.0425L50.214 16.0108L54.681 19.1358L59.1457 16.0108L63.6112 19.1358L68.0751 16.0108L72.5406 19.1358L77.0031 16.0108L81.467 19.1358L85.931 16.0108L90.3934 19.1358L94.8596 16.0108L99.3221 19.1358L103.786 16.0108L106.688 18.0425V93.0097H47.3125V18.0425ZM33.25 53.9472C33.25 51.3578 35.3488 49.2597 37.9375 49.2597H44.1875V55.5097H37.9375V96.1347H116.062V55.5097H109.812V49.2597H116.062C118.651 49.2597 120.75 51.3578 120.75 53.9472V99.2597H83.25V100.822C83.25 101.685 82.5504 102.385 81.6875 102.385H72.3125C71.4496 102.385 70.75 101.685 70.75 100.822V99.2597H33.25V53.9472ZM44.1875 58.6347V93.0097H41.0625V58.6347H44.1875ZM123.875 103.947C123.875 106.536 121.776 108.635 119.188 108.635H34.8125C32.2238 108.635 30.125 106.536 30.125 103.947V102.385H67.892C68.5565 104.256 70.3266 105.507 72.3125 105.51H81.6875C83.6734 105.507 85.4435 104.256 86.108 102.385H123.875V103.947Z" fill="black"/>
<path d="M71.919 66.0807L65.2891 59.4516L67.7328 57.0079L72.5141 44.5796L86.7925 58.8572L74.3612 63.634L71.919 66.0807Z" fill="#FF936B"/>
<path d="M92.3998 60.0408L71.3236 38.9707L65.053 55.2686L61.9746 58.3471L54.2422 66.0825L65.2888 77.1299L67.4983 74.9204L73.0235 80.4441C74.8538 82.2751 77.8216 82.2759 79.6534 80.4456C81.4845 78.6153 81.4852 75.6467 79.6549 73.8157L74.1313 68.292L76.108 66.316L92.3998 60.0408ZM65.2888 72.7109L58.6611 66.0825L63.0793 61.6628L69.7093 68.292L65.2888 72.7109ZM77.4424 76.0251C77.8483 76.4173 78.0116 76.9987 77.8681 77.5449C77.7255 78.0912 77.2982 78.5177 76.752 78.6603C76.2057 78.8038 75.6251 78.6405 75.2329 78.2346L69.7077 72.7109L71.9187 70.5091L77.4424 76.0251ZM71.9187 66.081L65.2888 59.4518L67.7325 57.0081L72.5138 44.5798L86.7922 58.8575L74.3609 63.6342L71.9187 66.081Z" fill="black"/>
<path d="M52.0312 72.7109L54.2407 70.5015L60.8707 77.1299L58.6612 79.3394L52.0312 72.7109Z" fill="black"/>
</svg>
