<svg width="36" height="36" viewBox="0 0 36 36" fill="none" xmlns="http://www.w3.org/2000/svg">
<circle cx="18" cy="18" r="18" fill="#333333"/>
<path fill-rule="evenodd" clip-rule="evenodd" d="M15.8205 12.5005C15.8205 12.5005 13.9772 12.4311 11.9886 13.8783C11.9886 13.8783 10 17.2892 10 21.4943C10 21.4943 11.1023 23.382 14.1248 23.4536C14.1248 23.4536 14.5663 22.8754 15.0122 22.3665C13.3143 21.8588 12.6536 20.8434 12.6536 20.8434C12.6536 20.8434 12.8012 20.915 13.0225 21.0603H13.0876C13.1193 21.0603 13.1346 21.0748 13.1508 21.0901L13.1538 21.0929V21.0994C13.1711 21.1168 13.1863 21.1319 13.22 21.1319C16.8294 22.5965 19.8465 22.935 23.2889 20.7674C23.2889 20.7674 22.6271 21.7829 20.8587 22.2906C21.2232 22.7962 21.7353 23.3755 21.7353 23.3755C24.2127 23.3222 25.449 22.0452 25.8512 21.6298C25.9399 21.5382 25.988 21.4885 26 21.503C26 17.3044 23.9995 13.887 23.9995 13.887C22.2116 12.5797 20.5408 12.5211 20.2251 12.5201L20.0233 12.7186C22.307 13.3695 23.4125 14.3861 23.4125 14.3861C17.8651 11.6558 13.2209 13.9304 12.5214 14.273C12.4701 14.2981 12.44 14.3128 12.4323 14.3145C12.4323 14.3145 13.5357 13.2274 15.9691 12.647L15.8205 12.5005ZM20.2316 12.5146L20.2674 12.5016H20.2446L20.2316 12.5146ZM20.4627 20.1913C21.2341 20.1913 21.8622 19.5404 21.8622 18.7376C21.8622 17.9402 21.2373 17.2892 20.4627 17.2892V17.2925C19.6946 17.2925 19.0654 17.9413 19.0632 18.7441C19.0632 19.5404 19.6914 20.1913 20.4627 20.1913ZM16.8522 18.7376C16.8522 19.5404 16.224 20.1913 15.4527 20.1913C14.6813 20.1913 14.0532 19.5404 14.0532 18.7441C14.0532 17.9413 14.6813 17.2925 15.4527 17.2925L15.457 17.2892C16.2284 17.2892 16.8522 17.9402 16.8522 18.7376Z" fill="white"/>
</svg>
