<svg width="60" height="60" viewBox="0 0 60 60" fill="none" xmlns="http://www.w3.org/2000/svg">
<rect width="60" height="60" rx="30" fill="#BDA749"/>
<path d="M30.0025 14.6875H20.2566C19.8873 14.6875 19.5332 14.8342 19.2721 15.0953C19.011 15.3564 18.8643 15.7105 18.8643 16.0798V28.6102H16.0798C15.7105 28.6102 15.3564 28.7569 15.0953 29.018C14.8342 29.2791 14.6875 29.6332 14.6875 30.0025C14.6875 30.3718 14.8342 30.7259 15.0953 30.987C15.3564 31.2481 15.7105 31.3948 16.0798 31.3948H18.8643V43.9252C18.8643 44.2945 19.011 44.6486 19.2721 44.9097C19.5332 45.1708 19.8873 45.3175 20.2566 45.3175H30.0025C34.0643 45.3175 37.9597 43.704 40.8318 40.8318C43.704 37.9597 45.3175 34.0643 45.3175 30.0025C45.3175 25.9407 43.704 22.0453 40.8318 19.1732C37.9597 16.301 34.0643 14.6875 30.0025 14.6875ZM30.0025 42.533H21.6489V31.3948H24.4334C24.8027 31.3948 25.1568 31.2481 25.4179 30.987C25.679 30.7259 25.8257 30.3718 25.8257 30.0025C25.8257 29.6332 25.679 29.2791 25.4179 29.018C25.1568 28.7569 24.8027 28.6102 24.4334 28.6102H21.6489V17.472H30.0025C33.3258 17.472 36.513 18.7922 38.8629 21.1421C41.2128 23.492 42.533 26.6792 42.533 30.0025C42.533 33.3258 41.2128 36.513 38.8629 38.8629C36.513 41.2128 33.3258 42.533 30.0025 42.533Z" fill="white"/>
</svg>
