<svg width="100" height="100" viewBox="0 0 100 100" fill="none" xmlns="http://www.w3.org/2000/svg">
<path d="M6.25 42.1875H3.125V48.4375H6.25C7.97577 48.4375 9.375 47.0383 9.375 45.3125C9.375 43.5867 7.97577 42.1875 6.25 42.1875Z" fill="#FF936B"/>
<path d="M50 48.4375C51.7258 48.4375 53.125 47.0383 53.125 45.3125C53.125 43.5867 51.7258 42.1875 50 42.1875C48.2742 42.1875 46.875 43.5867 46.875 45.3125C46.875 47.0383 48.2742 48.4375 50 48.4375Z" fill="#FF936B"/>
<path d="M28.125 48.4375C29.8508 48.4375 31.25 47.0383 31.25 45.3125C31.25 43.5867 29.8508 42.1875 28.125 42.1875C26.3992 42.1875 25 43.5867 25 45.3125C25 47.0383 26.3992 48.4375 28.125 48.4375Z" fill="#FF936B"/>
<path d="M68.75 45.3125C68.75 47.0383 70.1492 48.4375 71.875 48.4375C73.6008 48.4375 75 47.0383 75 45.3125C75 43.5867 73.6008 42.1875 71.875 42.1875C70.1492 42.1875 68.75 43.5867 68.75 45.3125Z" fill="#FF936B"/>
<path d="M90.625 45.3125C90.625 47.0383 92.0242 48.4375 93.75 48.4375C95.4758 48.4375 96.875 47.0383 96.875 45.3125C96.875 43.5867 95.4758 42.1875 93.75 42.1875C92.0242 42.1875 90.625 43.5867 90.625 45.3125Z" fill="#FF936B"/>
<path d="M93.75 39.0625V21.875H78.125V17.1875C78.125 14.5988 76.0262 12.5 73.4375 12.5H4.6875C2.09885 12.5 0 14.5988 0 17.1875V68.75C0 71.3387 2.09885 73.4375 4.6875 73.4375H29.6875V81.25H21.875C19.2863 81.25 17.1875 83.3488 17.1875 85.9375V90.625H60.9375V85.9375C60.9375 83.3488 58.8387 81.25 56.25 81.25H48.4375V73.4375H73.4375C76.0262 73.4375 78.125 71.3387 78.125 68.75V51.5625H93.75C97.2015 51.5625 100 48.764 100 45.3125C100 41.861 97.2015 39.0625 93.75 39.0625ZM79.6875 25H82.8125V28.125H79.6875V25ZM3.125 17.1875C3.125 16.3246 3.82462 15.625 4.6875 15.625H73.4375C74.3004 15.625 75 16.3246 75 17.1875V21.875H68.75V39.0625H59.375V21.875H34.375V39.0625H25V21.875H3.125V17.1875ZM66.494 48.4375H55.381C56.5399 46.5149 56.5399 44.1101 55.381 42.1875H66.494C65.3351 44.1101 65.3351 46.5149 66.494 48.4375ZM37.5 39.0625V25H42.1875V31.25H51.5625V25H56.25V39.0625H37.5ZM53.125 45.3125C53.125 47.0383 51.7258 48.4375 50 48.4375C48.2742 48.4375 46.875 47.0383 46.875 45.3125C46.875 43.5867 48.2742 42.1875 50 42.1875C51.7258 42.1875 53.125 43.5867 53.125 45.3125ZM44.619 48.4375H33.506C34.6649 46.5149 34.6649 44.1101 33.506 42.1875H44.619C43.4601 44.1101 43.4601 46.5149 44.619 48.4375ZM45.3125 28.125V25H48.4375V28.125H45.3125ZM31.25 45.3125C31.25 47.0383 29.8508 48.4375 28.125 48.4375C26.3992 48.4375 25 47.0383 25 45.3125C25 43.5867 26.3992 42.1875 28.125 42.1875C29.8508 42.1875 31.25 43.5867 31.25 45.3125ZM22.744 48.4375H11.631C12.7899 46.5149 12.7899 44.1101 11.631 42.1875H22.744C21.5851 44.1101 21.5851 46.5149 22.744 48.4375ZM14.0625 25V28.125H10.9375V25H14.0625ZM3.125 25H7.8125V31.25H17.1875V25H21.875V39.0625H3.125V25ZM3.125 42.1875H6.25C7.97577 42.1875 9.375 43.5867 9.375 45.3125C9.375 47.0383 7.97577 48.4375 6.25 48.4375H3.125V42.1875ZM56.25 84.375C57.1129 84.375 57.8125 85.0746 57.8125 85.9375V87.5H20.3125V85.9375C20.3125 85.0746 21.0121 84.375 21.875 84.375H56.25ZM32.8125 81.25V73.4375H45.3125V81.25H32.8125ZM75 68.75C75 69.6129 74.3004 70.3125 73.4375 70.3125H4.6875C3.82462 70.3125 3.125 69.6129 3.125 68.75V60.9375H75V68.75ZM75 57.8125H3.125V51.5625H75V57.8125ZM71.875 48.4375C70.1492 48.4375 68.75 47.0383 68.75 45.3125C68.75 43.5867 70.1492 42.1875 71.875 42.1875C73.6008 42.1875 75 43.5867 75 45.3125C75 47.0383 73.6008 48.4375 71.875 48.4375ZM71.875 39.0625V25H76.5625V31.25H85.9375V25H90.625V39.0625H71.875ZM88.369 48.4375H77.256C78.4149 46.5149 78.4149 44.1101 77.256 42.1875H88.369C87.2101 44.1101 87.2101 46.5149 88.369 48.4375ZM93.75 48.4375C92.0242 48.4375 90.625 47.0383 90.625 45.3125C90.625 43.5867 92.0242 42.1875 93.75 42.1875C95.4758 42.1875 96.875 43.5867 96.875 45.3125C96.875 47.0383 95.4758 48.4375 93.75 48.4375Z" fill="black"/>
<path d="M39.9375 66.0625H46.1875V69.1875H39.9375V66.0625Z" fill="#FF936B"/>
<path d="M85.9375 17.625H100V20.75H85.9375V17.625Z" fill="#FF936B"/>
<path d="M79.6875 11.375H93.75V14.5H79.6875V11.375Z" fill="#FF936B"/>
<path d="M83.25 62.9375H97.3125V66.0625H83.25V62.9375Z" fill="#FF936B"/>
<path d="M85.9375 56.6875H100V59.8125H85.9375V56.6875Z" fill="#FF936B"/>
<path d="M35.9375 64.0625H42.1875V67.1875H35.9375V64.0625Z" fill="black"/>
<path d="M81.9375 15.625H96V18.75H81.9375V15.625Z" fill="black"/>
<path d="M75.6875 9.375H89.75V12.5H75.6875V9.375Z" fill="black"/>
<path d="M79.25 60.9375H93.3125V64.0625H79.25V60.9375Z" fill="black"/>
<path d="M81.9375 54.6875H96V57.8125H81.9375V54.6875Z" fill="black"/>
</svg>
