<svg width="60" height="60" viewBox="0 0 60 60" fill="none" xmlns="http://www.w3.org/2000/svg">
<rect width="60" height="60" rx="30" fill="#3F8DF7"/>
<path d="M20.8499 42.7116C20.1036 42.6498 19.447 43.2044 19.3847 43.9513C19.1384 46.9078 21.0528 48.9838 23.2817 48.9838C27.8446 48.9838 29.3841 42.5346 30.4788 34.7338H34.8174C35.5669 34.7338 36.1746 34.1261 36.1746 33.3766C36.1746 32.6271 35.5669 32.0195 34.8174 32.0195H30.8398C30.9189 31.4006 31.2595 28.6823 31.3542 27.948H34.8174C35.5669 27.948 36.1746 27.3404 36.1746 26.5909C36.1746 25.8414 35.5669 25.2338 34.8174 25.2338H31.7206C32.1277 22.3921 33.3268 13.6981 36.1746 13.6981C36.4401 13.6981 36.6798 13.8121 36.8866 14.0372C37.2515 14.4336 37.4265 15.0728 37.3667 15.7908C37.3046 16.5377 37.8595 17.1937 38.6066 17.256C39.3523 17.3194 40.0094 16.7632 40.0718 16.0162C40.3179 13.0597 38.4037 10.9838 36.1746 10.9838C31.6122 10.9838 30.0729 17.4329 28.9783 25.2338H23.621C22.8715 25.2338 22.2639 25.8414 22.2639 26.5909C22.2639 27.3404 22.8715 27.948 23.621 27.948H28.6173C28.5384 28.5664 28.1976 31.2846 28.103 32.0195H23.621C22.8715 32.0195 22.2639 32.6271 22.2639 33.3766C22.2639 34.1261 22.8715 34.7338 23.621 34.7338H27.7365C27.3264 37.5963 26.1282 46.2695 23.2817 46.2695C23.0162 46.2695 22.7765 46.1555 22.5696 45.9304C22.2047 45.5339 22.0296 44.8947 22.0895 44.1768C22.1519 43.4297 21.5968 42.7738 20.8499 42.7116V42.7116Z" fill="white"/>
</svg>
