<svg width="136" height="41" viewBox="0 0 136 41" fill="none" xmlns="http://www.w3.org/2000/svg">
<path d="M69.1252 21.8974C66.7732 21.8974 64.8562 23.6864 64.8562 26.1504C64.8562 28.5994 66.7732 30.4034 69.1252 30.4034C71.4782 30.4034 73.3952 28.5994 73.3952 26.1504C73.3942 23.6864 71.4772 21.8974 69.1252 21.8974ZM69.1252 28.7294C67.8362 28.7294 66.7252 27.6664 66.7252 26.1514C66.7252 24.6204 67.8372 23.5734 69.1252 23.5734C70.4142 23.5734 71.5252 24.6204 71.5252 26.1514C71.5252 27.6654 70.4142 28.7294 69.1252 28.7294ZM59.8112 21.8974C57.4592 21.8974 55.5422 23.6864 55.5422 26.1504C55.5422 28.5994 57.4592 30.4034 59.8112 30.4034C62.1642 30.4034 64.0812 28.5994 64.0812 26.1504C64.0812 23.6864 62.1642 21.8974 59.8112 21.8974ZM59.8112 28.7294C58.5222 28.7294 57.4112 27.6664 57.4112 26.1514C57.4112 24.6204 58.5232 23.5734 59.8112 23.5734C61.1002 23.5734 62.2112 24.6204 62.2112 26.1514C62.2122 27.6654 61.1002 28.7294 59.8112 28.7294ZM48.7332 23.2034V25.0074H53.0512C52.9222 26.0224 52.5842 26.7634 52.0682 27.2784C51.4402 27.9064 50.4572 28.5994 48.7332 28.5994C46.0752 28.5994 43.9972 26.4564 43.9972 23.7984C43.9972 21.1404 46.0752 18.9974 48.7332 18.9974C50.1672 18.9974 51.2142 19.5614 51.9872 20.2864L53.2602 19.0134C52.1802 17.9824 50.7472 17.1934 48.7332 17.1934C45.0922 17.1934 42.0312 20.1574 42.0312 23.7984C42.0312 27.4394 45.0922 30.4034 48.7332 30.4034C50.6982 30.4034 52.1812 29.7584 53.3403 28.5504C54.5322 27.3584 54.9032 25.6824 54.9032 24.3294C54.9032 23.9114 54.8712 23.5244 54.8062 23.2024H48.7332V23.2034ZM94.0412 24.6044C93.6872 23.6544 92.6072 21.8974 90.4002 21.8974C88.2092 21.8974 86.3882 23.6214 86.3882 26.1504C86.3882 28.5344 88.1932 30.4034 90.6092 30.4034C92.5582 30.4034 93.6862 29.2114 94.1542 28.5184L92.7042 27.5514C92.2212 28.2604 91.5602 28.7274 90.6092 28.7274C89.6592 28.7274 88.9822 28.2924 88.5472 27.4384L94.2342 25.0864L94.0412 24.6044ZM88.2412 26.0224C88.1932 24.3784 89.5142 23.5414 90.4652 23.5414C91.2062 23.5414 91.8342 23.9124 92.0442 24.4434L88.2412 26.0224ZM83.6182 30.1464H85.4862V17.6454H83.6182V30.1464ZM80.5562 22.8484H80.4922C80.0732 22.3484 79.2672 21.8974 78.2532 21.8974C76.1262 21.8974 74.1772 23.7664 74.1772 26.1674C74.1772 28.5514 76.1262 30.4044 78.2532 30.4044C79.2682 30.4044 80.0732 29.9534 80.4922 29.4384H80.5562V30.0504C80.5562 31.6774 79.6862 32.5474 78.2852 32.5474C77.1412 32.5474 76.4322 31.7264 76.1422 31.0334L74.5152 31.7104C74.9822 32.8374 76.2222 34.2234 78.2852 34.2234C80.4762 34.2234 82.3292 32.9344 82.3292 29.7924V22.1564H80.5572V22.8484H80.5562ZM78.4142 28.7294C77.1252 28.7294 76.0462 27.6494 76.0462 26.1674C76.0462 24.6684 77.1252 23.5734 78.4142 23.5734C79.6862 23.5734 80.6852 24.6684 80.6852 26.1674C80.6852 27.6494 79.6862 28.7294 78.4142 28.7294ZM102.795 17.6454H98.3242V30.1464H100.189V25.4104H102.794C104.862 25.4104 106.896 23.9134 106.896 21.5284C106.896 19.1434 104.863 17.6454 102.795 17.6454ZM102.843 23.6704H100.189V19.3854H102.843C104.238 19.3854 105.03 20.5404 105.03 21.5284C105.03 22.4964 104.238 23.6704 102.843 23.6704ZM114.375 21.8754C113.024 21.8754 111.625 22.4704 111.046 23.7894L112.702 24.4804C113.056 23.7894 113.716 23.5634 114.407 23.5634C115.372 23.5634 116.353 24.1424 116.369 25.1714V25.3004C116.031 25.1074 115.307 24.8184 114.423 24.8184C112.638 24.8184 110.82 25.7994 110.82 27.6324C110.82 29.3054 112.284 30.3824 113.924 30.3824C115.178 30.3824 115.87 29.8194 116.304 29.1594H116.368V30.1244H118.17V25.3314C118.171 23.1134 116.513 21.8754 114.375 21.8754ZM114.149 28.7264C113.539 28.7264 112.686 28.4204 112.686 27.6644C112.686 26.6994 113.748 26.3294 114.665 26.3294C115.484 26.3294 115.871 26.5064 116.369 26.7474C116.224 27.9064 115.227 28.7264 114.149 28.7264ZM124.732 22.1484L122.593 27.5684H122.529L120.309 22.1484H118.299L121.628 29.7234L119.73 33.9374H121.676L126.807 22.1484H124.732ZM107.926 30.1464H109.791V17.6454H107.926V30.1464Z" fill="white"/>
<path d="M48.4068 10.3897C48.4068 11.2277 48.1588 11.8947 47.6618 12.3927C47.0978 12.9847 46.3618 13.2807 45.4578 13.2807C44.5918 13.2807 43.8548 12.9807 43.2498 12.3807C42.6438 11.7797 42.3408 11.0357 42.3408 10.1477C42.3408 9.25867 42.6438 8.51467 43.2498 7.91467C43.8548 7.31367 44.5918 7.01367 45.4578 7.01367C45.8878 7.01367 46.2988 7.09767 46.6888 7.26467C47.0798 7.43267 47.3928 7.65567 47.6268 7.93467L47.0998 8.46267C46.7028 7.98767 46.1558 7.75067 45.4568 7.75067C44.8248 7.75067 44.2788 7.97267 43.8178 8.41667C43.3568 8.86067 43.1268 9.43767 43.1268 10.1467C43.1268 10.8557 43.3568 11.4327 43.8178 11.8767C44.2788 12.3207 44.8248 12.5427 45.4568 12.5427C46.1268 12.5427 46.6858 12.3197 47.1328 11.8727C47.4228 11.5817 47.5908 11.1767 47.6358 10.6577H45.4568V9.93667H48.3638C48.3938 10.0937 48.4068 10.2447 48.4068 10.3897Z" fill="white"/>
<path d="M53.0169 7.88373H50.2849V9.78573H52.7489V10.5067H50.2849V12.4087H53.0169V13.1467H49.5139V7.14673H53.0169V7.88373Z" fill="white"/>
<path d="M56.2678 13.1467H55.4968V7.88373H53.8208V7.14673H57.9438V7.88373H56.2678V13.1467Z" fill="white"/>
<path d="M60.9268 13.1467V7.14673H61.6978V13.1467H60.9268Z" fill="white"/>
<path d="M65.1169 13.1467H64.3459V7.88373H62.6699V7.14673H66.7929V7.88373H65.1169V13.1467Z" fill="white"/>
<path d="M74.5977 12.3717C74.0077 12.9777 73.2747 13.2807 72.3977 13.2807C71.5207 13.2807 70.7877 12.9777 70.1987 12.3717C69.6087 11.7657 69.3147 11.0237 69.3147 10.1467C69.3147 9.26972 69.6087 8.52772 70.1987 7.92172C70.7877 7.31572 71.5207 7.01172 72.3977 7.01172C73.2697 7.01172 74.0017 7.31672 74.5937 7.92572C75.1857 8.53472 75.4817 9.27472 75.4817 10.1467C75.4817 11.0237 75.1867 11.7657 74.5977 12.3717ZM70.7677 11.8687C71.2117 12.3187 71.7547 12.5427 72.3977 12.5427C73.0407 12.5427 73.5847 12.3177 74.0277 11.8687C74.4717 11.4187 74.6947 10.8447 74.6947 10.1467C74.6947 9.44872 74.4717 8.87472 74.0277 8.42472C73.5847 7.97472 73.0407 7.75072 72.3977 7.75072C71.7547 7.75072 71.2117 7.97572 70.7677 8.42472C70.3247 8.87472 70.1017 9.44872 70.1017 10.1467C70.1017 10.8447 70.3247 11.4187 70.7677 11.8687Z" fill="white"/>
<path d="M76.5637 13.1467V7.14673H77.5017L80.4177 11.8137H80.4507L80.4177 10.6577V7.14673H81.1887V13.1467H80.3837L77.3327 8.25273H77.2997L77.3327 9.40873V13.1467H76.5637Z" fill="white"/>
<path d="M48.4068 10.3897C48.4068 11.2277 48.1588 11.8947 47.6618 12.3927C47.0978 12.9847 46.3618 13.2807 45.4578 13.2807C44.5918 13.2807 43.8548 12.9807 43.2498 12.3807C42.6438 11.7797 42.3408 11.0357 42.3408 10.1477C42.3408 9.25867 42.6438 8.51467 43.2498 7.91467C43.8548 7.31367 44.5918 7.01367 45.4578 7.01367C45.8878 7.01367 46.2988 7.09767 46.6888 7.26467C47.0798 7.43267 47.3928 7.65567 47.6268 7.93467L47.0998 8.46267C46.7028 7.98767 46.1558 7.75067 45.4568 7.75067C44.8248 7.75067 44.2788 7.97267 43.8178 8.41667C43.3568 8.86067 43.1268 9.43767 43.1268 10.1467C43.1268 10.8557 43.3568 11.4327 43.8178 11.8767C44.2788 12.3207 44.8248 12.5427 45.4568 12.5427C46.1268 12.5427 46.6858 12.3197 47.1328 11.8727C47.4228 11.5817 47.5908 11.1767 47.6358 10.6577H45.4568V9.93667H48.3638C48.3938 10.0937 48.4068 10.2447 48.4068 10.3897Z" stroke="white" stroke-width="0.194961" stroke-miterlimit="10"/>
<path d="M53.0169 7.88373H50.2849V9.78573H52.7489V10.5067H50.2849V12.4087H53.0169V13.1467H49.5139V7.14673H53.0169V7.88373Z" stroke="white" stroke-width="0.194961" stroke-miterlimit="10"/>
<path d="M56.2678 13.1467H55.4968V7.88373H53.8208V7.14673H57.9438V7.88373H56.2678V13.1467Z" stroke="white" stroke-width="0.194961" stroke-miterlimit="10"/>
<path d="M60.9268 13.1467V7.14673H61.6978V13.1467H60.9268Z" stroke="white" stroke-width="0.194961" stroke-miterlimit="10"/>
<path d="M65.1169 13.1467H64.3459V7.88373H62.6699V7.14673H66.7929V7.88373H65.1169V13.1467Z" stroke="white" stroke-width="0.194961" stroke-miterlimit="10"/>
<path d="M74.5977 12.3717C74.0077 12.9777 73.2747 13.2807 72.3977 13.2807C71.5207 13.2807 70.7877 12.9777 70.1987 12.3717C69.6087 11.7657 69.3147 11.0237 69.3147 10.1467C69.3147 9.26972 69.6087 8.52772 70.1987 7.92172C70.7877 7.31572 71.5207 7.01172 72.3977 7.01172C73.2697 7.01172 74.0017 7.31672 74.5937 7.92572C75.1857 8.53472 75.4817 9.27472 75.4817 10.1467C75.4817 11.0237 75.1867 11.7657 74.5977 12.3717ZM70.7677 11.8687C71.2117 12.3187 71.7547 12.5427 72.3977 12.5427C73.0407 12.5427 73.5847 12.3177 74.0277 11.8687C74.4717 11.4187 74.6947 10.8447 74.6947 10.1467C74.6947 9.44872 74.4717 8.87472 74.0277 8.42472C73.5847 7.97472 73.0407 7.75072 72.3977 7.75072C71.7547 7.75072 71.2117 7.97572 70.7677 8.42472C70.3247 8.87472 70.1017 9.44872 70.1017 10.1467C70.1017 10.8447 70.3247 11.4187 70.7677 11.8687Z" stroke="white" stroke-width="0.194961" stroke-miterlimit="10"/>
<path d="M76.5637 13.1467V7.14673H77.5017L80.4177 11.8137H80.4507L80.4177 10.6577V7.14673H81.1887V13.1467H80.3837L77.3327 8.25273H77.2997L77.3327 9.40873V13.1467H76.5637Z" stroke="white" stroke-width="0.194961" stroke-miterlimit="10"/>
<g filter="url(#filter0_ii_4_961)">
<path d="M11.4249 7.68482C11.1339 7.99282 10.9619 8.47082 10.9619 9.08982V31.2058C10.9619 31.8258 11.1339 32.3028 11.4249 32.6108L11.4989 32.6828L23.8879 20.2938V20.1478V20.0018L11.4989 7.61182L11.4249 7.68482Z" fill="url(#paint0_linear_4_961)"/>
<path d="M28.0167 24.4248L23.8877 20.2938V20.1478V20.0018L28.0177 15.8718L28.1107 15.9248L33.0037 18.7048C34.4007 19.4988 34.4007 20.7978 33.0037 21.5928L28.1107 24.3728L28.0167 24.4248Z" fill="url(#paint1_linear_4_961)"/>
<g filter="url(#filter1_i_4_961)">
<path d="M28.1108 24.3715L23.8868 20.1475L11.4248 32.6105C11.8848 33.0985 12.6458 33.1585 13.5028 32.6725L28.1108 24.3715Z" fill="url(#paint2_linear_4_961)"/>
</g>
<path d="M28.1108 15.9237L13.5028 7.62367C12.6458 7.13667 11.8848 7.19767 11.4248 7.68567L23.8878 20.1487L28.1108 15.9237Z" fill="url(#paint3_linear_4_961)"/>
</g>
<rect x="1.48926" y="0.646484" width="134" height="39" rx="4.5" stroke="white"/>
<defs>
<filter id="filter0_ii_4_961" x="10.9619" y="7.2876" width="23.0898" height="25.7205" filterUnits="userSpaceOnUse" color-interpolation-filters="sRGB">
<feFlood flood-opacity="0" result="BackgroundImageFix"/>
<feBlend mode="normal" in="SourceGraphic" in2="BackgroundImageFix" result="shape"/>
<feColorMatrix in="SourceAlpha" type="matrix" values="0 0 0 0 0 0 0 0 0 0 0 0 0 0 0 0 0 0 127 0" result="hardAlpha"/>
<feOffset dy="-0.146221"/>
<feComposite in2="hardAlpha" operator="arithmetic" k2="-1" k3="1"/>
<feColorMatrix type="matrix" values="0 0 0 0 0 0 0 0 0 0 0 0 0 0 0 0 0 0 0.12 0"/>
<feBlend mode="normal" in2="shape" result="effect1_innerShadow_4_961"/>
<feColorMatrix in="SourceAlpha" type="matrix" values="0 0 0 0 0 0 0 0 0 0 0 0 0 0 0 0 0 0 127 0" result="hardAlpha"/>
<feOffset dy="0.146221"/>
<feComposite in2="hardAlpha" operator="arithmetic" k2="-1" k3="1"/>
<feColorMatrix type="matrix" values="0 0 0 0 1 0 0 0 0 1 0 0 0 0 1 0 0 0 0.25 0"/>
<feBlend mode="normal" in2="effect1_innerShadow_4_961" result="effect2_innerShadow_4_961"/>
</filter>
<filter id="filter1_i_4_961" x="11.4248" y="20.1475" width="16.6855" height="12.8606" filterUnits="userSpaceOnUse" color-interpolation-filters="sRGB">
<feFlood flood-opacity="0" result="BackgroundImageFix"/>
<feBlend mode="normal" in="SourceGraphic" in2="BackgroundImageFix" result="shape"/>
<feColorMatrix in="SourceAlpha" type="matrix" values="0 0 0 0 0 0 0 0 0 0 0 0 0 0 0 0 0 0 127 0" result="hardAlpha"/>
<feOffset dy="-0.146221"/>
<feComposite in2="hardAlpha" operator="arithmetic" k2="-1" k3="1"/>
<feColorMatrix type="matrix" values="0 0 0 0 0 0 0 0 0 0 0 0 0 0 0 0 0 0 0.08 0"/>
<feBlend mode="normal" in2="shape" result="effect1_innerShadow_4_961"/>
</filter>
<linearGradient id="paint0_linear_4_961" x1="22.7897" y1="8.85582" x2="6.00771" y2="25.6378" gradientUnits="userSpaceOnUse">
<stop stop-color="#00A0FF"/>
<stop offset="0.0066" stop-color="#00A1FF"/>
<stop offset="0.2601" stop-color="#00BEFF"/>
<stop offset="0.5122" stop-color="#00D2FF"/>
<stop offset="0.7604" stop-color="#00DFFF"/>
<stop offset="1" stop-color="#00E3FF"/>
</linearGradient>
<linearGradient id="paint1_linear_4_961" x1="34.8222" y1="20.1478" x2="10.6263" y2="20.1478" gradientUnits="userSpaceOnUse">
<stop stop-color="#FFE000"/>
<stop offset="0.4087" stop-color="#FFBD00"/>
<stop offset="0.7754" stop-color="#FFA500"/>
<stop offset="1" stop-color="#FF9C00"/>
</linearGradient>
<linearGradient id="paint2_linear_4_961" x1="25.8169" y1="22.4414" x2="3.05841" y2="45.1999" gradientUnits="userSpaceOnUse">
<stop stop-color="#FF3A44"/>
<stop offset="1" stop-color="#C31162"/>
</linearGradient>
<linearGradient id="paint3_linear_4_961" x1="8.2862" y1="0.323473" x2="18.4485" y2="10.4858" gradientUnits="userSpaceOnUse">
<stop stop-color="#32A071"/>
<stop offset="0.0685" stop-color="#2DA771"/>
<stop offset="0.4762" stop-color="#15CF74"/>
<stop offset="0.8009" stop-color="#06E775"/>
<stop offset="1" stop-color="#00F076"/>
</linearGradient>
</defs>
</svg>
