<svg width="36" height="36" viewBox="0 0 36 36" fill="none" xmlns="http://www.w3.org/2000/svg">
<circle opacity="0.1" cx="18" cy="18" r="18" fill="#333333"/>
<path fill-rule="evenodd" clip-rule="evenodd" d="M21.118 10.2857H14.882C12.3476 10.2857 10.2857 12.3476 10.2857 14.882V21.118C10.2857 23.6524 12.3476 25.7143 14.882 25.7143H21.118C23.6524 25.7143 25.7143 23.6524 25.7143 21.118V14.882C25.7142 12.3476 23.6524 10.2857 21.118 10.2857ZM24.162 21.118C24.162 22.7993 22.7991 24.1622 21.1179 24.1622H14.8818C13.2006 24.1622 11.8377 22.7993 11.8377 21.118V14.882C11.8377 13.2007 13.2006 11.8378 14.8818 11.8378H21.1179C22.7991 11.8378 24.162 13.2007 24.162 14.882V21.118ZM14.0097 18C14.0097 15.7997 15.7998 14.0096 18.0001 14.0096C20.2004 14.0096 21.9905 15.7997 21.9905 18C21.9905 20.2003 20.2004 21.9903 18.0001 21.9903C15.7998 21.9903 14.0097 20.2002 14.0097 18ZM17.9999 20.4383C16.6533 20.4383 15.5617 19.3466 15.5617 18C15.5617 16.6534 16.6533 15.5617 17.9999 15.5617C19.3466 15.5617 20.4382 16.6534 20.4382 18C20.4382 19.3466 19.3465 20.4383 17.9999 20.4383ZM21.9983 14.9957C22.5264 14.9957 22.9545 14.5676 22.9545 14.0396C22.9545 13.5115 22.5264 13.0834 21.9983 13.0834C21.4702 13.0834 21.0421 13.5115 21.0421 14.0396C21.0421 14.5676 21.4702 14.9957 21.9983 14.9957Z" fill="#333333"/>
</svg>
