<svg width="36" height="36" viewBox="0 0 36 36" fill="none" xmlns="http://www.w3.org/2000/svg">
<circle cx="18" cy="18" r="18" fill="#333333"/>
<path fill-rule="evenodd" clip-rule="evenodd" d="M21.118 10.2856H14.882C12.3476 10.2856 10.2857 12.3475 10.2857 14.8819V21.118C10.2857 23.6523 12.3476 25.7142 14.882 25.7142H21.118C23.6524 25.7142 25.7143 23.6523 25.7143 21.118V14.8819C25.7142 12.3475 23.6524 10.2856 21.118 10.2856ZM24.162 21.118C24.162 22.7992 22.7991 24.1621 21.1179 24.1621H14.8818C13.2006 24.1621 11.8377 22.7992 11.8377 21.118V14.8819C11.8377 13.2007 13.2006 11.8378 14.8818 11.8378H21.1179C22.7991 11.8378 24.162 13.2007 24.162 14.8819V21.118ZM14.0097 17.9999C14.0097 15.7996 15.7998 14.0095 18.0001 14.0095C20.2004 14.0095 21.9905 15.7996 21.9905 17.9999C21.9905 20.2002 20.2004 21.9903 18.0001 21.9903C15.7998 21.9903 14.0097 20.2002 14.0097 17.9999ZM17.9999 20.4382C16.6533 20.4382 15.5617 19.3466 15.5617 17.9999C15.5617 16.6533 16.6533 15.5617 17.9999 15.5617C19.3466 15.5617 20.4382 16.6533 20.4382 17.9999C20.4382 19.3465 19.3465 20.4382 17.9999 20.4382ZM21.9983 14.9957C22.5264 14.9957 22.9545 14.5676 22.9545 14.0395C22.9545 13.5114 22.5264 13.0833 21.9983 13.0833C21.4702 13.0833 21.0421 13.5114 21.0421 14.0395C21.0421 14.5676 21.4702 14.9957 21.9983 14.9957Z" fill="white"/>
</svg>
