<svg width="60" height="60" viewBox="0 0 60 60" fill="none" xmlns="http://www.w3.org/2000/svg">
<rect width="60" height="60" rx="30" fill="#57BDB7"/>
<path d="M36.5309 11.6564C35.82 11.27 35.0046 11.1831 34.2345 11.4119C32.632 11.8882 31.716 13.5933 32.1925 15.2131C32.5904 16.565 33.8186 17.4154 35.1128 17.4154C36.187 17.4154 37.2262 16.8432 37.7756 15.817C38.5726 14.3285 38.0199 12.4657 36.5309 11.6564V11.6564Z" fill="white"/>
<path d="M47.1862 24.7257C47.1161 22.2478 44.0962 21.0965 42.4208 22.8964C40.7758 24.663 42.0171 27.5883 44.4307 27.5883C45.9822 27.5884 47.2307 26.2912 47.1862 24.7257Z" fill="white"/>
<path d="M36.5644 19.3423C34.2699 20.0179 33.945 23.1801 36.063 24.3309C38.1598 25.4705 40.5883 23.4871 39.9121 21.1889C39.4892 19.7521 37.9873 18.9243 36.5644 19.3423Z" fill="white"/>
<path d="M39.5943 31.2707C39.6185 32.3582 40.5094 33.2202 41.5889 33.2202C42.7203 33.2202 43.6238 32.2846 43.5916 31.1663C43.5598 30.0634 42.6399 29.196 41.5364 29.2217C40.4411 29.2524 39.5698 30.1715 39.5943 31.2707Z" fill="white"/>
<path d="M37.0525 29.9229C38.1189 29.6001 38.7171 28.4666 38.3844 27.3982C37.8669 25.7366 35.5719 25.4505 34.7205 27.0255C33.8663 28.6057 35.361 30.4357 37.0525 29.9229V29.9229Z" fill="white"/>
<path d="M39.7182 35.2933C39.6991 34.4821 39.0302 33.8145 38.1908 33.8317C36.8522 33.8632 36.2373 35.509 37.1964 36.4202C38.1548 37.3307 39.7497 36.6262 39.7182 35.2933Z" fill="white"/>
<path d="M33.6586 31.6173C32.8448 31.8569 32.3778 32.7167 32.6176 33.5341C33.0005 34.8384 34.7829 35.0549 35.445 33.8479C36.1052 32.6436 34.9711 31.2311 33.6586 31.6173V31.6173Z" fill="white"/>
<path d="M11.9118 33.1086C10.8811 34.4285 11.0822 36.3542 12.4196 37.3929C13.7386 38.4172 15.6585 38.1717 16.6988 36.8394C17.7376 35.5095 17.5146 33.5944 16.1902 32.5603C14.8715 31.5305 12.952 31.7762 11.9118 33.1086V33.1086Z" fill="white"/>
<path d="M15.6985 19.1117C14.4763 20.0408 14.2305 21.7814 15.1505 22.9919C16.6267 24.9337 19.7622 24.1171 20.1129 21.6734C20.4622 19.2393 17.6722 17.6115 15.6985 19.1117V19.1117Z" fill="white"/>
<path d="M17.0631 27.0863C16.1413 28.2669 16.3424 29.9701 17.5114 30.8831C19.3978 32.3566 22.1567 30.7791 21.8589 28.3859C21.5641 26.0179 18.5382 25.1981 17.0631 27.0863V27.0863Z" fill="white"/>
<path d="M23.032 18.2825C22.154 18.9506 21.9816 20.2082 22.6481 21.0859C23.709 22.4826 25.9776 21.9213 26.2217 20.1497C26.4643 18.3892 24.4403 17.2109 23.032 18.2825V18.2825Z" fill="white"/>
<path d="M25.8293 24.3238C24.9458 23.6448 23.6762 23.8184 23.0011 24.7112C22.02 26.0091 22.9146 27.9226 24.5802 27.9226C25.1889 27.9226 25.7911 27.6491 26.1901 27.1213C26.8546 26.2421 26.6926 24.9872 25.8293 24.3238Z" fill="white"/>
<path d="M28.6408 19.0285C27.9807 19.5254 27.8466 20.4651 28.3419 21.1233C29.1416 22.1854 30.8434 21.7458 31.0273 20.4234C31.2096 19.112 29.7068 18.2256 28.6408 19.0285Z" fill="white"/>
<path d="M29.9539 23.3447C29.1015 23.4478 28.5017 24.2233 28.6005 25.0637C28.7619 26.436 30.5049 26.901 31.3457 25.826C32.1885 24.7487 31.312 23.183 29.9539 23.3447V23.3447Z" fill="white"/>
<path d="M41.9668 43.9268C43.6491 44.1352 45.1791 42.9505 45.3801 41.2879C45.5805 39.6281 44.3803 38.1094 42.7048 37.9027C41.0274 37.6948 39.5019 38.8742 39.2963 40.5394C39.0911 42.2 40.2891 43.7196 41.9668 43.9268Z" fill="white"/>
<path d="M26.4514 44.2803C25.7253 46.0944 27.0928 48.0773 29.0547 48.0773C30.136 48.0773 31.1849 47.4406 31.6216 46.3495C32.19 44.9292 31.4827 43.3239 30.0611 42.7551C28.6356 42.1837 27.0177 42.8657 26.4514 44.2803Z" fill="white"/>
<path d="M31.7929 39.6062C31.6015 41.1933 32.8475 42.6266 34.4962 42.6266C35.8433 42.6266 37.0103 41.6347 37.1789 40.2684C37.4721 37.895 34.6997 36.3386 32.8014 37.8241C32.2363 38.2663 31.878 38.8991 31.7929 39.6062V39.6062Z" fill="white"/>
<path d="M23.5273 42.0141C24.5869 42.4364 25.7089 41.9631 26.1336 40.9035C26.7893 39.2669 25.1263 37.623 23.4918 38.3203C21.9278 38.9877 21.7854 41.3195 23.5273 42.0141V42.0141Z" fill="white"/>
<path d="M27.2751 36.5095C27.1473 37.6165 27.9493 38.6161 29.0617 38.7357C30.1431 38.8517 31.1322 38.0723 31.2733 37.0051C31.4153 35.9307 30.636 34.8847 29.4886 34.7613C28.3921 34.6412 27.4001 35.4279 27.2751 36.5095Z" fill="white"/>
<path d="M21.2544 34.0539C20.0354 34.5723 20.0452 36.3185 21.2856 36.8219C21.6464 36.9682 22.0513 36.9735 22.4269 36.8176C23.6536 36.3084 23.6543 34.552 22.4079 34.0449C22.0345 33.8932 21.6248 33.8963 21.2544 34.0539V34.0539Z" fill="white"/>
<path d="M25.7251 31.0043C24.3663 30.8376 23.4767 32.3966 24.313 33.4737C25.1532 34.5559 26.9008 34.0905 27.07 32.7218C27.1738 31.8801 26.5708 31.1096 25.7251 31.0043Z" fill="white"/>
</svg>
