<svg width="101" height="100" viewBox="0 0 101 100" fill="none" xmlns="http://www.w3.org/2000/svg">
<path d="M50.3232 86.5C70.4816 86.5 86.8232 70.1584 86.8232 50C86.8232 29.8416 70.4816 13.5 50.3232 13.5C30.1648 13.5 13.8232 29.8416 13.8232 50C13.8232 70.1584 30.1648 86.5 50.3232 86.5Z" fill="url(#paint0_linear_2_1598)"/>
<path d="M23.1533 19.1279C23.1533 19.1279 32.4323 29.9549 42.0473 30.9999C49.2133 31.7789 51.0153 31.6699 53.0583 32.2449" stroke="#202127" stroke-width="1.2" stroke-miterlimit="10" stroke-linecap="round" stroke-linejoin="round"/>
<path d="M11.0254 52.446C33.2384 66.042 45.5504 73.443 55.2374 74.422C63.0914 75.216 63.5574 70.446 63.5574 70.446" stroke="#202127" stroke-width="1.2" stroke-miterlimit="10" stroke-linecap="round" stroke-linejoin="round"/>
<path d="M75.7497 18.2339C75.7497 18.2339 67.0527 27.9969 60.0097 29.8409C52.9667 31.6859 44.8917 34.9659 38.6007 45.4889C35.0897 51.3609 40.5207 54.9759 45.3027 51.2339C48.2387 48.9359 51.8137 47.5959 56.2817 48.2979C60.3727 48.9409 63.3667 49.2549 66.3667 48.0429" stroke="#202127" stroke-width="1.2" stroke-miterlimit="10" stroke-linecap="round" stroke-linejoin="round"/>
<path d="M51.1739 73.8291C43.8339 82.0631 38.0889 74.2121 41.5999 70.3181C37.2599 74.4031 30.5569 71.1481 33.4379 66.2051C28.8969 68.7861 23.9829 64.7011 25.3229 61.3821" stroke="#202127" stroke-width="1.2" stroke-miterlimit="10" stroke-linecap="round" stroke-linejoin="round"/>
<path d="M93.5572 47.2759C93.5572 47.2759 85.2412 54.2979 79.3232 57.6159" stroke="#202127" stroke-width="1.2" stroke-miterlimit="10" stroke-linecap="round" stroke-linejoin="round"/>
<path d="M61.5786 49C61.5786 49 69.0066 54.521 76.3236 56.468C83.2806 58.319 80.4476 65.815 73.6276 64.92C66.8086 64.026 62.3366 62.125 57.6416 59.219" stroke="#202127" stroke-width="1.2" stroke-miterlimit="10" stroke-linecap="round" stroke-linejoin="round"/>
<path d="M51.1572 65.1439C51.1572 65.1439 59.2082 70.4459 66.6962 70.6219C72.8122 70.7659 72.0622 64.9209 72.0622 64.9209" stroke="#202127" stroke-width="1.2" stroke-miterlimit="10" stroke-linecap="round" stroke-linejoin="round"/>
<defs>
<linearGradient id="paint0_linear_2_1598" x1="-22.6768" y1="50" x2="50.3232" y2="123" gradientUnits="userSpaceOnUse">
<stop stop-color="#FBCF33"/>
<stop offset="1" stop-color="#F53939"/>
</linearGradient>
</defs>
</svg>
