<svg width="195" height="130" viewBox="0 0 195 130" fill="none" xmlns="http://www.w3.org/2000/svg">
<g opacity="0.6">
<rect x="91" y="93" width="4" height="4" rx="2" fill="#FF936B"/>
<rect x="100" y="93" width="4" height="4" rx="2" fill="#FF936B"/>
<rect x="109" y="93" width="4" height="4" rx="2" fill="#FF936B"/>
<rect x="118" y="93" width="4" height="4" rx="2" fill="#FF936B"/>
<rect x="127" y="93" width="4" height="4" rx="2" fill="#FF936B"/>
<rect x="136" y="93" width="4" height="4" rx="2" fill="#FF936B"/>
<rect x="145" y="93" width="4" height="4" rx="2" fill="#FF936B"/>
<rect x="154" y="93" width="4" height="4" rx="2" fill="#FF936B"/>
<rect x="163" y="93" width="4" height="4" rx="2" fill="#FF936B"/>
<rect x="172" y="93" width="4" height="4" rx="2" fill="#FF936B"/>
<rect x="181" y="93" width="4" height="4" rx="2" fill="#FF936B"/>
<rect x="190" y="93" width="4" height="4" rx="2" fill="#FF936B"/>
<rect x="71" y="101" width="4" height="4" rx="2" fill="#FF936B"/>
<rect x="80" y="101" width="4" height="4" rx="2" fill="#FF936B"/>
<rect x="89" y="101" width="4" height="4" rx="2" fill="#FF936B"/>
<rect x="98" y="101" width="4" height="4" rx="2" fill="#FF936B"/>
<rect x="107" y="101" width="4" height="4" rx="2" fill="#FF936B"/>
<rect x="116" y="101" width="4" height="4" rx="2" fill="#FF936B"/>
<rect x="125" y="101" width="4" height="4" rx="2" fill="#FF936B"/>
<rect x="134" y="101" width="4" height="4" rx="2" fill="#FF936B"/>
<rect x="143" y="101" width="4" height="4" rx="2" fill="#FF936B"/>
<rect x="152" y="101" width="4" height="4" rx="2" fill="#FF936B"/>
<rect x="161" y="101" width="4" height="4" rx="2" fill="#FF936B"/>
<rect x="170" y="101" width="4" height="4" rx="2" fill="#FF936B"/>
</g>
<g opacity="0.6">
<rect x="21" y="48" width="4" height="4" rx="2" fill="#FF936B"/>
<rect x="30" y="48" width="4" height="4" rx="2" fill="#FF936B"/>
<rect x="39" y="48" width="4" height="4" rx="2" fill="#FF936B"/>
<rect x="48" y="48" width="4" height="4" rx="2" fill="#FF936B"/>
<rect x="57" y="48" width="4" height="4" rx="2" fill="#FF936B"/>
<rect x="66" y="48" width="4" height="4" rx="2" fill="#FF936B"/>
<rect x="75" y="48" width="4" height="4" rx="2" fill="#FF936B"/>
<rect x="84" y="48" width="4" height="4" rx="2" fill="#FF936B"/>
<rect x="93" y="48" width="4" height="4" rx="2" fill="#FF936B"/>
<rect x="102" y="48" width="4" height="4" rx="2" fill="#FF936B"/>
<rect x="111" y="48" width="4" height="4" rx="2" fill="#FF936B"/>
<rect x="120" y="48" width="4" height="4" rx="2" fill="#FF936B"/>
<rect x="1" y="56" width="4" height="4" rx="2" fill="#FF936B"/>
<rect x="10" y="56" width="4" height="4" rx="2" fill="#FF936B"/>
<rect x="19" y="56" width="4" height="4" rx="2" fill="#FF936B"/>
<rect x="28" y="56" width="4" height="4" rx="2" fill="#FF936B"/>
<rect x="37" y="56" width="4" height="4" rx="2" fill="#FF936B"/>
<rect x="46" y="56" width="4" height="4" rx="2" fill="#FF936B"/>
<rect x="55" y="56" width="4" height="4" rx="2" fill="#FF936B"/>
<rect x="64" y="56" width="4" height="4" rx="2" fill="#FF936B"/>
<rect x="73" y="56" width="4" height="4" rx="2" fill="#FF936B"/>
<rect x="82" y="56" width="4" height="4" rx="2" fill="#FF936B"/>
<rect x="91" y="56" width="4" height="4" rx="2" fill="#FF936B"/>
<rect x="100" y="56" width="4" height="4" rx="2" fill="#FF936B"/>
</g>
<path d="M75.3125 81.9968H69.0625V78.8718H75.3125C76.1754 78.8718 76.875 78.1721 76.875 77.3093C76.875 76.4464 76.1754 75.7468 75.3125 75.7468H72.1875C69.5988 75.7468 67.5 73.6479 67.5 71.0593C67.5 68.4706 69.5988 66.3718 72.1875 66.3718H78.4375V69.4968H72.1875C71.3246 69.4968 70.625 70.1964 70.625 71.0593C70.625 71.9221 71.3246 72.6218 72.1875 72.6218H75.3125C77.9012 72.6218 80 74.7206 80 77.3093C80 79.8979 77.9012 81.9968 75.3125 81.9968Z" fill="#FF936B"/>
<path d="M72.1875 64.8093H75.3125V83.5593H72.1875V64.8093Z" fill="#FF936B"/>
<path d="M103.354 43.8048L129.964 28.8138L103.318 15L106.464 28.8863L103.354 43.8048ZM109.311 27.3093L107.853 20.8685L123.395 28.9297L107.812 37.7028L109.333 30.4343H114.375V27.3093H109.311Z" fill="black"/>
<path d="M123.75 102.309V56.9968C123.745 52.6846 120.25 49.1896 115.938 49.1843H83.125V52.3093H115.938C118.526 52.3093 120.625 54.4081 120.625 56.9968V102.309H115.938V61.6843C115.938 59.0956 113.839 56.9968 111.25 56.9968H87.2609C86.4453 56.3521 85.5855 55.7646 84.6875 55.239C76.9437 50.7857 67.2719 51.4815 60.2452 56.9968H48.75C46.1613 56.9968 44.0625 59.0956 44.0625 61.6843V102.309H39.375V56.9968C39.375 54.4081 41.4738 52.3093 44.0625 52.3093H61.25V49.1843H44.0625C39.7496 49.1896 36.2553 52.6846 36.25 56.9968V102.309H30V106.997C30.0053 111.31 33.4996 114.804 37.8125 114.809H122.188C126.5 114.804 129.995 111.31 130 106.997V102.309H123.75ZM111.25 60.1218C112.113 60.1218 112.812 60.8214 112.812 61.6843V87.7158L102.012 81.481L100.45 84.1872L94.6019 80.8112C96.9113 73.6754 95.374 65.8522 90.5347 60.1218H111.25ZM112.812 91.3252V102.153L98.47 93.8719L103.158 85.7466L112.812 91.3252ZM68.8969 56.0736C73.6996 54.772 78.8228 55.4465 83.125 57.9466C91.0886 62.6006 94.5203 72.3288 91.2389 80.9485L90.7544 82.1982L98.8797 86.8941L97.3172 89.6002L89.1919 84.9028L88.3534 85.9488C82.211 93.5828 71.2262 95.2002 63.1436 89.6605C55.0618 84.1208 52.6082 73.2916 57.5124 64.8093C59.9873 60.4933 64.0874 57.347 68.8969 56.0736V56.0736ZM47.1875 61.6843C47.1875 60.8214 47.8871 60.1218 48.75 60.1218H57.0203C49.5312 69.2496 50.6367 82.6743 59.5197 90.4532C68.4018 98.2321 81.8547 97.5584 89.9159 88.9311L95.7623 92.3064L94.1998 95.0125L106.839 102.309H86.25V103.872C86.25 104.735 85.5504 105.434 84.6875 105.434H75.3125C74.4496 105.434 73.75 104.735 73.75 103.872V102.309H47.1875V61.6843ZM126.875 106.997C126.875 109.585 124.776 111.684 122.188 111.684H37.8125C35.2238 111.684 33.125 109.585 33.125 106.997V105.434H70.892C71.5565 107.306 73.3266 108.557 75.3125 108.559H84.6875C86.6734 108.557 88.4435 107.306 89.108 105.434H126.875V106.997Z" fill="black"/>
<path d="M65.9375 87.7158C68.3003 89.086 70.9828 89.8085 73.7142 89.8093C75.0913 89.8085 76.4623 89.627 77.7921 89.2691C84.9927 87.3412 89.829 80.5945 89.343 73.1559C88.857 65.718 83.1838 59.6587 75.7932 58.6844C68.4026 57.7102 61.353 62.0925 58.9558 69.1512C56.5587 76.2099 59.4823 83.9782 65.9375 87.7066V87.7158ZM62.9247 67.9343C66.377 61.9559 74.0216 59.9074 80.0008 63.359C85.9792 66.8113 88.0277 74.4559 84.5754 80.4343C81.1238 86.4135 73.4784 88.4612 67.5 85.0096C61.5216 81.5573 59.4731 73.9127 62.9247 67.9343V67.9343Z" fill="black"/>
<path d="M80 33.5593H89.375V36.6843H80V33.5593Z" fill="black"/>
<path d="M89.375 21.0593H98.75V24.1843H89.375V21.0593Z" fill="black"/>
<path d="M65.9375 39.8093H69.0625V49.1843H65.9375V39.8093Z" fill="black"/>
<path d="M75.3125 35.1218C75.3125 32.5331 77.4113 30.4343 80 30.4343H101.875V27.3093H80C75.6871 27.3146 72.1928 30.8096 72.1875 35.1218V49.1843H75.3125V35.1218Z" fill="black"/>
</svg>
