<svg width="51" height="50" viewBox="0 0 51 50" fill="none" xmlns="http://www.w3.org/2000/svg">
<rect x="0.989258" width="50" height="50" rx="25" fill="#2F80ED"/>
<g clip-path="url(#clip0_2_1856)">
<path fill-rule="evenodd" clip-rule="evenodd" d="M26.3148 20.8645C27.7068 18.982 29.2458 17.5 31.2138 17.5C34.9293 17.5 37.9893 22.2295 37.9908 27.8605C37.9908 31.2955 36.5118 33.448 33.8553 33.448C31.5408 33.448 30.2628 32.149 27.9693 28.312L26.9688 26.6275L26.7918 26.332C26.5309 25.891 26.2658 25.4525 25.9968 25.0165L24.2298 28.1365C21.7203 32.524 20.3073 33.448 18.3453 33.448C15.6183 33.448 13.9893 31.3255 13.9893 27.9595C13.9893 22.582 16.9818 17.5 20.8863 17.5C21.3648 17.5 21.8238 17.5585 22.2723 17.683C22.7373 17.812 23.1888 18.013 23.6418 18.2935C24.5073 18.832 25.3728 19.666 26.3148 20.8645ZM28.5888 24.2005C28.2108 23.5855 27.8478 23.02 27.4983 22.501L27.4893 22.489C28.7568 20.5315 29.8038 19.558 31.0473 19.558C33.6318 19.558 35.7003 23.3635 35.7003 28.0375C35.7003 29.8195 35.1153 30.853 33.9078 30.853C32.7483 30.853 32.1948 30.088 29.9928 26.548L28.5873 24.2005H28.5888ZM21.2583 20.134C22.3458 20.284 23.3358 21.085 24.7683 23.1355C23.9417 24.4012 23.1242 25.6727 22.3158 26.95C20.2803 30.139 19.5768 30.8545 18.4443 30.8545C17.2788 30.8545 16.5843 29.8315 16.5843 28.0045C16.5843 24.1015 18.5313 20.1085 20.8533 20.1085C20.9898 20.1085 21.1248 20.1175 21.2583 20.1355V20.134Z" fill="white"/>
</g>
<defs>
<clipPath id="clip0_2_1856">
<rect width="24" height="24" fill="white" transform="translate(13.9893 13)"/>
</clipPath>
</defs>
</svg>
