<svg width="51" height="50" viewBox="0 0 51 50" fill="none" xmlns="http://www.w3.org/2000/svg">
<rect x="0.989258" width="50" height="50" rx="25" fill="url(#paint0_linear_2_1826)"/>
<g clip-path="url(#clip0_2_1826)">
<path d="M25.3743 28.275C26.4853 28.271 28.9143 28.262 28.8863 26.717C28.8593 25.137 26.5263 25.232 25.3893 25.279C25.2623 25.284 25.1493 25.289 25.0573 25.29L25.1093 28.277C25.1843 28.275 25.2743 28.275 25.3743 28.275V28.275ZM25.2563 23.922C26.1833 23.921 28.2063 23.919 28.1823 22.514C28.1563 21.077 26.2133 21.162 25.2643 21.204C25.1573 21.209 25.0643 21.213 24.9863 21.214L25.0333 23.923L25.2563 23.922Z" fill="white"/>
<path fill-rule="evenodd" clip-rule="evenodd" d="M23.0854 36.641C29.5154 38.244 36.0274 34.331 37.6304 27.903C39.2334 21.474 35.3194 14.962 28.8894 13.36C22.4634 11.756 15.9514 15.67 14.3494 22.1C12.7464 28.528 16.6594 35.04 23.0864 36.642L23.0854 36.641ZM27.3674 19.621C29.1214 19.745 30.5174 20.259 30.7004 21.863C30.8364 23.037 30.3564 23.752 29.5774 24.166C30.8774 24.454 31.7024 25.209 31.5724 26.937C31.4114 29.082 29.8244 29.685 27.5464 29.855L27.5844 32.105L26.2284 32.13L26.1894 29.91C25.8384 29.916 25.4784 29.92 25.1054 29.918L25.1454 32.148L23.7894 32.172L23.7494 29.918L23.3664 29.921C23.1724 29.922 22.9764 29.923 22.7804 29.927L21.0144 29.957L21.2554 28.333C21.2554 28.333 22.2594 28.331 22.2414 28.316C22.6254 28.308 22.7224 28.031 22.7434 27.857L22.6824 24.3L22.7794 24.298H22.8254C22.7776 24.2925 22.7295 24.2902 22.6814 24.291L22.6374 21.751C22.5804 21.477 22.3964 21.161 21.8474 21.171C21.8624 21.151 20.8614 21.188 20.8614 21.188L20.8354 19.74L22.7074 19.708V19.715C22.9884 19.71 23.2774 19.7 23.5704 19.689L23.5324 17.46L24.8884 17.437L24.9264 19.621C25.2884 19.608 25.6524 19.594 26.0094 19.588L25.9714 17.418L27.3284 17.394L27.3674 19.623V19.621Z" fill="white"/>
</g>
<defs>
<linearGradient id="paint0_linear_2_1826" x1="-24.0107" y1="25" x2="25.9893" y2="75" gradientUnits="userSpaceOnUse">
<stop stop-color="#FF6B00"/>
<stop offset="1" stop-color="#942424"/>
</linearGradient>
<clipPath id="clip0_2_1826">
<rect width="24" height="24" fill="white" transform="translate(13.9893 13)"/>
</clipPath>
</defs>
</svg>
