<svg width="51" height="50" viewBox="0 0 51 50" fill="none" xmlns="http://www.w3.org/2000/svg">
<rect x="0.989258" width="50" height="50" rx="25" fill="url(#paint0_linear_2_1845)"/>
<g clip-path="url(#clip0_2_1845)">
<path d="M25.9893 36C32.0644 36 36.9893 31.0751 36.9893 25C36.9893 18.9249 32.0644 14 25.9893 14C19.9141 14 14.9893 18.9249 14.9893 25C14.9893 31.0751 19.9141 36 25.9893 36Z" fill="white"/>
<path d="M23.9268 32.6485C23.9268 32.9063 23.7205 33.0524 23.4799 32.975C20.1455 31.9094 17.7393 28.7985 17.7393 25.1118C17.7393 21.4336 20.1455 18.3141 23.4799 17.2485C23.7291 17.1711 23.9268 17.3172 23.9268 17.575V18.2196C23.9268 18.3915 23.7979 18.5891 23.6346 18.6493C20.9963 19.6204 19.1143 22.1555 19.1143 25.1118C19.1143 28.0766 20.9963 30.6032 23.6346 31.5657C23.7979 31.6258 23.9268 31.8235 23.9268 31.9954V32.6485Z" fill="#41434A"/>
<path d="M26.6771 30.2679C26.6771 30.457 26.5224 30.6117 26.3333 30.6117H25.6458C25.4568 30.6117 25.3021 30.457 25.3021 30.2679V29.1851C23.7982 28.9789 23.0677 28.1453 22.87 26.9937C22.8357 26.7961 22.9904 26.6242 23.188 26.6242H23.97C24.1333 26.6242 24.2708 26.7445 24.3052 26.8992C24.4513 27.5781 24.8466 28.1023 26.0497 28.1023C26.9349 28.1023 27.5708 27.6039 27.5708 26.8648C27.5708 26.1258 27.2013 25.8422 25.895 25.6273C23.97 25.3695 23.0591 24.7851 23.0591 23.2812C23.0591 22.1211 23.9443 21.2101 25.3021 21.0211V19.9554C25.3021 19.7664 25.4568 19.6117 25.6458 19.6117H26.3333C26.5224 19.6117 26.6771 19.7664 26.6771 19.9554V21.0469C27.7857 21.2445 28.4904 21.8719 28.7224 22.9203C28.7654 23.1179 28.6107 23.2984 28.4044 23.2984H27.6825C27.5279 23.2984 27.3989 23.1953 27.356 23.0492C27.1583 22.3875 26.6857 22.0953 25.8607 22.0953C24.9497 22.0953 24.4771 22.5336 24.4771 23.1523C24.4771 23.8054 24.7435 24.132 26.1443 24.3297C28.0349 24.5875 29.0146 25.1289 29.0146 26.7359C29.0146 27.9562 28.1036 28.9445 26.6857 29.1679V30.2679H26.6771Z" fill="#41434A"/>
<path d="M28.4986 32.9749C28.2494 33.0523 28.0518 32.9062 28.0518 32.6484V32.0039C28.0518 31.8148 28.1635 31.6343 28.3439 31.5742C30.9736 30.6117 32.8643 28.0765 32.8643 25.1203C32.8643 22.1554 30.9822 19.6289 28.3439 18.6664C28.1807 18.6062 28.0518 18.4085 28.0518 18.2367V17.5921C28.0518 17.3343 28.258 17.1882 28.4986 17.2656C31.833 18.314 34.2393 21.4335 34.2393 25.1117C34.2393 28.7984 31.833 31.9093 28.4986 32.9749Z" fill="#41434A"/>
</g>
<defs>
<linearGradient id="paint0_linear_2_1845" x1="-24.0107" y1="25" x2="25.9893" y2="75" gradientUnits="userSpaceOnUse">
<stop stop-color="#384279" stop-opacity="0"/>
<stop offset="0.841667" stop-color="#272A52"/>
<stop offset="1" stop-color="#7781C6"/>
</linearGradient>
<clipPath id="clip0_2_1845">
<rect width="22" height="22" fill="white" transform="translate(14.9893 14)"/>
</clipPath>
</defs>
</svg>
