<svg width="51" height="50" viewBox="0 0 51 50" fill="none" xmlns="http://www.w3.org/2000/svg">
<rect x="0.989258" width="50" height="50" rx="25" fill="#7B7F9B"/>
<path d="M29.1468 30.5264C33.943 30.5264 37.831 26.6384 37.831 21.8421C37.831 17.0459 33.943 13.1579 29.1468 13.1579C24.3506 13.1579 20.4626 17.0459 20.4626 21.8421C20.4626 26.6384 24.3506 30.5264 29.1468 30.5264ZM29.1468 33.6842C22.6068 33.6842 17.3047 28.3821 17.3047 21.8421C17.3047 15.3021 22.6068 10 29.1468 10C35.6868 10 40.9889 15.3021 40.9889 21.8421C40.9889 28.3821 35.6868 33.6842 29.1468 33.6842Z" fill="white"/>
<path d="M22.8314 36.8421C27.6276 36.8421 31.5156 32.9541 31.5156 28.1579C31.5156 23.3617 27.6276 19.4737 22.8314 19.4737C18.0352 19.4737 14.1472 23.3617 14.1472 28.1579C14.1472 32.9541 18.0352 36.8421 22.8314 36.8421ZM22.8314 40C16.2914 40 10.9893 34.6979 10.9893 28.1579C10.9893 21.6179 16.2914 16.3158 22.8314 16.3158C29.3713 16.3158 34.6734 21.6179 34.6734 28.1579C34.6734 34.6979 29.3713 40 22.8314 40Z" fill="white"/>
<path d="M29.5355 33.6779C30.3561 32.6837 30.9441 31.5184 31.2571 30.2679C32.5076 29.9553 33.6726 29.367 34.667 28.5465C34.6215 29.9948 34.3098 31.4224 33.7467 32.7576C32.4116 33.3206 30.984 33.6324 29.5355 33.6779ZM20.7214 19.7319C19.4709 20.0446 18.3059 20.6329 17.3115 21.4533C17.357 20.0051 17.6687 18.5774 18.2317 17.2422C19.5669 16.6792 20.9946 16.3675 22.4428 16.322C21.6224 17.3164 21.034 18.4814 20.7214 19.7319Z" fill="#7B7F9B"/>
</svg>
