<svg width="60" height="60" viewBox="0 0 60 60" fill="none" xmlns="http://www.w3.org/2000/svg">
<g clip-path="url(#clip0_1036_1079)">
<path d="M29.9991 56.753C44.7744 56.753 56.7522 44.7753 56.7522 30C56.7522 15.2247 44.7744 3.24695 29.9991 3.24695C15.2238 3.24695 3.24609 15.2247 3.24609 30C3.24609 44.7753 15.2238 56.753 29.9991 56.753Z" fill="white"/>
<path d="M30 0C24.0666 0 18.2664 1.75947 13.3329 5.05591C8.39943 8.35235 4.55426 13.0377 2.28363 18.5195C0.0129984 24.0013 -0.581102 30.0333 0.576455 35.8527C1.73401 41.6721 4.59124 47.0176 8.78681 51.2132C12.9824 55.4088 18.3279 58.266 24.1473 59.4236C29.9667 60.5811 35.9987 59.987 41.4805 57.7164C46.9623 55.4458 51.6477 51.6006 54.9441 46.6671C58.2405 41.7336 60 35.9334 60 30V30C60.0115 26.0718 59.2491 22.1798 57.7564 18.5462C56.2637 14.9126 54.07 11.6086 51.3004 8.82287C48.5308 6.0371 45.2397 3.82413 41.6149 2.3103C37.9901 0.796472 34.1026 0.0114303 30.1743 0H30ZM30.5085 31.017L27.385 41.5496H44.092C44.2027 41.5458 44.313 41.5637 44.4168 41.6025C44.5205 41.6413 44.6155 41.7002 44.6965 41.7757C44.7775 41.8513 44.8427 41.9421 44.8886 42.0429C44.9344 42.1437 44.9599 42.2525 44.9637 42.3632V42.6392L43.5109 47.6513C43.4469 47.8884 43.3041 48.0966 43.1061 48.2418C42.9081 48.387 42.6666 48.4605 42.4213 48.4504H16.8523L21.138 33.8499L16.3438 35.3027L17.4334 31.9613L22.2276 30.5085L28.2567 10.0242C28.323 9.78852 28.4664 9.58181 28.6638 9.43701C28.8613 9.2922 29.1015 9.21764 29.3463 9.22518H35.8112C35.9218 9.2213 36.0322 9.23927 36.1359 9.27807C36.2396 9.31686 36.3347 9.37572 36.4156 9.45128C36.4966 9.52684 36.5618 9.61761 36.6077 9.71842C36.6535 9.81922 36.6791 9.92807 36.6828 10.0387V10.3148L31.5981 27.6029L36.3923 26.1501L35.3753 29.6368L30.5085 31.017Z" fill="#345D9D"/>
</g>
<defs>
<clipPath id="clip0_1036_1079">
<rect width="60" height="60" fill="white"/>
</clipPath>
</defs>
</svg>
