<svg width="36" height="36" viewBox="0 0 36 36" fill="none" xmlns="http://www.w3.org/2000/svg">
<circle cx="18" cy="18" r="18" fill="#333333"/>
<path d="M15.3307 23.9673C15.3307 24.4307 14.9833 24.622 14.5987 24.4307L10.4467 22.3553C10.3213 22.296 10.216 22.1967 10.13 22.0573C10.044 21.918 10 21.7793 10 21.6427V11.4913C10 11.1127 10.2273 10.9413 10.7413 11.1973L15.304 13.4773C15.37 13.5433 15.3213 13.09 15.3307 23.9673ZM15.902 14.4207L20.67 22.1327L15.902 19.764V14.4207ZM26 14.5813V23.9673C26 24.116 25.9587 24.236 25.8747 24.328C25.7913 24.42 25.678 24.466 25.5353 24.466C25.3927 24.466 25.2527 24.4273 25.116 24.35L21.1787 22.3907L26 14.5813ZM25.9733 13.5127C25.9733 13.5307 25.21 14.776 23.6833 17.248C22.1567 19.72 21.262 21.168 21 21.5893L17.518 15.9433L20.4107 11.2507C20.568 10.992 20.8907 10.9467 21.1073 11.0547L25.938 13.4593C25.9613 13.4707 25.9733 13.4887 25.9733 13.5127Z" fill="white"/>
</svg>
