<svg width="18" height="18" viewBox="0 0 18 18" fill="none" xmlns="http://www.w3.org/2000/svg">
<path fill-rule="evenodd" clip-rule="evenodd" d="M15.1024 4.21237C14.6677 3.73874 13.946 3.73874 13.5113 4.21237L7.11399 11.1738L4.49766 8.29627C4.04657 7.83158 3.34123 7.83158 2.89014 8.31414C2.46365 8.7967 2.46365 9.56523 2.89834 10.0567L6.26922 13.7117L6.31843 13.7742C6.76132 14.2657 7.47487 14.2657 7.91776 13.7742L15.1024 5.94601C15.5371 5.46345 15.5371 4.68599 15.1024 4.21237Z" fill="white"/>
<mask id="mask0" mask-type="alpha" maskUnits="userSpaceOnUse" x="2" y="3" width="14" height="12">
<path fill-rule="evenodd" clip-rule="evenodd" d="M15.1024 4.21237C14.6677 3.73874 13.946 3.73874 13.5113 4.21237L7.11399 11.1738L4.49766 8.29627C4.04657 7.83158 3.34123 7.83158 2.89014 8.31414C2.46365 8.7967 2.46365 9.56523 2.89834 10.0567L6.26922 13.7117L6.31843 13.7742C6.76132 14.2657 7.47487 14.2657 7.91776 13.7742L15.1024 5.94601C15.5371 5.46345 15.5371 4.68599 15.1024 4.21237Z" fill="white"/>
</mask>
<g mask="url(#mask0)">
<rect width="18" height="18" fill="#FF936B"/>
</g>
</svg>
