<svg width="80" height="80" viewBox="0 0 80 80" fill="none" xmlns="http://www.w3.org/2000/svg">
<path fill-rule="evenodd" clip-rule="evenodd" d="M17.768 48.584C15.1562 49.9301 12.9183 51.9017 11.2539 54.3231C13.1307 68.5484 25.2702 79.5392 39.9922 79.6096H40.0049C54.7264 79.5392 66.866 68.5484 68.7427 54.3231C67.0783 51.9017 64.8404 49.9301 62.2287 48.584C62.2809 49.2086 62.3066 49.8397 62.3056 50.4772C62.3056 62.8247 52.3345 72.8433 40.0068 72.9211H39.9942C27.6641 72.8447 17.6954 62.8266 17.6954 50.4772C17.6954 49.839 17.721 49.208 17.7723 48.584H17.768Z" fill="#FF872A"/>
<path fill-rule="evenodd" clip-rule="evenodd" d="M39.9806 0L0 21.6241L11.7478 27.9799C10.8597 29.6289 10.2618 32.7526 10.2618 36.348V37.6057C10.2618 42.9294 11.5717 47.2164 13.1954 47.2164H13.2642C16.0213 42.3692 21.2327 39.1003 27.2089 39.1003C32.4271 39.1003 37.0639 41.5934 39.9937 45.4518V45.4688C39.9948 45.4658 39.9961 45.4629 39.9976 45.4601C40.0005 45.4634 40.0038 45.4654 40.0063 45.4688V45.4518C42.9361 41.5934 47.5724 39.1003 52.7906 39.1003C58.7668 39.1003 63.9763 42.3692 66.7358 47.2164H66.804C68.4278 47.2164 69.7382 42.9294 69.7382 37.6057V36.348C69.7382 32.7522 69.1398 29.6284 68.2518 27.9799L80 21.6241L40.0184 0L39.9971 0.00822392L39.9806 0Z" fill="#333333"/>
</svg>
