<svg width="38" height="38" viewBox="0 0 38 38" fill="none" xmlns="http://www.w3.org/2000/svg">
<g clip-path="url(#clip0)">
<path d="M36.8867 13.3528H34.2548C32.8593 12.0303 30.9759 11.218 28.9061 11.218C26.4706 11.218 24.2931 12.343 22.865 14.1004C20.6119 12.3157 17.3918 12.3127 15.1348 14.1004C13.7068 12.343 11.5294 11.218 9.09373 11.218C7.02399 11.218 5.14054 12.0304 3.745 13.3528H1.11328C0.498453 13.3528 0 13.8512 0 14.4661C0 15.0809 0.498453 15.5793 1.11328 15.5793H2.10514C1.59748 16.6124 1.31174 17.7734 1.31174 19.0001C1.31174 23.2911 4.80277 26.7821 9.0938 26.7821C13.3848 26.7821 16.8759 23.2911 16.8759 19.0001C16.8759 17.9528 16.6674 16.9533 16.2906 16.0405C17.8174 14.6374 20.1805 14.6355 21.7094 16.0405C21.3326 16.9533 21.1242 17.9528 21.1242 19.0001C21.1242 23.2911 24.6152 26.7821 28.9063 26.7821C33.1973 26.7821 36.6883 23.2911 36.6883 19.0001C36.6883 17.7734 36.4027 16.6124 35.8949 15.5793H36.8867C37.5015 15.5793 38 15.0809 38 14.4661C38 13.8512 37.5015 13.3528 36.8867 13.3528ZM9.0938 24.5556C6.0305 24.5556 3.5383 22.0634 3.5383 19.0001C3.5383 15.9368 6.0305 13.4446 9.0938 13.4446C12.1571 13.4446 14.6493 15.9368 14.6493 19.0001C14.6493 22.0634 12.1571 24.5556 9.0938 24.5556ZM28.9062 24.5556C25.8429 24.5556 23.3507 22.0634 23.3507 19.0001C23.3507 15.9368 25.8429 13.4446 28.9062 13.4446C31.9695 13.4446 34.4617 15.9368 34.4617 19.0001C34.4617 22.0634 31.9695 24.5556 28.9062 24.5556Z" fill="#FF936B"/>
</g>
<defs>
<clipPath id="clip0">
<rect width="38" height="38" fill="white"/>
</clipPath>
</defs>
</svg>
