<svg width="38" height="38" viewBox="0 0 38 38" fill="none" xmlns="http://www.w3.org/2000/svg">
<g clip-path="url(#clip0)">
<path fill-rule="evenodd" clip-rule="evenodd" d="M12.1868 26.4681C11.7472 26.0118 11.7472 25.274 12.1868 24.8178C12.6265 24.3623 13.3388 24.3623 13.7784 24.8178L18.9996 30.2313L24.2215 24.8178C24.6612 24.3623 25.3735 24.3623 25.8131 24.8178C26.2528 25.274 26.2528 26.0118 25.8131 26.4681L19.7954 32.706C19.3558 33.1615 18.6434 33.1615 18.2038 32.706L12.1868 26.4681Z" fill="black"/>
<mask id="mask0" mask-type="alpha" maskUnits="userSpaceOnUse" x="11" y="24" width="16" height="10">
<path fill-rule="evenodd" clip-rule="evenodd" d="M12.1868 26.4681C11.7472 26.0118 11.7472 25.274 12.1868 24.8178C12.6265 24.3623 13.3388 24.3623 13.7784 24.8178L18.9996 30.2313L24.2215 24.8178C24.6612 24.3623 25.3735 24.3623 25.8131 24.8178C26.2528 25.274 26.2528 26.0118 25.8131 26.4681L19.7954 32.706C19.3558 33.1615 18.6434 33.1615 18.2038 32.706L12.1868 26.4681Z" fill="white"/>
</mask>
<g mask="url(#mask0)">
<rect x="9" y="18.0476" width="20" height="20" fill="#CCCCCC"/>
</g>
<g opacity="0.5">
<path fill-rule="evenodd" clip-rule="evenodd" d="M12.1868 16.4681C11.7472 16.0118 11.7472 15.274 12.1868 14.8178C12.6265 14.3623 13.3388 14.3623 13.7784 14.8178L18.9996 20.2313L24.2215 14.8178C24.6612 14.3623 25.3735 14.3623 25.8131 14.8178C26.2528 15.274 26.2528 16.0118 25.8131 16.4681L19.7954 22.706C19.3558 23.1615 18.6434 23.1615 18.2038 22.706L12.1868 16.4681Z" fill="black"/>
<mask id="mask1" mask-type="alpha" maskUnits="userSpaceOnUse" x="11" y="14" width="16" height="10">
<path fill-rule="evenodd" clip-rule="evenodd" d="M12.1868 16.4681C11.7472 16.0118 11.7472 15.274 12.1868 14.8178C12.6265 14.3623 13.3388 14.3623 13.7784 14.8178L18.9996 20.2313L24.2215 14.8178C24.6612 14.3623 25.3735 14.3623 25.8131 14.8178C26.2528 15.274 26.2528 16.0118 25.8131 16.4681L19.7954 22.706C19.3558 23.1615 18.6434 23.1615 18.2038 22.706L12.1868 16.4681Z" fill="white"/>
</mask>
<g mask="url(#mask1)">
<rect x="9" y="8.04761" width="20" height="20" fill="#CCCCCC"/>
</g>
</g>
<g opacity="0.2">
<path fill-rule="evenodd" clip-rule="evenodd" d="M12.1868 6.46811C11.7472 6.01185 11.7472 5.27403 12.1868 4.81778C12.6265 4.3623 13.3388 4.3623 13.7784 4.81778L18.9996 10.2313L24.2215 4.81778C24.6612 4.3623 25.3735 4.3623 25.8131 4.81778C26.2528 5.27403 26.2528 6.01185 25.8131 6.46811L19.7954 12.706C19.3558 13.1615 18.6434 13.1615 18.2038 12.706L12.1868 6.46811Z" fill="black"/>
<mask id="mask2" mask-type="alpha" maskUnits="userSpaceOnUse" x="11" y="4" width="16" height="10">
<path fill-rule="evenodd" clip-rule="evenodd" d="M12.1868 6.46811C11.7472 6.01185 11.7472 5.27403 12.1868 4.81778C12.6265 4.3623 13.3388 4.3623 13.7784 4.81778L18.9996 10.2313L24.2215 4.81778C24.6612 4.3623 25.3735 4.3623 25.8131 4.81778C26.2528 5.27403 26.2528 6.01185 25.8131 6.46811L19.7954 12.706C19.3558 13.1615 18.6434 13.1615 18.2038 12.706L12.1868 6.46811Z" fill="white"/>
</mask>
<g mask="url(#mask2)">
<rect x="9" y="-1.95239" width="20" height="20" fill="#CCCCCC"/>
</g>
</g>
</g>
<defs>
<clipPath id="clip0">
<rect width="38" height="38" fill="white"/>
</clipPath>
</defs>
</svg>
