<svg width="60" height="60" viewBox="0 0 60 60" fill="none" xmlns="http://www.w3.org/2000/svg">
<rect width="60" height="60" rx="30" fill="#DD3021"/>
<g clip-path="url(#clip0_1026_1084)">
<path d="M44.1508 24.5233C45.2069 21.0561 45.09 17.39 44.8781 15.251C44.8546 15.0107 44.7794 14.7783 44.6577 14.5699C44.5359 14.3614 44.3705 14.1817 44.1727 14.0432C43.975 13.9047 43.7496 13.8106 43.5121 13.7674C43.2745 13.7242 43.0304 13.7329 42.7966 13.7929C38.6622 14.8586 36.2115 16.651 34.8293 18.0783C33.4086 17.7534 31.9554 17.5929 30.498 17.5998C29.0407 17.5929 27.5874 17.7534 26.1668 18.0783C24.7846 16.651 22.3339 14.8586 18.1995 13.7929C17.9657 13.7329 17.7216 13.7242 17.484 13.7674C17.2465 13.8106 17.0211 13.9047 16.8234 14.0432C16.6256 14.1817 16.4602 14.3614 16.3384 14.5699C16.2167 14.7783 16.1415 15.0107 16.118 15.251C15.9061 17.39 15.7892 21.0561 16.8453 24.5233C14.7528 27.663 13.75 32.5056 13.75 36.21C13.75 39.5234 19.2762 47.248 30.498 47.248C41.7199 47.248 47.2461 39.5234 47.2461 36.21C47.2461 32.5056 46.2433 27.663 44.1508 24.5233Z" fill="#F29555"/>
<path d="M39.2852 33.6869C35.8214 33.6869 34.3257 37.1137 30.5003 37.1137C26.6749 37.1137 25.1792 33.6869 21.7154 33.6869C16.6917 33.6869 14.5596 37.9135 14.3203 38.4228C15.9903 42.1142 21.3531 47.248 30.5003 47.248C39.6475 47.248 45.0103 42.1142 46.6803 38.4228C46.441 37.9135 44.3089 33.6869 39.2852 33.6869Z" fill="#F7E3CD"/>
<path d="M30.4319 44.6996C22.8516 44.6996 17.5011 41.6761 14.3401 38.3818L14.3203 38.4229C15.9903 42.1143 21.3531 47.248 30.5003 47.248C39.6475 47.248 45.0103 42.1143 46.6803 38.4229C46.6659 38.3914 46.6434 38.3456 46.6119 38.2861C43.4646 41.6187 38.0841 44.6996 30.4319 44.6996Z" fill="#F2C59E"/>
<path d="M21.6112 19.678C20.7471 18.7674 19.4114 17.3961 18.8959 17.0564C16.8451 15.7043 15.9838 17.4666 15.9838 17.4666C15.9394 19.4387 16.087 21.8901 16.7706 24.2676C18.9239 22.1307 22.6311 20.2344 22.6311 20.2344C22.2412 20.1605 21.8844 19.9658 21.6112 19.678Z" fill="#F7E3CD"/>
<path d="M39.3832 19.678C40.2473 18.7674 41.583 17.3961 42.0984 17.0564C44.1492 15.7043 45.0105 17.4666 45.0105 17.4666C45.055 19.4387 44.9073 21.8901 44.2237 24.2676C42.0704 22.1307 38.3633 20.2344 38.3633 20.2344C38.7532 20.1605 39.11 19.9658 39.3832 19.678Z" fill="#F7E3CD"/>
<path d="M27.1964 26.4394C27.1964 27.1448 26.4902 27.717 25.62 27.717C24.7498 27.717 24.043 26.8714 24.043 26.1659C24.043 25.4605 24.7491 25.1617 25.62 25.1617C26.4909 25.1617 27.1964 25.7339 27.1964 26.4394Z" fill="#F7E3CD"/>
<path d="M33.9062 26.4394C33.9062 27.1448 34.6124 27.717 35.4833 27.717C36.3542 27.717 37.0617 26.8714 37.0617 26.1659C37.0617 25.4605 36.3556 25.1617 35.4854 25.1617C34.6151 25.1617 33.9062 25.7339 33.9062 26.4394Z" fill="#F7E3CD"/>
<path d="M30.5498 38.7462C30.5498 38.7462 28.862 41.1238 25.8398 40.3998V40.5126C25.8398 40.5126 26.5063 43.7036 30.4972 43.7036C34.488 43.7036 35.1538 40.5126 35.1538 40.5126V40.4244C32.1979 41.0684 30.5498 38.7462 30.5498 38.7462Z" fill="#AA0C18"/>
<path d="M27.5625 42.9024C28.2495 43.3618 29.199 43.7036 30.5054 43.7036C31.8117 43.7036 32.7612 43.3618 33.4482 42.9018C33.4441 42.8977 32.0318 41.5093 30.5054 41.5093C28.9789 41.5093 27.5625 42.9024 27.5625 42.9024Z" fill="#EA6077"/>
<path d="M35.8318 39.5009C33.2799 40.5263 31.6824 39.0162 31.236 38.5056V38.401C31.9126 38.2576 32.537 37.9315 33.0414 37.4583C33.7044 36.8431 34.1002 36.0645 34.1002 35.3672C34.1002 33.9576 32.5417 32.8536 30.5524 32.8536C28.5631 32.8536 27.0045 33.9576 27.0045 35.3672C27.0045 36.6059 28.235 38.0695 29.8688 38.401V38.5049C29.4197 39.019 27.8221 40.527 25.273 39.5009C25.1894 39.4657 25.0997 39.4475 25.009 39.4474C24.9184 39.4472 24.8286 39.4651 24.7449 39.5C24.6612 39.5348 24.5853 39.586 24.5216 39.6505C24.4578 39.715 24.4076 39.7915 24.3737 39.8756C24.3398 39.9597 24.323 40.0497 24.3243 40.1404C24.3255 40.231 24.3448 40.3205 24.381 40.4037C24.4171 40.4868 24.4695 40.5619 24.535 40.6246C24.6004 40.6873 24.6777 40.7364 24.7623 40.769C24.9298 40.8373 25.0939 40.8948 25.2545 40.9453C25.4501 41.5302 25.7537 42.0733 26.1494 42.5463C26.85 43.3858 28.1755 44.3872 30.4998 44.3872C32.824 44.3872 34.1488 43.3858 34.8495 42.5463C35.237 42.0832 35.5361 41.5528 35.732 40.9816C35.9307 40.9237 36.1342 40.8528 36.3424 40.769C36.5078 40.6994 36.6392 40.5675 36.7083 40.4018C36.7773 40.2362 36.7784 40.05 36.7114 39.8836C36.6443 39.7171 36.5145 39.5837 36.35 39.5121C36.1854 39.4405 35.9993 39.4365 35.8318 39.5009ZM30.4998 43.02C28.3663 43.02 27.3443 41.9947 26.8767 41.2188H26.9669C27.8352 41.2188 28.6888 40.9954 29.4457 40.57C29.8467 40.3453 30.2187 40.0721 30.5531 39.7566C30.8876 40.0719 31.2595 40.3451 31.6605 40.57C32.4121 40.9925 33.2592 41.2158 34.1214 41.2188C34.0263 41.3768 33.9194 41.5274 33.8015 41.6693C33.0523 42.5661 31.9421 43.02 30.4998 43.02Z" fill="black"/>
<path d="M24.9625 31.0305C25.061 31.1827 25.216 31.2895 25.3933 31.3274C25.5706 31.3654 25.7557 31.3313 25.9079 31.2328C26.0601 31.1343 26.1669 30.9793 26.2049 30.802C26.2428 30.6247 26.2088 30.4396 26.1103 30.2874C24.6911 28.0944 22.2138 28.4184 22.1078 28.4335C22.0181 28.4451 21.9315 28.4744 21.8532 28.5196C21.7748 28.5649 21.7062 28.6253 21.6514 28.6973C21.5966 28.7694 21.5566 28.8515 21.5338 28.9391C21.511 29.0267 21.5058 29.1179 21.5185 29.2075C21.5312 29.2971 21.5616 29.3833 21.6079 29.4611C21.6542 29.5388 21.7154 29.6066 21.7881 29.6605C21.8608 29.7144 21.9435 29.7534 22.0313 29.7751C22.1192 29.7968 22.2105 29.8008 22.2999 29.787C22.3197 29.7843 24.015 29.5621 24.9625 31.0305Z" fill="black"/>
<path d="M39.0614 28.4335C38.9568 28.4184 36.4781 28.0917 35.059 30.2874C35.0102 30.3627 34.9767 30.447 34.9605 30.5353C34.9443 30.6236 34.9456 30.7142 34.9644 30.802C34.9831 30.8898 35.019 30.973 35.07 31.0469C35.121 31.1208 35.186 31.184 35.2613 31.2328C35.3367 31.2816 35.4209 31.315 35.5092 31.3313C35.5975 31.3475 35.6882 31.3462 35.7759 31.3274C35.8637 31.3086 35.947 31.2727 36.0209 31.2218C36.0948 31.1708 36.158 31.1058 36.2067 31.0304C37.1419 29.5853 38.7962 29.7774 38.8728 29.7877C39.0522 29.8122 39.234 29.7646 39.3783 29.6553C39.5227 29.5459 39.6177 29.3838 39.6426 29.2044C39.6675 29.025 39.6202 28.8431 39.5111 28.6986C39.402 28.5541 39.2401 28.4587 39.0608 28.4335H39.0614Z" fill="black"/>
<path d="M44.9539 24.3996C45.9219 21.0049 45.8542 17.5042 45.6197 15.1349C45.5862 14.7952 45.4796 14.4668 45.3072 14.1722C45.1349 13.8776 44.9008 13.6238 44.6212 13.4281C44.3415 13.2325 44.0228 13.0996 43.6869 13.0387C43.3511 12.9778 43.0061 12.9903 42.6755 13.0752C38.5739 14.1321 36.0645 15.8985 34.6296 17.2889C31.9044 16.7347 29.0956 16.7347 26.3704 17.2889C24.9349 15.8985 22.4261 14.1321 18.3245 13.0752C17.9939 12.9903 17.6489 12.9778 17.3131 13.0387C16.9772 13.0996 16.6585 13.2325 16.3788 13.4281C16.0992 13.6238 15.8651 13.8776 15.6928 14.1722C15.5204 14.4668 15.4138 14.7952 15.3803 15.1349C15.1458 17.5042 15.0781 21.0049 16.0461 24.3996C13.8025 27.955 13 32.9651 13 36.2368C13 38.0196 14.3672 40.9713 17.4263 43.5464C19.8394 45.5781 24.066 48.0001 30.5 48.0001C36.934 48.0001 41.1641 45.5781 43.5737 43.5464C46.6328 40.9713 48 38.0196 48 36.2368C48 32.9651 47.1975 27.955 44.9539 24.3996ZM43.018 14.4034C43.1559 14.3674 43.3001 14.3619 43.4404 14.3874C43.5806 14.4129 43.7137 14.4688 43.8301 14.5511C43.948 14.6334 44.0468 14.7404 44.1195 14.8645C44.1921 14.9887 44.2371 15.1271 44.2512 15.2702C44.271 15.4712 44.2901 15.6941 44.3079 15.934C44.2669 15.9203 44.2266 15.9067 44.1835 15.895C43.4363 15.69 42.6229 15.8773 41.7663 16.4419C41.3199 16.7359 40.3629 17.6546 38.9212 19.1729C38.757 19.3474 38.5443 19.4688 38.3105 19.5215C38.0767 19.5741 37.8325 19.5555 37.6094 19.4682C36.9818 19.2214 36.1937 18.8031 35.7131 18.1523C37.0406 16.904 39.3184 15.3564 43.018 14.4034ZM17.1699 14.5511C17.3346 14.4345 17.5314 14.3717 17.7332 14.3713C17.8181 14.3716 17.9026 14.3824 17.9848 14.4034C21.6816 15.3564 23.9594 16.904 25.2876 18.1523C24.8091 18.8031 24.0188 19.2214 23.3913 19.4682C23.1677 19.5561 22.9228 19.5749 22.6884 19.5223C22.4539 19.4697 22.2407 19.348 22.0761 19.1729C20.6344 17.6546 19.6773 16.7359 19.231 16.4419C18.3744 15.8773 17.5609 15.69 16.8138 15.895C16.7707 15.9067 16.7304 15.9203 16.6894 15.934C16.7071 15.6941 16.7263 15.4712 16.7461 15.2702C16.7605 15.1268 16.8059 14.9883 16.879 14.8641C16.9522 14.74 17.0515 14.6332 17.1699 14.5511ZM42.6892 42.4971C40.4518 44.3818 36.5204 46.6281 30.5 46.6281C24.4796 46.6281 20.5482 44.3818 18.3108 42.4971C15.7255 40.3199 14.3727 37.6997 14.3727 36.2368C14.3727 32.8318 15.2928 28.0159 17.3483 24.9144C17.8345 24.3399 18.3798 23.8181 18.9753 23.3578C19.1208 23.2491 19.2171 23.0869 19.2431 22.9071C19.269 22.7273 19.2225 22.5446 19.1137 22.3991C19.0049 22.2536 18.8428 22.1573 18.663 22.1313C18.4832 22.1054 18.3005 22.1519 18.155 22.2607C17.7997 22.5299 17.4616 22.821 17.1426 23.1323C16.6989 21.182 16.5957 19.2276 16.6169 17.6273C16.754 17.4307 16.9534 17.2862 17.1829 17.2171C17.5329 17.1269 17.9684 17.2513 18.4817 17.5876C18.8235 17.8112 19.7942 18.7566 21.0876 20.1169C21.4397 20.491 21.896 20.7508 22.3974 20.8627C22.8987 20.9746 23.4222 20.9334 23.8999 20.7445C24.7995 20.3904 25.9623 19.745 26.6145 18.6424C29.1818 18.1119 31.8305 18.1119 34.3979 18.6424C35.05 19.745 36.2128 20.3904 37.1124 20.7445C37.5901 20.9334 38.1136 20.9746 38.6149 20.8627C39.1163 20.7508 39.5726 20.491 39.9247 20.1169C41.2181 18.7559 42.1922 17.8105 42.5306 17.5876C43.0412 17.2513 43.4773 17.1269 43.8294 17.2171C44.0588 17.2863 44.2583 17.4308 44.3954 17.6273C44.42 19.2269 44.3134 21.182 43.8697 23.1323C43.5507 22.821 43.2126 22.5299 42.8573 22.2607C42.7853 22.2066 42.7033 22.1672 42.616 22.1448C42.5288 22.1224 42.438 22.1174 42.3488 22.1301C42.2596 22.1428 42.1738 22.173 42.0962 22.2188C42.0187 22.2647 41.951 22.3254 41.8969 22.3974C41.8428 22.4694 41.8034 22.5514 41.781 22.6387C41.7586 22.7259 41.7536 22.8167 41.7663 22.9059C41.779 22.9951 41.8092 23.0809 41.855 23.1585C41.9009 23.236 41.9616 23.3038 42.0336 23.3578C42.6291 23.8183 43.1745 24.3403 43.6605 24.9151C45.7161 28.0159 46.6362 32.8318 46.6362 36.2368C46.6273 37.6997 45.2745 40.3199 42.6892 42.4971Z" fill="black"/>
</g>
<defs>
<clipPath id="clip0_1026_1084">
<rect width="35" height="35" fill="white" transform="translate(13 13)"/>
</clipPath>
</defs>
</svg>
