<svg width="60" height="60" viewBox="0 0 60 60" fill="none" xmlns="http://www.w3.org/2000/svg">
<rect width="60" height="60" rx="30" fill="url(#paint0_linear_1026_1077)"/>
<path d="M18.4021 15.9423L14.6521 21.9423C14.3595 22.4107 14.5017 23.0277 14.9701 23.3203C15.4385 23.6129 16.0554 23.4707 16.3481 23.0023L19.8044 17.4723H42.6959L40.1959 21.4723H21.351C20.7987 21.4723 20.351 21.92 20.351 22.4723C20.351 23.0245 20.7987 23.4723 21.351 23.4723H40.7501C41.0949 23.4723 41.4154 23.2947 41.5981 23.0023L45.3481 17.0023C45.7635 16.3374 45.2849 15.4723 44.5001 15.4723H19.2501C18.9054 15.4723 18.5849 15.6499 18.4021 15.9423V15.9423Z" fill="white"/>
<path d="M45.3492 32.4424L41.5992 26.4424C41.3065 25.9741 40.6897 25.8317 40.2212 26.1244C39.7528 26.4171 39.6106 27.034 39.9032 27.5024L42.697 31.9724H19.8055L17.3055 27.9724H35.094C35.6462 27.9724 36.094 27.5246 36.094 26.9724C36.094 26.4201 35.6462 25.9724 35.094 25.9724H15.5012C14.7173 25.9724 14.2373 26.8369 14.6532 27.5024L18.4032 33.5024C18.586 33.7947 18.9065 33.9724 19.2512 33.9724H44.5012C45.2851 33.9724 45.7651 33.1079 45.3492 32.4424Z" fill="white"/>
<path d="M44.5011 36.4723H19.2511C18.9064 36.4723 18.5859 36.6499 18.4031 36.9423L14.6531 42.9423C14.2377 43.6072 14.7164 44.4723 15.5011 44.4723H35.352C35.9042 44.4723 36.352 44.0245 36.352 43.4723C36.352 42.92 35.9042 42.4723 35.352 42.4723H17.3054L19.8054 38.4723H42.6969L39.9031 42.9423C39.6105 43.4107 39.7527 44.0277 40.2211 44.3203C40.6895 44.6129 41.3064 44.4707 41.5991 44.0023L45.3491 38.0023C45.7645 37.3375 45.2859 36.4723 44.5011 36.4723Z" fill="white"/>
<defs>
<linearGradient id="paint0_linear_1026_1077" x1="54" y1="8.9407e-07" x2="-1.78814e-06" y2="60" gradientUnits="userSpaceOnUse">
<stop offset="0.10175" stop-color="#6FEC9D"/>
<stop offset="0.453125" stop-color="#A06FF7"/>
<stop offset="0.854972" stop-color="#DA62B8"/>
<stop offset="1" stop-color="#99EAFC"/>
</linearGradient>
</defs>
</svg>
