<svg width="60" height="60" viewBox="0 0 60 60" fill="none" xmlns="http://www.w3.org/2000/svg">
<rect width="60" height="60" rx="30" fill="#4C9979"/>
<path d="M22.47 26.7544C22.9413 26.6379 23.2289 26.1616 23.1125 25.6904C22.996 25.2191 22.5193 24.9317 22.0484 25.0479C18.9041 25.8249 17.2422 27.0153 17.2422 28.4904C17.2422 29.8679 18.6268 30.964 21.3575 31.7488C22.9445 32.2049 24.8822 32.5206 26.9893 32.6747V41.6749C26.9893 43.3765 28.3674 44.7609 30.0613 44.7609C31.7553 44.7609 33.1334 43.3765 33.1334 41.6749V32.6649C35.1924 32.5076 37.0859 32.196 38.6418 31.7488C41.3725 30.9641 42.7571 29.8679 42.7571 28.4904C42.7571 27.0436 41.154 25.8681 38.1211 25.0908C37.6509 24.9705 37.172 25.2538 37.0515 25.724C36.931 26.1941 37.2146 26.6731 37.6846 26.7936C40.4367 27.4989 40.9992 28.3115 40.9992 28.4904C40.9992 28.7358 40.3042 29.4421 38.1562 30.0593C36.7433 30.4653 35.019 30.7515 33.1333 30.902V21.4121H38.5902C40.2842 21.4121 41.6623 20.0277 41.6623 18.3261C41.6623 16.6244 40.2842 15.24 38.5902 15.24H30.0936C30.069 15.2391 30.0482 15.2392 30.0272 15.24H21.5323C19.8384 15.24 18.4602 16.6244 18.4602 18.3261C18.4602 20.0277 19.8384 21.4121 21.5323 21.4121H26.9891V30.9118C25.0552 30.764 23.2865 30.4742 21.8429 30.0593C19.6948 29.442 18.9999 28.7358 18.9999 28.4904C19.0001 28.3048 19.589 27.4662 22.47 26.7544V26.7544ZM31.3756 41.6747C31.3756 42.4072 30.786 43.0029 30.0613 43.0029C29.3366 43.0029 28.7471 42.4072 28.7471 41.6747V32.764C29.1607 32.7762 29.5785 32.7827 29.9996 32.7827C30.4627 32.7827 30.9215 32.7743 31.3755 32.7597V41.6747H31.3756ZM27.8683 19.6543H21.5325C20.8079 19.6543 20.2183 19.0585 20.2183 18.3261C20.2183 17.5936 20.8079 16.9979 21.5325 16.9979H30.0604H30.0616C30.0665 16.9979 30.0699 16.998 30.0742 16.998H38.5906C39.3153 16.998 39.9049 17.5938 39.9049 18.3262C39.9049 19.0586 39.3153 19.6544 38.5906 19.6544H32.2547C31.7692 19.6544 31.3758 20.0479 31.3758 20.5333V31.0012C30.9225 31.0164 30.4639 31.0251 29.9999 31.0251C29.5782 31.0251 29.1605 31.0182 28.7474 31.0055V20.5334C28.7472 20.0478 28.3537 19.6543 27.8683 19.6543V19.6543Z" fill="white"/>
</svg>
