<svg width="36" height="36" viewBox="0 0 36 36" fill="none" xmlns="http://www.w3.org/2000/svg">
<circle cx="18" cy="18" r="18" fill="#333333"/>
<path fill-rule="evenodd" clip-rule="evenodd" d="M25.7143 13.0934C25.147 13.3515 24.5361 13.526 23.8962 13.6049C24.5497 13.2027 25.0517 12.5671 25.2877 11.8094C24.6759 12.1814 23.9988 12.4514 23.2772 12.5965C22.6999 11.9655 21.8776 11.5715 20.9672 11.5715C19.219 11.5715 17.8012 13.0245 17.8012 14.8173C17.8012 15.0726 17.8303 15.3197 17.8838 15.5575C15.2534 15.4225 12.9216 14.1294 11.3604 12.1658C11.0872 12.6452 10.932 13.2027 10.932 13.7978C10.932 14.9238 11.4911 15.9176 12.3398 16.4989C11.8206 16.4824 11.3322 16.3364 10.9066 16.093C10.9066 16.1068 10.9066 16.1205 10.9066 16.1343C10.9066 17.7067 11.9967 19.0182 13.4453 19.3167C13.1794 19.3911 12.9007 19.4306 12.6112 19.4306C12.4078 19.4306 12.2091 19.4104 12.0157 19.3718C12.4187 20.6613 13.5878 21.5999 14.9729 21.6265C13.8892 22.4963 12.524 23.0152 11.0409 23.0152C10.7858 23.0152 10.5335 23.0005 10.2857 22.9702C11.6862 23.8914 13.35 24.4287 15.1381 24.4287C20.9599 24.4287 24.144 19.4829 24.144 15.1938C24.144 15.0524 24.1404 14.9137 24.1349 14.7741C24.7531 14.3167 25.2904 13.7445 25.7143 13.0943V13.0934Z" fill="white"/>
</svg>
