<svg width="36" height="36" viewBox="0 0 36 36" fill="none" xmlns="http://www.w3.org/2000/svg">
<circle opacity="0.1" cx="18" cy="18" r="18" fill="#333333"/>
<path fill-rule="evenodd" clip-rule="evenodd" d="M25.7143 13.0933C25.147 13.3514 24.5361 13.5259 23.8962 13.6049C24.5497 13.2026 25.0517 12.567 25.2877 11.8093C24.6759 12.1813 23.9988 12.4513 23.2772 12.5964C22.6999 11.9654 21.8776 11.5714 20.9672 11.5714C19.219 11.5714 17.8012 13.0244 17.8012 14.8172C17.8012 15.0725 17.8303 15.3196 17.8838 15.5574C15.2534 15.4224 12.9216 14.1293 11.3604 12.1657C11.0872 12.6451 10.932 13.2026 10.932 13.7977C10.932 14.9237 11.4911 15.9175 12.3398 16.4988C11.8206 16.4823 11.3322 16.3363 10.9066 16.0929C10.9066 16.1067 10.9066 16.1204 10.9066 16.1342C10.9066 17.7066 11.9967 19.0181 13.4453 19.3166C13.1794 19.391 12.9007 19.4305 12.6112 19.4305C12.4078 19.4305 12.2091 19.4103 12.0157 19.3717C12.4187 20.6612 13.5878 21.5998 14.9729 21.6264C13.8892 22.4962 12.524 23.0151 11.0409 23.0151C10.7858 23.0151 10.5335 23.0004 10.2857 22.9701C11.6862 23.8913 13.35 24.4286 15.1381 24.4286C20.9599 24.4286 24.144 19.4828 24.144 15.1937C24.144 15.0523 24.1404 14.9136 24.1349 14.774C24.7531 14.3166 25.2904 13.7445 25.7143 13.0942V13.0933Z" fill="#333333"/>
</svg>
