<svg width="82" height="82" viewBox="0 0 82 82" fill="none" xmlns="http://www.w3.org/2000/svg">
<g filter="url(#filter0_d_3_6695)">
<rect x="7.48828" y="7.48816" width="56.6487" height="56.6487" rx="2" fill="white"/>
<rect x="7.98828" y="7.98816" width="55.6487" height="55.6487" rx="1.5" stroke="url(#paint0_linear_3_6695)"/>
</g>
<path d="M49.8143 32.7793C49.8149 32.3992 49.7148 32.0257 49.5242 31.6968C49.3336 31.3679 49.0594 31.0954 48.7293 30.9068L36.9343 23.9068C36.5943 23.7085 36.2078 23.604 35.8143 23.604C35.4207 23.604 35.0342 23.7085 34.6943 23.9068L22.8818 30.9068C22.5554 31.1005 22.2849 31.3758 22.0971 31.7057C21.9093 32.0355 21.8105 32.4085 21.8105 32.7881C21.8105 33.1677 21.9093 33.5407 22.0971 33.8705C22.2849 34.2004 22.5554 34.4757 22.8818 34.6693L26.2418 36.6293V41.5468C26.2438 41.9312 26.3447 42.3085 26.5347 42.6426C26.7247 42.9766 26.9975 43.2562 27.3268 43.4543L34.7643 47.7418C35.0964 47.9257 35.4697 48.0222 35.8493 48.0222C36.2289 48.0222 36.6022 47.9257 36.9343 47.7418L44.3718 43.4543C44.7011 43.2562 44.9739 42.9766 45.1639 42.6426C45.3539 42.3085 45.4548 41.9312 45.4568 41.5468V36.5768L47.6268 35.2993V40.0593H49.8143V32.7793ZM43.2868 41.5293L35.8143 45.8343L28.4293 41.5468V37.9243L34.6943 41.6518C35.0354 41.8467 35.4214 41.9493 35.8143 41.9493C36.2071 41.9493 36.5932 41.8467 36.9343 41.6518L43.2693 37.8718L43.2868 41.5293ZM35.8143 39.7618L24.0018 32.7618L35.8143 25.7443L47.6268 32.7443L35.8143 39.7618Z" fill="#D45F05"/>
<defs>
<filter id="filter0_d_3_6695" x="0.488281" y="0.488159" width="80.6484" height="80.6487" filterUnits="userSpaceOnUse" color-interpolation-filters="sRGB">
<feFlood flood-opacity="0" result="BackgroundImageFix"/>
<feColorMatrix in="SourceAlpha" type="matrix" values="0 0 0 0 0 0 0 0 0 0 0 0 0 0 0 0 0 0 127 0" result="hardAlpha"/>
<feOffset dx="5" dy="5"/>
<feGaussianBlur stdDeviation="6"/>
<feColorMatrix type="matrix" values="0 0 0 0 0 0 0 0 0 0 0 0 0 0 0 0 0 0 0.12 0"/>
<feBlend mode="normal" in2="BackgroundImageFix" result="effect1_dropShadow_3_6695"/>
<feBlend mode="normal" in="SourceGraphic" in2="effect1_dropShadow_3_6695" result="shape"/>
</filter>
<linearGradient id="paint0_linear_3_6695" x1="-20.8361" y1="35.8125" x2="35.8126" y2="92.4612" gradientUnits="userSpaceOnUse">
<stop stop-color="#FFEE92"/>
<stop offset="0.732292" stop-color="#E66000" stop-opacity="0"/>
</linearGradient>
</defs>
</svg>
