<svg width="195" height="130" viewBox="0 0 195 130" fill="none" xmlns="http://www.w3.org/2000/svg">
<g opacity="0.6">
<rect x="81" y="117" width="4" height="4" rx="2" fill="#FF936B"/>
<rect x="90" y="117" width="4" height="4" rx="2" fill="#FF936B"/>
<rect x="99" y="117" width="4" height="4" rx="2" fill="#FF936B"/>
<rect x="108" y="117" width="4" height="4" rx="2" fill="#FF936B"/>
<rect x="117" y="117" width="4" height="4" rx="2" fill="#FF936B"/>
<rect x="126" y="117" width="4" height="4" rx="2" fill="#FF936B"/>
<rect x="135" y="117" width="4" height="4" rx="2" fill="#FF936B"/>
<rect x="144" y="117" width="4" height="4" rx="2" fill="#FF936B"/>
<rect x="153" y="117" width="4" height="4" rx="2" fill="#FF936B"/>
<rect x="162" y="117" width="4" height="4" rx="2" fill="#FF936B"/>
<rect x="171" y="117" width="4" height="4" rx="2" fill="#FF936B"/>
<rect x="180" y="117" width="4" height="4" rx="2" fill="#FF936B"/>
<rect x="61" y="125" width="4" height="4" rx="2" fill="#FF936B"/>
<rect x="70" y="125" width="4" height="4" rx="2" fill="#FF936B"/>
<rect x="79" y="125" width="4" height="4" rx="2" fill="#FF936B"/>
<rect x="88" y="125" width="4" height="4" rx="2" fill="#FF936B"/>
<rect x="97" y="125" width="4" height="4" rx="2" fill="#FF936B"/>
<rect x="106" y="125" width="4" height="4" rx="2" fill="#FF936B"/>
<rect x="115" y="125" width="4" height="4" rx="2" fill="#FF936B"/>
<rect x="124" y="125" width="4" height="4" rx="2" fill="#FF936B"/>
<rect x="133" y="125" width="4" height="4" rx="2" fill="#FF936B"/>
<rect x="142" y="125" width="4" height="4" rx="2" fill="#FF936B"/>
<rect x="151" y="125" width="4" height="4" rx="2" fill="#FF936B"/>
<rect x="160" y="125" width="4" height="4" rx="2" fill="#FF936B"/>
</g>
<g opacity="0.6">
<rect x="31" y="2" width="4" height="4" rx="2" fill="#FF936B"/>
<rect x="40" y="2" width="4" height="4" rx="2" fill="#FF936B"/>
<rect x="49" y="2" width="4" height="4" rx="2" fill="#FF936B"/>
<rect x="58" y="2" width="4" height="4" rx="2" fill="#FF936B"/>
<rect x="67" y="2" width="4" height="4" rx="2" fill="#FF936B"/>
<rect x="76" y="2" width="4" height="4" rx="2" fill="#FF936B"/>
<rect x="85" y="2" width="4" height="4" rx="2" fill="#FF936B"/>
<rect x="94" y="2" width="4" height="4" rx="2" fill="#FF936B"/>
<rect x="103" y="2" width="4" height="4" rx="2" fill="#FF936B"/>
<rect x="112" y="2" width="4" height="4" rx="2" fill="#FF936B"/>
<rect x="121" y="2" width="4" height="4" rx="2" fill="#FF936B"/>
<rect x="130" y="2" width="4" height="4" rx="2" fill="#FF936B"/>
<rect x="11" y="10" width="4" height="4" rx="2" fill="#FF936B"/>
<rect x="20" y="10" width="4" height="4" rx="2" fill="#FF936B"/>
<rect x="29" y="10" width="4" height="4" rx="2" fill="#FF936B"/>
<rect x="38" y="10" width="4" height="4" rx="2" fill="#FF936B"/>
<rect x="47" y="10" width="4" height="4" rx="2" fill="#FF936B"/>
<rect x="56" y="10" width="4" height="4" rx="2" fill="#FF936B"/>
<rect x="65" y="10" width="4" height="4" rx="2" fill="#FF936B"/>
<rect x="74" y="10" width="4" height="4" rx="2" fill="#FF936B"/>
<rect x="83" y="10" width="4" height="4" rx="2" fill="#FF936B"/>
<rect x="92" y="10" width="4" height="4" rx="2" fill="#FF936B"/>
<rect x="101" y="10" width="4" height="4" rx="2" fill="#FF936B"/>
<rect x="110" y="10" width="4" height="4" rx="2" fill="#FF936B"/>
</g>
<path d="M34.0625 89.6158H27.8125V86.4908H34.0625C34.9254 86.4908 35.625 85.7912 35.625 84.9283C35.625 84.0654 34.9254 83.3658 34.0625 83.3658H30.9375C28.3488 83.3658 26.25 81.2669 26.25 78.6783C26.25 76.0896 28.3488 73.9908 30.9375 73.9908H37.1875V77.1158H30.9375C30.0746 77.1158 29.375 77.8154 29.375 78.6783C29.375 79.5412 30.0746 80.2408 30.9375 80.2408H34.0625C36.6512 80.2408 38.75 82.3396 38.75 84.9283C38.75 87.5169 36.6512 89.6158 34.0625 89.6158Z" fill="#FF936B"/>
<path d="M30.9375 70.8658H34.0625V75.5533H30.9375V70.8658Z" fill="#FF936B"/>
<path d="M109.062 56.8033H102.812V53.6783H109.062C109.925 53.6783 110.625 52.9787 110.625 52.1158C110.625 51.2529 109.925 50.5533 109.062 50.5533H105.938C103.349 50.5533 101.25 48.4544 101.25 45.8658C101.25 43.2771 103.349 41.1783 105.938 41.1783H112.188V44.3033H105.938C105.075 44.3033 104.375 45.0029 104.375 45.8658C104.375 46.7287 105.075 47.4283 105.938 47.4283H109.062C111.651 47.4283 113.75 49.5271 113.75 52.1158C113.75 54.7044 111.651 56.8033 109.062 56.8033Z" fill="#FF936B"/>
<path d="M105.938 38.0533H109.062V42.7408H105.938V38.0533Z" fill="#FF936B"/>
<path d="M68.4375 59.9283H71.5625V63.0533H68.4375V59.9283Z" fill="black"/>
<path d="M68.4375 53.6783H71.5625V56.8033H68.4375V53.6783Z" fill="black"/>
<path d="M68.4375 47.4283H71.5625V50.5533H68.4375V47.4283Z" fill="black"/>
<path d="M26.25 22.4283H29.375V25.5533H26.25V22.4283Z" fill="black"/>
<path d="M32.5 22.4283H35.625V25.5533H32.5V22.4283Z" fill="black"/>
<path d="M38.75 22.4283H41.875V25.5533H38.75V22.4283Z" fill="black"/>
<path d="M68.4375 81.8033H71.5625V100.553H68.4375V81.8033Z" fill="black"/>
<path d="M30.9375 88.0533H34.0625V92.7408H30.9375V88.0533Z" fill="#FF936B"/>
<path d="M105.938 55.2408H109.062V59.9283H105.938V55.2408Z" fill="#FF936B"/>
<path d="M75.8418 16.1783C74.3976 14.3396 72.7855 12.639 71.0284 11.0971L70 10.1953L68.9716 11.0971C67.2145 12.639 65.6024 14.3396 64.1582 16.1783H20V109.928H23.125C23.1303 105.615 26.6246 102.121 30.9375 102.116C31.2747 102.117 31.6119 102.139 31.9469 102.183L32.9906 102.32L33.5094 101.403C34.6622 99.3616 36.6702 97.9456 38.9804 97.5458C41.2906 97.146 43.658 97.8052 45.4295 99.341L46.6129 100.367L47.636 99.1815C51.4789 94.726 57.6892 93.1337 63.2014 95.1906L65.3125 95.981V78.6783H62.1875V91.6254C56.4716 90.2963 50.4718 91.9733 46.2733 96.0733C41.3219 92.8491 34.7041 94.1454 31.3342 98.9984C31.203 98.9908 31.0703 98.9908 30.9375 98.9908C27.9948 98.99 25.1765 100.179 23.125 102.289V31.8033H56.7905C56.2244 34.4377 55.9383 37.124 55.9375 39.8187V47.6312L52.8125 49.7141V39.6158C52.8125 37.0271 50.7137 34.9283 48.125 34.9283C45.5363 34.9283 43.4375 37.0271 43.4375 39.6158V69.3033H40.3125V72.4283H55.9375V69.3033H52.8125V66.1783H62.1875V72.4283H59.0625V75.5533H80.9375V72.4283H77.8125V66.1783H87.1875V69.3033H84.0625V72.4283H99.6875V69.3033H96.5625V39.6158C96.5625 37.0271 94.4637 34.9283 91.875 34.9283C89.2863 34.9283 87.1875 37.0271 87.1875 39.6158V49.7171L84.0625 47.6343V39.8218C84.0617 37.1263 83.7756 34.4385 83.2095 31.8033H116.875V101.108C113.167 96.499 106.969 94.7069 101.374 96.6249C96.3138 88.804 86.2827 85.8789 77.8125 89.7546V78.6783H74.6875V95.2798L77.103 93.7044C80.7529 91.3286 85.229 90.584 89.4519 91.6505C93.6748 92.7164 97.2606 95.4965 99.3449 99.3204L100.045 100.6L101.369 99.991C102.801 99.3288 104.36 98.987 105.938 98.9908C111.975 98.9984 116.867 103.89 116.875 109.928H120V16.1783H75.8418ZM23.125 28.6783V19.3033H61.9342C60.0764 22.2185 58.6223 25.3717 57.6122 28.6783H23.125ZM46.5625 39.6158C46.5625 38.7529 47.2621 38.0533 48.125 38.0533C48.9879 38.0533 49.6875 38.7529 49.6875 39.6158V51.803L46.5625 53.8873V39.6158ZM49.6875 69.3033H46.5625V66.1783H49.6875V69.3033ZM62.1875 63.0533H46.5625V57.6387L62.1875 47.2215V63.0533ZM62.1875 43.4671L59.0625 45.553V39.8187C59.0656 30.9724 62.4141 22.4542 68.4375 15.9753V31.2547L62.1875 39.0672V43.4671ZM74.6875 72.4283H65.3125V40.1643L70 34.305L74.6875 40.1643V72.4283ZM71.5625 31.2547V15.9753C77.5859 22.4542 80.9344 30.9724 80.9375 39.8187V45.553L77.8125 43.4702V39.0672L71.5625 31.2547ZM93.4375 69.3033H90.3125V66.1783H93.4375V69.3033ZM90.3125 39.6158C90.3125 38.7529 91.0121 38.0533 91.875 38.0533C92.7379 38.0533 93.4375 38.7529 93.4375 39.6158V53.8843L90.3125 51.803V39.6158ZM93.4375 57.6387V63.0533H77.8125V47.2215L93.4375 57.6387ZM116.875 28.6783H82.3878C81.3777 25.3717 79.9236 22.2185 78.0658 19.3033H116.875V28.6783Z" fill="black"/>
</svg>
