<svg width="158" height="66" viewBox="0 0 158 66" fill="none" xmlns="http://www.w3.org/2000/svg">
<g clip-path="url(#clip0_1036_1036)">
<path d="M37.1028 36.209C37.1028 38.6299 36.6861 40.9319 35.8521 43.1151C35.0587 45.298 33.9274 47.2229 32.4589 48.8898C30.9903 50.517 29.2441 51.8266 27.2203 52.819C25.1959 53.7715 22.9733 54.2479 20.552 54.2482C19.044 54.2482 17.6351 54.0299 16.3253 53.5933C15.0155 53.1963 13.7857 52.5413 12.6358 51.6283V53.4146H4V4H12.6921V20.6702C13.6843 19.8764 14.8556 19.2413 16.2059 18.7649C17.6047 18.2871 19.0732 18.0458 20.5514 18.0508C22.6546 18.0508 24.6987 18.527 26.6836 19.4795C28.668 20.3922 30.4345 21.6622 31.9825 23.2896C33.5305 24.9171 34.7603 26.8421 35.6719 29.0648C36.6259 31.2477 37.1028 33.6291 37.1028 36.209ZM28.4107 36.209C28.4107 34.6211 28.1725 33.1717 27.6961 31.8608C27.2197 30.5499 26.5451 29.4387 25.6717 28.5272C24.8462 27.5799 23.805 26.8449 22.6355 26.3838C21.4845 25.8679 20.1944 25.61 18.7664 25.61C17.853 25.61 16.8011 25.8083 15.6107 26.2051C14.4197 26.5621 13.4275 27.0388 12.6324 27.6356V44.1864C14.498 45.8931 16.6012 46.7465 18.9432 46.7465C20.2924 46.7465 21.543 46.4885 22.694 45.9726C23.8844 45.4567 24.8969 44.7423 25.7303 43.8292C26.5637 42.8767 27.2186 41.7654 27.695 40.4952C28.1708 39.1855 28.409 37.7567 28.4096 36.209" fill="black"/>
<path d="M76.972 25.523C77.302 25.9971 77.6004 26.4924 77.8651 27.0058C78.1742 27.5162 78.4783 28.0542 78.7773 28.6199L56.2457 44.3963C57.0836 45.0319 57.9942 45.5655 58.9582 45.9858C59.9487 46.3601 60.9887 46.5868 62.0457 46.6587C63.1162 46.6982 64.1872 46.5848 65.2256 46.3218C66.309 45.9997 67.3704 45.4744 68.4099 44.7459C69.6781 43.8578 70.7981 42.7586 71.77 41.4483C72.7194 40.1052 73.3551 38.7638 73.6767 37.4243L81.2218 38.7547C80.296 41.5834 79.1062 43.9671 77.6522 45.9054C76.209 47.7882 74.447 49.458 72.3663 50.915C70.253 52.3946 67.9966 53.3931 65.5972 53.9105C63.2305 54.405 60.8975 54.4635 58.5984 54.0861C56.3319 53.6862 54.1825 52.8654 52.1502 51.6239C50.0949 50.3493 48.3498 48.688 46.9161 46.6398C45.4825 44.5916 44.5291 42.4002 44.0567 40.0657C43.5623 37.6986 43.5313 35.3708 43.9632 33.0823C44.3957 30.7937 45.2488 28.6212 46.5237 26.5648C47.798 24.5096 49.4755 22.7528 51.5561 21.2943C53.5096 19.919 55.7158 18.9425 58.0476 18.421C60.3693 17.8614 62.6843 17.7424 64.9924 18.0639C67.3012 18.3854 69.4995 19.1719 71.587 20.4233C73.6519 21.6426 75.4471 23.3408 76.972 25.5182V25.523ZM67.6959 27.9435C65.8917 26.5424 63.8983 25.8063 61.7163 25.7352C59.5438 25.6084 57.5639 26.1711 55.7761 27.4235C54.0192 28.6533 52.8293 30.3101 52.2065 32.394C51.5595 34.4457 51.5854 36.5592 52.2854 38.7344L67.6959 27.9435Z" fill="black"/>
<path d="M119.429 53.4145H110.856V32.8749C110.856 31.6451 110.657 30.5735 110.26 29.6599C109.903 28.7074 109.407 27.9333 108.772 27.3378C108.155 26.7145 107.401 26.2455 106.569 25.9688C105.774 25.6509 104.925 25.4891 104.069 25.4922C102.746 25.4947 101.435 25.7368 100.199 26.2069C98.9286 26.6434 97.7777 27.3578 96.7455 28.3501V53.4145H88.113V19.0029H96.7477V21.5631C97.2635 21.0472 97.8987 20.5709 98.6527 20.1343C99.3915 19.705 100.169 19.3462 100.974 19.0627C101.785 18.7517 102.622 18.5126 103.475 18.348C104.3 18.194 105.137 18.1143 105.976 18.11C107.678 18.103 109.369 18.3851 110.976 18.9445C112.572 19.4812 114.033 20.3541 115.263 21.5042C116.533 22.6552 117.545 24.1437 118.3 25.9697C119.054 27.7956 119.431 29.9587 119.43 32.459V53.4154" fill="black"/>
<path d="M7.37419 61.3502C7.37588 61.5146 7.33984 61.6774 7.26889 61.8255C7.20188 61.9674 7.10672 62.0946 6.99015 62.1999C6.87303 62.3047 6.73732 62.3869 6.58978 62.4421C6.43887 62.5001 6.27839 62.5299 6.11678 62.5299L4.50122 62.5249V58.5722H5.95066C6.11621 58.5709 6.28064 58.5976 6.43718 58.6513C6.58303 58.701 6.71761 58.7794 6.83248 58.8819C6.94736 58.9846 7.03802 59.1112 7.09827 59.253C7.16359 59.4073 7.19625 59.5735 7.19343 59.741C7.19343 59.8967 7.15852 60.0505 7.09095 60.1907C7.02225 60.3349 6.96369 60.425 6.91526 60.4622C6.95975 60.492 7.00085 60.5281 7.03689 60.5681C7.10784 60.6362 7.16866 60.7133 7.21878 60.7984C7.31732 60.9667 7.36969 61.1582 7.37025 61.3536L7.37419 61.3502ZM6.28233 59.752C6.28402 59.6862 6.26994 59.6209 6.24066 59.5618C6.21419 59.5099 6.1759 59.4648 6.1286 59.43C6.07792 59.3928 6.02105 59.3652 5.96023 59.3483C5.89322 59.3289 5.82396 59.3193 5.75413 59.3198H5.42415V60.1622C5.43879 60.1622 5.47709 60.1622 5.53903 60.1622H5.75413C5.82452 60.1627 5.89435 60.1546 5.96305 60.138C6.0233 60.124 6.08017 60.0988 6.13085 60.0638C6.17703 60.0318 6.21532 59.9894 6.24179 59.94C6.2705 59.8816 6.28458 59.817 6.28233 59.752ZM6.42367 61.3074C6.42423 61.2472 6.41184 61.1875 6.38707 61.1317C6.36454 61.0805 6.33076 61.0343 6.28852 60.9972C6.24516 60.9589 6.19505 60.929 6.14099 60.9093C6.0813 60.8879 6.01879 60.8772 5.95516 60.8778C5.8493 60.8744 5.74456 60.8744 5.64151 60.8778C5.53903 60.8812 5.46582 60.8778 5.42415 60.8778V61.7219H5.87238C5.94277 61.7219 6.0126 61.7134 6.08074 61.6971C6.14437 61.6825 6.20518 61.6565 6.25924 61.6205C6.30823 61.5873 6.34877 61.5434 6.37862 61.4927C6.41015 61.4358 6.42536 61.3716 6.42254 61.3069L6.42367 61.3074ZM10.7061 62.5215H7.9694V58.5719H8.90528V61.6222H10.7061V62.5215ZM15.0026 60.545C15.0043 60.8203 14.948 61.0934 14.837 61.3452C14.7312 61.5901 14.578 61.8114 14.3866 61.9972C14.1934 62.1825 13.9676 62.33 13.7204 62.4331C13.2023 62.6459 12.6207 62.6459 12.1026 62.4331C11.8548 62.3306 11.6279 62.1831 11.4348 61.9972C11.2433 61.812 11.0901 61.5918 10.9831 61.348C10.8739 61.094 10.8182 60.8203 10.8182 60.5439C10.8182 60.2677 10.8739 59.9941 10.9831 59.7401C11.0896 59.4956 11.2427 59.2743 11.4348 59.0888C11.8323 58.7074 12.3622 58.4948 12.9135 58.4954C13.3206 58.492 13.7204 58.6082 14.0622 58.8296C14.404 59.051 14.6737 59.3679 14.8376 59.741C14.9485 59.9938 15.0054 60.2673 15.0032 60.5433L15.0026 60.545ZM14.0746 60.545C14.0757 60.3907 14.0448 60.238 13.9834 60.0963C13.8634 59.8178 13.6416 59.596 13.3628 59.4766C13.2209 59.4146 13.0678 59.3829 12.9129 59.3835C12.7564 59.3824 12.601 59.4142 12.4568 59.4766C12.3183 59.5362 12.1927 59.6214 12.0857 59.7278C11.9804 59.8338 11.8959 59.9588 11.8368 60.0963C11.7771 60.238 11.7462 60.3901 11.7462 60.5439C11.7462 60.6981 11.7771 60.8502 11.8368 60.9921C11.8954 61.13 11.9798 61.2562 12.0857 61.3626C12.1927 61.469 12.3188 61.5541 12.4568 61.6143C12.601 61.6763 12.7564 61.7078 12.9129 61.7067C13.0678 61.7078 13.2215 61.6757 13.3634 61.6138C13.5019 61.5541 13.6275 61.4685 13.7345 61.362C13.8404 61.2556 13.9248 61.13 13.9839 60.9915C14.0448 60.8502 14.0757 60.6981 14.0752 60.545H14.0746ZM19.2974 61.7427C19.0879 62.0068 18.825 62.2247 18.526 62.3813C18.2377 62.5237 17.9189 62.5964 17.5968 62.593C17.3153 62.5947 17.036 62.5406 16.7753 62.4331C16.5264 62.3312 16.2989 62.1831 16.1052 61.9972C15.9137 61.8125 15.7605 61.5918 15.6536 61.348C15.5443 61.0946 15.488 60.8215 15.488 60.5455C15.488 60.2694 15.5443 59.9962 15.6536 59.7428C15.8704 59.2472 16.273 58.8566 16.7753 58.6553C17.036 58.549 17.3153 58.4953 17.5968 58.4972C17.9189 58.4934 18.2371 58.566 18.5254 58.7093C18.8188 58.861 19.0772 59.0724 19.2839 59.3299L18.638 59.994C18.4854 59.7758 18.3244 59.6198 18.1549 59.5258C18 59.4421 17.8283 59.3944 17.6526 59.3861C17.4769 59.3778 17.3012 59.4092 17.1396 59.4779C16.9994 59.5379 16.8716 59.6234 16.7629 59.7301C16.6559 59.8358 16.5697 59.9608 16.5089 60.0985C16.447 60.2397 16.4154 60.3924 16.4166 60.5467C16.416 60.6993 16.4475 60.8502 16.5089 60.9898C16.5697 61.1272 16.6559 61.2522 16.7629 61.3581C16.8716 61.4645 16.9994 61.5501 17.1396 61.6104C17.2843 61.6723 17.4403 61.7033 17.5974 61.7016C17.7967 61.7055 17.9933 61.6554 18.1656 61.5563C18.3306 61.4589 18.4911 61.2978 18.647 61.0732L19.2974 61.7427ZM23.224 62.5215H22.0088L20.6449 61.014V62.5215H19.7226V58.5688H20.6449V60.0933L22.0426 58.5688H23.171L21.3849 60.5129L23.224 62.5215ZM26.6668 61.7421C26.4573 62.0068 26.1944 62.2242 25.8953 62.3807C25.6065 62.5237 25.2883 62.5958 24.9662 62.5924C24.6847 62.5941 24.4054 62.5401 24.1446 62.4325C23.8958 62.3306 23.6683 62.1831 23.474 61.9967C23.2831 61.812 23.1294 61.5912 23.0224 61.3474C22.9137 61.094 22.8574 60.8209 22.8574 60.545C22.8574 60.269 22.9137 59.9959 23.0224 59.7423C23.2392 59.2466 23.6424 58.8559 24.1446 58.6549C24.4054 58.5485 24.6847 58.4948 24.9662 58.4967C25.2883 58.4928 25.6065 58.5656 25.8948 58.7089C26.1865 58.8611 26.4438 59.0727 26.6493 59.3299L26.0029 59.994C25.8503 59.7758 25.6892 59.6198 25.5198 59.5258C25.3649 59.4421 25.1932 59.3944 25.0175 59.3861C24.8418 59.3778 24.6661 59.4092 24.5039 59.4779C24.3643 59.5379 24.2364 59.6234 24.1283 59.7301C24.0208 59.8356 23.9346 59.9606 23.8744 60.0985C23.8124 60.2397 23.7803 60.3924 23.7814 60.5467C23.7809 60.6993 23.8124 60.8502 23.8744 60.9898C23.9346 61.1278 24.0208 61.2528 24.1283 61.3581C24.2364 61.4645 24.3643 61.5501 24.5039 61.6104C24.6486 61.6729 24.8046 61.7044 24.9617 61.7033C25.1611 61.7072 25.3576 61.6571 25.5299 61.558C25.6954 61.4606 25.8554 61.2995 26.0108 61.0749L26.6668 61.7421ZM30.2245 62.5215H29.3021V60.8581H28.0109V62.5215H27.0886V58.5719H28.0109V60.0616H29.2965V58.5719H30.2189L30.2245 62.5215ZM35.0531 62.5215H34.0384L33.6899 61.7697H31.9882L31.6368 62.5215H30.6209L32.4899 58.5688H33.1819L35.0531 62.5215ZM33.3143 60.969L32.8379 59.9448L32.3564 60.9696L33.3143 60.969ZM36.3736 62.5215H35.4513V58.5719H36.3736V62.5215ZM40.4759 62.5215H39.6115L38.0618 60.1205V62.5232H37.153V58.57H38.1193L39.5625 60.7916V58.57H40.4714L40.4759 62.5215Z" fill="black"/>
<path d="M48.316 62.5216H45.6395V58.5719H48.316V59.3686H46.5495V60.0713H48.2923V60.8536H46.5495V61.6927H48.316V62.5216ZM52.8174 60.5451C52.8191 60.8069 52.7724 61.0665 52.6789 61.3115C52.5911 61.5429 52.4599 61.7557 52.2926 61.9388C52.1215 62.1251 51.9137 62.2727 51.6822 62.3735C51.4508 62.4737 51.2002 62.5244 50.9479 62.5221H49.2789V58.5692H50.9479C51.207 58.5666 51.4637 58.621 51.6997 58.7287C51.9232 58.8298 52.1248 58.9747 52.2926 59.1547C52.4604 59.3373 52.5916 59.5505 52.6789 59.7828C52.7718 60.0266 52.8186 60.2856 52.8174 60.5468V60.5451ZM51.8849 60.5248C51.8883 60.3671 51.8635 60.2105 51.8106 60.0621C51.7611 59.9221 51.6845 59.7933 51.5854 59.6831C51.4846 59.5735 51.3618 59.487 51.225 59.4292C51.0724 59.3652 50.908 59.3334 50.7418 59.3361H50.2046V61.7079H50.7418C50.9046 61.7107 51.0668 61.6809 51.2177 61.62C51.3522 61.5643 51.4733 61.481 51.573 61.3751C51.6727 61.267 51.7498 61.1403 51.7994 61.0017C51.8557 60.8491 51.8855 60.6887 51.8872 60.5259L51.8849 60.5248ZM57.2649 58.5679V60.705C57.2671 60.9544 57.2271 61.2022 57.1466 61.4382C57.0717 61.6583 56.9546 61.8616 56.8003 62.0362C56.6471 62.2096 56.4579 62.3476 56.2462 62.441C55.7738 62.6359 55.2433 62.637 54.7697 62.4439C54.5575 62.3526 54.366 62.2181 54.2089 62.0486C54.0518 61.8774 53.9307 61.6758 53.8524 61.4573C53.7685 61.2236 53.7269 60.9775 53.7291 60.7298V58.5692H54.6515V60.7343C54.6504 60.8615 54.6689 60.9877 54.7067 61.1093C54.7405 61.2185 54.7951 61.3199 54.8677 61.4083C54.9387 61.4933 55.0276 61.5615 55.1284 61.6077C55.2422 61.6578 55.3649 61.6825 55.4894 61.6803C55.6178 61.6837 55.745 61.66 55.8639 61.6116C55.9635 61.5694 56.0519 61.504 56.1218 61.4213C56.1927 61.334 56.2456 61.2337 56.2777 61.1262C56.3149 61.0023 56.3329 60.8728 56.3312 60.7433V58.5692L57.2649 58.5679ZM61.9392 61.7428C61.7297 62.0075 61.4668 62.2248 61.1678 62.3814C60.8795 62.5238 60.5607 62.5965 60.2386 62.5931C59.9571 62.5948 59.6778 62.5402 59.4171 62.4332C59.1687 62.3312 58.9412 62.1831 58.747 61.9973C58.5555 61.8126 58.4018 61.5919 58.2948 61.3481C58.1861 61.0947 58.1298 60.8216 58.1298 60.5456C58.1298 60.2695 58.1861 59.9964 58.2948 59.7428C58.5122 59.2473 58.9153 58.8568 59.4171 58.6553C59.6778 58.549 59.9571 58.4953 60.2386 58.4972C60.5607 58.4934 60.8789 58.5661 61.1678 58.7093C61.4606 58.8608 61.7185 59.0718 61.9257 59.3286L61.2793 59.9927C61.1267 59.7746 60.9656 59.6185 60.7961 59.5245C60.6413 59.4409 60.4695 59.3931 60.2933 59.3848C60.1176 59.3766 59.9419 59.4079 59.7803 59.4766C59.6401 59.5367 59.5128 59.6222 59.4041 59.7288C59.2966 59.8343 59.2104 59.9594 59.1501 60.0972C59.0882 60.2384 59.0567 60.3908 59.0578 60.5451C59.0567 60.6977 59.0882 60.8491 59.1501 60.9882C59.2104 61.1262 59.2966 61.2512 59.4041 61.3571C59.5128 61.4635 59.6401 61.5491 59.7803 61.6088C59.9244 61.6713 60.0804 61.7034 60.2375 61.7023C60.4368 61.7062 60.6334 61.6561 60.8063 61.557C60.9712 61.4596 61.1323 61.2985 61.2894 61.0738L61.9392 61.7428ZM66.7268 62.5221H65.712L65.3635 61.7704H63.6646L63.3132 62.5221H62.2985L64.1674 58.5692H64.8606L66.7268 62.5221ZM64.9879 60.9696L64.5149 59.9448L64.034 60.9696H64.9879ZM69.6042 59.4151H68.5659V62.5216H67.6334V59.4151H66.5944V58.5719H69.6042V59.4151ZM71.3938 62.5216H70.472V58.5719H71.3938V62.5216ZM76.54 60.5451C76.5411 60.8204 76.4848 61.0935 76.3745 61.3452C76.2686 61.5902 76.1154 61.8115 75.9234 61.9973C75.7308 62.1826 75.505 62.3307 75.2578 62.4332C74.7392 62.646 74.1581 62.646 73.6395 62.4332C73.3923 62.3307 73.1653 62.1826 72.9722 61.9973C72.7807 61.8126 72.627 61.5919 72.52 61.3481C72.4113 61.0941 72.355 60.8204 72.355 60.5439C72.355 60.2677 72.4113 59.9942 72.52 59.7402C72.6264 59.4955 72.7802 59.2742 72.9722 59.0888C73.3697 58.7081 73.8996 58.4961 74.4503 58.4972C74.8575 58.4938 75.2567 58.61 75.5991 58.8314C75.9409 59.0528 76.2106 59.3697 76.3745 59.7428C76.4854 59.9956 76.5417 60.2691 76.54 60.5451ZM75.612 60.5451C75.6131 60.3908 75.5822 60.2381 75.5208 60.0964C75.4009 59.8181 75.179 59.5963 74.9003 59.4766C74.7572 59.4152 74.6029 59.3835 74.4475 59.3835C74.2915 59.3835 74.1378 59.4152 73.9948 59.4766C73.716 59.5959 73.4936 59.8178 73.3742 60.0964C73.3145 60.2381 73.2836 60.3902 73.2836 60.5439C73.2836 60.6977 73.3145 60.8503 73.3742 60.9922C73.4328 61.1301 73.5178 61.2557 73.6237 61.3627C73.7307 61.4691 73.8574 61.5542 73.9965 61.6138C74.1395 61.6752 74.2938 61.7068 74.4492 61.7068C74.6046 61.7068 74.7589 61.6752 74.9019 61.6138C75.0405 61.5542 75.166 61.4686 75.2725 61.3621C75.3789 61.2557 75.4639 61.1301 75.5225 60.9916C75.5833 60.8503 75.6143 60.6982 75.6137 60.5451H75.612ZM80.8078 62.5216H79.9434L78.3966 60.1192V62.5216H77.4877V58.5688H78.454L79.8973 60.7906V58.5688H80.8067L80.8078 62.5216Z" fill="black"/>
<path d="M90.0337 62.5214H89.1688L87.623 60.119V62.5214H86.7136V58.5686H87.6799L89.1232 60.7904V58.5686H90.0326L90.0337 62.5214ZM94.4141 62.5214H91.7377V58.5717H94.4141V59.3684H92.6471V60.0711H94.3899V60.8534H92.6471V61.6925H94.4141V62.5214ZM98.7466 59.4149H97.7083V62.5214H96.7758V59.4149H95.7374V58.5717H98.7472L98.7466 59.4149ZM105.242 58.5672L103.956 62.5202H103.173L102.555 60.4418L101.933 62.5202H101.149L99.865 58.5672H100.84L101.557 60.76L102.177 58.5672H102.923L103.543 60.7656L104.268 58.5672H105.242ZM110.505 60.5437C110.506 60.8191 110.45 61.0916 110.339 61.3439C110.233 61.5889 110.08 61.8102 109.888 61.996C109.696 62.1812 109.47 62.3288 109.223 62.4313C108.705 62.6447 108.123 62.6447 107.605 62.4313C107.357 62.3288 107.13 62.1812 106.936 61.996C106.746 61.8107 106.592 61.5905 106.485 61.3467C106.376 61.0928 106.32 60.8191 106.32 60.5426C106.32 60.2662 106.376 59.9927 106.485 59.7387C106.592 59.4944 106.746 59.2734 106.937 59.0882C107.13 58.9027 107.357 58.7555 107.605 58.6547C107.987 58.4972 108.407 58.4546 108.812 58.532C109.218 58.6094 109.593 58.8034 109.889 59.0904C110.08 59.2765 110.233 59.4979 110.34 59.7421C110.451 59.9949 110.508 60.2684 110.505 60.5449L110.505 60.5437ZM109.577 60.5437C109.578 60.3894 109.547 60.2366 109.486 60.0948C109.366 59.8165 109.144 59.5948 108.865 59.4751C108.722 59.4137 108.568 59.382 108.412 59.382C108.256 59.382 108.103 59.4137 107.96 59.4751C107.68 59.594 107.458 59.816 107.339 60.0948C107.279 60.2366 107.248 60.3889 107.248 60.5426C107.248 60.6963 107.279 60.8484 107.339 60.9903C107.398 61.1288 107.482 61.2544 107.588 61.3608C107.695 61.4672 107.821 61.5528 107.96 61.6125C108.103 61.6739 108.257 61.7054 108.412 61.7054C108.568 61.7054 108.722 61.6739 108.865 61.6125C109.144 61.4926 109.367 61.2701 109.486 60.9903C109.546 60.8495 109.577 60.6975 109.577 60.5437ZM115.145 62.5202H114.096L113.807 61.5979C113.782 61.5151 113.75 61.4351 113.709 61.3591C113.675 61.2932 113.631 61.2324 113.577 61.1806C113.525 61.131 113.462 61.0922 113.394 61.0674C113.311 61.0387 113.224 61.0246 113.136 61.0269H112.961V62.5202H112.047V58.5703L113.628 58.5659C113.793 58.5642 113.957 58.594 114.111 58.6538C114.256 58.7099 114.389 58.7944 114.5 58.9024C114.61 59.0089 114.697 59.1363 114.756 59.277C114.819 59.4243 114.85 59.583 114.849 59.7431C114.849 59.8624 114.83 59.9811 114.793 60.0944C114.756 60.2061 114.702 60.3117 114.634 60.4075C114.565 60.5037 114.483 60.5893 114.39 60.6614C114.295 60.7352 114.239 60.7611 114.22 60.7397C114.261 60.7262 114.324 60.7662 114.408 60.8602C114.495 60.9565 114.563 61.0685 114.607 61.1896C114.63 61.2431 114.65 61.2972 114.669 61.3518L114.728 61.5202C114.749 61.5776 114.772 61.6407 114.794 61.7082C114.816 61.7758 114.844 61.8501 114.872 61.9318C114.906 62.0337 114.938 62.1199 114.966 62.1903C115.018 62.3051 115.078 62.4155 115.147 62.5208L115.145 62.5202ZM113.921 59.797C113.921 59.7281 113.907 59.6598 113.879 59.5968C113.852 59.538 113.814 59.4849 113.767 59.4404C113.719 59.3944 113.662 59.3587 113.599 59.3354C113.532 59.31 113.461 59.2972 113.389 59.2977H112.959V60.2727H113.389C113.461 60.2734 113.533 60.2621 113.601 60.2393C113.663 60.2187 113.72 60.186 113.769 60.1431C113.818 60.0998 113.857 60.0465 113.883 59.9867C113.909 59.927 113.922 59.8623 113.921 59.797ZM120 62.5202H118.787L117.423 61.0128V62.5202H116.501V58.5672H117.423V60.0918L118.821 58.5672H119.949L118.163 60.5116L120 62.5202Z" fill="black"/>
<path d="M139.381 47.136C139.381 45.632 139.717 44.384 140.389 43.392C141.061 42.368 142.021 41.264 143.269 40.08C144.069 39.312 144.645 38.688 144.997 38.208C145.381 37.728 145.573 37.216 145.573 36.672C145.573 35.968 145.269 35.424 144.661 35.04C144.053 34.624 143.285 34.416 142.357 34.416C141.333 34.416 140.373 34.72 139.477 35.328C138.581 35.904 137.877 36.688 137.365 37.68L128.821 33.408C130.101 30.976 131.989 29.072 134.485 27.696C137.013 26.32 140.117 25.632 143.797 25.632C147.701 25.632 150.869 26.432 153.301 28.032C155.733 29.632 156.949 31.888 156.949 34.8C156.949 36.144 156.709 37.328 156.229 38.352C155.781 39.344 155.237 40.192 154.597 40.896C153.957 41.568 153.141 42.32 152.149 43.152C151.125 44.048 150.389 44.768 149.941 45.312C149.493 45.856 149.269 46.464 149.269 47.136H139.381ZM144.325 60.48C142.469 60.48 140.949 59.92 139.765 58.8C138.581 57.68 137.989 56.32 137.989 54.72C137.989 53.088 138.581 51.744 139.765 50.688C140.949 49.6 142.469 49.056 144.325 49.056C146.181 49.056 147.701 49.6 148.885 50.688C150.069 51.744 150.661 53.088 150.661 54.72C150.661 56.32 150.069 57.68 148.885 58.8C147.701 59.92 146.181 60.48 144.325 60.48Z" fill="black"/>
</g>
<defs>
<clipPath id="clip0_1036_1036">
<rect width="158" height="66" fill="white"/>
</clipPath>
</defs>
</svg>
