<svg width="150" height="56" viewBox="0 0 150 56" fill="none" xmlns="http://www.w3.org/2000/svg">
<path fill-rule="evenodd" clip-rule="evenodd" d="M13.0521 32.4238C11.5242 33.2113 10.2149 34.3649 9.24121 35.7814C10.3392 44.1037 17.4412 50.5336 26.0541 50.5746H26.0614C34.674 50.5336 41.7761 44.1037 42.874 35.7814C41.9003 34.3649 40.5911 33.2113 39.0631 32.4238C39.0937 32.7893 39.1087 33.1585 39.1081 33.5314C39.1081 40.7551 33.2747 46.6163 26.0626 46.6618H26.0552C18.8417 46.6171 13.0097 40.7563 13.0097 33.5314C13.0097 33.1581 13.0247 32.7889 13.0547 32.4238H13.0521Z" fill="white"/>
<path fill-rule="evenodd" clip-rule="evenodd" d="M26.0472 4L2.65723 16.6508L9.53004 20.3692C9.01048 21.3339 8.66071 23.1614 8.66071 25.2648V26.0005C8.66071 29.115 9.42703 31.6231 10.377 31.6231H10.4172C12.0302 28.7873 15.0791 26.8749 18.5753 26.8749C21.6281 26.8749 24.3408 28.3334 26.0548 30.5908V30.6007C26.0555 30.599 26.0562 30.5973 26.0571 30.5956C26.0588 30.5976 26.0608 30.5987 26.0622 30.6007V30.5908C27.7762 28.3334 30.4886 26.8749 33.5414 26.8749C37.0377 26.8749 40.0854 28.7873 41.6998 31.6231H41.7397C42.6897 31.6231 43.4563 29.115 43.4563 26.0005V25.2648C43.4563 23.1611 43.1063 21.3336 42.5867 20.3692L49.4598 16.6508L26.0693 4L26.0568 4.00481L26.0472 4Z" fill="white"/>
<path d="M81.9901 33.486C81.9901 35.4016 81.6603 37.2232 81.0007 38.9507C80.3726 40.6779 79.4776 42.201 78.3157 43.52C77.1535 44.8075 75.7717 45.8439 74.1703 46.6291C72.5686 47.3828 70.8099 47.7597 68.894 47.7599C67.7006 47.7599 66.5857 47.5872 65.5494 47.2418C64.513 46.9276 63.5399 46.4093 62.6301 45.6869V47.1003H55.7969V8H62.6746V21.1906C63.4598 20.5625 64.3865 20.06 65.4548 19.683C66.5618 19.305 67.724 19.1141 68.8937 19.118C70.5579 19.118 72.1753 19.4948 73.7459 20.2485C75.3161 20.9707 76.7136 21.9756 77.9386 23.2633C79.1635 24.5511 80.1366 26.0743 80.8579 27.8331C81.6127 29.5603 81.9901 31.4446 81.9901 33.486ZM75.1124 33.486C75.1124 32.2296 74.924 31.0827 74.547 30.0455C74.1701 29.0082 73.6361 28.1289 72.9452 27.4077C72.2918 26.6581 71.4678 26.0765 70.5427 25.7117C69.6317 25.3035 68.6111 25.0994 67.481 25.0994C66.7585 25.0994 65.9262 25.2563 64.9839 25.5703C64.0419 25.8527 63.2565 26.23 62.6276 26.7022V39.7983C64.1035 41.1488 65.768 41.8241 67.621 41.8241C68.6886 41.8241 69.6779 41.6199 70.5889 41.2117C71.531 40.8035 72.3318 40.2382 72.9914 39.5158C73.6511 38.7621 74.1692 37.8827 74.546 36.8776C74.9227 35.8413 75.1112 34.7108 75.1114 33.486" fill="white"/>
<path d="M113.537 25.0307C113.798 25.4058 114.034 25.7977 114.243 26.2039C114.488 26.6078 114.729 27.0335 114.965 27.4811L97.1367 39.9645C97.7996 40.4675 98.52 40.8897 99.2827 41.2223C100.067 41.5184 100.89 41.6978 101.726 41.7547C102.573 41.786 103.42 41.6963 104.242 41.4881C105.099 41.2333 105.939 40.8176 106.762 40.2412C107.765 39.5385 108.652 38.6687 109.421 37.6319C110.172 36.5691 110.675 35.5078 110.929 34.4478L116.9 35.5005C116.167 37.7388 115.225 39.6249 114.075 41.1587C112.933 42.6484 111.539 43.9697 109.892 45.1226C108.22 46.2934 106.435 47.0834 104.536 47.4928C102.663 47.8841 100.817 47.9305 98.9981 47.6318C97.2048 47.3153 95.5041 46.6659 93.896 45.6836C92.2695 44.675 90.889 43.3604 89.7544 41.7397C88.6198 40.1191 87.8657 38.3851 87.492 36.5379C87.1006 34.6649 87.076 32.8229 87.4179 31.0121C87.7599 29.2012 88.4352 27.4822 89.4437 25.855C90.452 24.2288 91.7794 22.8387 93.4257 21.6846C94.9717 20.5963 96.7173 19.8237 98.5623 19.4111C100.399 18.9683 102.231 18.8741 104.058 19.1285C105.884 19.3829 107.624 20.0052 109.276 20.9955C110.91 21.9602 112.33 23.304 113.537 25.0268V25.0307ZM106.197 26.9459C104.769 25.8373 103.192 25.2548 101.465 25.1985C99.7463 25.0982 98.1795 25.5435 96.7648 26.5344C95.3747 27.5075 94.4332 28.8186 93.9404 30.4675C93.4284 32.0909 93.4493 33.7633 94.003 35.4845L106.197 26.9459Z" fill="white"/>
<path d="M147.132 47.1006H140.348V30.8482C140.348 29.8751 140.191 29.0271 139.877 28.3042C139.595 27.5506 139.202 26.9381 138.699 26.4668C138.211 25.9737 137.614 25.6025 136.956 25.3836C136.327 25.132 135.655 25.004 134.978 25.0065C133.931 25.0085 132.894 25.2 131.916 25.5719C130.911 25.9174 130 26.4827 129.183 27.2679V47.1006H122.353V19.8717H129.185V21.8975C129.593 21.4892 130.096 21.1124 130.692 20.7669C131.277 20.4272 131.892 20.1433 132.529 19.9189C133.171 19.6729 133.833 19.4837 134.508 19.3535C135.161 19.2316 135.823 19.1685 136.487 19.1651C137.834 19.1596 139.172 19.3829 140.444 19.8255C141.706 20.2501 142.863 20.9408 143.835 21.8509C144.84 22.7617 145.641 23.9394 146.238 25.3843C146.835 26.8291 147.133 28.5407 147.133 30.5191V47.1013" fill="white"/>
</svg>
