<svg width="60" height="60" viewBox="0 0 60 60" fill="none" xmlns="http://www.w3.org/2000/svg">
<rect width="60" height="60" rx="30" fill="#2F2F2F"/>
<path d="M29.9996 29.0313C26.1583 29.0313 22.7162 25.6591 17.5038 20.1053C17.0103 19.5794 16.7545 18.8952 16.7835 18.1786C16.8125 17.461 17.1233 16.7986 17.6587 16.3132C18.753 15.3213 20.4646 15.3899 21.474 16.4655C23.8401 18.9866 28.2444 23.6794 29.9996 23.6794C31.7549 23.6794 36.1592 18.9867 38.5253 16.4655C39.5348 15.3899 41.2462 15.3215 42.3404 16.3131C42.876 16.7986 43.1869 17.461 43.2158 18.1786C43.2448 18.8952 42.9889 19.5794 42.4955 20.1053C37.2831 25.6591 33.8409 29.0313 29.9996 29.0313ZM19.489 17.3663C19.2565 17.3663 19.0234 17.4488 18.8393 17.6156C18.656 17.7817 18.5497 18.0069 18.5399 18.2496C18.5301 18.4913 18.6174 18.7233 18.7856 18.9024C23.674 24.111 26.8682 27.2736 29.9998 27.2736C33.1314 27.2736 36.3254 24.1111 41.2139 18.9024C41.3821 18.7233 41.4694 18.4913 41.4596 18.2496C41.4498 18.0069 41.3435 17.7818 41.1601 17.6156C40.7717 17.2637 40.1648 17.2874 39.8072 17.6685C34.9714 22.821 32.1268 25.4372 29.9998 25.4372C27.8727 25.4372 25.0281 22.821 20.1923 17.6686C20.0041 17.4681 19.7469 17.3663 19.489 17.3663Z" fill="white"/>
<path d="M40.2044 44.3905C39.3286 44.3905 38.9203 43.9552 38.5253 43.5343C36.1591 41.0132 31.7548 36.3205 29.9996 36.3205C28.2445 36.3205 23.84 41.0131 21.474 43.5343C20.4646 44.61 18.7531 44.6784 17.6589 43.6868C17.1233 43.2011 16.8124 42.5387 16.7835 41.8211C16.7545 41.1045 17.0103 40.4203 17.5038 39.8946C22.7163 34.3407 26.1585 30.9685 29.9996 30.9685C33.8408 30.9685 37.283 34.3407 42.4955 39.8946C44.2731 41.843 42.5482 44.5513 40.2051 44.3905C40.2048 44.3905 40.2046 44.3905 40.2044 44.3905ZM29.9995 32.7264C26.868 32.7264 23.6739 35.889 18.7854 41.0976C18.6172 41.2768 18.5299 41.5086 18.5396 41.7503C18.5495 41.993 18.6559 42.2183 18.8392 42.3845C19.2274 42.7364 19.8344 42.7126 20.192 42.3315C25.0278 37.179 27.8724 34.5628 29.9994 34.5628C32.1264 34.5628 34.9653 37.1843 39.8068 42.3314C40.6635 43.242 41.8962 41.8948 41.2135 41.0975C36.3252 35.889 33.131 32.7264 29.9995 32.7264Z" fill="white"/>
</svg>
