<svg id="visual" viewBox="0 0 900 600" width="900" height="600" xmlns="http://www.w3.org/2000/svg" xmlns:xlink="http://www.w3.org/1999/xlink" version="1.1"><rect x="0" y="0" width="900" height="600" fill="#FF872A"></rect><defs><linearGradient id="grad1_0" x1="33.3%" y1="100%" x2="100%" y2="0%"><stop offset="20%" stop-color="#eb995a" stop-opacity="1"></stop><stop offset="80%" stop-color="#eb995a" stop-opacity="1"></stop></linearGradient></defs><defs><linearGradient id="grad1_1" x1="33.3%" y1="100%" x2="100%" y2="0%"><stop offset="20%" stop-color="#eb995a" stop-opacity="1"></stop><stop offset="80%" stop-color="#ff872a" stop-opacity="1"></stop></linearGradient></defs><defs><linearGradient id="grad2_0" x1="0%" y1="100%" x2="66.7%" y2="0%"><stop offset="20%" stop-color="#eb995a" stop-opacity="1"></stop><stop offset="80%" stop-color="#eb995a" stop-opacity="1"></stop></linearGradient></defs><defs><linearGradient id="grad2_1" x1="0%" y1="100%" x2="66.7%" y2="0%"><stop offset="20%" stop-color="#ff872a" stop-opacity="1"></stop><stop offset="80%" stop-color="#eb995a" stop-opacity="1"></stop></linearGradient></defs><g transform="translate(900, 600)"><path d="M-351.5 0C-342.8 -62.3 -334.1 -124.6 -304.4 -175.8C-274.8 -226.9 -224.2 -267 -170 -294.4C-115.8 -321.9 -57.9 -336.7 0 -351.5L0 0Z" fill="#f59043"></path><path d="M-175.8 0C-171.4 -31.1 -167 -62.3 -152.2 -87.9C-137.4 -113.5 -112.1 -133.5 -85 -147.2C-57.9 -160.9 -28.9 -168.4 0 -175.8L0 0Z" fill="#eb995a"></path></g><g transform="translate(0, 0)"><path d="M351.5 0C338.1 58.7 324.7 117.4 297 171.5C269.4 225.6 227.6 275.2 175.8 304.4C123.9 333.7 62 342.6 0 351.5L0 0Z" fill="#f59043"></path><path d="M175.8 0C169.1 29.3 162.3 58.7 148.5 85.7C134.7 112.8 113.8 137.6 87.9 152.2C62 166.8 31 171.3 0 175.8L0 0Z" fill="#eb995a"></path></g></svg>